<svg width="60" height="60" viewBox="0 0 60 60" fill="none" xmlns="http://www.w3.org/2000/svg">
<path d="M0 2.5H25L0 57.5V2.5Z" fill="#E83628"/>
<path d="M33.75 57.5H45L30 22.5L18.75 47.5H30L33.75 57.5Z" fill="#E83628"/>
<path d="M35 2.5L60 57.5V2.5H35Z" fill="#E83628"/>
<path d="M0 2.5H25L0 57.5V2.5Z" fill="url(#paint0_linear)"/>
<path d="M33.75 57.5H45L30 22.5L18.75 47.5H30L33.75 57.5Z" fill="url(#paint1_linear)"/>
<path d="M35 2.5L60 57.5V2.5H35Z" fill="url(#paint2_linear)"/>
<path d="M0 2.5V57.5L25 2.5H0ZM18.75 47.5H30L33.75 57.5H45L30 22.5L18.75 47.5ZM35 2.5L60 57.5V2.5H35Z" fill="url(#paint3_linear)"/>
<defs>
<linearGradient id="paint0_linear" x1="-8.30053" y1="20.3006" x2="12.7657" y2="30.1239" gradientUnits="userSpaceOnUse">
<stop stop-color="white" stop-opacity="0.1"/>
<stop offset="1" stop-color="white" stop-opacity="0"/>
</linearGradient>
<linearGradient id="paint1_linear" x1="20.9375" y1="31.5625" x2="45.9375" y2="56.5625" gradientUnits="userSpaceOnUse">
<stop stop-opacity="0"/>
<stop offset="1" stop-opacity="0.1"/>
</linearGradient>
<linearGradient id="paint2_linear" x1="33.75" y1="3.75" x2="73.75" y2="43.75" gradientUnits="userSpaceOnUse">
<stop stop-opacity="0"/>
<stop offset="1" stop-opacity="0.1"/>
</linearGradient>
<linearGradient id="paint3_linear" x1="-5.17493" y1="13.5977" x2="65.1749" y2="46.4023" gradientUnits="userSpaceOnUse">
<stop stop-color="white" stop-opacity="0.1"/>
<stop offset="1" stop-color="white" stop-opacity="0"/>
</linearGradient>
</defs>
</svg>
