<svg width="60" height="60" viewBox="0 0 60 60" fill="none" xmlns="http://www.w3.org/2000/svg">
<g clip-path="url(#clip0)">
<path d="M45.0078 31.25C45.0078 25.8713 48.104 21.2265 52.6049 18.967C48.587 15.204 43.4246 15 42.5074 15C40.0691 15 38.3293 15.6604 36.6481 16.2988C35.0193 16.9177 33.4809 17.5012 31.2551 17.5012C29.0294 17.5012 27.491 16.9177 25.8622 16.2988C24.181 15.6604 22.4412 15 20.0029 15C18.467 15 5 15.4907 5 32.5012C5 46.4111 14.4928 60 20.0029 60C23.3764 60 25.3165 59.2114 27.0295 58.5156C28.3676 57.9724 29.5251 57.5024 31.2551 57.5024C32.9852 57.5024 34.1427 57.9724 35.4808 58.5168C37.1938 59.2114 39.1339 60 42.5061 60C46.3664 60 51.8636 53.3224 55 44.5456C49.0792 43.0118 45.0078 37.6492 45.0078 31.25Z" fill="#1A1A1A"/>
<path d="M30.0056 15C37.3297 13.5 42.5797 7.46279 42.5066 0C35.1825 1.5 29.9326 7.53721 30.0056 15Z" fill="#1A1A1A"/>
<path opacity="0.1" d="M20.0029 15.625C22.4412 15.625 24.181 16.2854 25.8622 16.9238C27.491 17.5427 29.0294 18.1262 31.2551 18.1262C33.4809 18.1262 35.0193 17.5427 36.6481 16.9238C38.3293 16.2854 40.0691 15.625 42.5074 15.625C43.3915 15.625 48.2118 15.8472 52.1577 19.2311C52.3097 19.1475 52.4495 19.045 52.6049 18.967C48.587 15.204 43.4246 15 42.5074 15C40.0691 15 38.3293 15.6604 36.6481 16.2988C35.0193 16.9177 33.4809 17.5012 31.2551 17.5012C29.0294 17.5012 27.491 16.9177 25.8622 16.2988C24.181 15.6604 22.4412 15 20.0029 15C18.467 15 5 15.4907 5 32.5012C5 32.616 5.01297 32.7298 5.01419 32.8444C5.17047 16.1261 18.476 15.625 20.0029 15.625Z" fill="white"/>
<path opacity="0.2" d="M42.5061 59.3748C39.1339 59.3748 37.1938 58.5863 35.4808 57.8917C34.1427 57.3473 32.9852 56.8773 31.2551 56.8773C29.5251 56.8773 28.3676 57.3473 27.0295 57.8905C25.3165 58.5863 23.3764 59.3748 20.0029 59.3748C14.5383 59.3748 5.16864 46.0081 5.01419 32.2192C5.01328 32.318 5 32.4011 5 32.5011C5 46.411 14.4928 59.9998 20.0029 59.9998C23.3764 59.9998 25.3165 59.2113 27.0295 58.5155C28.3676 57.9723 29.5251 57.5023 31.2551 57.5023C32.9852 57.5023 34.1427 57.9723 35.4808 58.5167C37.1938 59.2113 39.1339 59.9998 42.5061 59.9998C46.3664 59.9998 51.8636 53.3223 55 44.5454C54.9274 44.5267 54.8617 44.4919 54.7895 44.4719C51.6108 52.9724 46.2843 59.3748 42.5061 59.3748Z" fill="black"/>
<path opacity="0.2" d="M42.4488 1.10562C41.9328 7.93347 36.8718 12.9405 30.0133 14.3673C30.0064 14.5837 30.0036 14.7812 30.0057 15.0002C37.111 13.5449 42.2646 7.80624 42.4994 0.651855C42.4777 0.768748 42.4859 0.965728 42.4488 1.10562Z" fill="black"/>
<path opacity="0.1" d="M30.0132 14.3356C30.0423 14.1726 30.0785 13.7194 30.1143 13.4453C30.1403 13.101 30.1777 12.7625 30.2262 12.4299C31.1399 6.16568 35.9847 2.00691 42.4994 0.651703C42.5063 0.435333 42.5087 0.218964 42.5066 0C35.399 1.45554 30.2451 7.17782 30.0132 14.3356Z" fill="white"/>
<path d="M45.0078 31.25C45.0078 25.8713 48.104 21.2265 52.6049 18.967C48.587 15.204 43.4246 15 42.5074 15C40.0691 15 38.3293 15.6604 36.6481 16.2988C35.0193 16.9177 33.4809 17.5012 31.2551 17.5012C29.0294 17.5012 27.491 16.9177 25.8622 16.2988C24.181 15.6604 22.4412 15 20.0029 15C18.467 15 5 15.4907 5 32.5012C5 46.4111 14.4928 60 20.0029 60C23.3764 60 25.3165 59.2114 27.0295 58.5156C28.3676 57.9724 29.5251 57.5024 31.2551 57.5024C32.9852 57.5024 34.1427 57.9724 35.4808 58.5168C37.1938 59.2114 39.1339 60 42.5061 60C46.3664 60 51.8636 53.3224 55 44.5456C49.0792 43.0118 45.0078 37.6492 45.0078 31.25ZM42.5066 0C35.1825 1.49994 29.9326 7.53723 30.0057 15C37.3298 13.4999 42.5797 7.46277 42.5066 0Z" fill="url(#paint0_linear)"/>
</g>
<defs>
<linearGradient id="paint0_linear" x1="8.49991" y1="19.6051" x2="56.421" y2="41.9511" gradientUnits="userSpaceOnUse">
<stop stop-color="white" stop-opacity="0.2"/>
<stop offset="1" stop-color="white" stop-opacity="0"/>
</linearGradient>
<clipPath id="clip0">
<rect width="60" height="60" fill="white"/>
</clipPath>
</defs>
</svg>
