<svg width="100" height="125" viewBox="0 0 100 125" fill="none" xmlns="http://www.w3.org/2000/svg">
<path fill-rule="evenodd" clip-rule="evenodd" d="M50.3 11.4C50.3 11.6 50.3 11.8 50.3 12C50.4 12.2 50.6 12.3 50.6 12.7C50.6 13 50.5 13.2 50.5 13.4C50.4 14.1 50.6 14.8 50.3 15.1C50.4 15.3 50.4 15.4 50.4 15.8V16C50.5 16.1 50.4 16.1 50.4 16.4C50.4 16.6 50.3 16.8 50.4 17.1C50.4 17.1 50.6 17.4 50.5 17.5C50.4 17.6 50.5 17.5 50.5 17.7C50.5 18 50.5 18.3 50.5 18.6C50.5 19.1 50.5 19.6 50.6 20.1C50.6 20.5 50.6 21.2 50.6 21.8C50.6 21.9 50.6 21.9 50.6 22L50.7 22.1C50.7 22.2 50.6 22.2 50.6 22.3C50.6 22.4 50.7 22.5 50.7 22.6C50.7 22.7 50.7 22.8 50.7 22.9C50.7 23.1 50.8 23.3 50.8 23.5C50.8 23.6 50.7 23.6 50.7 23.8C50.7 23.8 50.8 23.8 50.8 23.9C50.8 24 50.7 24.3 50.7 24.4C50.7 24.5 50.7 24.6 50.7 24.7C50.7 24.7 50.5 25 50.6 25.1H50.7C50.7 25.2 50.6 25.2 50.6 25.2C50.6 25.4 50.6 25.5 50.6 25.9C50.6 25.9 50.7 25.9 50.7 26C50.7 26 50.6 26 50.6 26.1C50.6 26.6 50.6 27.1 50.6 27.5C50.6 27.5 50.4 27.5 50.5 27.6C50.6 27.6 50.6 27.7 50.6 27.8C50.5 27.8 50.5 27.9 50.5 28C50.5 28.3 50.2 28.3 50.1 28.4C50.2 28.9 49.8 29 49.9 29.3C49.6 29.3 49.4 29.2 49.4 29.1C49.2 29.2 49.1 29.3 48.9 29.3C48.8 29.3 48.6 29.3 48.5 29.3C48.4 29.3 48.3 29.4 48.1 29.4L48 29.3C47.9 29.3 47.8 29.4 47.8 29.4C47.7 29.4 47.6 29.3 47.3 29.3C47.3 29.3 47.3 29.4 47.2 29.4C47.2 29.4 47.2 29.3 47.1 29.3C46.9 29.3 46.6 29.3 46.4 29.3C46.1 29.1 45.9 28.9 45.6 28.7C45.5 28.6 45.4 28.4 45.3 28.3C45.2 28.2 45.1 28.3 45 28.2C45 28.1 45 28 44.9 28C45 27.9 44.8 27.7 44.8 27.7C44.8 27.4 44.9 27.2 45 26.9C45 26.8 45 26.8 45 26.7C45 26.7 44.9 26.5 44.9 26.4C45 26.3 45 26.2 45 25.9C45 25.7 45.1 25.5 45.1 25.4L45 25.3C45.1 25.2 45.1 25.2 45.1 25C45.1 24.9 45.2 24.8 45.2 24.7C45.2 24.7 45.1 24.7 45.1 24.6C45.1 24.6 45.1 23.5 45.2 23.4C45.4 23.3 45 23.2 45.2 23C45.3 22.9 45.3 22.8 45.2 22.5C45.2 22.4 45.2 22.3 45.2 22.2C45.2 22.1 45.1 22.1 45.1 22C45.1 22 45.2 21.9 45.2 21.8V21.6C45.1 21.5 45.2 21.6 45.2 21.4C45.2 21.4 45.1 21.4 45.1 21.3C45.1 21.1 45.2 21.1 45.2 21C45.2 21 45.1 21 45.1 20.9C45.1 20.8 45.2 20.8 45.2 20.6C45.2 20.5 45.1 20.5 45.1 20.4C45.1 19.8 45.2 19.4 45.1 18.8C45.1 18.7 45.1 18.7 45.1 18.6L45 18.5C45 18.4 45.1 18.4 45.1 18.3L45 18.2C45 18.1 45 17.9 45 17.7C45 17.4 44.8 16.9 45.1 16.4C44.8 16.2 45.1 15.9 45.1 15.5L45 15.4C45 15.3 45 15.1 45 14.8C45 14.5 44.9 14.2 45 13.7C45 13.7 45.2 13.7 45.1 13.6C45 13.5 45 13.5 45 13.3C45 12.9 44.9 12.6 45 12.4C45 12.3 45 12 45.3 12C45.3 11.7 45.4 11.4 45.5 11.2C45.6 11.2 45.7 11.2 45.8 11.2C45.9 11.2 46 11.1 46.1 11C46.3 10.9 47 10.8 47.5 10.8C47.5 10.8 47.5 10.7 47.6 10.7C47.6 10.7 47.6 10.8 47.7 10.8C47.9 10.8 47.9 10.8 48.2 10.7C48.4 10.7 48.5 10.6 48.8 10.7C48.9 10.7 49.3 10.9 49.5 11C49.5 11 49.7 11.1 49.8 11.1C49.9 11.2 50.1 11.3 50.3 11.4Z" fill="#231F20"/>
<path fill-rule="evenodd" clip-rule="evenodd" d="M73.9 15.2001C74 15.5001 73.7 15.3001 73.6 15.5001V15.7001C73.5 15.8001 73.5 16.1001 73.3 16.1001C73.3 16.5001 73.1 16.7001 73.1 17.1001C73 17.1001 72.9 17.1001 72.7 17.1001C72.7 17.4001 72.6 17.5001 72.5 17.7001C72.4 17.9001 72.4 17.8001 72.3 18.1001C72.3 18.2001 72.2 18.2001 72.2 18.2001C72.1 18.4001 72.1 18.6001 72.1 18.8001C72.1 18.8001 72 18.8001 72 18.9001C71.9 19.0001 72 19.0001 72 19.3001C71.8 19.4001 71.8 19.6001 71.7 19.8001C71.5 20.2001 71.4 20.5001 71.2 21.1001C71.2 21.2001 71.1 21.3001 71 21.5001C71 21.6001 71 21.6001 71 21.7001C71 21.8001 70.9 21.9001 70.9 22.0001C70.9 22.1001 70.8 22.2001 70.8 22.3001C70.8 22.4001 70.7 22.5001 70.7 22.6001C70.7 22.7001 70.6 22.8001 70.6 22.9001C70.6 23.0001 70.5 23.1001 70.5 23.2001C70.5 23.3001 70.4 23.3001 70.4 23.3001C70.3 23.6001 70.3 23.8001 70.2 24.0001C70.1 24.1001 70.1 24.2001 70 24.3001C69.9 24.4001 69.9 24.7001 69.6 24.6001C69.8 24.9001 69.4 25.2001 69.6 25.5001C69.7 25.8001 69.4 25.7001 69.4 25.9001C69.4 26.1001 69.1 26.6001 69 26.9001C68.9 27.1001 68.8 27.3001 68.8 27.5001C68.8 27.5001 68.8 27.6001 68.8 27.7001C68.8 27.7001 68.6 27.7001 68.6 27.8001C68.6 27.8001 68.6 27.9001 68.6 28.0001L68.5 28.3001C68.4 28.4001 68.4 28.6001 68.3 28.8001C68.2 28.9001 68.1 29.0001 68.1 29.2001C68 29.6001 68 30.1001 67.8 30.4001V30.6001C67.7 30.7001 67.6 30.8001 67.5 31.0001C67.4 31.1001 67.1 31.5001 67.1 31.8001C66.9 31.7001 66.9 32.0001 66.8 32.0001C66.7 32.0001 66.5 31.8001 66.5 32.0001C66.4 32.0001 66.3 31.9001 66.2 32.0001V32.2001C66.1 32.2001 65.8 32.1001 65.8 32.3001C65.1 31.9001 64.1 32.2001 63.4 31.9001L63.3 31.8001C63.3 31.8001 63.1 31.7001 63 31.7001V31.6001C62.9 31.6001 62.8 31.5001 62.7 31.5001C62.5 31.3001 62.2 30.9001 62.1 30.6001C62 30.4001 61.9 30.4001 61.9 30.1001C61.9 30.1001 62.1 30.1001 62 30.0001C61.9 29.9001 61.9 29.8001 62 29.5001V29.3001H62.1V29.1001C62.3 29.0001 62.3 28.6001 62.4 28.3001C62.4 28.3001 62.5 28.3001 62.5 28.2001C62.5 27.9001 62.6 28.0001 62.7 27.7001V27.5001C62.8 27.4001 62.9 27.1001 63 26.9001L63.1 26.8001C63.2 26.6001 63.2 26.5001 63.2 26.3001C63.3 26.1001 63.5 25.9001 63.6 25.6001C63.7 25.4001 63.8 25.1001 63.9 24.9001V24.7001H64V24.5001C64.1 24.4001 64.2 24.0001 64.5 23.9001C64.4 23.5001 64.7 23.1001 64.9 22.8001V22.6001C65 22.5001 65.1 22.2001 65.2 22.0001C65.2 22.0001 65.3 22.0001 65.3 21.9001C65.3 21.5001 65.5 21.1001 65.7 20.8001L65.8 20.7001C65.9 20.5001 65.9 20.3001 65.9 20.1001C66 19.9001 66.1 19.6001 66.2 19.4001V19.2001H66.3C66.4 18.9001 66.5 18.5001 66.6 18.2001C66.6 18.2001 66.7 18.2001 66.7 18.1001C66.8 17.9001 66.8 17.9001 66.8 17.7001C66.9 17.5001 66.9 17.3001 66.9 17.2001C66.9 17.1001 67.1 17.2001 67.1 17.0001C67.1 17.0001 67 16.9001 67 16.8001C67 16.8001 67.1 16.8001 67.1 16.7001C67.1 16.5001 67.3 16.4001 67.4 16.2001C67.5 16.0001 67.4 15.6001 67.7 15.6001C67.7 15.2001 67.8 15.0001 67.9 14.8001C68 14.6001 68.2 14.3001 68.3 14.0001C68.6 13.8001 69 13.6001 69.3 13.4001C69.4 13.4001 69.5 13.4001 69.6 13.4001L69.7 13.3001C69.8 13.3001 69.8 13.4001 69.9 13.4001C70 13.4001 70.2 13.3001 70.4 13.2001C70.4 13.2001 70.5 13.3001 70.6 13.3001C70.6 13.3001 70.6 13.2001 70.7 13.2001C71 13.2001 71.1 13.3001 71.2 13.3001C71.3 13.3001 71.4 13.3001 71.5 13.2001C71.6 13.2001 71.6 13.1001 71.7 13.1001C71.9 13.1001 71.9 13.3001 72.1 13.4001C72.8 13.4001 72.7 14.1001 73.3 14.2001C73.2 14.4001 73.4 14.4001 73.4 14.5001C73.8 14.5001 73.9 14.8001 73.9 15.2001Z" fill="#231F20"/>
<path fill-rule="evenodd" clip-rule="evenodd" d="M27.8 16.3001C28 16.2001 28.2 16.4001 28.4 16.5001C28.6 16.6001 28.9 17.5001 29.2 17.8001C29.2 17.8001 29.2 18.0001 29.3 18.0001H29.4C29.5 18.1001 29.4 18.1001 29.4 18.2001C29.4 18.4001 29.5 18.3001 29.5 18.4001C29.7 18.7001 29.9 18.9001 30 19.2001C30.1 19.3001 30.1 19.5001 30.3 19.7001C30.4 19.8001 30.5 19.9001 30.6 20.0001C30.8 20.3001 30.9 20.7001 31 21.0001C31.1 21.2001 31.3 21.4001 31.4 21.6001C31.4 21.6001 31.3 21.7001 31.4 21.8001C31.5 22.0001 31.6 21.9001 31.7 22.1001C31.8 22.2001 31.7 22.4001 31.8 22.5001C31.8 22.6001 32 22.6001 32.1 22.8001C32.3 23.2001 32.4 23.8001 32.7 24.1001L32.9 24.2001C33 24.3001 33 24.7001 33.2 24.7001C33.1 25.3001 34 25.5001 33.9 26.2001C34.1 26.3001 34.3 26.6001 34.5 26.8001C34.6 26.9001 34.6 26.9001 34.7 27.0001C34.8 27.1001 35.1 27.3001 35 27.6001C35 27.7001 35.1 27.6001 35.2 27.6001C35.2 27.6001 35.2 27.8001 35.3 27.8001C35.4 27.8001 35.4 27.9001 35.6 28.1001C35.7 28.2001 35.8 28.2001 35.9 28.3001C36 28.4001 36 28.5001 36.1 28.6001C36.1 28.6001 36.2 28.6001 36.2 28.7001C36.3 28.8001 36.5 29.0001 36.6 29.1001C36.6 29.1001 36.7 29.1001 36.7 29.2001C36.7 29.3001 36.9 29.4001 37 29.5001C37.2 29.6001 37.3 30.0001 37.5 30.4001C37.6 30.5001 37.7 30.6001 37.8 30.7001C37.9 30.8001 37.9 31.0001 37.8 31.2001C37.8 31.4001 37.8 31.4001 37.7 31.5001C37.7 31.6001 37.6 31.6001 37.6 31.6001C37.5 31.7001 37.4 31.8001 37.4 31.9001C37.4 32.0001 36.9 32.3001 36.7 32.4001C36.6 32.4001 36.5 32.4001 36.4 32.5001C36.3 32.6001 35.9 32.8001 35.7 32.9001C35.7 32.9001 35.4 33.0001 35.3 33.0001C35.2 32.9001 35.2 33.0001 35 33.1001C34.5 33.2001 33.9 33.2001 33.1 33.3001C33 33.2001 32.8 33.1001 32.7 33.0001C32.5 32.9001 32.4 32.9001 32.3 32.8001C32.3 32.8001 32.3 32.6001 32.2 32.6001H32C32 32.6001 32 32.4001 31.9 32.4001H31.8C31.8 32.4001 31.8 32.2001 31.7 32.2001C31.6 32.1001 31.6 31.9001 31.5 31.9001H31.4C31.3 31.8001 31.2 31.6001 31.1 31.4001C31 31.3001 30.9 31.2001 30.8 31.2001C30.6 31.1001 30.8 31.1001 30.7 30.9001C30.7 30.9001 30.6 30.9001 30.6 30.8001C30.5 30.7001 30.5 30.6001 30.4 30.5001L30.5 30.4001H30.3C30.2 30.3001 30.2 30.1001 30.1 30.0001C30.1 30.0001 30 30.0001 30 29.9001V29.8001C29.9 29.7001 29.9 29.5001 29.7 29.3001C29.7 29.3001 29.6 29.3001 29.6 29.2001V29.1001C29.5 29.0001 29.5 28.9001 29.4 28.8001C29.3 28.7001 29.3 28.6001 29.2 28.5001C29.2 28.4001 29.1 28.4001 29.1 28.4001C29 28.2001 29 27.9001 28.7 27.7001C28.8 27.4001 28.7 27.3001 28.6 27.1001C28.6 27.0001 28.4 26.8001 28.4 26.8001C28.3 26.7001 28.4 26.8001 28.3 26.6001C28.3 26.6001 28.2 26.6001 28.2 26.5001C28.1 26.3001 27.9 25.8001 27.8 25.6001C27.7 25.5001 27.6 25.3001 27.5 25.2001C27.3 24.9001 27.3 24.8001 27.1 24.5001C27.1 24.5001 27.1 24.3001 27 24.3001H26.9C26.8 24.1001 26.8 24.0001 26.7 23.9001C26.5 23.6001 26.4 23.2001 26.2 22.9001C26.2 22.8001 26.1 22.8001 26 22.7001C25.9 22.4001 25.6 21.9001 25.3 21.5001C25.2 21.4001 25.1 21.1001 24.9 21.1001C24.9 20.8001 24.7 20.5001 24.6 20.3001C24.3 19.9001 23.9 19.8001 23.7 19.1001C23.7 19.0001 23.6 19.0001 23.6 18.9001C23.6 18.8001 23.7 18.8001 23.7 18.8001C23.7 18.7001 23.6 18.3001 23.6 18.1001C23.6 18.0001 23.9 17.6001 24 17.4001C24.1 17.2001 24.1 17.0001 24.2 16.8001C24.2 16.8001 24.4 16.8001 24.4 16.7001C24.4 16.6001 24.6 16.6001 24.7 16.5001C24.7 16.5001 24.7 16.4001 24.8 16.4001C24.8 16.4001 24.8 16.5001 24.9 16.5001C25 16.5001 25 16.5001 25.1 16.4001C25.2 16.4001 25.2 16.2001 25.3 16.2001C25.4 16.2001 25.5 16.2001 25.8 16.0001C25.9 16.0001 26.3 15.7001 26.5 15.6001C26.7 15.8001 27.6 15.9001 27.8 16.3001Z" fill="#231F20"/>
<path fill-rule="evenodd" clip-rule="evenodd" d="M25.7 40.8999C25.8 41.1999 25.7 41.2999 25.6 41.5999C25.7 41.8999 25.8 42.0999 25.7 42.4999C25.6 42.8999 25 42.7999 24.8 43.1999C24.5 43.0999 24.2 43.2999 23.9 43.2999C23.7 43.2999 23.6 43.2999 23.4 43.3999C23.3 43.3999 23.2 43.4999 23 43.5999C22.9 43.5999 22.7 43.5999 22.6 43.5999C22.5 43.5999 22.5 43.6999 22.3 43.6999C22.2 43.6999 22.1 43.5999 21.8 43.5999C21.8 43.5999 21.8 43.4999 21.7 43.4999C21.6 43.4999 21.5 43.5999 21.4 43.5999C21.3 43.5999 21.1 43.3999 21 43.3999C20.7 43.2999 20.5 43.2999 20.2 43.1999C20.2 43.1999 20.2 43.0999 20.1 43.0999C20 43.0999 19.6 42.8999 19.5 42.8999C19.4 42.8999 19.3 42.7999 19.1 42.7999C18.9 42.6999 18.8 42.6999 18.6 42.5999C18.2 42.3999 17.9 42.1999 17.5 42.0999H17.3C17.3 41.9999 17 41.8999 16.9 41.7999C16.6 41.6999 16.4 41.4999 16.1 41.3999C16 41.2999 15.8 41.2999 15.6 41.1999C15.6 41.1999 15.6 41.0999 15.5 41.0999C15.5 41.0999 15.3 40.9999 15.2 40.9999C15.1 40.9999 15.1 40.7999 15 40.7999H14.8C14.7 40.6999 14.7 40.6999 14.6 40.5999H14.4C14.3 40.4999 14.2 40.3999 14 40.2999C14 40.2999 13.9 40.0999 13.8 40.0999C13.7 40.0999 13.6 40.0999 13.5 40.0999C13.4 40.0999 13.4 39.9999 13.3 39.8999C13.3 39.8999 13 39.7999 12.9 39.7999V39.6999H12.7C12.6 39.5999 12.6 39.5999 12.5 39.5999L12.2 39.4999C12.1 39.3999 12 39.2999 11.9 39.2999H11.7C11.6 39.1999 11.2 38.8999 10.9 38.7999C10.6 38.5999 10.3 38.4999 10 38.3999C9.8 38.2999 9.6 38.1999 9.4 38.0999H9.2C9.1 37.9999 9.1 37.9999 9 37.9999L8.7 37.8999V37.7999C8.6 37.6999 8.4 37.6999 8.2 37.6999C8.2 37.6999 8.1 37.4999 8 37.4999C7.9 37.4999 7.8 37.4999 7.7 37.4999C7.7 37.4999 7.7 37.3999 7.6 37.3999C7.5 37.3999 7.4 37.3999 7.2 37.3999C7 37.1999 7 36.9999 6.8 36.7999C6.6 36.7999 6.5 36.5999 6.3 36.6999C7 35.8999 6.7 35.9999 6.6 35.8999C6.5 35.7999 6.6 35.6999 6.5 35.5999H6.3C6.2 35.4999 6.1 35.3999 5.9 35.2999C6.1 35.1999 5.6 34.6999 5.9 34.5999C6 34.4999 6 34.4999 6.1 34.3999C6.2 34.2999 6.3 34.1999 6.3 34.0999C6.4 33.8999 6.4 33.9999 6.6 33.6999C6.6 33.4999 6.8 33.4999 6.7 33.1999C6.9 33.1999 7.1 33.1999 7.3 33.0999C7.5 32.9999 8.3 33.0999 8.8 32.9999C9 32.9999 9.2 32.8999 9.4 32.8999C9.5 32.8999 9.7 32.7999 9.7 32.8999C10.2 32.8999 10.3 33.0999 10.8 33.0999C10.9 33.0999 11 33.2999 11.1 33.3999H11.3V33.4999H11.5V33.5999C11.8 33.7999 12 33.7999 12.3 33.8999C12.4 33.8999 12.3 34.0999 12.4 34.0999H12.6V34.1999H12.8V34.2999H13C13.1 34.3999 13.2 34.3999 13.5 34.4999C13.5 34.4999 13.5 34.5999 13.6 34.5999C13.7 34.5999 13.8 34.6999 13.8 34.7999C14 34.7999 14.2 34.7999 14.4 34.7999C14.5 34.9999 14.8 35.0999 14.9 35.2999C15 35.1999 15.2 35.3999 15.2 35.3999C15.3 35.3999 15.3 35.2999 15.4 35.2999C15.4 35.2999 15.4 35.4999 15.5 35.4999C15.6 35.4999 15.7 35.4999 15.8 35.4999C15.8 35.4999 15.8 35.5999 15.9 35.5999C16 35.5999 16.2 35.8999 16.6 35.7999C16.6 35.9999 16.8 35.8999 17 35.9999C17 35.9999 17 36.1999 17.1 36.1999H17.3C17.4 36.2999 17.7 36.2999 17.9 36.3999C17.9 36.3999 17.9 36.4999 18 36.4999C18 36.4999 18.1 36.5999 18.2 36.5999C18.4 36.6999 18.7 36.8999 18.8 37.0999C19.1 36.9999 19.1 37.0999 19.4 37.0999C19.5 37.1999 19.6 37.2999 19.8 37.3999C20 37.4999 20.3 37.4999 20.5 37.5999C20.5 37.5999 20.5 37.6999 20.6 37.6999C20.7 37.6999 21.1 37.8999 21.3 37.9999H21.5V38.0999H21.7C21.8 38.2999 21.8 38.1999 22.2 38.2999H22.4C22.4 38.3999 22.6 38.4999 22.8 38.5999C23.1 38.4999 23.4 38.7999 23.6 38.7999C23.8 38.8999 23.8 38.7999 24.1 38.8999C24.3 38.9999 24.5 39.0999 24.6 39.1999C24.8 39.2999 25 39.2999 25.1 39.3999C25.1 39.3999 25.1 39.4999 25.2 39.4999C25.4 39.4999 25.3 39.8999 25.6 39.8999C25.7 39.9999 25.8 40.0999 26 40.0999C25.5 40.7999 25.6 40.8999 25.7 40.8999Z" fill="#231F20"/>
<path fill-rule="evenodd" clip-rule="evenodd" d="M94.2 56.0001C94.3 56.2001 94.4 56.5001 94.3 56.8001C94.6 56.7001 94.4 57.1001 94.5 57.2001H94.7C94.8 57.3001 94.7 57.4001 94.8 57.5001C94.8 57.5001 94.9 57.6001 94.9 57.7001C94.8 58.3001 94.5 58.6001 94.1 58.9001C94 58.9001 94.1 59.0001 94 59.0001C93.8 59.0001 93.9 59.0001 93.8 59.1001C93.7 59.1001 93.5 59.1001 93.4 59.2001C93.2 59.3001 93.2 59.6001 92.9 59.6001C92.9 59.7001 92.8 59.7001 92.7 59.7001C92.6 59.7001 92.3 59.8001 92 59.7001H91.8C91.7 59.8001 91.8 59.7001 91.6 59.7001L91.5 59.9001C91.4 59.9001 91.3 59.9001 91.2 59.9001C90.8 60.0001 90.3 59.9001 89.7 59.9001C89.7 59.9001 89.6 59.8001 89.5 59.8001C89.5 59.8001 89.5 59.9001 89.4 59.9001C89.3 59.9001 89.1 59.9001 88.9 59.9001C88.9 59.9001 88.9 59.7001 88.8 59.8001C88.7 59.9001 88.4 59.9001 88.1 59.8001C88.1 59.8001 88.1 59.7001 88 59.7001C87.9 59.7001 87.6 59.8001 87.6 59.8001C87.5 59.7001 87.5 59.7001 87.4 59.7001C86.9 59.6001 86.4 59.5001 85.8 59.4001C85.5 59.3001 85.2 59.3001 85 59.2001C85 59.2001 85 59.1001 84.9 59.1001C84.7 59.1001 84.4 59.1001 84.2 59.0001C84.2 59.0001 84.2 58.9001 84.1 58.9001C84 58.9001 83.8 58.9001 83.7 58.9001C83.7 58.9001 83.7 58.7001 83.6 58.8001C83.5 58.9001 83.6 58.8001 83.5 58.8001C83.2 58.7001 82.9 58.7001 82.7 58.7001C82.2 58.6001 81.6 58.5001 81.1 58.5001C80.8 58.5001 80.5 58.4001 80.2 58.3001L80.1 58.4001C80 58.4001 79.9 58.4001 79.8 58.4001C79.8 58.4001 79.6 58.2001 79.5 58.3001C79.3 58.4001 79 58.3001 78.7 58.2001C78.4 58.2001 78 58.2001 77.8 58.1001C77.8 58.1001 77.8 58.0001 77.7 58.0001C77.5 58.0001 77.6 57.9001 77.5 57.9001C77.3 57.8001 77 57.6001 76.8 57.5001C76.8 57.5001 76.8 57.4001 76.7 57.4001C76.6 57.4001 76.4 57.2001 76.3 57.1001C76.2 57.0001 76.3 56.9001 76.2 56.8001C76.2 56.7001 76.1 56.7001 76 56.6001C76 56.3001 76.1 55.9001 76.2 55.6001C76.2 55.5001 76.3 55.3001 76.3 55.1001C76.3 55.1001 76.5 55.1001 76.5 55.0001V54.8001C76.7 54.6001 77.1 54.5001 77.6 54.3001C77.8 54.2001 77.9 54.2001 78.1 54.1001C78.3 54.1001 78.4 54.1001 78.6 54.0001C78.7 54.0001 78.7 53.8001 78.8 53.8001C78.9 53.8001 79.1 53.8001 79.2 53.8001C79.5 53.8001 80 53.8001 80.5 53.8001C80.6 53.8001 80.6 53.9001 80.7 53.9001C80.7 53.9001 80.7 53.8001 80.8 53.8001C81 53.8001 81.1 53.8001 81.2 53.7001C81.3 53.6001 81.5 53.8001 81.7 53.8001C81.7 53.8001 81.7 53.7001 81.8 53.7001C82.1 53.7001 82.1 53.8001 82.4 53.8001C82.5 53.8001 82.5 53.8001 82.6 53.8001L82.7 53.9001C82.9 53.9001 83 53.8001 83.4 53.9001C83.9 53.9001 84.4 54.0001 84.9 54.1001C85.2 54.2001 85.5 54.3001 85.8 54.4001C85.8 54.4001 85.8 54.6001 85.9 54.5001C86 54.4001 86.2 54.4001 86.4 54.5001C86.4 54.5001 86.4 54.7001 86.5 54.6001C86.6 54.4001 86.8 54.6001 87.1 54.6001H87.3C87.4 54.5001 87.4 54.6001 87.5 54.6001H87.7C87.8 54.7001 87.7 54.6001 87.9 54.6001C87.9 54.6001 88.6 55.1001 88.8 54.9001C88.9 54.8001 88.9 54.9001 89 54.9001H89.2C89.3 55.1001 89.6 54.9001 90 55.0001C90.1 55.0001 90.1 55.1001 90.2 55.1001C90.4 55.1001 90.5 55.0001 90.9 55.1001C91.4 55.1001 91.8 55.1001 92.3 55.1001C92.4 55.1001 92.4 55.2001 92.4 55.2001C92.5 55.2001 92.6 55.1001 92.9 55.1001C93.2 55.6001 93.6 55.8001 94.2 56.0001Z" fill="#231F20"/>
<path fill-rule="evenodd" clip-rule="evenodd" d="M5.99999 58.5999C6.49999 58.3999 6.89999 58.0999 7.29999 57.7999C7.69999 57.7999 7.99999 57.8999 8.29999 57.8999C8.69999 57.8999 8.89999 57.6999 9.29999 57.5999C9.89999 57.7999 10.4 57.4999 10.9 57.3999C11 57.3999 11.3 57.4999 11.3 57.4999C11.3 57.4999 11.4 57.2999 11.6 57.1999C11.9 57.1999 12.2 57.1999 12.4 57.2999C12.7 57.1999 12.9 57.0999 13.3 57.0999C13.5 57.0999 13.7 57.1999 13.9 57.0999L14 56.8999C14.2 56.7999 14.5 56.8999 14.7 56.8999C15.1 56.7999 15.4 56.6999 15.7 56.5999H15.9V56.4999C16.3 56.3999 16.7 56.4999 17.1 56.3999H17.3V56.1999C17.4 56.1999 17.6 56.2999 17.7 56.1999C17.8 56.1999 17.8 56.0999 17.9 55.9999H18.1C18.2 55.8999 18.3 55.9999 18.7 55.8999C18.7 55.8999 18.7 55.7999 18.8 55.7999C18.8 55.7999 19 55.6999 19.1 55.6999C19.7 55.5999 19.8 55.3999 20.6 55.4999C20.7 55.4999 20.7 55.5999 20.8 55.5999C20.8 55.5999 20.8 55.4999 20.9 55.4999C21 55.4999 21.1 55.5999 21.2 55.5999C21.4 55.5999 21.7 55.6999 21.9 55.6999C22.1 55.7999 22.4 55.9999 22.6 56.0999C22.9 56.2999 23.1 56.3999 23.1 56.5999C23.1 56.6999 23.1 56.6999 23.1 56.7999C23.1 56.8999 23.3 57.2999 23 57.4999C23 57.7999 22.8 57.7999 22.9 58.0999C22.5 58.1999 22.3 58.5999 21.7 58.5999C21.6 58.8999 21.1 58.8999 20.8 58.9999C20.7 58.9999 20.7 59.0999 20.6 59.1999H20.4C20.3 59.2999 20.2 59.2999 19.9 59.3999L19.7 59.5999C19.5 59.6999 19.4 59.5999 19.1 59.6999C19.1 59.6999 19.1 59.7999 19 59.7999C19 59.7999 18.6 59.8999 18.4 59.8999H18.2C18 60.0999 18 59.9999 17.6 60.0999C17.5 60.0999 17.4 60.1999 17.3 60.1999C17 60.1999 16.7 60.2999 16.4 60.2999C16.3 60.2999 16.3 60.2999 16.2 60.2999C16.1 60.2999 16 60.3999 15.8 60.4999C15.7 60.4999 15.7 60.4999 15.6 60.4999C15.5 60.4999 15.5 60.5999 15.5 60.5999C15.1 60.6999 14.8 60.5999 14.4 60.5999C14.2 60.5999 14.2 60.6999 14 60.7999C13.9 60.7999 13.6 60.6999 13.5 60.7999C13.4 60.8999 13.3 60.8999 13 60.9999C12.7 61.0999 12.2 61.0999 11.8 61.1999C11.5 61.1999 11.2 61.1999 10.9 61.1999C10.9 61.1999 10.9 61.2999 10.8 61.2999C10.7 61.2999 10.6 61.3999 10.5 61.3999C10.4 61.3999 10.2 61.2999 10.1 61.3999V61.4999C9.99999 61.4999 9.79999 61.4999 9.59999 61.5999C9.49999 61.5999 9.39999 61.5999 9.19999 61.6999C9.19999 61.6999 9.09999 61.5999 8.99999 61.5999C8.99999 61.5999 8.99999 61.6999 8.89999 61.6999C8.79999 61.6999 8.69999 61.6999 8.39999 61.7999C8.19999 61.7999 7.99999 61.6999 7.79999 61.7999C7.59999 61.7999 7.59999 61.8999 7.39999 61.8999C7.19999 61.8999 7.19999 61.7999 7.09999 61.7999C6.99999 61.7999 6.99999 61.8999 6.99999 61.8999C6.89999 61.8999 6.89999 61.7999 6.89999 61.7999C6.59999 61.7999 6.39999 61.7999 6.19999 61.6999C6.19999 61.6999 6.19999 61.5999 6.09999 61.5999C5.89999 61.5999 5.69999 61.4999 5.59999 61.3999C5.49999 61.3999 5.49999 61.1999 5.39999 61.1999H5.19999C5.09999 61.0999 4.99999 60.9999 4.89999 60.7999C4.89999 60.5999 4.89999 60.2999 4.89999 60.1999C4.99999 60.0999 5.09999 59.9999 5.19999 59.7999C5.29999 59.5999 5.29999 59.4999 5.39999 59.3999C5.39999 59.3999 5.49999 59.3999 5.49999 59.2999C5.89999 58.7999 5.89999 58.7999 5.99999 58.5999Z" fill="#231F20"/>
<path fill-rule="evenodd" clip-rule="evenodd" d="M85.3 77.7999C85.4 78.1999 85.1 78.0999 85 78.1999C85 78.6999 84.8 78.7999 84.8 79.0999C84.5 79.1999 84.3 79.2999 84.1 79.4999C83.9 79.4999 83.7 79.4999 83.5 79.5999C83.3 79.6999 83.1 79.7999 82.9 79.8999C82.8 79.8999 82.9 79.9999 82.8 79.9999C82.5 79.9999 82.7 80.1999 82.4 80.2999C81.9 80.2999 81.6 79.9999 81.2 79.7999C81 79.6999 80.7 79.5999 80.5 79.4999C80.3 79.3999 80.1 79.3999 80 79.2999C80 79.2999 80 79.1999 79.9 79.1999C79.9 79.1999 79.7 79.0999 79.6 79.0999C79.5 79.0999 79.5 78.9999 79.5 78.9999C79.3 78.8999 79 78.7999 78.8 78.6999C78.8 78.6999 78.8 78.5999 78.7 78.5999C78.5 78.5999 78.5 78.3999 78.3 78.3999C78.2 78.3999 78.2 78.3999 78.1 78.3999C78.1 78.3999 78.1 78.1999 78 78.1999C77.8 78.0999 77.6 78.1999 77.4 78.0999C77.4 78.0999 77.4 77.8999 77.3 77.8999C77.1 77.7999 76.9 77.8999 76.7 77.7999C76.6 77.7999 76.6 77.5999 76.5 77.5999H76.3V77.4999H76.1C75.9 77.2999 75.6 77.0999 75.3 76.9999H75.1V76.8999C75.1 76.8999 74.7 76.7999 74.7 76.6999C74.7 76.5999 74.5 76.4999 74.3 76.3999C74.2 76.2999 74 76.2999 73.8 76.1999C73.8 76.1999 73.8 76.0999 73.7 76.0999C73.5 76.0999 73.4 75.6999 73.2 75.6999H73.1C73 75.5999 72.9 75.4999 72.8 75.3999C72.7 75.3999 72.6 75.2999 72.5 75.2999V75.0999H72.4C72.2 74.8999 72 74.6999 71.8 74.4999C71.7 74.3999 71.5 74.3999 71.5 74.2999C71.5 74.2999 71.2 73.9999 71.2 73.8999C71.1 73.7999 70.9 73.7999 70.8 73.6999C70.7 73.1999 70.5 72.7999 70.6 72.3999V72.1999H70.7V71.9999H70.8C70.9 71.8999 70.8 71.6999 70.9 71.5999C71 71.4999 71.1 71.4999 71.2 71.3999C71.4 71.2999 71.4 71.0999 71.7 71.0999H71.9V70.9999C72 70.8999 72.1 70.7999 72.2 70.6999C72.3 70.5999 72.8 70.7999 72.9 70.6999V70.5999H73.1V70.4999C73.3 70.4999 73.3 70.5999 73.5 70.5999C73.5 70.5999 73.5 70.4999 73.6 70.4999C73.7 70.4999 73.7 70.3999 73.8 70.3999C74 70.3999 74 70.4999 74.1 70.4999C74.1 70.4999 74.1 70.3999 74.2 70.3999C74.3 70.3999 74.4 70.4999 74.6 70.4999C74.8 70.4999 74.9 70.4999 75 70.5999C75.1 70.6999 75.2 70.6999 75.4 70.6999C75.5 70.9999 75.9 71.0999 76.1 71.3999C76.2 71.4999 76.2 71.5999 76.3 71.6999C76.4 71.7999 76.5 71.6999 76.7 71.7999C76.8 71.7999 76.8 71.9999 76.9 71.9999C77.1 72.0999 77.3 72.0999 77.3 72.3999C77.6 72.3999 77.8 72.4999 77.9 72.5999C78 72.6999 78.4 72.6999 78.3 72.8999C78.5 72.7999 78.5 72.9999 78.6 72.9999H78.8C78.9 73.0999 78.9 72.9999 79.1 73.0999C79.1 73.0999 79.1 73.2999 79.2 73.2999C79.6 73.4999 80 73.6999 80.5 73.8999H80.7V73.9999H80.9C81 74.0999 81.2 74.0999 81.3 74.1999C81.4 74.2999 81.3 74.2999 81.4 74.3999H81.6C81.6 74.4999 81.8 74.4999 82.1 74.5999C82.1 74.5999 82.1 74.6999 82.2 74.6999C82.3 74.6999 82.4 74.6999 82.5 74.6999C82.7 74.9999 83 74.9999 83.3 75.1999C83.3 75.1999 83.7 75.4999 83.8 75.4999C83.9 75.4999 84.1 75.6999 84.2 75.7999H84.4C84.5 75.8999 84.5 76.0999 84.7 76.1999C84.8 76.2999 84.8 76.4999 84.8 76.7999C85 77.2999 85.3 77.4999 85.3 77.7999Z" fill="#231F20"/>
<path fill-rule="evenodd" clip-rule="evenodd" d="M28 73.5C28 73.9 27.8 74.1 27.7 74.3C27.7 74.5 27.6 74.5 27.6 74.7C27.7 74.8 27.7 75 27.6 75C27.6 75.2 27.5 75.2 27.4 75.3C27.3 75.4 27.3 75.5 27.1 75.5C26.9 75.8 26.7 76 26.5 76.3C26.3 76.4 26.2 76.5 26 76.5C25.8 76.6 25.8 76.8 25.7 76.9C25.4 77 25.2 77.2 24.9 77.4C24.8 77.5 24.8 77.6 24.8 77.9C24.5 77.9 24.4 78.1 24.1 78.1C23.8 78.3 23.6 78.6 23.2 78.7C23.1 78.9 22.9 79.1 22.7 79.2C22.5 79.4 22.4 79.6 22.1 79.6C22.1 79.8 22 80 21.8 80C21.9 80.4 21.6 80.5 21.6 80.8C21.3 80.6 21.3 81 21.2 81.1C21 81.2 20.7 81.2 20.5 81.2L20.4 81.4C20.2 81.5 20.2 81.5 19.9 81.5C19.9 81.7 19.7 81.6 19.7 81.8C19.5 81.9 19.3 81.8 19 81.8C18.9 81.8 18.8 81.9 18.7 82C18.6 82 18.4 81.9 18.2 82C17.8 82.1 17.7 82.3 17.1 82.2C17.1 82.2 16.7 82.1 16.6 82.1V82C16.4 81.9 16.3 81.9 16 81.8C15.9 81.8 15.6 81.5 15.6 81.4V81.2C15.6 81.2 15.5 81.1 15.5 81C15.5 80.9 15.6 80.8 15.6 80.6C15.8 80.2 16.1 79.9 16.2 79.4C16.3 79.4 16.4 79.2 16.5 79.1H16.7C16.8 79 16.7 78.9 16.9 78.9C17.1 78.7 17.3 78.4 17.4 78.2C17.5 78.1 17.7 78.2 17.8 78.1C17.9 78 17.9 77.8 18.1 77.8C18.1 77.8 18.4 77.6 18.5 77.5C18.6 77.4 18.6 77.3 18.7 77.1C18.9 76.9 19.1 76.8 19.3 76.7C19.4 76.6 19.4 76.5 19.5 76.3C19.6 76.2 19.7 76.1 19.8 76C19.9 75.9 20 75.8 20 75.7C20 75.6 20.2 75.6 20.2 75.5C20.2 75.5 20.2 75.4 20.2 75.3H20.4V75.2C20.5 75.1 20.5 74.9 20.8 74.9C20.8 74.7 20.9 74.6 21 74.5C21.1 74.3 21 74.1 21.1 73.9L21.3 73.8V73.6C21.4 73.5 21.5 73.5 21.6 73.4C21.7 73.3 21.7 73.3 21.8 73.2C22 73.1 22.1 72.9 22.4 72.9C22.5 72.9 22.6 72.7 22.7 72.6C22.9 72.5 23 72.3 23.1 72.3C23.2 72.2 23.3 72.3 23.5 72.2C23.5 72.2 23.5 72.1 23.6 72.1C23.7 72.1 23.8 71.9 23.9 71.9C24.1 71.9 24.3 71.8 24.3 71.6C24.4 71.8 25 71.6 25.1 71.8C25.3 71.7 25.5 71.6 25.7 71.6C25.8 71.6 26 71.7 26.1 71.6C26.2 71.5 26.3 71.6 26.7 71.7C26.8 71.7 26.9 71.9 27.1 71.9C27.3 71.9 27.5 72.3 27.6 72.5C27.6 73.2 27.9 73.2 28 73.5Z" fill="#231F20"/>
<path fill-rule="evenodd" clip-rule="evenodd" d="M90.1 30.3C90.1 30.2 90.9 30.2 91.1 30.3C91.6 30.4 92 30.7 92.4 30.8C92.6 31.2 92.8 31.6 93.1 32C93 32.2 93.2 32.4 93.2 32.6C93.2 32.8 93.1 32.9 93.1 33.1C93.1 33.3 93.2 33.3 93.1 33.4C93 33.6 92.8 33.8 92.6 34C92.5 34.1 92.3 34.1 92 34.2C91.9 34.2 91.9 34.2 91.8 34.3L91.7 34.4C91.6 34.4 91.5 34.4 91.3 34.5L91.2 34.7C91.2 34.7 91.1 34.7 91 34.7L90.9 34.9C90.8 34.9 90.8 34.9 90.7 34.9C90.6 35 90.5 35 90.4 35.1H90.2C90 34.8 90 35 89.7 35C89.6 35 89.6 35.2 89.6 35.4C89.4 35.4 89.3 35.4 89.2 35.5L89.1 35.7C89.1 35.7 89 35.7 88.9 35.7C88.7 35.8 88.6 36 88.4 36.1C88 36.3 87.6 36.5 87.1 36.7C86.9 36.7 86.9 36.9 86.8 37.1C86.5 37.1 86.3 37.2 86.1 37.3C86 37.3 86.1 37.4 86 37.4C85.8 37.4 85.6 37.5 85.6 37.7C85.4 37.7 85.2 37.7 85 37.8C84.8 37.8 84.8 38 84.7 38.1C84.6 38.2 84.4 38.2 84.3 38.3V38.5C84.2 38.5 84.1 38.5 84 38.6C83.9 38.7 83.9 38.8 83.8 38.9C83.6 39 83.4 39 83.2 39.1C83 39.3 82.8 39.5 82.5 39.6C82.4 39.7 82.3 39.8 82.1 39.8C82.1 40 81.8 40.1 81.7 40.1C81.6 40.1 81.7 40.2 81.6 40.2C81.4 40.2 81.4 40.3 81.3 40.4C81.1 40.5 80.8 40.6 80.6 40.8C80.6 40.8 80.5 40.9 80.5 41C80.2 41 80.2 41.2 79.9 41.1C79.8 41.2 79.6 41.3 79.5 41.4C79.4 41.5 79.3 41.4 79.2 41.5C79.1 41.6 79.2 41.7 79.1 41.8C78.9 41.9 78.7 42.1 78.4 42.2C78.3 42.3 78.1 42.3 77.9 42.4C77.8 42.5 77.8 42.5 77.7 42.6C77.6 42.6 77.5 42.6 77.4 42.7C77.4 42.7 77.4 42.8 77.3 42.8C77.1 42.8 77.1 42.9 76.9 43C76.8 43 76.7 43 76.6 43.1C76.5 43.1 76.5 43.2 76.4 43.3C76.3 43.3 76.2 43.3 76.2 43.4C75.9 43.3 75.8 43.3 75.4 43.3C75.4 43.3 75.3 43.4 75.2 43.4C75.2 43.4 75.2 43.3 75.1 43.3C75.1 43.3 75.1 43.4 75 43.4C75.1 43.4 74.3 43.6 74.2 43.4V43.3H74V43.2C73.9 43.1 73.8 43 73.6 43C73.5 42.8 73.2 42.7 73 42.6C73 42.5 73 42.2 72.8 42.2C72.7 42.2 72.8 42.1 72.8 42L72.6 41.9C72.6 41.7 72.6 41.1 72.7 40.8C72.7 40.8 72.8 40.8 72.8 40.7C72.9 40.5 72.9 40.2 73.2 40.4C73.2 40.2 73.2 40.1 73.3 40C73.4 39.9 73.5 40 73.6 39.9L73.7 39.7C73.8 39.6 74 39.6 74.1 39.5C74.2 39.5 74.2 39.4 74.3 39.3C74.4 39.2 74.5 39.2 74.7 39.1C74.8 39.1 74.7 39 74.8 39C74.9 39 75 38.8 75.2 38.7C75.3 38.6 75.5 38.6 75.6 38.5C75.8 38.3 76 38.2 76.2 38C76.4 38.1 76.5 37.9 76.7 37.8C76.8 37.8 76.9 37.8 77 37.7L77.1 37.5C77.3 37.4 77.4 37.5 77.6 37.3C77.8 37.2 77.8 37.1 77.9 37C78 36.9 78.3 36.9 78.4 36.8C78.6 36.7 78.7 36.5 78.9 36.4C79 36.3 79.3 36.3 79.5 36.2C79.6 36.2 79.6 36.1 79.7 36H79.9C80 35.9 80 35.7 80.2 35.7C80.3 35.7 80.4 35.4 80.6 35.4H80.8V35.3H81C81.1 35.2 81.2 35.2 81.3 35.1C81.4 35 81.4 34.9 81.6 34.8H81.8V34.7C81.9 34.7 81.9 34.5 82 34.5H82.2C82.3 34.4 82.5 34.2 82.8 34.1C82.9 34 83.1 33.9 83.3 33.8C83.4 33.8 83.4 33.7 83.5 33.6H83.7C83.8 33.5 83.8 33.3 84 33.3C84.1 33.3 84.2 33.2 84.3 33.1C84.4 33.1 84.4 33.1 84.5 33V32.8C84.6 32.7 84.7 32.8 84.8 32.7C84.9 32.6 85.1 32.5 85.2 32.4C85.3 32.3 85.4 32.2 85.5 32.1H85.7V31.9H85.9C85.9 31.9 86.1 31.6 86.2 31.5C86.3 31.4 86.4 31.5 86.5 31.4L86.6 31.2H86.8C86.9 31.1 87.2 30.9 87.4 30.8C87.6 30.7 87.7 30.6 88 30.5C88.1 30.5 88 30.4 88.1 30.4C88.1 30.4 88.4 30.2 88.5 30.1C88.8 29.9 88.9 30.2 89.2 30.1C89.6 30.6 89.6 30.2 90.1 30.3Z" fill="#231F20"/>
<path fill-rule="evenodd" clip-rule="evenodd" d="M52.3 36.8C52.3 37 52.6 36.8001 52.7 36.9001C52.7 36.9001 52.9 37.2001 53.1 37.2001C53.3 37.3001 53.5 37.1 53.6 37.1C53.6 37.1 53.6 37.2001 53.7 37.2001C53.9 37.2001 54.1 37.2001 54.3 37.2001C54.3 37.2001 54.3 37.3 54.4 37.3C54.6 37.3 54.7 37.3001 55 37.4001C55 37.4001 55 37.5 55.1 37.5C55.2 37.5 55.3 37.6 55.5 37.6C55.6 37.6 56 37.7 56.3 37.8C56.3 37.8 56.3 37.9001 56.4 37.9001H56.5C56.6 37.9001 56.7 37.9 57 38C57.2 38.1 57.4 38.2 57.5 38.3C57.6 38.4 57.7 38.4001 57.9 38.4001C57.9 38.4001 57.9 38.5 58 38.5C58.2 38.6 58.3 38.6001 58.5 38.7001C58.6 38.7001 58.7 38.9001 58.9 38.9001C59 38.9001 59.2 39.0001 59.3 39.2001C59.6 39.2001 59.7 39.2 59.9 39.3C60 39.3 60 39.4001 60 39.4001C60.1 39.5001 60.2 39.4 60.4 39.5C60.5 39.6 60.5 39.6001 60.7 39.7001C60.9 39.8001 61.2 39.8001 61.4 39.9001C61.4 39.9001 61.4 40 61.5 40C61.6 40 62 40.3 62.1 40.3C62.2 40.3 62.2 40.4001 62.4 40.4001C62.3 40.6001 62.4 40.6 62.5 40.8C62.7 40.6 62.9 40.9001 63.2 40.9001C63.2 41.1001 63.5 41.1001 63.6 41.2001C63.7 41.3001 63.8 41.5 63.9 41.6C64 41.7 64.1 41.6001 64.2 41.7001C64.3 41.8001 64.3 41.9 64.5 42C64.8 42.1 65.1 42.5 65.4 42.8V43C65.5 43.1 65.8 43.2001 65.9 43.4001C66 43.5001 65.9 43.6001 66 43.7001C66 43.7001 66.1 43.7 66.1 43.8C66.1 43.9 66.2 44 66.3 44.1C66.3 44.2 66.3 44.2 66.4 44.3C66.4 44.4 66.5 44.4 66.6 44.5V44.7001H66.7C66.7 44.8001 66.8 45.2001 66.9 45.2001C67 45.2001 67.3 45.7001 67.4 45.9001C67.5 46.1001 67.6 46.2001 67.7 46.4001C67.7 46.5001 67.7 46.5 67.8 46.5C67.9 46.5 67.8 46.6 67.9 46.7001L68.1 46.8C68.1 46.9 68.1 47.0001 68.3 47.2001C68.4 47.2001 68.4 47.3001 68.4 47.4001C68.4 47.5001 68.5 47.6001 68.6 47.9001C68.9 48.0001 68.8 48.3 68.9 48.5C68.9 48.5 69.1 48.5 69 48.6C68.9 48.6 68.9 48.7001 69 48.9001V49.1C69.1 49.2 69.1 49.2 69.2 49.3V49.5C69.2 49.5 69.4 49.8 69.4 50C69.4 50.2 69.4 50.3 69.5 50.5C69.5 50.5 69.6 50.5 69.6 50.6C69.6 50.7 69.8 50.8 69.8 51C69.8 51.2 69.8 51.2001 70 51.2001C70 51.4001 70 51.5001 70 51.7001C70.3 51.8001 70.2 52.2 70.3 52.5C70.4 52.8 70.5 53 70.5 53.3C70.6 53.6 70.6 53.9001 70.6 54.2001C70.6 54.3001 70.7 54.5 70.8 54.6C70.8 54.7 70.8 54.8001 70.8 54.9001C70.8 54.9001 71 55.3001 70.9 55.4001C70.8 55.5001 70.8 55.5 70.9 55.6C71 55.8 70.7 55.9 70.8 56.3C70.8 56.3 70.9 56.5 70.9 56.6C70.8 56.7 70.8 56.7001 70.9 57C70.9 57.1 71 57.6 71 57.8C71 58.2 70.9 58.6 70.9 59.1C70.9 59.3 71 59.3001 70.9 59.7001V59.9001C70.8 60.0001 70.9 60.3 70.8 60.5C70.8 60.5 70.7 60.5 70.7 60.6C70.7 60.8 70.5 60.9 70.4 61.1C70.5 61.5 70.3 61.7001 70.2 62C70.1 62.2001 70.1 62.5 70 62.6C69 62.8 69 62.8 68.9 63V63.2001C68.8 63.2001 68.7 63.3001 68.7 63.4001C68.7 63.5001 68.8 63.5 68.8 63.6C68.8 63.6 68.7 63.6 68.7 63.7001C68.7 64 68.6 64.1001 68.6 64.4001C68.5 64.4001 68.5 64.6 68.4 64.7H68.2V64.8001C68.1 64.9001 68.1 65.3001 67.7 65.3001C67.7 65.5001 67.6 65.5 67.6 65.7C67.5 65.9 67.4 66.1001 67.3 66.3001C67.3 66.4001 67.2 66.5 67.2 66.6C67.1 66.7 67.1 66.8001 67 66.9001C66.9 67.0001 67 67.1001 66.9 67.3001C66.8 67.4001 66.8 67.3001 66.7 67.4001C66.6 67.5001 66.7 67.7001 66.6 67.9001C66.6 67.9001 66.4 68.1 66.3 68.2L66.1 68.3001V68.5C66 68.6 65.9 68.6 65.8 68.7L65.6 68.8001V69C65.5 69.1 65.4 69.1 65.3 69.2C65.2 69.2 65.3 69.3001 65.2 69.3001C65.1 69.3001 65.2 69.4001 65.1 69.5C65 69.6 64.7 69.8001 64.6 69.9001C64.6 69.9001 64.5 70 64.5 70.1C64.5 70.1 64.3 70.1 64.3 70.2C64.2 70.3 64.3 70.5 64.2 70.6H64C63.9 70.7 63.8 70.9001 63.7 71C63.4 71.3 63 71.5 62.7 71.9001C62.6 72.2001 62.6 72.5001 62.5 72.8001V73C62.4 73.1 62.5 73.3 62.5 73.7C62.5 73.9 62.4 74.2001 62.4 74.4001C62.4 74.6001 62.5 74.8 62.5 75C62.5 75.2001 62.5 75.4 62.5 75.7C62.5 75.8 62.6 75.9001 62.6 76C62.6 76 62.5 76 62.5 76.1C62.5 76.2 62.7 76.5 62.7 76.7C62.7 76.9 62.7 77.1001 62.7 77.3001C62.7 77.5001 62.8 77.5 62.8 77.7C62.8 77.7 62.7 77.8001 62.7 77.9001C62.7 77.9001 62.8 77.9001 62.8 78C62.9 78.2001 62.9 78.7 62.8 79.2C62.8 79.4 62.7 79.4001 62.7 79.5C62.7 79.6 62.8 79.6 62.8 79.6C62.8 79.7 62.7 79.7 62.7 79.7C62.7 79.9 62.8 79.9 62.8 80.1C62.8 80.7 62.9 81.5 62.8 82.2V82.4001C62.7 82.5 62.8 82.5 62.8 82.9001C62.8 83.1001 62.7 83.2001 62.7 83.4001C62.6 83.8001 62.5 84.2 62.3 84.7C62.2 85 62.1 85.3 62.1 85.6C62 85.8 62.1 86.1 61.9 86.2C61.9 86.4 62 86.6001 61.9 86.9001C61.8 86.9001 61.8 87.1 61.8 87.2C61.8 87.3 61.6 87.3001 61.6 87.4001C61.5 87.5 61.5 87.6 61.5 87.7C61.5 87.7 61.4 87.7001 61.4 87.8001C61.4 87.9001 61.1 88 61 88.1C60.9 88.2 60.9 88.4001 60.8 88.5C60.5 88.5 60.3 88.7001 60 88.8001C59.9 88.8001 59.7 88.8001 59.5 88.9001C59.4 88.9001 59.4 89 59.4 89.1H59.2C59.1 89.3 58.2 89.3001 57.8 89.4001C57.7 89.4001 57.6 89.5 57.5 89.5C57.4 89.5 57.3 89.6 57.1 89.7H56.9C56.7 89.9 56.4 89.7 56 89.7C55.8 89.7 55.2 90 54.8 89.7C54.8 89.8 54.6 89.7001 54.5 89.8001C54.4 89.8001 54.4 89.9001 54.3 90C54.2 90 54.2 90 54.1 90C54 90 53.9 90.1 53.8 90.1C53.7 90.1 53.7 90.2 53.7 90.2C53.6 90.2 53.4 90 53.2 90.1C53.1 90.2 52.9 90.1 52.5 90.1C52.3 90.1 52.2 90.2001 52 90.3001C51.9 90.3001 51.8 90.3001 51.7 90.3001C51.6 90.3001 51.6 90.4001 51.5 90.4001C51.3 90.4001 51.2 90.4001 51 90.4001C50.9 90.4001 50.9 90.5 50.7 90.5C50.6 90.5 50.4 90.3001 50.2 90.4001V90.6C50.1 90.6 50 90.5 49.8 90.5C49.7 90.5 49.6 90.6 49.5 90.6C49.5 90.6 49.5 90.5 49.4 90.5C49.3 90.5 49.2 90.6 48.9 90.6C48.5 90.6 48.1 90.4001 47.7 90.4001C47.4 90.4001 47.2 90.4001 46.9 90.4001C46.7 90.4001 46.6 90.4001 46.4 90.4001C46.3 90.4001 46.3 90.5 46.1 90.5C45.9 90.5 45.6 90.4001 45.4 90.4001C45.4 90.4001 45.2 90.6 45.1 90.5C45.1 90.5 45 90.4001 44.9 90.4001L44.8 90.5C44.5 90.4001 44.3 90.3 44.1 90.1C43.8 90 43.7 90.2 43.4 90.1C43.2 89.9 42.9 89.8 42.7 89.7C42.7 89.7 42.7 89.6 42.6 89.6C42.7 89.6 42.2 89.5 42.1 89.5C42 89.4001 42 89.2 41.8 89.2C41.6 89.2 41 88.5 40.8 88.2V88H40.7V87.8001C40.5 87.6001 40.8 87.4001 40.7 87C40.7 87 40.5 86.7001 40.6 86.4001C40.6 86.3001 40.7 86.2001 40.7 86C40.7 85.8 40.6 85.7001 40.6 85.4001C40.6 85.2001 40.6 84.9 40.6 84.6C40.6 84.5 40.5 84.5 40.4 84.2C40.3 83.8 40.4 83.4001 40.3 82.9001C40.3 82.7001 40.2 82.5001 40.2 82.3001C40.2 82.1001 40.2 81.9 40.2 81.6C40.2 81.3 40 81.1 40.1 80.7C40.1 80.7 40.2 80.7 40.2 80.6C40.2 80.6 40.1 80.6 40.1 80.5C40.1 80.1 40 79.8001 40 79.3001C40 79.2001 39.9 79.1 39.9 79C39.9 78.9001 40 78.9001 40 78.8001C40 78.5001 39.8 78.2001 39.8 77.9001C39.8 77.3001 39.9 76.7 39.7 76.1C39.8 76 39.6 76 39.6 75.9001C39.6 75.8001 39.6 75.6 39.6 75.5C39.6 75.4001 39.5 75.3 39.5 75.2C39.5 75.1 39.6 75.1001 39.6 74.9001L39.4 74.8001C39.4 74.7001 39.5 74.7 39.5 74.7C39.5 74.5 39.4 74.1001 39.4 73.8001C39.4 73.8001 39.3 73.8 39.3 73.7C39.3 73.4 39.3 73.4 39.2 73.1C39.1 72.7 39.1 72.3001 39 71.9001C39 71.8001 39 71.4001 38.8 71.4001C38.8 71.2001 38.9 71.1001 38.8 70.9001C38.8 70.8001 38.7 70.8 38.6 70.7C38.5 70.6 38.6 70.5 38.5 70.4001C38.5 70.3001 38.5 70.2 38.4 70.1H38.2C38.2 70.1 38.2 69.7 38.1 69.6C38.1 69.5 38 69.5 37.9 69.4001C37.8 69.2001 37.8 69 37.7 68.9001C37.6 68.8001 37.6 68.7 37.4 68.6C37.2 68.4 37 68.1001 36.7 67.9001C36.3 67.6001 35.8 67.5 35.6 67C35.3 67.1 35.1 66.8 34.9 66.7C34.8 66.6 34.7 66.5 34.5 66.5C34.4 66.5 34.2 66.4001 34.1 66.4001C34.1 66.4001 34.1 66.2 34 66.2C33.9 66.1 33.8 66.1 33.6 66C33.5 65.9 33.4 65.7 33.3 65.6H33.1C33 65.5 32.9 65.4001 32.7 65.3001C32.4 65.1001 32.1 64.9 31.8 64.6C32.4 63.4 32 63.2001 32 63C32 63 31.7 62.6 31.6 62.6C31.4 62.5 31.1 62.3 31.1 62C30.6 62 30.8 61.3 30.3 61.3C30.6 61 30 61 30.2 60.5C30 60.4 30 60 29.8 59.8C29.9 59.5 29.8 59.2001 29.8 59V58.8C29.7 58.7 29.8 58.7001 29.8 58.5C29.8 58.4 29.7 58.4001 29.7 58.4001C29.7 58.4001 29.9 58 29.8 57.7001C29.8 57.4001 29.7 57.1001 29.7 56.9001C29.7 56.5001 29.9 56.2 30 55.8C30 55.6 30 55.4 30 55.1C30 55 30 55.0001 30 54.9001C30 54.8001 29.9 54.8 29.9 54.8C29.9 54.7 30 54.8001 30 54.7001C30 54.6 29.9 54.6 29.9 54.6C29.9 54.5 30 54.4 30 54.3C30 54.1 30.1 54.1001 30.1 53.9001C30.2 53.7001 30.1 53.6 30.3 53.6C30.2 53.4 30.3 53.1001 30.3 52.9001C30.3 52.7001 30.2 52.4001 30.3 52.2001C30.3 51.9001 30.6 51.7001 30.6 51.4001V51.2001C30.5 51.1 30.6 51.2 30.6 51.1C30.6 50.9 30.7 50.5 30.7 50.3L30.6 50.2001C30.6 50.0001 30.7 50 30.7 49.8C30.7 49.7 30.6 49.6001 30.6 49.4001C30.6 49.3001 30.7 49.1 30.8 49C30.9 48.8 30.9 48.7 30.9 48.5C30.9 48.5 31 48.5001 31 48.4001V48.1C31.1 48 31.2 48.1 31.2 48V47.7001C31.3 47.6 31.4 47.3 31.5 47.1C31.5 47 31.6 47.1 31.6 47C31.6 46.8 32 46.5 31.9 46.1C32.2 46.1 32 45.7 32.4 45.8C32.5 45.4 32.7 45.2001 32.9 44.9001C33 44.7001 33.1 44.6 33.2 44.5C33.3 44.4 33.3 44.2 33.4 44C33.4 43.9 33.6 43.9 33.6 43.8C33.7 43.6 33.8 43.3 33.9 43.1C33.9 43 34.1 43.0001 34.1 42.9001C34.2 42.7001 34.2 42.6001 34.3 42.4001C34.3 42.4001 34.4 42.4 34.4 42.3C34.4 42.3 34.6 42.1 34.6 42H34.8C34.9 41.9 35.1 41.7001 35.2 41.7001C35.3 41.6001 35.4 41.7 35.5 41.6C35.6 41.5 35.8 41.2001 36 41.2001C36.1 41.0001 36.3 41.0001 36.5 40.9001C36.8 40.7001 37 40.4 37.3 40.1C37.4 40 37.6 40.0001 37.8 39.9001C38 39.8001 38.1 39.6 38.2 39.5C38.3 39.4 38.5 39.4 38.7 39.3L38.8 39.1C38.9 39.1 39 39.1001 39.2 38.9001C39.3 38.8001 39.4 38.6 39.5 38.5C39.8 38.6 39.9 38.3001 40.1 38.2001H40.3C40.4 38.1001 40.9 38.0001 41.3 37.9001C41.3 37.9001 41.3 37.8 41.4 37.8C41.5 37.8 41.7 37.9 41.8 37.8C42.1 37.5 43 37.7001 43.4 37.4001C43.5 37.3001 43.8 37.3001 44 37.2001C44.3 37.2001 44.4 37.2 44.7 37.1C44.8 37 44.9 36.9 45 36.8H45.2V36.7001H45.4C45.4 36.7001 45.6 36.5001 45.7 36.4001C46 36.5001 46.3 36.4001 46.5 36.4001C46.8 36.4001 47 36.3 47.3 36.3C47.5 36.3 47.8 36.4001 48 36.4001C48.2 36.4001 48.4 36.3001 48.7 36.4001C48.9 36.4001 48.9 36.5 49.1 36.5C49.3 36.5 49.3 36.4001 49.5 36.4001C49.7 36.4001 50.3 36.4 50.6 36.5C51.1 36.6 51.7 36.9 52.3 36.8ZM56.7 72.1C56.7 71.9 56.7 71.6 56.7 71.5C56.7 71.4001 56.6 71.4001 56.6 71.4001C56.6 71.3001 56.7 71.3 56.7 71.2C56.7 70.9 56.8 70.5001 56.9 70.3001C56.9 70.3001 57.1 70.2 57.1 70.1C57.2 70 57.1 69.9 57.2 69.7C57.3 69.6 57.4 69.6 57.4 69.5C57.5 69.4001 57.5 69.2 57.5 69.1C57.5 69 57.7 69 57.7 68.9001C57.7 68.9001 57.7 68.8 57.7 68.7C57.7 68.7 57.9 68.7 57.9 68.6C57.9 68.6 57.9 68.5 57.9 68.4001C57.9 68.4001 58.1 68.4001 58.1 68.3001C58.2 68.2001 58.1 68.0001 58.2 67.9001C58.4 67.7001 58.7 67.6001 58.9 67.4001C59.3 67.1001 59.6 66.8 59.9 66.5C60 66.4 60.1 66.3 60.2 66.1C60.3 66 60.2 66.0001 60.3 65.9001H60.5V65.7C60.5 65.7 60.7 65.7 60.7 65.6C60.8 65.5 60.7 65.4001 60.8 65.3001C60.9 65.2001 61 65.1 61.1 65C61.4 64.8 61.7 64.3 61.8 64.1C61.9 63.9 62 63.8001 62.1 63.7001C62.2 63.6 62.1 63.5001 62.2 63.4001C62.3 63.3001 62.4 63.2001 62.5 63C62.6 62.9 62.6 62.7 62.7 62.6C62.8 62.5 62.9 62.3001 63 62.2001C63.1 61.8001 63.2 61.2 63.6 60.8C63.5 60.2 64 59.8 64.2 59.3C64.3 59 64.3 58.9001 64.3 58.7001C64.3 58.6 64.4 58.6 64.4 58.6C64.4 58.4 64.3 58.4001 64.3 58.2001C64.3 58.1 64.4 58.2 64.4 58.1C64.4 58 64.3 57.9001 64.3 57.9001C64.3 57.7001 64.4 57.6 64.4 57.5C64.4 57.3 64.3 57.3 64.3 57.1C64.3 56.9 64.3 56.8 64.3 56.6C64.3 56.3 64.4 56.2 64.3 56.1L64.2 55.8C64.2 55.5 64.3 55.2 64.3 55.1L64.2 55C64.2 54.6 64.3 54.1 64.2 53.8C64.2 53.8 64.1 53.8001 64.1 53.7001C64.1 53.6 64.1 53.4 64 53.3C64 53.2 63.8 53.3001 63.8 53.2001C63.9 53.2001 63.8 53.1 63.8 53.1C63.8 53 63.9 53 63.9 53C63.9 52.9 63.8 52.9001 63.8 52.9001C63.8 52.7001 63.7 52.2 63.7 52.1C63.6 51.9 63.4 51.4 63.4 51.3C63.4 51.2 63.3 51.2001 63.3 51.2001C63.3 51.1 63.3 51.0001 63.3 50.9001L63.1 50.8C63.1 50.7 63 50.5001 63 50.4001C63 50.2001 63 50.1001 62.9 49.9001L62.7 49.8L62.8 49.7001C62.8 49.4001 62.7 49.3001 62.6 49.2001V49C62.6 48.9 62.5 48.9 62.4 48.8C62.4 48.7 62.4 48.6 62.4 48.5C62.4 48.5 62.3 48.4 62.2 48.3C62.1 48.2 62.1 48 62 47.8C62 47.7 61.9 47.7 61.8 47.6C61.7 47.3 61.6 47.2 61.5 47C61.3 46.8 61 46.5 61 46.3C61 46.1 60.7 46.1001 60.7 45.9001C60.7 45.7001 60.5 45.8 60.5 45.5C60.5 45.4 60.3 45.4 60.2 45.3C60.1 45.2 60.1 45.0001 60 44.9001C59.9 44.8001 59.7 44.7 59.7 44.5C59.5 44.4 59.4 44.3001 59.3 44.2001C59.2 44.1001 59.1 43.9 59 43.8C58.9 43.7 58.7 43.8001 58.6 43.7001L58.5 43.5C58.4 43.4 58.1 43.6001 58.1 43.4001C58.1 43.3001 58.1 43.3 58 43.3C57.9 43.2 57.9 43.2 57.8 43.1C57.8 43.1 57.6 43 57.5 43C57.4 42.9 57.3 42.9001 57.2 42.9001C57.1 42.9001 57.2 42.8 57.1 42.8C57 42.7 56.9 42.8001 56.7 42.7001C56.7 42.7001 56.7 42.5 56.6 42.5L56.3 42.4001C56.2 42.4001 56.3 42.3 56.2 42.3C56 42.2 55.7 42.2001 55.6 42.2001C55.6 42.2001 55.6 42 55.5 42C55.3 41.9 54.9 41.9 54.7 41.8L54.6 41.7001C54.5 41.6001 54.2 41.5 54.2 41.5C54.1 41.5 54.2 41.4001 54.1 41.4001C53.8 41.2001 53.4 41.1 53.3 41C53.3 40.9 53 41 52.9 41C52.7 40.9 52.7 40.8 52.5 40.8C52.2 40.7 51.9 40.7 51.6 40.6C51.3 40.5 51 40.4001 50.8 40.4001C50.6 40.3001 50.4 40.4001 50.2 40.4001L50.1 40.2001C49.9 40.1001 49.5 40.2 49.3 40.1C49.2 40.1 49.2 40 49.1 40L49 40.1C48.9 40.1 48.9 40 48.8 40C48.8 40 48.6 40.2001 48.5 40.2001C48.4 40.2001 48.4 40.1 48.2 40.1C48.1 40.1 48.1 40.3 48 40.3C47.8 40.3 47.5 40.3 47.3 40.3C46.9 40.4 46.5 40.4 46.2 40.6H46.1C46 40.5 46.1 40.6001 46 40.7001C45.9 40.8001 45.7 40.8001 45.6 40.9001C45.5 40.8001 45.4 40.5 45.1 40.6C44.6 40.7 44.1 40.8001 43.7 40.9001C43.3 41.0001 42.8 41.3001 42.4 41.4001C42.3 41.6001 42 41.6001 42 41.9001C41.7 41.9001 41.6 42 41.5 42.1H41.4V42.3C41.3 42.4 41.2 42.4 41.1 42.5C40.9 42.7 40.6 43 40.5 43.1H40.3C40.1 43.2 39.8 43.4 39.8 43.6C39.4 43.7 39.3 44.0001 39 44.2001C38.7 44.4001 38.4 44.6 38.1 44.8C38 44.9 38.1 45 38 45.1L37.8 45.2001V45.4001C37.8 45.5001 37.7 45.5 37.6 45.6L37.5 45.8C37.5 45.9 37.4 45.8001 37.4 45.9001C37.3 46.0001 37.2 46.2 37.2 46.3C37.1 46.4 37.1 46.5 37 46.6C36.9 46.8 36.8 46.8 36.8 47C36.8 47.1 36.7 47 36.7 47.1C36.6 47.3 36.5 47.5 36.4 47.6C36.3 47.7 36.4 47.8001 36.3 47.9001C36.2 48.0001 36.1 48 36 48.1C36 48.1 36 48.2 36 48.3C36 48.4 35.9 48.4001 35.9 48.4001C35.8 48.6001 35.7 48.8001 35.7 48.9001C35.5 49.1001 35.4 49.3 35.4 49.6C35.4 49.7 35.3 49.7001 35.3 49.7001C35.1 50.2001 35.1 50.5001 35 50.9001C34.9 51.2001 34.8 51.6 34.8 51.8C34.8 51.9 34.9 51.9001 34.9 51.9001C34.9 52.0001 34.8 52 34.8 52.1C34.7 52.4 34.6 52.6001 34.6 52.9001C34.6 53.3001 34.6 53.1 34.6 53.5C34.6 53.6 34.6 53.8 34.6 54C34.6 54 34.5 54 34.5 54.1C34.5 54.1 34.6 54.1 34.6 54.2001C34.6 54.7001 34.6 55.1 34.5 55.5C34.5 55.6 34.4 55.7 34.4 55.8L34.5 55.9001C34.5 56.0001 34.4 56 34.4 56.1C34.3 56.4 34.3 56.3 34.4 56.5C34.4 56.6 34.3 56.7001 34.3 56.7001C34.3 57 34.4 57.3 34.4 57.6C34.4 57.9 34.2 58.2 34.3 58.3C34.5 58.5 34.2 59.1 34.3 59.1C34.5 59.5 34.9 59.7001 35 60.2001C35.3 60.3001 35.3 60.4 35.4 60.5V60.7001C35.5 60.8001 35.6 60.8 35.7 60.8C35.9 60.9 36 61 36.1 61.1C36.2 61.2 36.2 61.3 36.3 61.3C36.4 61.5 36.6 61.4 36.8 61.5V61.6H37C37 61.6 37.1 61.8 37.2 61.8C37.4 62 37.8 62.4001 38 62.4001C38.1 62.4001 38.3 62.6 38.4 62.6C38.6 62.7 38.6 62.9 38.8 62.8L39.2 63C39.3 63 39.3 63.2001 39.4 63.2001C39.5 63.3001 39.7 63.2 39.8 63.3V63.5C39.9 63.6 40.1 63.5 40.2 63.6V63.8C40.2 63.9 40.4 63.9001 40.5 63.9001C40.6 64.0001 40.8 64.2 40.9 64.2C41.1 64.2 41.1 64.4 41.2 64.5C41.3 64.6 41.6 64.7001 41.6 64.8001V65C41.6 65.1 41.9 65.1 41.9 65.2C41.9 65.4 42.2 65.3001 42.3 65.4001C42.4 65.5001 42.7 65.9 42.7 66.1C42.7 66.2 42.8 66.2 42.8 66.2C42.9 66.3 42.9 66.5 43 66.6C43.1 66.9 43.3 67.1001 43.4 67.4001C43.5 67.7001 43.6 68.0001 43.7 68.3001C43.8 68.6001 44 68.8 44.1 69.1C44.2 69.2 44.1 69.4 44.2 69.6L44.4 69.7C44.5 69.8 44.4 69.9001 44.5 70V70.2C44.5 70.3 44.6 70.3001 44.6 70.4001C44.6 70.6001 44.5 70.7001 44.7 70.9001C44.9 71.7001 44.8 72.8 45.1 73.6C45.4 73.5 45.4 73.8001 45.5 73.8001C45.6 73.9001 45.8 73.7 45.8 73.7C45.9 73.7 46 73.8001 46.2 73.8001C46.4 73.8001 46.6 73.8001 46.8 73.8001C46.9 73.8001 47 73.9001 47.1 74C47.2 74.1 47.2 74.1 47.4 74.1C47.5 74.1 47.4 74.2 47.5 74.2C47.7 74.3 48 74.5 48.1 74.5C48.2 74.5 48.2 74.6 48.2 74.6C48.4 74.7 48.6 74.7 48.8 74.7C49 74.8 49.2 74.9001 49.4 74.9001C49.8 75 50.3 75.1001 50.8 75.3001C51 75.1001 51.3 75.1 51.7 75.1C52.1 75 52 75.3001 52.3 75.3001C52.3 75.2001 52.4 75.2 52.5 75.2C52.6 75.2 52.6 75.1 52.6 75.1C52.9 75 53.2 75.1 53.5 75.1C53.7 75.1 54 75 54.1 75C54.2 75 54.2 74.9001 54.2 74.9001C54.3 74.9001 54.3 75 54.4 75C54.7 75 55 74.9001 55.2 74.9001C55.4 74.9001 55.5 74.9001 55.7 74.8001C55.8 74.8001 55.8 74.6 55.9 74.6C56 74.6 56 74.5 56 74.5C56.2 74.4001 56.3 74.6001 56.5 74.4001C56.4 73.9001 56.6 73 56.7 72.1ZM56.6 79.7C56.5 79.8 56.3 79.8001 56 79.8001C55.9 79.9001 55.8 79.8001 55.6 79.8001C55.5 79.8001 55.4 79.8001 55.2 79.9001V80C55.2 80 54.9 80 54.8 80C54.3 80 53.5 79.9001 53 80C52.9 80 52.9 80.1 52.9 80.1C52.8 80.1 52.8 80 52.8 80C52.7 80 52.5 79.9001 52.3 80L52.2 80.1C51.9 80.1 51.7 79.9 51.6 80.1C51.5 80.2 51.5 80 51.5 80C51.2 80 51.1 80.1 50.8 80C50.6 79.9001 50.5 80 50.1 80C49.6 80 49.1 79.9001 48.8 79.8001C48.5 79.8001 48.3 79.8 48 79.7C47.7 79.7 47.6 79.5 47.4 79.7C47.3 79.8 47.3 79.6 47.3 79.6C46.7 79.5 46.2 79.4001 45.6 79.3001C45.6 79.6001 45.3 79.9001 45.6 80C45.6 81.6 46.3 82.6 46.3 84.2C46.8 84.4 47.2 84.5 47.8 84.6C47.9 84.6 47.9 84.7 48 84.7C48 84.7 48 84.6 48.1 84.6C48.2 84.6 48.2 84.7 48.2 84.7C48.4 84.8 48.7 84.8001 48.9 84.8001C49 84.8001 49.1 84.9001 49.2 84.9001C49.3 84.9001 49.3 84.8001 49.4 84.8001C49.5 84.8001 49.5 84.9001 49.6 84.9001C50.1 85 50.2 85 50.5 85C50.7 85 51 84.9001 51.1 84.9001C51.2 84.9001 51.1 84.8001 51.2 84.8001C51.5 84.6001 52.2 84.7 52.6 84.7C52.7 84.7 52.7 84.6 52.7 84.6C52.9 84.6 53 84.6 53.2 84.6C54 84.6 54.6 84.5 55.4 84.5C55.4 84.3 55.7 84.2 55.7 84.2V84H55.8C55.9 84 55.9 83.6 55.9 83.5C55.9 83.3 56.1 83.3 56.1 83.1C56.1 83 56.2 83 56.2 83C56.2 82.9001 56.2 82.7 56.2 82.6C56.3 82.2 56.5 81.7001 56.5 81.4001C56.5 81.1001 56.5 81.2001 56.5 80.9001C56.6 80.6001 56.4 80.2 56.5 80.2C56.5 80.2 56.6 80.2 56.6 80.1C56.9 79.9 56.9 79.7 56.6 79.7C56.6 79.7 56.7 79.7 56.6 79.7Z" fill="#231F20"/>
</svg>
