<svg width="100" height="125" viewBox="0 0 100 125" fill="none" xmlns="http://www.w3.org/2000/svg">
<path fill-rule="evenodd" clip-rule="evenodd" d="M52.6 29.5999C52.6 30.1999 52.7 30.6999 52.8 31.1999C52.9 31.6999 52.8 32.1999 52.9 32.7999C52.9 32.9999 53 33.2999 53.1 33.4999C53.2 33.8999 53.2 34.1999 53.3 34.5999C53.4 34.7999 53.4 34.9999 53.5 35.2999C53.6 35.4999 53.5 35.6999 53.6 36.0999C53.6 36.1999 53.7 36.3999 53.7 36.4999C53.7 36.7999 53.6 37.1999 53.6 37.4999C53.6 37.7999 53.7 38.2999 53.7 38.5999C53.7 39.1999 53.7 39.6999 53.7 40.3999C53.7 40.4999 53.8 40.6999 53.8 40.8999C53.8 41.2999 53.7 41.6999 53.7 41.8999C53.8 42.1999 53.9 42.1999 54.1 42.3999C54.1 42.3999 54.1 42.4999 54.2 42.4999C54.3 42.4999 54.4 42.6999 54.5 42.7999C54.5 42.7999 54.6 42.7999 54.7 42.7999C54.8 42.8999 54.8 42.9999 55 43.0999C55.1 43.1999 55.2 43.1999 55.3 43.2999C55.5 43.3999 55.7 43.7999 55.9 43.8999C56 43.8999 56.1 43.8999 56.1 43.9999C56.1 43.9999 56.1 44.0999 56.2 44.0999C56.3 44.0999 56.4 44.2999 56.5 44.3999C56.6 44.4999 56.7 44.3999 56.7 44.4999C56.8 44.5999 56.9 44.7999 57 44.8999C57.1 44.9999 57.4 45.1999 57.6 45.3999C57.6 45.3999 57.6 45.5999 57.7 45.5999C57.7 45.5999 58 45.7999 58.2 45.7999C58.4 45.7999 58.7 45.7999 59.1 45.6999C59.1 45.6999 59.1 45.5999 59.2 45.5999C59.9 45.5999 60.7 45.2999 61.3 45.1999C61.9 45.0999 62.4 44.9999 62.9 44.9999C62.9 44.9999 62.9 44.8999 63 44.8999C63.2 44.8999 63.4 44.8999 63.6 44.7999C63.9 44.7999 64.1 44.7999 64.4 44.6999C64.4 44.6999 64.4 44.5999 64.5 44.5999C64.6 44.5999 64.7 44.5999 64.8 44.5999C64.8 44.5999 64.8 44.4999 64.9 44.4999C65.2 44.4999 65.3 44.4999 65.6 44.3999C65.7 44.3999 65.8 44.3999 65.8 44.3999C65.9 44.3999 66.1 44.2999 66.4 44.2999C66.5 44.2999 66.6 44.2999 66.6 44.2999C67.1 44.1999 68.1 43.9999 68.7 43.8999C68.8 43.8999 69 43.8999 69 43.8999C69 43.8999 69.2 43.7999 69.4 43.6999C69.6 43.5999 69.8 43.5999 70.1 43.4999C70.4 43.3999 70.7 43.3999 71.1 43.2999C71.4 43.2999 71.7 43.2999 71.8 43.1999C72 43.0999 72.1 42.9999 72.2 42.8999C72.3 42.7999 72.3 42.7999 72.4 42.6999C72.4 42.5999 72.5 42.5999 72.6 42.4999C72.7 42.3999 72.6 42.2999 72.7 42.1999C72.7 42.1999 72.8 42.0999 72.9 41.9999C73 41.8999 73.1 41.7999 73.2 41.6999C73.2 41.6999 73.2 41.5999 73.2 41.4999C73.2 41.4999 73.3 41.3999 73.4 41.3999C73.5 41.2999 73.4 41.1999 73.5 41.1999C73.6 41.0999 73.7 40.9999 73.8 40.8999C73.8 40.8999 73.8 40.7999 73.8 40.6999C73.9 40.5999 74 40.5999 74.1 40.4999C74.2 40.3999 74.3 40.1999 74.3 40.0999C74.3 40.0999 74.4 40.0999 74.5 40.0999C74.6 39.9999 74.7 39.7999 74.9 39.6999C75 39.5999 75 39.4999 75.1 39.4999C75.1 39.4999 75.2 39.4999 75.3 39.4999C75.4 39.3999 75.4 39.2999 75.6 39.2999C75.6 39.2999 75.7 39.2999 75.8 39.2999C76 39.0999 76.6 38.8999 77 38.7999C77.4 38.6999 78.2 38.7999 78.6 38.5999C78.7 38.4999 78.8 38.3999 79.1 38.3999C79.3 38.2999 79.6 38.2999 80 38.1999C80.2 38.1999 80.4 38.0999 80.6 38.0999C80.8 38.0999 81 38.0999 81.2 38.1999C81.2 38.1999 81.2 38.2999 81.3 38.2999C81.5 38.2999 81.5 38.3999 81.7 38.4999C82.1 38.5999 82.5 38.6999 82.7 38.7999C82.7 38.7999 82.7 38.8999 82.8 38.8999C82.8 38.8999 82.9 38.9999 83 38.9999C83.1 38.9999 83.1 39.0999 83.2 39.1999C83.2 39.1999 83.3 39.1999 83.4 39.1999C83.4 39.1999 83.5 39.2999 83.5 39.3999C83.6 39.4999 83.7 39.3999 83.7 39.4999C83.7 39.4999 83.7 39.5999 83.8 39.5999C83.9 39.5999 84 39.7999 84.1 39.7999C84.1 39.7999 84.2 39.8999 84.3 39.9999C84.4 39.9999 84.5 40.1999 84.6 40.1999C84.7 40.1999 84.8 40.3999 84.9 40.3999C85 40.4999 85.1 40.5999 85.2 40.6999C85.2 40.6999 85.3 40.6999 85.4 40.6999C85.4 40.6999 85.5 40.7999 85.5 40.8999C85.6 40.9999 85.9 41.0999 86.1 41.2999C86.1 41.3999 86.1 41.4999 86.2 41.4999C86.3 41.5999 86.5 41.8999 86.5 42.0999C86.5 42.2999 86.6 42.3999 86.7 42.5999C86.7 42.5999 86.7 42.6999 86.7 42.7999C86.9 42.8999 86.9 43.3999 86.9 43.7999C87 44.0999 87.1 44.3999 87.1 44.6999C87.1 45.3999 86.8 45.9999 86.5 46.6999C86.4 46.7999 86.5 46.8999 86.4 46.9999C86.4 46.9999 86.3 47.0999 86.2 47.1999C86.1 47.2999 86.1 47.4999 86 47.6999C86 47.7999 86 47.8999 85.9 47.8999C85.9 47.8999 85.8 47.9999 85.7 48.0999C85.6 48.1999 85.6 48.4999 85.5 48.5999C85.4 48.6999 85.3 48.7999 85.2 48.8999C85.1 48.9999 85 49.0999 84.9 49.1999C84.7 49.3999 84.5 49.6999 84.2 49.8999L84.1 49.9999C84 50.0999 83.8 50.0999 83.7 50.1999C83.7 50.1999 83.6 50.2999 83.5 50.3999C83.4 50.4999 83.3 50.3999 83.2 50.4999C83.1 50.4999 83.1 50.5999 83 50.6999C82.9 50.6999 82.8 50.6999 82.8 50.7999C82.8 50.7999 82.7 50.8999 82.6 50.9999C82.6 50.9999 82.5 50.9999 82.4 50.9999C82.3 50.9999 82.2 51.0999 82 51.1999C81.9 51.1999 81.7 51.1999 81.7 51.1999V51.2999C81.5 51.2999 81.3 51.3999 81.1 51.3999C81 51.3999 80.9 51.4999 80.8 51.4999C79.7 51.5999 78.6 51.3999 77.7 51.0999C77.6 51.0999 77.4 50.9999 77.3 50.8999C77.1 50.7999 76.9 50.7999 76.6 50.6999C76.6 50.6999 76.6 50.5999 76.5 50.5999H76.4C76.3 50.5999 76.3 50.4999 76.2 50.4999C76.1 50.4999 75.7 50.2999 75.5 50.2999C75.5 50.2999 75.5 50.1999 75.4 50.1999C75.4 50.1999 75.3 50.0999 75.2 50.0999C75.1 50.0999 75 49.8999 74.9 49.8999C74.8 49.8999 74.5 49.5999 74.3 49.3999C74.1 49.1999 73.8 48.9999 73.6 48.7999C73.5 48.6999 73.4 48.5999 73.4 48.5999C73.4 48.5999 73.4 48.4999 73.4 48.3999C73.3 48.2999 73.1 48.2999 73.1 47.9999C73 47.9999 72.8 47.8999 72.8 47.7999C72.4 47.7999 72.1 47.8999 71.8 47.9999C71.3 48.0999 70.6 47.9999 70.2 48.1999C70.1 48.2999 69.7 48.3999 69.5 48.3999C69.4 48.3999 69.2 48.3999 69 48.3999C68.9 48.3999 68.8 48.4999 68.7 48.4999C68.5 48.4999 68.3 48.3999 67.9 48.3999C67.4 48.3999 66.9 48.5999 66.3 48.5999C66 48.5999 65.7 48.5999 65.4 48.6999C65.3 48.6999 64.9 48.7999 64.7 48.8999C64.3 48.9999 63.9 49.0999 63.5 49.0999C63.4 49.0999 63.3 49.0999 63.3 49.0999C63 49.1999 62.4 49.1999 61.9 49.2999C61.5 49.3999 60.7 49.2999 60.2 49.4999C60.1 49.4999 60 49.4999 59.9 49.5999C59.6 49.7999 59.6 50.2999 59.5 50.7999C59.4 51.0999 59.4 51.0999 59.3 51.2999C59.3 51.3999 59.2 51.4999 59.1 51.5999C59 51.6999 59 51.8999 58.9 51.9999C58.9 52.0999 58.8 52.0999 58.7 52.1999C58.6 52.3999 58.6 52.4999 58.5 52.6999C58.5 52.6999 58.4 52.6999 58.4 52.7999C58.4 52.8999 58.3 52.9999 58.2 52.9999C58.1 53.0999 58.1 53.1999 58 53.3999C58 53.3999 57.9 53.3999 57.9 53.4999C57.9 53.5999 57.8 53.6999 57.7 53.6999C57.6 53.7999 57.4 53.9999 57.4 54.2999C57.4 54.4999 57.5 54.6999 57.6 54.8999C57.7 55.0999 57.7 55.2999 57.8 55.4999C58.1 56.0999 58.4 56.4999 58.8 57.0999C58.8 57.1999 58.8 57.1999 58.9 57.2999L59 57.3999C59.1 57.4999 59 57.5999 59.1 57.6999C59.1 57.7999 59.3 57.8999 59.3 57.8999C59.3 57.8999 59.3 57.9999 59.3 58.0999C59.3 58.0999 59.4 58.1999 59.5 58.1999C59.6 58.2999 59.5 58.3999 59.6 58.4999C59.6 58.4999 59.7 58.5999 59.8 58.5999C59.9 58.6999 59.8 58.7999 59.9 58.8999C59.9 58.8999 60 58.8999 60 58.9999C60 59.0999 60.2 59.1999 60.2 59.3999C60.2 59.4999 60.3 59.5999 60.4 59.6999C60.5 59.7999 60.7 60.0999 60.8 60.2999C60.8 60.2999 60.9 60.3999 61 60.3999C61.1 60.5999 61.1 60.5999 61.2 60.7999C61.4 61.0999 61.7 61.3999 61.9 61.7999C61.9 61.8999 62.1 61.9999 62.1 62.0999C62.1 62.1999 62.3 62.2999 62.4 62.3999C62.4 62.3999 62.4 62.4999 62.4 62.5999C62.4 62.5999 62.5 62.6999 62.6 62.6999C62.7 62.7999 62.6 62.8999 62.7 62.9999C62.7 62.9999 62.8 63.0999 62.9 63.0999C63 63.2999 63 63.3999 63.1 63.6999C63.7 64.5999 64.3 65.5999 64.9 66.5999C65 66.7999 65.1 66.9999 65.3 67.1999L65.4 67.2999C65.5 67.3999 65.4 67.4999 65.5 67.5999C65.5 67.5999 65.6 67.6999 65.7 67.6999C65.7 67.6999 65.7 67.7999 65.7 67.8999C65.7 67.8999 65.8 67.9999 65.9 67.9999C66 68.1999 66 68.1999 66.1 68.3999C66.1 68.4999 66.3 68.5999 66.3 68.6999C66.3 68.7999 66.5 68.7999 66.5 68.8999C66.5 68.9999 66.6 69.1999 66.7 69.2999C66.7 69.3999 66.8 69.3999 66.9 69.4999C66.9 69.4999 66.9 69.5999 66.9 69.6999C66.9 69.6999 67 69.7999 67.1 69.7999C67.1 69.7999 67.1 69.8999 67.1 69.9999C67.1 69.9999 67.2 69.9999 67.3 70.0999C67.3 70.0999 67.3 70.1999 67.3 70.2999C67.4 70.3999 67.5 70.3999 67.6 70.4999C67.9 70.5999 68.2 70.4999 68.6 70.4999C68.8 70.4999 68.9 70.5999 69.1 70.5999C69.5 70.6999 69.8 70.6999 70.3 70.5999C70.3 70.5999 70.4 70.5999 70.5 70.5999V70.4999C71.1 70.3999 71.8 70.4999 72.3 70.6999C72.3 70.6999 72.4 70.6999 72.5 70.6999C72.6 70.7999 73 70.8999 73.2 70.8999C73.2 70.8999 73.3 70.8999 73.4 70.8999V70.9999C73.4 70.9999 73.5 70.9999 73.6 70.9999V71.0999C73.6 71.0999 73.7 71.0999 73.8 71.0999V71.1999C73.8 71.1999 73.9 71.1999 74 71.1999C74 71.1999 74.1 71.2999 74.1 71.3999C74.2 71.4999 74.4 71.5999 74.6 71.6999C74.7 71.7999 74.7 71.9999 74.9 71.9999C75 71.9999 75.1 72.0999 75.2 72.1999C75.3 72.2999 75.3 72.2999 75.4 72.3999C75.5 72.4999 75.6 72.5999 75.7 72.5999C75.9 72.5999 76.4 73.2999 76.6 73.4999C76.6 73.4999 76.7 73.4999 76.8 73.4999C76.8 73.4999 76.8 73.5999 76.9 73.6999L77.1 73.7999C77.1 73.7999 77.1 73.8999 77.1 73.9999C77.1 74.0999 77.3 74.0999 77.3 74.1999C77.3 74.2999 77.3 74.3999 77.4 74.3999C77.4 74.4999 77.5 74.4999 77.5 74.5999C77.6 74.7999 77.6 75.0999 77.7 75.2999C77.9 75.7999 78.4 76.4999 78.4 77.0999C78.5 77.5999 78.4 78.0999 78.2 78.5999C78.2 78.6999 78.1 78.8999 78 79.0999C78 79.1999 77.9 79.2999 77.8 79.4999C77.8 79.5999 77.8 79.6999 77.7 79.7999C77.7 79.7999 77.5 79.8999 77.5 79.9999C77.5 80.0999 77.5 80.0999 77.4 80.1999C77.3 80.2999 77.1 80.5999 77 80.7999C76.9 80.8999 76.7 80.9999 76.6 81.1999C76.5 81.2999 76.4 81.5999 76.3 81.6999C76.2 81.7999 76.1 81.6999 76.1 81.7999C76.1 81.7999 76.1 81.8999 76 81.9999C75.9 81.9999 75.8 81.9999 75.8 82.0999C75.8 82.0999 75.8 82.1999 75.7 82.2999C75.6 82.3999 75.3 82.4999 75.1 82.4999C75.1 82.4999 75.1 82.5999 75 82.5999C74.9 82.5999 74.9 82.6999 74.8 82.7999C74.8 82.7999 74.7 82.7999 74.6 82.7999C74.4 82.8999 74.3 83.2999 74.1 83.3999C74 83.4999 73.8 83.5999 73.6 83.6999C73 82.8999 72.8 82.9999 72.7 82.9999C72.4 83.0999 72.2 83.0999 71.8 83.0999C70.9 83.1999 69.8 83.1999 68.7 82.9999C68.6 82.9999 68.6 82.8999 68.5 82.8999C68.3 82.8999 68.2 82.8999 67.9 82.7999C67.9 82.7999 67.8 82.7999 67.7 82.7999V82.6999C67.3 82.5999 67 82.6999 66.7 82.5999C66.7 82.5999 66.7 82.4999 66.6 82.4999C66.4 82.4999 66.4 82.3999 66.2 82.2999C66.1 82.2999 66 82.2999 65.9 82.1999C65.8 82.1999 65.8 82.0999 65.7 81.9999C65.6 81.9999 65.6 81.9999 65.5 81.8999C65.4 81.8999 65.4 81.7999 65.3 81.6999C65.3 81.6999 65.2 81.6999 65.1 81.6999C65.1 81.6999 64.9 81.4999 64.8 81.4999H64.7C64.6 81.4999 64.6 81.3999 64.5 81.2999C64.5 81.2999 64.4 81.2999 64.3 81.2999C64.2 81.1999 64.2 81.0999 64 81.0999C63.9 81.0999 63.8 80.8999 63.7 80.8999C63.5 80.6999 63.3 80.5999 63.1 80.3999C62.8 80.0999 62.4 79.6999 62.1 79.2999C62 79.1999 62 79.1999 61.9 79.0999C61.9 79.0999 61.9 78.9999 61.8 78.8999C62 79.0999 61.8 78.9999 61.8 78.9999C61.8 78.9999 61.8 78.8999 61.8 78.7999C61.8 78.7999 61.6 78.5999 61.6 78.3999C61.6 78.3999 61.5 78.2999 61.5 78.1999C61.4 77.9999 61.4 77.7999 61.3 77.5999C61.3 77.5999 61.2 77.5999 61.2 77.4999C61.2 77.2999 61.2 77.2999 61.1 77.0999C60.9 76.5999 60.9 75.7999 61.1 75.2999C61.1 75.2999 61.1 75.1999 61.1 75.0999C61.2 74.9999 61.2 74.9999 61.3 74.8999C61.3 74.8999 61.3 74.7999 61.3 74.6999H61.4C61.5 74.4999 61.4 74.2999 61.5 74.1999C61.5 74.0999 61.6 74.0999 61.7 73.9999C61.7 73.8999 61.7 73.7999 61.8 73.7999C61.8 73.6999 61.9 73.6999 62 73.5999C62 73.5999 62 73.4999 62 73.3999C62.4 73.0999 62.6 72.6999 62.3 71.9999C62.3 71.9999 62.2 71.9999 62.2 71.8999C62.2 71.7999 62.1 71.6999 62 71.5999C62 71.5999 61.8 71.2999 61.8 71.0999C61.8 70.9999 61.6 70.5999 61.5 70.4999C61.5 70.4999 61.4 70.4999 61.4 70.3999C61.4 70.2999 61.3 70.1999 61.2 70.0999C61.1 69.9999 61 69.6999 60.9 69.4999C60.9 69.4999 60.8 69.4999 60.8 69.3999C60.8 69.2999 60.7 69.1999 60.6 69.0999C60.5 68.9999 60.5 68.8999 60.4 68.8999C60.3 68.7999 60.3 68.5999 60.2 68.3999C60.1 68.2999 60.1 68.1999 60 68.1999C60 68.2999 60 68.1999 59.9 67.9999C59.9 67.9999 59.8 67.8999 59.7 67.8999C59.6 67.6999 59.6 67.6999 59.5 67.4999C59.5 67.4999 59.4 67.4999 59.4 67.3999C59.4 67.2999 59.2 67.1999 59.2 66.9999C59.2 66.8999 59.2 66.7999 59.1 66.7999C59.1 66.7999 59 66.6999 58.9 66.6999C58.9 66.6999 58.9 66.5999 58.9 66.4999C58.9 66.4999 58.8 66.3999 58.7 66.3999C58.7 66.3999 58.7 66.2999 58.7 66.1999C58.7 66.1999 58.6 66.0999 58.5 66.0999C58.5 66.0999 58.5 65.9999 58.5 65.8999C58.5 65.7999 58.4 65.7999 58.3 65.6999C58.2 65.5999 58.2 65.4999 58.1 65.2999L58 65.1999C57.9 65.0999 58 64.9999 57.9 64.8999C57.9 64.7999 57.8 64.7999 57.7 64.6999C57.7 64.5999 57.7 64.5999 57.6 64.4999C57.6 64.4999 57.4 64.1999 57.4 63.9999C57.4 63.8999 57.3 63.7999 57.2 63.6999C57.1 63.5999 57.1 63.4999 57 63.4999L56.9 63.3999C56.8 63.2999 56.9 63.1999 56.8 63.0999C56.8 63.0999 56.7 62.9999 56.6 62.9999C56.6 62.9999 56.6 62.8999 56.6 62.7999C56.6 62.6999 56.5 62.6999 56.4 62.5999C56.4 62.5999 56.4 62.4999 56.4 62.3999C56.4 62.3999 56.3 62.2999 56.2 62.2999C56.2 62.2999 56.2 62.1999 56.2 62.0999C56.2 62.0999 56.1 61.9999 56 61.9999C56 61.9999 56 61.8999 56 61.7999C55.8 61.6999 55.7 61.2999 55.5 61.0999C55.4 60.9999 55.3 60.6999 55.2 60.4999C55.2 60.4999 55.1 60.4999 55.1 60.3999C55.1 60.2999 54.9 60.2999 54.9 60.1999C54.9 60.0999 54.7 59.8999 54.7 59.7999C54.7 59.6999 54.7 59.6999 54.6 59.5999C54.6 59.5999 54.4 59.1999 54.4 59.0999C54.4 58.9999 54.2 58.8999 54.2 58.6999C54.2 58.5999 54 58.4999 54 58.3999C54 58.2999 53.9 58.1999 53.8 58.0999L53.7 57.9999C53.6 57.8999 53.7 57.7999 53.6 57.6999C53.6 57.5999 53.5 57.5999 53.4 57.4999C54 57.9999 54 57.8999 54 57.7999C54 57.7999 53.9 57.6999 53.8 57.6999C53.8 57.6999 53.8 57.5999 53.8 57.4999C53.7 57.2999 53.5 57.2999 53.4 57.1999C53 57.2999 52.6 57.2999 52.1 57.3999C52.1 57.3999 52.1 57.4999 52 57.4999C51.5 57.4999 50.8 57.5999 50 57.4999C50 57.4999 49.9 57.4999 49.8 57.4999C49.7 57.3999 49.4 57.4999 49.3 57.3999C49.2 57.1999 49.1 57.3999 48.8 57.2999C48.3 57.1999 47.4 56.9999 46.9 56.6999C46.9 56.6999 46.9 56.5999 46.8 56.5999C46.7 56.5999 46.6 56.4999 46.4 56.3999C46.3 56.3999 46.2 56.3999 46.1 56.2999C46 56.2999 46 56.1999 45.9 56.0999C45.9 56.0999 45.8 56.0999 45.7 56.0999V55.9999C45.6 55.9999 45.5 55.9999 45.5 55.8999C45.5 55.8999 45.4 55.7999 45.3 55.6999C45.3 55.6999 45.2 55.6999 45.1 55.6999L44.9 55.5999C44.8 55.4999 44.3 55.2999 44.1 55.1999C44 55.1999 44 55.0999 43.9 54.9999C43.7 54.8999 43.4 54.5999 43.2 54.3999C43.1 54.2999 42.9 54.0999 42.8 53.8999C42.8 53.8999 42.7 53.8999 42.7 53.7999C42.7 53.6999 42.6 53.5999 42.5 53.5999C42.4 53.4999 42.4 53.3999 42.3 53.2999C42.2 53.1999 42.1 52.9999 41.9 52.8999C41.6 52.8999 41.4 53.1999 41.1 53.2999C41 53.2999 40.9 53.4999 40.8 53.4999C40.7 53.4999 40.6 53.5999 40.5 53.6999C40.2 53.8999 39.6 54.1999 39.2 54.4999C39.1 54.4999 39.1 54.5999 39 54.6999C38.4 55.0999 37.8 55.3999 37.2 55.7999C37.2 55.7999 37.2 55.8999 37.1 55.8999C37.1 55.8999 37 55.9999 36.9 55.9999C36.8 55.9999 36.8 56.0999 36.7 56.1999C36.6 56.1999 36.6 56.1999 36.5 56.2999L36.4 56.3999C36.3 56.3999 36.2 56.3999 36.2 56.4999C36.2 56.4999 36.1 56.5999 36.1 56.6999C36.1 56.6999 36 56.6999 35.9 56.6999C35.9 56.6999 35.8 56.7999 35.8 56.8999C35.8 56.8999 35.7 56.8999 35.6 56.8999C35.5 56.8999 35.5 57.0999 35.4 57.0999C35.3 57.1999 35.2 57.0999 35.2 57.1999C35.2 57.1999 35.1 57.2999 35.1 57.3999C35 57.3999 34.9 57.4999 34.8 57.5999C34.7 57.6999 34.5 57.7999 34.4 57.8999C34.3 57.9999 34.1 58.1999 34 58.2999C33.9 58.3999 33.7 58.4999 33.6 58.5999C33.5 58.6999 33.4 58.6999 33.4 58.7999C33.4 58.7999 33.3 58.8999 33.3 58.9999C33.3 58.9999 33.2 58.9999 33.1 58.9999C33 59.0999 32.9 59.2999 32.8 59.3999C32.2 59.8999 31.5 60.2999 30.9 60.7999C30.9 60.7999 30.9 60.8999 30.8 60.8999C30.7 60.8999 30.7 61.0999 30.6 61.0999C30.5 61.0999 30.4 61.2999 30.3 61.2999C30.2 61.3999 30.1 61.3999 30.1 61.4999C30 61.4999 30 61.5999 29.9 61.6999C29.9 61.6999 29.8 61.6999 29.7 61.6999C29.7 61.6999 29.6 61.7999 29.6 61.8999C29.5 61.9999 29.4 61.8999 29.4 61.9999C29.4 61.9999 29.3 62.0999 29.3 62.1999C29.3 62.1999 29.2 62.1999 29.1 62.1999C29 62.2999 29 62.3999 28.9 62.3999C28.9 62.3999 28.8 62.3999 28.7 62.3999C28.5 62.5999 28.3 62.7999 28.1 62.9999C28 63.0999 27.9 63.0999 27.9 63.1999C27.9 63.2999 28 63.3999 27.8 63.3999C28 63.7999 28.1 64.1999 28.2 64.3999C28.2 64.3999 28.3 64.3999 28.3 64.4999C28.3 64.6999 28.5 64.8999 28.5 65.0999C28.5 65.0999 28.5 65.1999 28.5 65.2999L28.6 65.3999C28.7 65.6999 28.6 66.1999 28.6 66.4999C28.6 67.1999 28.6 67.5999 28.4 67.9999C28.4 68.0999 28.4 68.0999 28.3 68.1999C28.3 68.1999 28.3 68.2999 28.3 68.3999C28.2 68.4999 28.2 68.4999 28.2 68.5999L28.1 68.7999H28C28 68.7999 28 68.8999 28 68.9999H27.9C27.9 68.9999 27.9 69.0999 27.9 69.1999C27.8 69.2999 27.6 69.6999 27.5 69.9999C27.5 70.0999 27.4 70.2999 27.3 70.3999C27.3 70.3999 27.3 70.4999 27.3 70.5999H27.2C27.2 70.5999 27.2 70.6999 27.2 70.7999C27.2 70.7999 27 70.9999 27 71.0999V71.1999C26.9 71.2999 26.8 71.3999 26.8 71.3999C26.8 71.3999 26.8 71.4999 26.8 71.5999C26.7 71.6999 26.7 71.6999 26.6 71.7999C26.5 71.8999 26.4 71.8999 26.4 71.9999C26.3 72.1999 26.1 72.3999 26 72.5999C25.9 72.6999 25.8 72.6999 25.8 72.7999C25.8 72.7999 25.8 72.8999 25.8 72.9999C25.6 73.0999 25.2 73.3999 24.9 73.5999C24.8 73.5999 24.8 73.6999 24.7 73.7999C24.6 73.8999 24.5 73.7999 24.5 73.8999C24.5 73.8999 24.4 73.9999 24.3 74.0999C24.3 74.0999 24.2 74.0999 24.1 74.0999V74.1999C24.1 74.1999 24 74.1999 23.9 74.1999C23.7 74.3999 23 74.4999 22.5 74.5999C22.4 74.5999 22.3 74.5999 22.2 74.5999C21.9 74.6999 21.2 74.6999 20.6 74.6999C20.3 74.6999 20.1 74.7999 19.9 74.6999C19.8 74.6999 19.6 74.6999 19.4 74.6999C19.1 74.6999 18.7 74.4999 18.4 74.4999C18.2 74.4999 18 74.4999 17.8 74.3999C17.6 74.3999 17.6 74.3999 17.4 74.2999C17.2 74.2999 16.7 73.9999 16.5 73.7999C16.4 73.6999 16.3 73.6999 16.2 73.5999L16.1 73.4999C16 73.4999 15.9 73.2999 15.8 73.2999C15.8 73.2999 15.7 73.1999 15.6 73.1999C15.5 73.1999 15.4 73.1999 15.4 73.0999C15.4 73.0999 15.3 72.9999 15.3 72.8999C15.3 72.8999 15.2 72.8999 15.1 72.8999C15.1 72.8999 15 72.7999 15 72.6999C15 72.6999 14.9 72.6999 14.8 72.6999C14.8 72.6999 14.7 72.5999 14.7 72.4999C14.6 72.4999 14.5 72.3999 14.4 72.2999C14.3 72.1999 14.1 72.0999 14 71.9999C14 71.9999 13.9 71.8999 13.9 71.7999C13.8 71.7999 13.7 71.7999 13.6 71.5999C13.5 71.4999 13.6 71.3999 13.5 71.3999C13.5 71.3999 13.4 71.3999 13.3 71.2999C13.2 71.1999 13.2 71.0999 13.1 70.9999C13.1 70.9999 13 70.9999 13 70.8999C13 70.7999 12.9 70.6999 12.8 70.5999C12.8 70.5999 12.8 70.4999 12.8 70.3999H12.7C12.6 70.1999 12.5 69.9999 12.5 69.7999C12.5 69.7999 12.4 69.7999 12.4 69.6999C12.4 69.5999 12.2 69.4999 12.2 69.3999C12.2 69.2999 12.1 69.0999 12 68.9999C12 68.7999 12.1 68.3999 12.2 67.9999C12.2 67.6999 12.2 67.3999 12.3 66.9999C12.3 66.9999 12.4 66.9999 12.4 66.8999C12.4 66.7999 12.4 66.5999 12.4 66.3999C12.4 66.3999 12.5 66.3999 12.5 66.2999C12.5 66.0999 12.5 66.0999 12.6 65.9999C12.6 65.8999 12.6 65.7999 12.7 65.7999C12.7 65.6999 12.8 65.5999 12.9 65.4999C13 65.0999 13 64.6999 13.1 64.3999C13.1 64.3999 13.2 64.3999 13.2 64.2999C13.2 64.1999 13.3 63.9999 13.4 63.8999C13.5 63.6999 13.7 63.6999 13.8 63.4999C14 63.2999 14.1 62.9999 14.3 62.7999C14.3 62.6999 14.4 62.6999 14.5 62.5999C14.5 62.5999 14.5 62.4999 14.5 62.3999C14.5 62.3999 14.6 62.2999 14.7 62.2999C14.7 62.2999 14.7 62.1999 14.7 62.0999C14.7 62.0999 14.8 61.9999 14.9 61.9999C14.9 61.9999 14.9 61.8999 14.9 61.7999C14.9 61.7999 15 61.6999 15.1 61.6999C15.2 61.5999 15.1 61.4999 15.2 61.4999C15.2 61.4999 15.3 61.3999 15.4 61.3999C15.4 61.3999 15.4 61.2999 15.4 61.1999C15.5 61.0999 15.6 61.0999 15.6 60.9999C15.8 60.7999 15.9 60.6999 16.1 60.4999C16.1 60.4999 16.1 60.3999 16.2 60.3999H16.3C16.4 60.2999 16.5 60.1999 16.5 60.1999C16.6 60.0999 16.7 60.0999 16.8 59.9999C16.8 59.9999 16.8 59.8999 16.9 59.8999C17 59.8999 17.1 59.6999 17.2 59.6999L17.4 59.5999C17.5 59.5999 17.6 59.3999 17.6 59.3999C17.7 59.3999 17.9 59.3999 18 59.2999C18 59.2999 18 59.1999 18.1 59.1999H18.2L18.3 59.0999C18.6 58.9999 18.9 59.0999 19.3 58.9999C19.3 58.9999 19.3 58.8999 19.4 58.8999C19.8 58.8999 20.6 58.7999 21.1 58.6999C21.4 58.6999 21.8 58.6999 22.1 58.6999C22.4 58.6999 22.8 58.8999 23.1 59.0999C23.2 59.0999 23.3 59.0999 23.4 59.1999C23.4 59.1999 23.5 59.2999 23.6 59.3999C23.9 59.4999 24.2 59.5999 24.6 59.4999C24.7 59.3999 24.7 59.3999 24.8 59.2999C25 59.1999 25.1 59.0999 25.4 58.8999C25.5 58.7999 25.5 58.6999 25.6 58.6999C25.7 58.6999 25.8 58.4999 25.8 58.4999C25.9 58.4999 26 58.2999 26.1 58.2999C26.5 57.9999 27.1 57.5999 27.5 57.2999C27.6 57.1999 27.7 57.0999 27.7 57.0999C27.7 57.0999 27.8 57.0999 27.9 57.0999C28 56.9999 28 56.9999 28.1 56.8999C28.2 56.7999 28.3 56.6999 28.3 56.6999C28.3 56.6999 28.4 56.6999 28.5 56.6999C28.8 56.3999 29.3 55.9999 29.6 55.6999C29.8 55.4999 30 55.1999 30.3 54.9999C30.5 54.7999 30.8 54.5999 31 54.3999C31.1 54.2999 31.1 54.1999 31.2 54.1999C31.3 54.0999 31.4 54.0999 31.5 53.9999C31.6 53.8999 31.6 53.7999 31.7 53.7999C31.8 53.7999 31.9 53.5999 31.9 53.5999C32 53.5999 32.3 53.2999 32.5 53.1999C32.6 53.1999 32.7 52.9999 32.7 52.9999H32.8C32.9 52.8999 32.9 52.7999 33 52.7999C33.1 52.6999 33.3 52.6999 33.5 52.5999C33.5 52.5999 33.5 52.4999 33.6 52.4999H33.7C33.8 52.3999 33.8 52.2999 33.9 52.2999C34 52.1999 34.1 52.1999 34.2 52.0999C34.3 51.9999 34.4 51.8999 34.4 51.8999C34.4 51.8999 34.5 51.8999 34.6 51.8999C34.6 51.8999 34.7 51.7999 34.7 51.6999C34.8 51.5999 34.9 51.5999 35 51.4999C35.1 51.3999 35.1 51.2999 35.2 51.2999C35.2 51.2999 35.3 51.2999 35.4 51.2999V51.1999C35.4 51.1999 35.5 51.1999 35.6 51.1999C35.7 51.0999 35.7 50.9999 35.8 50.9999C35.9 50.9999 36 50.7999 36.1 50.7999C36.2 50.7999 36.3 50.5999 36.3 50.5999H36.4C36.5 50.4999 36.6 50.3999 36.6 50.3999C36.6 50.3999 36.7 50.3999 36.8 50.3999C36.8 50.3999 36.9 50.2999 36.9 50.1999C36.9 50.1999 37 50.1999 37.1 50.1999V50.0999C37.1 50.0999 37.2 50.0999 37.3 50.0999V49.9999C37.4 49.8999 37.6 49.8999 37.8 49.7999C37.8 49.7999 37.8 49.6999 37.9 49.6999H38C38.1 49.5999 38.1 49.4999 38.2 49.4999C38.7 49.0999 39.3 48.7999 39.9 48.3999C40 48.2999 40 48.1999 40.1 48.1999C40.1 48.1999 40.2 48.1999 40.3 48.1999C40.3 48.1999 40.4 48.0999 40.4 47.9999C40.5 47.8999 40.7 47.9999 40.8 47.8999C40.8 47.8999 40.8 47.7999 40.9 47.7999C41.1 47.7999 41.2 47.5999 41.4 47.4999C41.5 47.3999 41.6 47.3999 41.6 47.2999C41.7 47.0999 41.8 46.8999 41.8 46.6999C41.9 46.2999 42.1 45.9999 42.4 45.5999C42.4 45.4999 42.4 45.4999 42.5 45.3999L42.6 45.2999C42.7 45.1999 42.6 45.0999 42.7 44.9999C42.7 44.8999 42.9 44.8999 42.9 44.7999C42.9 44.7999 42.9 44.6999 42.9 44.5999C42.9 44.5999 43 44.5999 43.1 44.4999C43.2 44.2999 43.3 44.1999 43.4 43.9999C43.5 43.8999 43.7 43.6999 43.8 43.5999C44 43.3999 44.1 43.2999 44.4 43.0999C44.4 43.0999 44.4 42.9999 44.5 42.9999H44.6C44.7 42.8999 44.7 42.7999 44.8 42.7999C44.8 42.7999 44.9 42.7999 45 42.7999C45.1 42.6999 45.2 42.5999 45.4 42.4999C45.9 42.1999 46.3 41.8999 47 41.7999L47.1 41.6999C47.3 41.6999 47.5 41.6999 47.7 41.6999C48.1 41.5999 48.4 41.4999 48.5 41.2999C48.6 41.0999 48.6 41.0999 48.7 40.6999C48.7 40.2999 48.7 39.9999 48.6 39.6999C48.6 39.5999 48.6 39.4999 48.6 39.3999C48.6 39.3999 48.5 39.3999 48.5 39.2999C48.5 39.1999 48.5 38.9999 48.5 38.8999C48.4 38.5999 48.4 37.8999 48.3 37.3999C48.3 37.3999 48.2 37.3999 48.2 37.2999C48.2 36.8999 48.2 36.5999 48.1 36.0999C48 35.6999 47.9 35.2999 47.8 34.8999C47.7 34.3999 47.6 33.7999 47.5 33.2999C47.5 33.1999 47.5 33.0999 47.5 33.0999C47.5 32.9999 47.4 32.8999 47.4 32.5999C47.4 32.5999 47.4 32.4999 47.4 32.3999C47.4 32.2999 47.3 31.8999 47.2 31.5999C47.2 31.5999 47.1 31.5999 47.1 31.4999C47.1 31.3999 47.1 31.2999 47.1 31.2999C47.1 31.0999 47 30.3999 46.9 29.9999C46.9 29.5999 46.9 29.3999 46.7 29.0999C46.7 28.9999 46.6 28.8999 46.5 28.7999C46.5 28.7999 46.4 28.7999 46.3 28.7999V28.6999C46.3 28.6999 46.2 28.6999 46.1 28.6999V28.5999C46.1 28.5999 46 28.5999 45.9 28.5999V28.4999C45.9 28.4999 45.8 28.4999 45.7 28.4999V28.3999C45.7 28.3999 45.6 28.3999 45.5 28.3999V28.2999C45.5 28.2999 45.4 28.2999 45.3 28.2999C45.2 28.1999 44.7 28.0999 44.5 27.9999C44.3 27.8999 44 27.7999 43.9 27.6999C43.9 27.6999 43.9 27.5999 43.8 27.5999C43.8 27.5999 43.3 27.1999 43.2 27.0999C43.2 27.0999 43.2 26.9999 43.2 26.8999H43.1C43.1 26.8999 43.1 26.7999 43.1 26.6999H43C43 26.6999 43 26.5999 43 26.4999C43 26.4999 42.9 26.3999 42.8 26.3999C42.8 26.3999 42.8 26.2999 42.8 26.1999C42.6 25.9999 42.3 25.7999 42.1 25.4999C42 25.2999 42 25.1999 41.9 24.8999C41.8 24.4999 41.4 23.6999 41.3 23.0999C41.3 22.6999 41.3 22.1999 41.4 21.8999C41.4 21.7999 41.5 21.6999 41.6 21.5999C41.7 21.3999 41.7 21.0999 41.8 20.8999C41.8 20.8999 41.9 20.8999 41.9 20.7999C41.9 20.6999 42 20.5999 42.1 20.4999C42.1 20.4999 42.1 20.3999 42.1 20.2999H42.2C42.2 20.2999 42.2 20.1999 42.2 20.0999H42.3C42.3 20.0999 42.3 19.9999 42.3 19.8999C42.4 19.7999 42.4 19.7999 42.5 19.6999C42.7 19.3999 42.9 18.7999 43.4 18.6999C43.5 18.3999 43.7 18.1999 43.8 17.9999C44 17.9999 44.2 17.7999 44.4 17.6999C44.4 17.6999 44.5 17.5999 44.5 17.4999C44.5 17.4999 44.6 17.4999 44.7 17.4999C44.7 17.4999 44.8 17.3999 44.8 17.2999C44.8 17.2999 44.9 17.2999 45 17.2999C45 17.2999 45 17.1999 45.1 17.0999C45.1 17.0999 45.2 17.0999 45.3 17.0999V16.9999C45.4 16.8999 45.5 16.9999 45.6 16.8999C45.7 16.7999 45.8 16.7999 46 16.6999C46.2 16.5999 46.7 16.4999 47 16.3999C47 16.3999 47 16.2999 47.1 16.2999C47.2 16.2999 47.3 16.2999 47.4 16.1999C47.5 16.1999 47.5 16.0999 47.6 16.0999C47.7 16.0999 48.1 15.9999 48.3 15.8999C48.5 15.8999 48.7 15.7999 49.2 15.8999C49.2 15.8999 49.2 15.9999 49.3 15.9999C49.6 16.0999 50 15.9999 50.4 16.0999C50.8 16.0999 51 16.1999 51.4 16.2999C51.6 16.3999 51.8 16.3999 52 16.4999C52.1 16.4999 52.2 16.5999 52.3 16.6999C52.4 16.6999 52.5 16.6999 52.5 16.7999C52.5 16.7999 52.6 16.8999 52.7 16.9999C52.8 17.0999 53.1 17.0999 53.2 17.1999C53.3 17.1999 53.3 17.2999 53.4 17.3999C53.5 17.3999 53.6 17.3999 53.6 17.4999C53.7 17.4999 53.7 17.5999 53.8 17.6999C53.9 17.7999 54 17.9999 54.2 18.0999C54.3 18.1999 54.4 18.0999 54.4 18.1999C54.4 18.1999 54.4 18.2999 54.5 18.3999C54.7 18.4999 54.8 18.5999 55 18.8999C55 18.9999 55 18.9999 55.1 19.0999C55.2 19.1999 55.2 19.2999 55.3 19.2999L55.4 19.3999C55.4 19.4999 55.4 19.5999 55.5 19.5999C55.5 19.6999 55.7 19.6999 55.7 19.7999C55.7 19.7999 55.7 19.8999 55.7 19.9999C55.8 20.0999 55.8 20.0999 55.9 20.1999C55.9 20.2999 56 20.2999 56 20.3999C56 20.4999 56.1 20.8999 56.2 21.2999C56.2 21.5999 56.2 21.7999 56.2 22.0999C56.2 22.5999 56.3 23.1999 56.3 23.5999C56.3 24.0999 56 24.5999 55.9 25.0999C55.9 25.1999 55.8 25.3999 55.8 25.4999C55.7 25.7999 55.7 25.9999 55.6 26.1999C55.6 26.1999 55.6 26.2999 55.6 26.3999H55.5C55.5 26.3999 55.5 26.4999 55.5 26.5999H55.4C55.4 26.5999 55.4 26.6999 55.4 26.7999C55.4 26.7999 55.3 26.7999 55.2 26.8999L55.1 27.0999C54.9 27.1999 54.9 27.1999 54.7 27.2999C54.6 27.2999 54.6 27.3999 54.5 27.4999C55.2 27.8999 55.1 27.9999 55 27.9999C55 27.9999 54.9 28.0999 54.8 28.1999C54.7 28.2999 54.6 28.1999 54.5 28.2999C54.4 28.2999 54.4 28.3999 54.3 28.4999C54.2 28.4999 54.2 28.4999 54.1 28.5999C54 28.6999 54 28.6999 53.9 28.7999C53.8 28.8999 53.5 28.9999 53.3 29.0999C53.3 29.0999 53.3 29.1999 53.2 29.1999C53.1 29.1999 53 29.2999 52.9 29.3999C52.9 29.3999 52.8 29.3999 52.7 29.3999C52.8 29.3999 52.8 29.4999 52.6 29.5999ZM49.1 20.9999C49.1 20.9999 49 20.9999 48.9 20.9999C48.9 20.9999 48.8 21.0999 48.7 21.1999C48.4 21.2999 48.4 21.3999 48.2 21.5999C48 21.8999 47.8 22.2999 47.6 22.4999C47.5 22.6999 47.4 22.9999 47.3 23.0999C47.3 23.0999 47.3 23.1999 47.3 23.2999C47.3 23.3999 47.2 23.3999 47.1 23.4999C46.9 24.0999 46.8 24.3999 46.9 24.8999C47 25.1999 47.1 25.3999 47.2 25.4999C47.6 25.8999 48.9 25.6999 49.3 25.6999C49.7 25.5999 50.1 25.4999 50.3 25.3999C50.5 25.2999 50.8 25.1999 50.9 25.1999C51 25.1999 51 25.1999 51.1 25.0999C51.3 24.9999 51.3 24.8999 51.4 24.5999H51.5C51.5 24.5999 51.5 24.4999 51.5 24.3999C51.6 23.9999 51.7 23.3999 51.7 22.9999C51.8 22.3999 51.7 22.0999 51.5 21.6999C50.9 21.0999 50.1 21.1999 49.1 20.9999ZM78.9 42.2999C78.9 42.2999 78.8 42.3999 78.7 42.4999C78.5 42.5999 78.3 42.6999 78.2 42.7999C78.1 42.8999 78.1 42.9999 78 43.0999C77.9 43.1999 77.8 43.2999 77.8 43.3999C77.8 43.4999 77.7 43.5999 77.6 43.5999C77.5 43.6999 77.4 43.6999 77.4 43.7999C77.3 43.8999 77.3 43.8999 77.2 43.9999C77.2 43.9999 77.2 44.0999 77.2 44.1999H77.1C77.1 44.1999 77.1 44.2999 77.1 44.3999H77C77 44.3999 77 44.4999 77 44.5999H76.9C76.9 44.5999 76.9 44.6999 76.9 44.7999H76.8C76.7 44.8999 76.8 45.9999 76.9 46.1999C77 46.4999 77.1 46.6999 77.2 46.7999C77.3 46.8999 77.3 46.9999 77.4 46.9999C77.5 46.9999 77.4 47.0999 77.5 47.0999C77.6 47.1999 78 47.2999 78.1 47.2999C78.5 47.2999 79.1 47.0999 79.7 46.6999C79.9 46.5999 80.3 46.2999 80.5 46.0999C80.7 45.9999 80.9 45.7999 81 45.6999C81.1 45.5999 81 45.4999 81.1 45.3999L81.2 45.2999C81.2 45.2999 81.3 45.1999 81.3 45.0999C81.5 44.4999 81.4 44.2999 81.3 43.6999C81.2 43.3999 81.3 43.3999 81.2 43.2999C81.2 43.2999 81.2 43.1999 81.2 43.0999H81.1C81.1 43.0999 81.1 42.9999 81.1 42.8999C81.1 42.8999 81 42.7999 80.9 42.6999C80.8 42.5999 80.6 42.4999 80.5 42.4999C80.5 42.4999 80.4 42.3999 80.3 42.3999C80.2 42.3999 80.3 42.2999 80.2 42.2999C79.9 42.1999 79.2 42.0999 78.9 42.0999C78.8 42.0999 78.8 42.1999 78.8 42.1999C79.1 42.2999 78.9 42.1999 78.9 42.2999ZM49.6 45.4999C49.6 45.4999 49.5 45.5999 49.4 45.6999C49.2 45.7999 49 45.8999 48.8 46.0999C48.5 46.3999 48.4 46.4999 48.2 46.7999C48.1 46.8999 48 47.0999 48 47.1999C48 47.2999 48 47.2999 47.9 47.3999C47.9 47.3999 47.8 47.4999 47.7 47.5999C47.7 47.6999 47.7 47.6999 47.6 47.7999C47.6 47.7999 47.5 47.8999 47.4 47.9999C47.4 48.0999 47.3 48.2999 47.3 48.2999C47.2 48.5999 47.1 48.8999 47.1 48.9999C47.1 49.0999 47 49.1999 47 49.2999C46.9 49.5999 47 49.6999 46.9 49.8999C46.8 50.7999 46.9 51.0999 47.3 51.6999C47.3 51.7999 47.3 51.8999 47.4 51.8999C47.4 51.9999 47.6 51.9999 47.6 52.0999C47.7 52.1999 47.6 52.2999 47.7 52.2999C47.8 52.3999 47.9 52.3999 47.9 52.4999C48 52.5999 48.1 52.7999 48.2 52.8999C48.3 52.8999 48.4 52.8999 48.4 52.9999C48.4 52.9999 48.5 53.0999 48.5 53.1999C48.5 53.1999 48.6 53.1999 48.7 53.1999C48.7 53.1999 48.8 53.2999 48.9 53.3999C49.5 53.8999 50.5 53.6999 51.2 53.4999C51.3 53.4999 51.3 53.3999 51.3 53.3999C51.5 53.2999 51.7 53.2999 51.9 53.1999C51.9 53.1999 51.9 53.0999 52 52.9999C52.1 52.8999 52.2 52.9999 52.2 52.8999C52.3 52.7999 52.4 52.6999 52.5 52.5999C52.6 52.4999 52.7 52.3999 52.7 52.2999C52.8 52.1999 53 51.9999 53 51.8999C53 51.7999 53.1 51.8999 53.1 51.7999C53.2 51.5999 53.3 51.4999 53.3 51.3999C53.4 51.1999 53.5 51.0999 53.5 50.9999C53.5 50.9999 53.6 50.8999 53.7 50.7999C53.8 50.6999 53.8 50.3999 53.9 50.2999C53.9 50.0999 53.9 49.8999 54 49.6999C54.1 49.3999 54 49.1999 54 49.0999C53.9 48.7999 54 48.6999 53.8 48.5999C53.8 48.5999 53.8 48.4999 53.8 48.3999H53.7C53.7 48.3999 53.7 48.2999 53.7 48.1999H53.6C53.6 48.1999 53.6 48.0999 53.6 47.9999H53.5C53.5 47.9999 53.5 47.8999 53.5 47.7999C53.5 47.6999 53.3 47.5999 53.3 47.5999C53.2 47.4999 53 47.2999 52.9 47.1999C52.9 47.1999 52.8 47.1999 52.7 47.1999C52.5 46.9999 52.4 46.8999 52.2 46.6999C51.8 46.2999 51.2 45.6999 50.9 45.2999C50.9 45.2999 50.8 45.2999 50.7 45.2999C50.6 45.1999 50.5 45.0999 50.5 45.0999C50.4 44.9999 50.3 45.0999 50.2 44.8999C50.1 44.8999 50 44.8999 50 44.8999C50 45.1999 49.8 45.2999 49.6 45.4999ZM18.2 67.9999C18.2 67.9999 18.3 68.0999 18.4 68.1999C18.4 68.2999 18.4 68.3999 18.5 68.3999C18.6 68.4999 18.6 68.6999 18.7 68.7999C18.8 68.8999 19 69.1999 19 69.1999C19.1 69.1999 19 69.2999 19.1 69.2999C19.2 69.2999 19.3 69.2999 19.3 69.3999C19.4 69.4999 19.5 69.5999 19.6 69.6999C19.7 69.7999 19.7 69.7999 19.8 69.8999C19.9 69.9999 20.1 69.9999 20.1 70.0999C20.3 70.1999 20.6 70.1999 20.8 70.2999C21.1 70.2999 21.4 70.3999 21.6 70.1999C21.6 70.1999 21.7 70.1999 21.8 70.1999C22.1 70.0999 22.3 69.9999 22.4 69.7999C22.4 69.7999 22.5 69.7999 22.6 69.7999C22.7 69.6999 23.1 69.2999 23.1 69.1999C23.1 69.0999 23.3 68.9999 23.3 68.9999C23.3 68.9999 23.3 68.8999 23.3 68.7999C23.3 68.6999 23.4 68.6999 23.5 68.5999C23.6 68.4999 23.6 68.4999 23.7 68.3999C23.7 68.3999 23.7 68.2999 23.7 68.1999H23.8C23.8 68.1999 23.8 68.0999 23.8 67.9999H23.9C23.9 67.9999 23.9 67.8999 23.9 67.7999H24C24 67.7999 24 67.6999 24 67.5999H24.1C24.1 67.5999 24.1 67.4999 24.1 67.3999C24.2 67.1999 24.2 67.0999 24.3 66.9999C24.3 66.7999 24.4 66.2999 24.3 65.8999C24.3 65.7999 24 64.9999 23.9 64.8999C23.9 64.8999 23.9 64.7999 23.9 64.6999H23.8C23.8 64.6999 23.8 64.5999 23.8 64.4999C23.8 64.4999 23.7 64.3999 23.6 64.3999C23.6 64.3999 23.6 64.2999 23.6 64.1999H23.5C23.5 64.1999 23.5 64.0999 23.5 63.9999H23.4C23.4 63.9999 23.4 63.8999 23.4 63.7999C23.4 63.6999 23.2 63.6999 23.2 63.5999C23.1 63.4999 23.1 63.2999 23 63.2999C22.9 63.1999 22.7 63.0999 22.6 62.9999C22.5 62.8999 22.4 62.6999 22.3 62.5999H22.1C22.1 62.5999 22 62.4999 21.9 62.3999C21.8 62.2999 21.7 62.2999 21.6 62.1999C21.3 62.0999 21.2 62.2999 21.1 62.3999C20.8 62.5999 20.5 62.7999 20.3 62.9999C20.1 63.1999 20 63.3999 19.9 63.5999C19.8 63.6999 19.7 63.7999 19.7 63.7999V63.8999C19.7 63.9999 19.6 63.8999 19.6 63.9999C19.4 64.2999 19.3 64.3999 19.1 64.5999C19.1 64.5999 19.1 64.6999 19.1 64.7999H19C19 64.7999 19 64.8999 19 64.9999C19 65.0999 18.8 65.0999 18.8 65.1999C18.8 65.2999 18.7 65.1999 18.7 65.2999C18.6 65.4999 18.5 65.5999 18.5 65.6999C18.4 65.7999 18.4 65.9999 18.3 66.1999C18.2 66.5999 18.2 66.9999 18.1 67.3999C18.1 67.6999 18.1 67.8999 18.2 67.9999ZM71.1 74.7999C71 74.6999 70.9 74.5999 70.8 74.4999C70.7 74.3999 70.7 74.4999 70.6 74.3999C70.6 74.3999 70.5 74.2999 70.4 74.1999C70.3 74.0999 70.1 74.0999 70.1 73.9999C70 73.8999 69.7 73.8999 69.4 73.7999C69.2 73.7999 69 73.6999 68.8 73.6999C68.7 73.6999 68.6 73.7999 68.6 73.7999C68.5 73.7999 68.6 73.8999 68.5 73.8999C68.4 73.8999 68.3 73.8999 68.1 73.9999V74.0999C68.1 74.0999 68 74.0999 67.9 74.0999C67.9 74.0999 67.8 74.1999 67.7 74.2999C67.6 74.3999 67.5 74.4999 67.4 74.5999C66.8 75.1999 66 76.1999 66 76.8999C66 77.1999 66.1 77.4999 66.3 77.7999C66.3 77.7999 66.4 77.8999 66.5 77.9999C66.5 78.0999 66.5 78.1999 66.6 78.1999C66.8 78.3999 67 78.4999 67.2 78.5999V78.6999C67.2 78.6999 67.3 78.6999 67.4 78.6999C67.7 78.7999 68 78.8999 68.3 78.8999C68.9 78.9999 69.6 79.0999 70 79.0999C70 78.9999 70 78.9999 70.1 78.9999C70.2 78.9999 70.1 78.8999 70.2 78.8999C70.3 78.7999 70.4 78.7999 70.5 78.6999C70.6 78.5999 70.6 78.4999 70.7 78.4999H70.8C70.9 78.4999 70.8 78.3999 70.9 78.3999C71.2 78.1999 71.4 78.0999 71.6 77.8999C71.7 77.7999 72 77.5999 72 77.4999C72 77.3999 72.1 77.1999 72.2 76.9999C72.3 76.5999 72.3 76.3999 72.2 76.0999C72.2 75.8999 72.1 75.7999 72 75.5999C72 75.5999 71.9 75.4999 71.8 75.4999C71.8 75.3999 71.8 75.2999 71.7 75.2999C71.7 75.2999 71.6 75.1999 71.5 75.0999C71.5 74.9999 71.5 74.8999 71.4 74.8999C71.4 74.8999 71.2 74.7999 71.1 74.7999Z" fill="#231F20"/>
</svg>
