<svg width="70" height="35" viewBox="0 0 70 35" fill="none" xmlns="http://www.w3.org/2000/svg">
<path d="M23.34 24.3562V10.913H24.0698V13.0278C24.156 12.9341 24.2356 12.8346 24.3081 12.7299C24.6062 12.1109 25.0747 11.5898 25.6585 11.2275C26.2423 10.8653 26.9173 10.677 27.6043 10.6847C29.2673 10.635 30.6176 11.2506 31.4119 12.7299C31.9173 13.6489 32.1954 14.6755 32.2231 15.7239C32.2507 16.7724 32.027 17.8122 31.5708 18.7565C30.8311 20.4146 29.0042 21.2387 27.0483 20.9358C26.4397 20.884 25.8537 20.6806 25.3438 20.3441C24.8339 20.0077 24.4164 19.5489 24.1293 19.0097V24.3562H23.34ZM24.0698 15.6688C24.1343 16.324 24.1591 16.7907 24.2336 17.2474C24.5215 19.0445 25.5839 20.1118 27.2519 20.3054C28.0351 20.4341 28.8387 20.2873 29.5257 19.8899C30.2128 19.4925 30.7408 18.8692 31.0197 18.1261C31.3403 17.3618 31.4945 16.538 31.4723 15.7095C31.45 14.881 31.2518 14.0667 30.8907 13.3207C30.5929 12.6547 30.0865 12.1036 29.448 11.7508C28.8095 11.3979 28.0735 11.2624 27.3511 11.3648C26.673 11.4139 26.027 11.6731 25.5029 12.1064C24.9789 12.5397 24.6029 13.1255 24.4272 13.7824C24.2717 14.4037 24.1524 15.0336 24.0698 15.6688Z" fill="black"/>
<path d="M47.1089 17.4956C46.9983 18.4421 46.5477 19.3162 45.841 19.9554C45.1342 20.5946 44.2194 20.9554 43.2665 20.9706C40.2086 21.1245 38.7739 19.0941 38.5455 16.751C38.387 15.4785 38.5936 14.1873 39.1412 13.0278C39.5226 12.2325 40.1471 11.5791 40.9245 11.1623C41.7018 10.7456 42.5916 10.587 43.4651 10.7095C44.2955 10.7799 45.0828 11.1097 45.7153 11.6523C46.3479 12.1949 46.7937 12.9227 46.9897 13.7327C47.1451 14.4704 47.2595 15.2162 47.3323 15.9666H39.2951C39.1462 18.0913 40.288 19.799 41.9063 20.2111C43.9218 20.7075 45.6444 19.8338 46.2699 17.9176C46.4089 17.4261 46.6621 17.3566 47.1089 17.4956ZM39.2951 15.2865H46.4784C46.4337 13.0228 45.0239 11.3846 43.1127 11.3598C40.9482 11.325 39.3895 12.9037 39.2951 15.2865Z" fill="black"/>
<path d="M48.5882 17.5454H49.2931C49.3192 18.0641 49.4877 18.5656 49.7802 18.9947C50.0728 19.4238 50.4779 19.764 50.9512 19.9779C51.5455 20.2453 52.1925 20.3753 52.844 20.3581C53.4955 20.3409 54.1347 20.177 54.7141 19.8786C55.0299 19.7362 55.2943 19.5005 55.4719 19.2031C55.6494 18.9057 55.7315 18.561 55.707 18.2155C55.7251 17.8823 55.6341 17.5523 55.4478 17.2755C55.2615 16.9987 54.9899 16.7902 54.6744 16.6816C53.9 16.3937 53.0759 16.2348 52.2866 15.9816C51.4653 15.7478 50.6623 15.4541 49.8839 15.103C48.613 14.4824 48.5336 12.0648 49.9732 11.3003C50.7104 10.8844 51.54 10.6596 52.3863 10.6466C53.2327 10.6336 54.0688 10.8327 54.8184 11.2259C55.2724 11.4768 55.6392 11.8602 55.8698 12.325C56.1004 12.7898 56.1839 13.3138 56.1091 13.8271H55.5034C55.5034 13.7974 55.4488 13.7725 55.4488 13.7428C55.3744 11.8117 53.756 11.2159 52.0185 11.3847C51.4998 11.4487 50.9961 11.6015 50.5292 11.8365C50.2488 11.9647 50.0151 12.1769 49.8603 12.4437C49.7056 12.7104 49.6375 13.0186 49.6655 13.3258C49.6663 13.633 49.7622 13.9325 49.94 14.1831C50.1177 14.4337 50.3686 14.6233 50.6583 14.7257C51.4228 15.0037 52.2221 15.1824 53.0064 15.4008C53.6369 15.5746 54.2921 15.6887 54.9028 15.8972C55.3337 16.0385 55.7116 16.3073 55.9864 16.6681C56.2612 17.0289 56.42 17.4647 56.4417 17.9177C56.5153 18.414 56.4308 18.921 56.2 19.3666C55.9692 19.8121 55.6039 20.1737 55.1559 20.3998C53.4979 21.3381 50.7675 21.0899 49.5513 19.9034C49.243 19.5934 48.9992 19.2254 48.8339 18.8207C48.6686 18.416 48.5851 17.9825 48.5882 17.5454Z" fill="black"/>
<path d="M65.3773 13.8271H64.7171C64.7171 13.7377 64.6823 13.6583 64.6724 13.5839C64.6617 13.0889 64.4813 12.6127 64.1614 12.235C63.8415 11.8572 63.4015 11.6009 62.9151 11.5088C61.9973 11.2455 61.0183 11.2926 60.1301 11.6428C59.779 11.7435 59.4699 11.955 59.249 12.2458C59.028 12.5366 58.9069 12.891 58.904 13.2562C58.8916 13.6149 59.0034 13.9668 59.2205 14.2526C59.4375 14.5384 59.7466 14.7406 60.0954 14.8249C61.0882 15.1327 62.1059 15.3213 63.1136 15.5993C63.4402 15.6777 63.7618 15.7755 64.0767 15.8922C64.5469 16.0605 64.9555 16.3667 65.249 16.7708C65.5424 17.1749 65.7072 17.6581 65.7216 18.1573C65.7361 18.6566 65.5997 19.1485 65.3301 19.569C65.0606 19.9894 64.6704 20.3188 64.2107 20.514C63.5102 20.8321 62.7509 21.0004 61.9815 21.0081C61.2122 21.0158 60.4497 20.8627 59.7429 20.5586C59.1617 20.308 58.6712 19.8852 58.3375 19.3474C58.0038 18.8095 57.8429 18.1824 57.8764 17.5503H58.1544H58.5217C58.6411 18.1263 58.8991 18.6645 59.2733 19.1183C59.6476 19.5722 60.1269 19.9279 60.6696 20.1548C61.2123 20.3816 61.8022 20.4728 62.3881 20.4203C62.974 20.3679 63.5382 20.1734 64.032 19.8537C64.3328 19.6974 64.5825 19.4582 64.7515 19.1643C64.9204 18.8704 65.0015 18.5342 64.9852 18.1957C65.0001 17.8623 64.9059 17.5331 64.7169 17.258C64.5279 16.983 64.2543 16.7771 63.9377 16.6716C63.1633 16.3837 62.3392 16.2298 61.5499 15.9766C60.7239 15.7464 59.9159 15.456 59.1323 15.1079C57.8912 14.4973 57.792 12.0995 59.2068 11.335C59.9531 10.9016 60.7989 10.6688 61.6619 10.6592C62.5248 10.6497 63.3756 10.8637 64.1313 11.2804C64.5635 11.5385 64.9114 11.9165 65.1326 12.3687C65.3539 12.8208 65.4389 13.3275 65.3773 13.8271Z" fill="black"/>
<path d="M22.1337 20.7275C21.8738 20.8259 21.5868 20.8257 21.327 20.7269C21.0673 20.6281 20.8527 20.4376 20.7238 20.1913C19.9147 18.98 19.0211 17.8234 18.1623 16.6419L17.79 16.1455C16.7673 17.5156 15.7447 18.8311 14.8114 20.1963C14.6898 20.4316 14.4868 20.6148 14.2402 20.7116C13.9937 20.8084 13.7203 20.8123 13.4711 20.7225L17.3084 15.5746L13.7391 10.9231C13.9961 10.8303 14.2771 10.829 14.5349 10.9195C14.7927 11.0099 15.0113 11.1865 15.154 11.4195C15.983 12.6308 16.9014 13.7874 17.8148 15.0136C18.7332 13.7974 19.6416 12.6357 20.4905 11.4344C20.6128 11.2029 20.8159 11.0243 21.0612 10.9328C21.3065 10.8413 21.5769 10.8431 21.8209 10.938L20.4359 12.7747C19.8154 13.5938 19.2048 14.4179 18.5594 15.2171C18.5074 15.2637 18.4658 15.3207 18.4374 15.3844C18.4089 15.4482 18.3942 15.5172 18.3942 15.587C18.3942 15.6568 18.4089 15.7258 18.4374 15.7895C18.4658 15.8532 18.5074 15.9103 18.5594 15.9568C19.7459 17.5305 20.9224 19.1091 22.1337 20.7275Z" fill="black"/>
<path d="M38.4264 10.8733V11.5683C37.9243 11.5354 37.4209 11.6081 36.9486 11.7817C36.4764 11.9554 36.0458 12.2262 35.6847 12.5765C35.3235 12.9269 35.0399 13.3491 34.852 13.8159C34.6641 14.2827 34.5762 14.7837 34.594 15.2865C34.594 16.9214 34.594 18.5563 34.594 20.1912C34.594 20.3649 34.594 20.5387 34.594 20.7472H33.8841V10.913H34.5791V12.9285C35.4379 11.4591 36.7634 10.913 38.4264 10.8733Z" fill="black"/>
<path d="M4.27728 15.5099C4.38153 15.0135 4.44607 14.4724 4.59003 13.9661C5.44885 10.913 8.94865 9.64219 11.3563 11.5336C12.7662 12.6406 13.1186 14.2093 13.0491 15.9766H5.10631C4.97724 19.1338 7.25584 21.0401 10.1699 20.0671C10.6425 19.898 11.0657 19.6139 11.4011 19.2404C11.7365 18.8668 11.9736 18.4156 12.091 17.9275C12.2449 17.4311 12.4931 17.3467 12.9647 17.4907C12.887 18.095 12.6734 18.6739 12.3397 19.1838C12.0061 19.6937 11.5613 20.1213 11.0386 20.4345C10.175 20.9067 9.18422 21.0938 8.2079 20.969C7.23158 20.8442 6.31973 20.4138 5.60274 19.7395C4.89342 18.942 4.46454 17.9342 4.38153 16.8702C4.38153 16.7014 4.317 16.5326 4.28225 16.3737C4.27894 16.0792 4.27728 15.7913 4.27728 15.5099ZM5.11624 15.2965H12.2995C12.2548 13.008 10.8102 11.3846 8.88411 11.3698C6.73955 11.34 5.2056 12.9285 5.11128 15.2866L5.11624 15.2965Z" fill="black"/>
</svg>
