<svg width="60" height="60" viewBox="0 0 60 60" fill="none" xmlns="http://www.w3.org/2000/svg">
<path d="M8.75912 0H51.2409C56.0584 0 60 3.94161 60 8.75912V51.2409C60 56.0584 56.0584 60 51.2409 60H8.75912C3.94161 60 0 56.0584 0 51.2409V8.75912C0 3.94161 3.94161 0 8.75912 0Z" fill="#525967"/>
<path d="M51.2409 2.62774C54.7445 2.62774 57.3723 5.25547 57.3723 8.75912V51.2409C57.3723 54.7445 54.7445 57.3723 51.2409 57.3723H8.75912C5.25547 57.3723 2.62774 54.7445 2.62774 51.2409V8.75912C2.62774 5.25547 5.25547 2.62774 8.75912 2.62774H51.2409ZM51.2409 0H8.75912C3.94161 0 0 3.94161 0 8.75912V51.2409C0 56.0584 3.94161 60 8.75912 60H51.2409C56.0584 60 60 56.0584 60 51.2409V8.75912C60 3.94161 56.0584 0 51.2409 0Z" fill="#454B57"/>
<path d="M22.7736 52.5551C26.7152 52.5551 30.2189 49.0514 30.2189 45.1098V37.6646H22.7736C18.832 37.6646 15.3284 41.1682 15.3284 45.1098C14.8904 49.0514 18.3941 52.5551 22.7736 52.5551Z" fill="#0ACF83"/>
<path d="M14.8906 30.2197C14.8906 26.2781 18.3942 22.7744 22.3358 22.7744H29.7811V37.6649H22.7738C18.3942 37.6649 14.8906 34.1613 14.8906 30.2197Z" fill="#A259FF"/>
<path d="M14.8906 14.8911C14.8906 10.9495 18.3942 7.4458 22.3358 7.4458H29.7811V22.3363H22.7738C18.3942 22.7743 14.8906 19.2706 14.8906 14.8911Z" fill="#F24E1E"/>
<path d="M30.2191 7.4458H37.6643C41.6059 7.4458 45.1096 10.9495 45.1096 14.8911C45.1096 18.8327 41.6059 22.3363 37.6643 22.3363H30.2191V7.4458Z" fill="#FF7262"/>
<path d="M45.1096 30.2197C45.1096 34.1613 41.6059 37.6649 37.6643 37.6649C33.7227 37.6649 30.2191 34.1613 30.2191 30.2197C30.2191 26.2781 33.7227 22.7744 37.6643 22.7744C41.6059 22.7744 45.1096 25.8401 45.1096 30.2197Z" fill="#1ABCFE"/>
</svg>
