<svg width="74" height="74" viewBox="0 0 74 74" fill="none" xmlns="http://www.w3.org/2000/svg">
<path fill-rule="evenodd" clip-rule="evenodd" d="M31.3578 58.6044C31.3578 58.0497 31.3383 56.5821 31.3271 54.6329C24.9937 56.0432 23.6574 51.5028 23.6574 51.5028C22.6217 48.8055 21.1288 48.0875 21.1288 48.0875C19.0615 46.6385 21.2854 46.6686 21.2854 46.6686C23.5708 46.8335 24.7729 49.075 24.7729 49.075C26.8039 52.6422 30.1012 51.6132 31.3998 51.0155C31.6066 49.5064 32.1951 48.4773 32.8451 47.894C27.7893 47.305 22.4735 45.3014 22.4735 36.3553C22.4735 33.8071 23.3611 31.7232 24.8176 30.0908C24.5842 29.5003 23.8014 27.1269 25.0412 23.9122C25.0412 23.9122 26.9534 23.2845 31.3019 26.3057C33.1177 25.7883 35.0662 25.5275 37.0035 25.5189C38.9366 25.5275 40.8838 25.7883 42.7037 26.3057C47.0494 23.2845 48.9588 23.9122 48.9588 23.9122C50.2014 27.1255 49.42 29.4989 49.1852 30.0908C50.6445 31.7232 51.5251 33.8071 51.5251 36.3553C51.5251 45.3243 46.2009 47.2978 41.1284 47.8754C41.9475 48.5963 42.6743 50.0209 42.6743 52.1994C42.6743 55.3209 42.645 57.839 42.645 58.6044C42.645 59.2292 43.0559 59.9544 44.2119 59.7266C53.2514 56.6337 59.7692 47.8883 59.7692 37.5778C59.7692 24.6833 49.5738 14.231 36.9993 14.231C24.4262 14.231 14.2308 24.6833 14.2308 37.5778C14.2322 47.8912 20.7556 56.6423 29.8035 59.7294C30.9413 59.943 31.3578 59.2221 31.3578 58.6044Z" fill="black"/>
</svg>
