<svg width="100" height="125" viewBox="0 0 100 125" fill="none" xmlns="http://www.w3.org/2000/svg">
<path fill-rule="evenodd" clip-rule="evenodd" d="M28.1 45.8C28.1 46.1 28.4 46.2001 28.6 46.4001C28.7 46.5001 28.8 46.5 28.9 46.6C29 46.7 29.2 46.7 29.3 46.8L29.4 47C29.4 47 29.5 47 29.6 47L29.7 47.2001C29.7 47.2001 29.8 47.2001 29.9 47.2001L30 47.4001C30 47.4001 30.1 47.4001 30.2 47.4001C30.3 47.5001 30.4 47.7 30.6 47.8C30.7 47.9 30.9 48 31 48.1C31.3 48.4 31.5 48.6 31.8 48.8C32 49 32.2 49 32.3 49.3L32.4 49.4001C32.4 49.5001 32.4 49.6 32.5 49.7001L32.7 49.8C32.8 49.9 32.8 50 32.9 50.1C33 50.2 33 50.2 33.2 50.3C33.2 50.3 33.3 50.3001 33.3 50.4001C33.5 50.4001 33.7 50.3001 33.9 50.2001C34 50.2001 34.1 50.2 34.2 50.1C34.2 50.1 34.3 49.9001 34.4 49.9001C34.5 49.8001 34.6 49.9 34.7 49.8C34.8 49.8 35 49.7 35.1 49.6C35.2 49.5 35.2 49.5 35.4 49.5C35.7 49.4 36.4 49.2 36.8 49.1C36.9 49.1 37 49.1 37.1 49.1C37.7 48.9 39.1 49.0001 40.1 48.9001C41 48.9001 41.9 48.9001 42.7 48.9001C43.6 48.9001 44.4 48.9 45.2 49.1C45.2 49.1 45.2 49.2001 45.3 49.2001C45.8 49.3001 46.5 49.5001 47 49.7001C47 49.7001 47 49.8 47.1 49.8C47.1 49.8 47.2 49.8 47.3 49.8C47.4 49.8 47.4 49.9 47.5 50C47.5 50 47.6 50 47.7 50V50.1C47.8 50.1 47.9 50.1 48 50.2001C48 50.2001 48.1 50.3001 48.1 50.4001C48.2 50.5001 48.3 50.4 48.4 50.5C48.4 50.5 48.4 50.6 48.5 50.6C48.6 50.6 48.7 50.8 48.9 50.8C49.5 50.8 49.7 50.3001 50.1 49.9001C50.1 49.9001 50.1 49.8001 50.2 49.7001C50.2 49.7001 50.3 49.7001 50.4 49.7001V49.6C50.4 49.6 50.5 49.6 50.6 49.6V49.5H50.8V49.4001C50.9 49.3001 51 49.3001 51.1 49.2001C51.2 49.1 51.3 49.0001 51.3 48.9001C51.6 48.6001 52 48.2001 52.5 47.9001C52.7 47.8001 52.9 47.6 53.1 47.5C53.2 47.4 53.3 47.3001 53.3 47.2001C53.3 47.2001 53.4 47.2001 53.5 47.2001V47.1C53.5 47.1 53.6 47.1 53.7 47.1V47C53.8 46.9 54.1 46.9 54.3 46.8C54.4 46.8 54.4 46.7001 54.4 46.7001C54.6 46.6 54.8 46.6 55 46.5L55.1 46.4001C55.5 46.3001 55.9 46.4 56.3 46.3C56.6 46.2 56.9 46.0001 57.2 45.9001C57.9 45.8001 58.6 45.8 59.1 45.8C59.4 45.8 59.7 45.9001 60 45.9001C60.1 45.9001 60.3 45.9 60.4 46C60.4 46 60.4 46.1 60.5 46.1H60.6L60.7 46.2001C61 46.3001 61.2 46.3 61.5 46.3C61.5 46.3 61.5 46.4001 61.6 46.4001C61.7 46.4001 61.9 46.5 62 46.6C62.1 46.7 62.3 46.7 62.5 46.8C62.5 46.8 62.5 46.9001 62.6 46.9001C62.7 46.9001 62.8 47.1 62.9 47.1C63.1 47.1 63.2 47.2 63.3 47.3C63.3 47.3 63.5 47.3001 63.6 47.4001V47.5C63.6 47.5 63.7 47.5 63.8 47.5V47.6C63.9 47.7 64 47.6 64.1 47.7001C64.1 47.7001 64.1 47.8001 64.2 47.9001C64.2 47.9001 64.3 47.9001 64.4 47.9001C64.6 48.2001 65.2 48.0001 65.9 47.9001C66.3 47.9001 66.7 47.9 67.1 47.8C67.4 47.7 67.6 47.6 67.9 47.5C68.2 47.4 68.5 47.4 68.7 47.3C68.7 47.3 68.7 47.2001 68.8 47.2001C68.8 47.2001 69 47.2001 69.1 47.2001C69.2 47.1 69.2 47.1 69.4 47.1H69.6C69.7 47 69.7 47 69.9 47H70.1C70.1 47 70.3 46.9 70.5 46.8C71 46.7 71.6 46.5 72.1 46.3C72.7 46.2 73.2 46.1 73.8 46C73.8 46 73.8 45.9001 73.9 45.9001C73.9 45.9001 74.6 46.0001 74.7 45.9001C74.8 45.8001 75.3 45.8001 75.6 45.7001C76 45.6 76.4 45.5001 76.9 45.4001C77 45.4001 77.1 45.4001 77.2 45.4001C77.7 45.2001 78.7 45.1001 79.2 44.9001H79.4C79.5 44.8001 79.5 44.8 79.7 44.8H79.9V44.7001C80.1 44.6001 80.3 44.7 80.6 44.6C81 44.5 82.1 44.4 82.6 44.3C82.9 44.2 83.7 44.3 84.1 44.3C84.9 44.3 85.8 44.3001 86.6 44.4001C86.7 44.4001 86.8 44.5 86.9 44.5C87 44.5 87.2 44.5 87.3 44.5C87.3 44.5 87.3 44.6 87.4 44.6C87.7 44.6 88 44.9 88.3 45C88.7 45.2 89.1 45.3 89.4 45.5L89.5 45.6C89.6 45.6 89.7 45.6 89.8 45.7001C89.9 45.8001 90 45.9 90.1 46C90.2 46.1 90.3 46 90.4 46.1C90.5 46.1 90.5 46.2 90.6 46.3C90.8 46.5 90.9 46.6001 91 46.9001C91 47.0001 91.1 47 91.2 47.1C91.4 47.4 91.5 47.8001 91.7 48.2001C91.9 48.7001 92.1 48.9 92.2 49.5V49.7001H92.3C92.4 50.6 92.3 51.5 92.1 52.5C91.4 53 90.6 53.3 89.8 53.1C89.8 53.1 89.8 53 89.7 53C89.6 53 89.6 52.9 89.5 52.8C89.4 52.8 89.3 52.8 89.2 52.6C89.1 52.5 89.1 52.2 89 52C88.9 51.8 88.9 51.6001 88.8 51.4001C88.8 51.4001 88.7 51.4 88.7 51.3C88.7 51.3 88.6 51.2 88.6 51.1C88.5 51 88.5 50.9001 88.4 50.7001C88.4 50.6 88.3 50.5001 88.2 50.4001C88.1 50.3001 88.2 50.2 88.1 50.1C88.1 50 87.9 50.0001 87.9 49.9001C87.8 49.8001 87.9 49.7 87.8 49.6C87.8 49.5 87.7 49.5001 87.6 49.4001C87.5 49.3001 87.6 49.2 87.5 49.1C87.4 49 87.3 48.9001 87.2 48.9001L87.1 48.8C87 48.8 86.9 48.6 86.8 48.6C86.7 48.6 86.5 48.5001 86.4 48.4001C86.2 48.3001 86 48.3001 85.8 48.2001C85.6 48.1 85.3 48.1 85.2 48C84.7 47.9 84 48 83.3 48.1C82.2 48.1 81.3 48.2001 80.4 48.4001C80.3 48.4001 80.3 48.5 80.1 48.5C80 48.5 80 48.5 79.9 48.5C79.8 48.5 79.7 48.5 79.5 48.6C79.1 48.7 78.3 48.7 77.7 48.8C77.1 48.9 76.5 49 75.9 49.1C75.8 49.1 75.6 49.1 75.5 49.1C75.5 49.1 75.5 49.2001 75.4 49.2001C75.3 49.2001 75.2 49.2001 75.1 49.2001C74.9 49.2001 74.8 49.2 74.5 49.3C74.4 49.3 74.3 49.4001 74.2 49.4001C74.1 49.4001 74.1 49.5 74.1 49.5C73.7 49.6 73.2 49.7 72.8 49.8C72.8 49.8 72.8 49.9001 72.7 49.9001C72.3 49.9001 71.9 50.1 71.4 50.2001C71 50.3001 70.8 50.3001 70.4 50.4001C70.3 50.4001 70 50.5 69.9 50.6C69.8 50.7 69.8 50.7001 69.6 50.7001C69.5 50.7001 69.5 50.8 69.5 50.8C69 50.9 68.6 51 68.2 51.1C68 51.4 68.5 51.6 68.5 51.8C68.5 52 68.9 52.6001 69 52.9001C69.1 53.0001 69.1 53.0001 69.1 53.2001C69.1 53.3001 69.2 53.3 69.2 53.3C69.3 53.7 69.2 54.1 69.3 54.6C69.3 54.8 69.5 54.9 69.6 55.1C69.6 55.1 69.7 55.3001 69.7 55.4001H69.8V55.6C70 55.7 69.9 55.9 70 56.3V56.5H70.1C70.2 56.9 70.2 57.4001 70.1 57.9001C70.1 58.0001 70.1 58.2001 70.1 58.2001C70 58.3001 70 58.5 69.9 58.6C69.8 58.7 69.9 58.8 69.8 59C69.7 59.5 69.7 59.9 69.6 60.3C69.6 60.3 69.5 60.3001 69.5 60.4001C69.5 60.6001 69.3 60.9001 69.2 61.2001V61.4001H69.1C69.1 61.4001 69.1 61.5 69.1 61.6H69C69 61.6 69 61.7 69 61.8H68.9C68.9 61.8 68.9 61.9 68.9 62C68.8 62.1 68.7 62.3 68.6 62.5C68.6 62.5 68.6 62.6 68.5 62.7001C68.5 62.7001 68.4 62.8 68.3 62.8C68.2 62.9 68.3 63 68.2 63.1C68.1 63.2 68 63.3001 68 63.4001C67.9 63.5001 67.9 63.6 67.8 63.7001C67.7 63.9001 67.5 64 67.4 64.2C67.3 64.3 67.2 64.4 67.2 64.5C67.1 64.6 67.1 64.7001 67 64.8001C66.9 64.9001 66.8 65 66.8 65.1C66.5 65.5 66.1 65.8 65.6 66.2C65.5 66.3 65.4 66.4 65.4 66.5C65.3 66.6 65.3 66.7001 65.2 66.8001C65.1 66.9001 65 66.8001 64.9 66.9001C64.7 67.0001 64.5 67.4 64.2 67.5C64.1 67.8 63.9 67.9 63.7 68.1C63.6 68.1 63.6 68.2001 63.5 68.3001C63.5 68.3001 63.4 68.3001 63.3 68.3001V68.4001C63.3 68.4001 63.2 68.4001 63.1 68.4001V68.5C62.9 68.6 62.7 68.6 62.5 68.7C62.5 68.7 62.5 68.8001 62.4 68.8001C62.3 68.8001 62.2 69 62.1 69C62 69 61.8 69.1 61.7 69.2C61.6 69.3 61.4 69.3001 61.3 69.3001C61.1 69.4001 60.9 69.5 60.6 69.6C59.9 69.8 58.8 69.7 58.1 69.6C57.8 69.5 57.5 69.6 57.1 69.5C56.8 69.5 56.4 69.4001 56 69.4001C55.7 69.4001 55.6 69.3 55.4 69.2C55.2 69.2 55.2 69.2 55 69.1C55 69.1 54.9 68.9001 54.8 68.9001C54.6 68.9001 54.6 68.9001 54.5 68.8001C54.4 68.7001 54.3 68.7 54.2 68.6C54.1 68.6 54 68.6 53.9 68.5C53.9 68.5 53.8 68.4001 53.8 68.3001C53.7 68.3001 53.6 68.3 53.5 68.2C53.5 68.2 53.4 68.1 53.4 68C53.3 67.9 53.2 68.0001 53.1 67.9001C53.1 67.9001 53.1 67.8001 53 67.8001C52.9 67.8001 52.8 67.7 52.7 67.6C52.6 67.6 52.6 67.6 52.5 67.5C52.4 67.5 52.4 67.4001 52.3 67.3001C52.2 67.3001 52.2 67.3 52.1 67.2C52 67.2 52 67.1 51.9 67C51.9 67 51.8 67 51.7 67V66.9001C51.6 66.8001 51.4 66.8 51.4 66.7C51.2 66.5 50.9 66.2001 50.7 66C50.7 66 50.6 66.0001 50.6 65.9001C50.6 65.8001 50.2 65.6001 50.2 65.4001C50.2 65.2001 50 65.2 49.9 65.1C49.9 65.1 49.9 65.0001 49.9 64.9001L49.7 64.8001C49.7 64.8001 49.7 64.7 49.7 64.6H49.6C49.6 64.6 49.6 64.5001 49.6 64.4001C49.5 64.3001 49.4 64.2 49.3 64.1C49.2 63.9 49.2 63.8 49 63.6L48.9 63.5C48.8 63.3 48.7 63 48.6 62.8C48.6 62.8 48.4 62.8001 48.4 62.7001C48.4 62.6 48.4 62.5001 48.4 62.4001C48.4 62.4001 48.3 62.4 48.3 62.3V62.2001L48.2 62.1C48.1 61.6 48.2 61.1 48.1 60.5C48 60 47.7 59.6 47.6 59.2001C47.5 58.6 47.5 57.7001 47.5 57C47.5 56.7001 47.6 56.4 47.6 56.1C47.6 55.8 47.7 55.4001 47.7 55.2001C47.6 54.9001 47.3 54.8 47 54.5C46.9 54.5 46.8 54.5001 46.7 54.4001C46.6 54.4001 46.6 54.3001 46.5 54.2001C46.1 54 46 54 46 54C46 54 46 53.9001 45.9 53.9001H45.8C45.7 53.9001 45.7 53.8001 45.6 53.7001C45.4 53.6 45.3 53.6 45.1 53.5C45.1 53.5 45.1 53.4001 45 53.4001C44.9 53.4001 44.8 53.3001 44.7 53.2001C44.6 53.2001 44.5 53.2 44.4 53.1C44.3 53.1 44.3 53.0001 44.2 52.9001C44.2 52.9001 44.1 52.9001 44 52.9001C44.1 53.0001 44.1 53 44 53C43.9 53 43.9 52.9001 43.7 52.9001C43.6 52.9001 43.6 52.8 43.6 52.8C43.4 52.8 43.2 52.8001 43.1 52.7001C43.1 52.7001 43 52.5 42.9 52.5C42.7 52.4 42.6 52.5001 42.4 52.4001C41.9 52.3001 40.9 52.4 40.3 52.5C40 52.6 39.8 52.7 39.5 52.8C39.1 52.9 38.7 52.8001 38.3 52.9001C38.1 52.9001 38 53 37.8 53.1C37.7 53.1 37.4 53.2001 37.3 53.2001C37 53.3001 36.8 53.5 36.5 53.6C36.2 53.7 36 53.8 35.7 54C35.6 54.1 35.4 54.1 35.3 54.2001C35.2 54.2001 35.1 54.4001 35 54.4001H34.9C34.8 54.4001 34.8 54.5 34.7 54.6C34.7 54.6 34.6 54.6 34.5 54.6C34.3 54.8 34.2 55 34.1 55.3C34.1 55.3 34 55.3001 34 55.4001C34 55.6001 34 55.7001 33.9 56C33.9 56 33.8 56 33.8 56.1C33.8 56.3 33.8 56.4 33.7 56.5C33.6 56.7001 33.5 57.2001 33.4 57.5C33.2 58 32.9 58.6 32.6 59.2001C32.6 59.3001 32.6 59.4 32.5 59.5C32.5 59.6 32.4 59.6 32.3 59.7001C32.3 59.8001 32.2 59.8001 32.1 59.9001C32.1 59.9001 32.1 60 32.1 60.1C32.1 60.1 31.9 60.3001 31.9 60.4001V60.5C31.9 60.6 31.8 60.6 31.7 60.7001C31.7 60.7001 31.7 60.8001 31.7 60.9001C31.4 61.2001 31 62 30.7 62.5C30.6 62.7001 30.4 63 30.2 63.3C30 63.5 29.9 63.8 29.7 64C29.6 64.1 29.5 64.1 29.4 64.2C29.4 64.2 29.4 64.3001 29.3 64.3001C29.1 64.3001 28.9 64.6 28.5 64.7C28.3 64.8 28.2 64.9 28.1 65.1C28 65.2 27.9 65.3001 27.8 65.4001C27.7 65.5001 27.5 65.6001 27.4 65.8001C27.3 65.9001 27.2 66.1 27.1 66.1C27 66.2 26.8 66.2001 26.6 66.3001C26.5 66.3001 26.5 66.4 26.4 66.5C26.3 66.6 26.2 66.5 26.1 66.6C25.9 66.7 25.8 66.8001 25.7 66.9001C25.5 67.0001 25.4 67.1 25.2 67.2C25 67.2 24.9 67.3001 24.7 67.4001C24.5 67.5001 24.1 67.6 23.8 67.7C23.7 67.7 23.6 67.7 23.5 67.7C22.9 67.9 21.6 67.9001 20.8 67.8001C20.7 67.8001 20.6 67.7 20.5 67.7C19.9 67.7 19 67.6001 18.4 67.4001C18.4 67.4001 18.3 67.4001 18.2 67.4001C18.1 67.3001 18 67.3 17.9 67.2C17.9 67.2 17.8 67.2 17.7 67.2C17.7 67.2 17.4 67 17.3 67C17.3 67 17.2 67 17.1 67V66.9001C17.1 66.9001 17 66.9001 16.9 66.9001C16.9 66.8001 16.6 66.7 16.5 66.7C16.4 66.7 16.3 66.7 16.2 66.6C16.2 66.6 16.1 66.5001 16.1 66.4001C16 66.3001 15.8 66.3 15.7 66.2C15.7 66.2 15.7 66.1 15.6 66.1C15.4 66.1 15.2 65.9 15 65.7C14.9 65.6 14.8 65.5001 14.7 65.4001C14.6 65.3001 14.5 65.2 14.4 65.1C14.3 65 14.1 65.0001 14 64.9001C13.7 64.7001 13.6 64.5 13.3 64.2C13 64 12.7 63.8 12.5 63.6C12.5 63.6 12.5 63.5001 12.5 63.4001L12.3 63.3C12.2 63.2 12.3 63.1 12.2 63C12.2 63 12.1 63.0001 12.1 62.9001C12.1 62.8001 11.9 62.7 11.8 62.6C11.6 62.3 11.4 61.9 11.2 61.5C11.1 61.4 11.1 61.4001 11.1 61.2001C11.1 61.1 10.9 60.9001 10.8 60.7001C10.8 60.6 10.8 60.5001 10.7 60.4001C10.7 60.3001 10.6 60.3 10.6 60.1C10.6 60 10.5 60 10.5 59.8C10.5 59.7 10.4 59.6 10.3 59.5C10.2 59.2001 10.3 58.9 10.3 58.6C10.3 58.5 10.2 58.4001 10.2 58.2001C10.2 58 10.2 57.8 10.2 57.5C10.2 57.5 10.1 57.5001 10.1 57.4001C10.3 57.3001 10.1 56.5 10.1 56C10.1 55.9 10.2 55.8 10.2 55.6C10.2 54.8 10.3 53.5 10.5 52.8C10.6 52.4 10.9 51.9001 11.1 51.4001C11.1 51.4001 11.1 51.3001 11.1 51.2001C11.2 51.1 11.2 50.7 11.3 50.5C11.3 50.5 11.4 50.5001 11.4 50.4001C11.4 50.3001 11.6 50.2 11.6 50.1C11.6 50 11.8 49.9 11.8 49.8C11.8 49.6 12 49.6 12 49.5C12 49.5 12 49.4 12 49.3C12 49.3 12.1 49.2001 12.2 49.2001C12.2 49.2001 12.2 49.1 12.2 49C12.2 49 12.3 48.9001 12.4 48.9001C12.4 48.9001 12.4 48.8001 12.4 48.7001C12.6 48.6 12.7 48.3 12.9 48.1C12.9 48.1 13 48.1 13 48C13 48 13.1 47.9 13.1 47.8L13.3 47.7001C13.3 47.7001 13.3 47.6 13.3 47.5C13.4 47.4 13.6 47.2 13.7 47.1C13.9 46.9 14.1 46.7 14.4 46.5C14.5 46.4 14.5 46.3001 14.6 46.2001C14.6 46.2001 14.7 46.2001 14.8 46.2001L14.9 46C14.9 46 15 46 15.1 46L15.2 45.8C15.5 45.6 15.9 45.6 16.2 45.5C16.2 45.5 16.2 45.4001 16.3 45.4001C16.5 45.4001 16.5 45.4 16.7 45.3C16.7 45.3 16.8 45.1 16.9 45.1C17 45.1 17.1 45.1 17.2 45.1C17.3 45.1 17.3 44.9001 17.4 44.9001C17.4 44.9001 17.5 44.9001 17.6 44.9001C17.7 44.9001 17.7 44.8 17.9 44.8C17.9 44.8 18.1 44.7001 18.2 44.7001C18.3 44.6001 18.3 44.6 18.4 44.6C18.5 44.6 18.8 44.4 19 44.3H19.2V44.2001C19.3 44.2001 19.6 44.1 19.7 44.1C20.1 44 20.6 43.9 21 43.8C21.6 43.7 22.2 43.7 22.9 43.5H23.1V43.4001C23.1 43.4001 23.2 43.4001 23.3 43.4001C23.4 43.3001 23.4 43.4 23.6 43.3C23.6 43.3 23.6 43.1 23.7 43.1C23.7 43.1 23.8 43.1 23.9 43.1C24 43 24.2 42.8001 24.4 42.7001C24.5 42.6001 24.8 42.7 25 42.6C25.1 42.6 25.1 42.5 25.3 42.5H25.5C25.6 42.3 26.3 42.4001 26.7 42.4001C26.8 42.4001 26.8 42.3 26.9 42.3C27.1 42.2 27.6 42.2 27.9 42.1C27.9 42.1 27.9 42 28 42C28.2 42 28.4 42.0001 28.7 41.9001C28.7 41.9001 28.7 41.8 28.8 41.8C29 41.8 29.2 41.8001 29.4 41.7001C29.4 41.7001 29.4 41.6 29.5 41.6H29.6C29.7 41.6 29.9 41.5001 30.1 41.4001C30.2 41.4001 30.4 41.4001 30.4 41.4001V41.3C30.7 41.2 30.9 41.2 31.2 41.1C31.4 41 31.7 40.9 31.9 40.8C32.1 40.7 32.2 40.7 32.4 40.6C32.5 40.5 32.7 40.5001 32.9 40.4001C33 40.4001 33.2 40.4001 33.2 40.4001V40.3C33.4 40.2 33.7 40.3001 34 40.2001C34 40.2001 34 40.1 34.1 40.1C34.1 40.1 34.3 40.1 34.4 40.1C34.5 40 34.7 40.1 34.7 40V39.9001C34.8 39.9001 35 39.9001 35 39.9001V39.8C35.1 39.8 35.3 39.8 35.3 39.8V39.7001C35.4 39.7001 35.6 39.7 35.7 39.6C36 39.5 36.4 39.4 36.7 39.3C36.7 39.3 36.7 39.2001 36.8 39.2001C36.8 39.2001 37 39.2001 37.1 39.2001C37.2 39.1001 37.2 39.2 37.5 39.1C37.7 39 37.9 39.0001 38.2 38.9001C38.3 38.9001 38.5 38.8 38.6 38.8C38.6 38.8 38.6 38.7001 38.7 38.7001C39.2 38.7001 39.8 38.4 40.4 38.3C40.9 38.2 41.4 38.1 41.9 38C42.2 37.9 42.4 37.9001 42.7 37.9001C42.7 37.9001 42.7 37.8 42.8 37.8C43.1 37.8 43.5 37.7 43.8 37.6C44.4 37.4 45.5 37.4001 46.3 37.4001C46.4 37.4001 46.4 37.3 46.6 37.3C46.8 37.3 47.2 37.4001 47.5 37.4001C47.8 37.4001 48.1 37.5 48.4 37.5C48.4 37.5 48.4 37.6 48.5 37.6C48.9 37.7 49.7 37.7001 50.1 37.9001C50.2 37.9001 50.2 38 50.3 38.1C50.4 38.1 50.5 38.1001 50.6 38.2001C50.7 38.3001 50.8 38.4 50.9 38.5C51 38.6 51.1 38.5 51.2 38.6C51.3 38.7 51.2 38.8001 51.3 38.9001C51.4 39.0001 51.4 39 51.5 39.1C51.6 39.2 51.8 39.4 51.9 39.6C52 39.7 52.1 39.8001 52.2 39.9001C52.5 40.3001 52.8 40.8 52.8 41.6C52.8 41.8 52.8 42 52.8 42.1C52.8 42.1 52.7 42.1001 52.7 42.2001C52.7 42.6001 52.2 42.9 51.8 43.1C51.6 43.2 51.3 43.2001 51.1 43.2001C51.1 43.2001 51.1 43.3 51 43.3C50.8 43.3 50.5 43.3001 50.3 43.2001C50.2 43.2001 50.1 43.2 50 43.1C49.9 43 49.6 42.9 49.5 42.8C49.4 42.7 49.2 42.6 49.2 42.5C49.1 42.4 49.1 42.2 48.9 42.1C48.8 42 48.7 41.9 48.6 41.8C48.5 41.7 48.3 41.5 48.3 41.5C48.2 41.4 48 41.3 47.9 41.3C47.8 41.3 47.8 41.2 47.7 41.1C47.7 41.1 47.6 41.1 47.5 41.1C47.4 41 47.4 41.1 47.2 41C47.1 41 47 41.0001 46.9 40.9001C46.8 40.9001 46.7 40.8 46.4 40.8C46.2 40.8 46.1 40.9001 45.8 40.9001C45.6 40.9001 45.5 41 45.2 41C45 41 44.9 41.1 44.6 41.1C44.5 41.1 44.5 41.1 44.4 41.1C44.3 41.1 44.2 41.2001 44 41.2001C43.7 41.3001 43 41.4 42.6 41.5C42.3 41.6 41.7 41.7001 41.3 41.9001C41.2 41.9001 41.2 41.9001 41.1 41.9001C41 41.9001 41 42 41 42C40.6 42.1 40.2 42.1001 39.8 42.2001C39.6 42.2001 39.5 42.3001 39.3 42.4001C39.1 42.5001 38.9 42.5 38.7 42.5C38.6 42.5 38.4 42.6001 38.2 42.7001C38 42.8001 37.8 42.8 37.6 42.8C37.6 42.8 37.6 42.9001 37.5 42.9001C37.1 42.9001 36.6 43.1001 36.2 43.2001C35.9 43.2001 35.8 43.2 35.4 43.3C34.6 43.5 33.5 43.9 32.6 44.1C32.4 44.2 32.4 44.1001 32.2 44.2001C32.1 44.2001 32.1 44.3 31.9 44.3C31.8 44.3 31.8 44.4001 31.6 44.4001C31.5 44.4001 31.5 44.5 31.3 44.5C31.2 44.5 31.2 44.6 31 44.6C30.9 44.6 30.9 44.7001 30.9 44.7001C30.6 44.8001 30.1 44.9 29.8 45C28.7 45.5 28.3 45.5 28.1 45.8ZM18.8 49C18.6 49.1 18.4 49.3001 18.2 49.4001C18 49.6001 17.9 49.7001 17.7 49.9001C17.6 50.0001 17.6 50.1 17.5 50.2001C17.4 50.3001 17.3 50.3001 17.2 50.4001C16.8 50.7001 16.6 50.9001 16.4 51.2001C16.2 51.5001 16.1 51.7001 15.9 51.9001C15.8 52.0001 15.6 52.1 15.6 52.2001C15.5 52.4001 15.4 52.6 15.4 52.6C15.4 52.6 15.4 52.7 15.4 52.8C15.4 52.9 15.3 52.9 15.2 53C15.1 53.2 15.1 53.3001 15 53.4001C15 53.4001 14.9 53.5 14.8 53.6C14.8 53.6 14.8 53.7 14.8 53.8C14.8 53.9 14.7 54 14.7 54.1C14.7 54.2 14.6 54.2001 14.6 54.2001C14.5 54.8001 14.5 55.5 14.5 56.2001C14.4 57.2001 14.4 58.1 14.6 58.7001C14.7 59.1 14.9 59.9 15.1 60C15.1 60 15.1 60.1 15.1 60.2001H15.2C15.2 60.2001 15.3 60.4 15.3 60.5C15.3 60.6 15.3 60.6 15.4 60.7001C15.5 60.8001 15.6 60.8001 15.7 60.9001C15.7 60.9001 15.7 61 15.7 61.1C15.7 61.1 15.9 61.1 15.9 61.2001C15.9 61.2001 15.9 61.3001 15.9 61.4001L16.1 61.5C16.3 61.7001 16.6 62 16.8 62.2001C16.9 62.3001 17 62.4001 17.1 62.4001C17.2 62.5001 17.3 62.4 17.4 62.5C17.5 62.5 17.5 62.7001 17.6 62.7001C17.7 62.7001 17.6 62.8 17.7 62.8C17.8 62.8 18 62.8001 18.1 62.9001C18.2 62.9001 18.2 63 18.4 63C18.5 63 18.5 63.1 18.5 63.1C18.8 63.2 19.1 63.1 19.4 63.2001C20 63.3001 20.7 63.4001 21.3 63.4001C21.4 63.4001 21.5 63.3 21.6 63.3C21.7 63.3 21.8 63.3 21.9 63.3C22.5 63.2 23 63.1001 23.3 62.9001C23.4 62.9001 23.5 62.9 23.6 62.8C23.6 62.8 23.7 62.7 23.8 62.6C23.9 62.5 24 62.5 24.1 62.5C24.3 62.4 24.3 62.4001 24.4 62.2001C24.4 62.2001 24.5 62.2001 24.6 62.2001C24.6 62.2001 24.7 62.1 24.8 62C24.9 61.9 25 61.9 25 61.8C25.1 61.7 25.2 61.7 25.3 61.6C25.3 61.6 25.4 61.5001 25.4 61.4001C25.5 61.3001 25.6 61.3 25.7 61.3C25.7 61.3 25.7 61.2001 25.8 61.2001C26 61.1 26 61.0001 26.1 60.9001C26.3 60.7001 26.5 60.5 26.7 60.3C26.8 60.2 27 60.1001 27.1 59.9001C27.1 59.8001 27.1 59.7 27.2 59.6L27.3 59.5C27.4 59.4 27.4 59.3001 27.5 59.2001C27.6 59.1 27.6 59.0001 27.7 58.9001C27.9 58.5001 28.1 58.1 28.3 57.7001C28.5 57.4001 28.7 57 28.9 56.7001C29 56.5 29 56.4 29.1 56.3C29.2 56.1 29.4 55.7001 29.4 55.5C29.4 55.3 29.4 55.1 29.4 54.8C29.4 54.5 29.5 54.3001 29.4 54.2001C29.4 54.2001 29.4 54.1 29.4 54C29.3 53.6 29.3 53.5 29.2 53.2001C29.2 53.1 29.2 53.0001 29.1 52.9001C29.1 52.9001 29 52.8001 28.9 52.7001C28.8 52.5001 28.8 52.4001 28.7 52.2001C28.6 52.0001 28.6 51.8001 28.5 51.7001C28.5 51.7001 28.4 51.6 28.3 51.6C28.2 51.5 28.3 51.4 28.2 51.3C28.2 51.3 28.1 51.3001 28 51.2001C27.9 51.1 28 51.0001 27.9 50.9001C27.8 50.8001 27.7 50.7001 27.6 50.7001C27.3 50.4001 26.9 49.9001 26.6 49.7001C26.4 49.6 26.3 49.5 26.2 49.5C26.1 49.5 26 49.3 25.9 49.3C25.8 49.3 25.8 49.2001 25.8 49.2001C25.4 49.0001 24.8 49 24.2 48.8C23.8 48.7 23.4 48.5 23.2 48.5C23.1 48.5 23.1 48.4001 23.1 48.4001C23 48.4001 22.9 48.4001 22.8 48.4001C22.7 48.4001 22.7 48.3 22.7 48.3C22.2 48.2 21.4 48.3001 20.9 48.4001C20.8 48.4001 20.8 48.5 20.8 48.5C20 48.9 19.2 48.9 18.8 49ZM55.6 50.4001C55.3 50.5001 55.2 50.6 54.9 50.7001C54.9 50.7001 54.9 50.9001 54.8 50.9001C54.7 51.0001 54.6 50.9 54.5 51C54.5 51 54.4 51.1 54.3 51.2001C54.3 51.2001 54.2 51.2001 54.1 51.2001L54 51.4001C54 51.4001 53.9 51.4001 53.8 51.4001L53.7 51.6C53.3 51.9 53.2 52.2 53 52.6C53 52.7 53 52.8001 52.9 52.9001C52.9 52.9001 52.8 53 52.7 53.1C52.7 53.2 52.7 53.3001 52.6 53.4001C52.6 53.4001 52.5 53.4 52.5 53.5C52.4 53.7001 52.4 53.9 52.3 54.1C52.2 54.6 52 55.1 51.7 55.3C51.7 55.3 51.7 55.4 51.7 55.5H51.6C51.6 55.5 51.6 55.6 51.6 55.7001C51.6 55.8001 51.5 55.9 51.4 56C51.2 56.5 51 57.1 50.9 57.6C50.9 58 51 58.7001 51.1 59C51.1 59.1 51.1 59.2 51.1 59.3C51.1 59.7 51.2 60 51.2 60.1C51.2 60.2 51.2 60.3001 51.3 60.4001C51.3 60.4001 51.3 60.5 51.3 60.6H51.4C51.4 60.6 51.4 60.7 51.4 60.8C51.5 61.1 51.7 61.4 51.8 61.6C52 62 52.2 62.4 52.4 62.6C52.4 62.6 52.4 62.7 52.4 62.8C52.5 62.9 52.6 62.9 52.7 63C52.8 63.1 52.8 63.2001 52.9 63.2001C53.1 63.3001 53.2 63.4 53.3 63.5C53.3 63.5 53.4 63.5 53.5 63.5C53.6 63.6 53.6 63.7001 53.7 63.7001C53.7 63.7001 53.8 63.7001 53.9 63.7001C53.9 63.7001 54 63.8001 54 63.9001C54 63.9001 54.1 63.9001 54.2 63.9001C54.2 63.9001 54.3 64 54.3 64.1C54.3 64.1 54.5 64.2 54.6 64.2C54.7 64.2 54.8 64.3001 54.9 64.4001C55.1 64.5001 55.2 64.5 55.3 64.6C55.5 64.7 55.7 64.7001 55.8 64.8001C56.4 65.0001 56.9 65.1 57.4 65.1C57.5 65.1 57.5 65 57.5 65C57.6 65 57.7 65 57.8 65C57.9 65 57.9 64.9001 57.9 64.9001C58.2 64.8001 58.4 64.8 58.7 64.7C58.9 64.6 59 64.5001 59 64.4001C59 64.4001 59.1 64.4001 59.2 64.4001V64.3001C59.2 64.3001 59.3 64.3001 59.4 64.3001V64.2C59.4 64.2 59.5 64.2 59.6 64.2C59.7 64.2 59.7 64 59.8 64C59.9 64 59.8 63.9001 59.9 63.9001C60 63.9001 60.1 63.9 60.2 63.8C60.3 63.7 60.4 63.6 60.4 63.5C60.6 63.3 60.9 63.3 61.1 63.1C61.1 63.1 61.1 63.0001 61.2 62.9001C61.3 62.8001 61.4 62.9 61.5 62.8C61.6 62.7 61.7 62.5001 61.8 62.4001C62.2 61.9001 62.5 61.5 62.8 61C63 60.6 63.2 60.3 63.5 60C63.6 59.8 63.8 59.8 63.9 59.6C64.1 59.4 64.2 59.2001 64.2 58.9001C64.2 58.8001 64.3 58.8 64.3 58.8C64.4 58.5 64.4 58.2001 64.4 57.9001C64.5 57.5001 64.5 56.9 64.4 56.5C64.4 56.4 64.3 56.3001 64.3 56.2001C64.3 56.1 64.3 55.9 64.3 55.8C64.2 55.4 63.9 54.9 63.8 54.6C63.8 54.5 63.8 54.4 63.7 54.3C63.6 54.2 63.6 54.0001 63.5 53.9001C63.5 53.9001 63.4 53.8001 63.4 53.7001C63.4 53.6 63.3 53.7 63.3 53.6C63.2 53.5 63.2 53.3 63.1 53.1C63.1 53.1 63 53.0001 62.9 52.9001C62.8 52.8001 62.9 52.7 62.8 52.6C62.8 52.6 62.7 52.5001 62.6 52.4001C62.6 52.4001 62.6 52.3001 62.6 52.2001C62.6 52.2001 62.4 52.2 62.4 52.1C62.3 52 62.3 51.9 62.3 51.8C62.3 51.8 62.2 51.8001 62.2 51.7001C62.1 51.5001 62 51.4001 61.8 51.2001C61.6 51.0001 61.4 50.9 61.2 50.8C61 50.7 60.8 50.5 60.7 50.5C60.6 50.4 60.3 50.4001 60 50.4001C59.7 50.4001 59.6 50.3001 59.6 50.4001C59.6 50.4001 59.5 50.4001 59.4 50.4001C59 50.4001 58.6 50.3 58.1 50.3C57.7 50.3 57.3 50.3 56.8 50.3C56.4 50.3 55.5 50.3001 55.4 50.4001C55.7 50.2001 55.6 50.4001 55.6 50.4001Z" fill="#231F20"/>
</svg>
