<svg width="74" height="74" viewBox="0 0 74 74" fill="none" xmlns="http://www.w3.org/2000/svg">
<path d="M37 64.2874C21.9688 64.2874 9.71251 52.0312 9.71251 36.9999C9.71251 21.9687 21.9688 9.7124 37 9.7124C52.0313 9.7124 64.2875 21.9687 64.2875 36.9999C64.2875 52.0312 52.0313 64.2874 37 64.2874Z" fill="#261300"/>
<path d="M37 11.3891C51.1063 11.3891 62.6109 22.8938 62.6109 37C62.6109 51.1063 51.1063 62.6109 37 62.6109C22.8938 62.6109 11.3891 51.1063 11.3891 37C11.3891 22.8938 22.8938 11.3891 37 11.3891ZM37 8.09375C21.0437 8.09375 8.09375 21.0437 8.09375 37C8.09375 52.9562 21.0437 65.9062 37 65.9062C52.9562 65.9062 65.9062 52.9562 65.9062 37C65.9062 21.0437 52.9562 8.09375 37 8.09375Z" fill="#FF7F18"/>
<path d="M44.8625 31.6235C44.8625 31.4501 44.9203 31.3923 45.0937 31.3923H48.3891C48.5625 31.3923 48.6203 31.4501 48.6203 31.6235V48.3313C48.6203 48.5048 48.5625 48.5626 48.3891 48.5626H45.0937C44.8625 48.5626 44.8047 48.447 44.8047 48.2735L44.8625 31.6235ZM44.6312 26.8251C44.6312 25.4954 45.5562 24.686 46.7703 24.686C48.0422 24.686 48.9094 25.5532 48.9094 26.8251C48.9094 28.2126 47.9844 28.9642 46.7125 28.9642C45.4984 28.9642 44.6312 28.2126 44.6312 26.8251ZM35.0922 38.561C34.5141 36.1907 33.1266 31.1032 32.5484 28.6173H32.4906C32.0281 31.1032 30.9297 35.2657 30.0625 38.561H35.0922ZM29.2531 42.0298L27.5766 48.3892C27.5187 48.5626 27.4609 48.6204 27.2875 48.6204H24.1656C23.9344 48.6204 23.9344 48.5626 23.9344 48.3313L29.9469 27.3454C30.0625 26.9407 30.1203 26.6517 30.1781 25.611C30.1781 25.4376 30.2359 25.3798 30.3516 25.3798H34.8031C34.9766 25.3798 35.0344 25.4376 35.0344 25.611L41.7406 48.447C41.7984 48.6204 41.7406 48.736 41.5672 48.736H38.0406C37.8672 48.736 37.7516 48.6782 37.7516 48.5626L36.0172 42.2032H29.2531V42.0298Z" fill="#FF7F18"/>
</svg>
