<svg width="60" height="60" viewBox="0 0 60 60" fill="none" xmlns="http://www.w3.org/2000/svg">
<path d="M30 60C46.5685 60 60 46.5685 60 30C60 13.4315 46.5685 0 30 0C13.4315 0 0 13.4315 0 30C0 46.5685 13.4315 60 30 60Z" fill="#0769AD"/>
<path d="M13.6289 20.4258C10.3125 25.1953 10.7227 31.4062 13.2539 36.4805C13.3125 36.5977 13.3828 36.7148 13.4414 36.8438C13.4766 36.9258 13.5235 36.9961 13.5586 37.0781C13.5821 37.125 13.6055 37.1602 13.6289 37.207C13.6758 37.2891 13.711 37.3594 13.7578 37.4414C13.8399 37.582 13.9219 37.7227 14.0039 37.8516C14.0508 37.9336 14.0977 38.0039 14.1446 38.0742C14.2383 38.2148 14.3321 38.3672 14.4258 38.5195C14.461 38.5781 14.5078 38.6484 14.543 38.707C14.6719 38.9062 14.8125 39.0938 14.9531 39.293L14.9649 39.3047C14.9883 39.3398 15.0117 39.3633 15.0352 39.3984C15.1524 39.5625 15.2813 39.7266 15.4102 39.8906C15.4571 39.9492 15.5039 40.0078 15.5508 40.0664C15.668 40.207 15.7735 40.3477 15.8906 40.4883C15.9375 40.5352 15.9727 40.5938 16.0196 40.6406C16.1719 40.8281 16.336 41.0039 16.5 41.1914L16.5117 41.2031C16.5235 41.2148 16.5235 41.2148 16.5352 41.2266C16.6875 41.4023 16.8516 41.5664 17.0156 41.7422C17.0625 41.8008 17.1211 41.8477 17.168 41.8945C17.2969 42.0234 17.4258 42.1523 17.5547 42.2812C17.6133 42.3281 17.6602 42.3867 17.7188 42.4336C17.8946 42.5977 18.0703 42.7617 18.2461 42.9141C18.2461 42.9141 18.2461 42.9141 18.2578 42.9141C18.293 42.9375 18.3164 42.9727 18.3516 42.9961C18.5156 43.1367 18.668 43.2656 18.8321 43.4062C18.9024 43.4648 18.961 43.5117 19.0313 43.5703C19.1602 43.6758 19.3008 43.7812 19.4297 43.8867C19.5 43.9453 19.5703 43.9922 19.6406 44.0508C19.793 44.1562 19.9336 44.2734 20.086 44.3789C20.1446 44.4258 20.1914 44.4609 20.25 44.4961C20.2617 44.5078 20.2852 44.5195 20.2969 44.5312C20.4375 44.6367 20.5899 44.7305 20.7422 44.8242C20.8008 44.8711 20.8711 44.9063 20.9297 44.9531C21.1524 45.0938 21.3867 45.2344 21.6211 45.375C21.6797 45.4102 21.75 45.4453 21.8086 45.4805C21.9844 45.5742 22.1485 45.668 22.3242 45.7734C22.418 45.8203 22.5117 45.8672 22.6055 45.9141C22.7344 45.9727 22.8516 46.043 22.9688 46.1016C22.9922 46.1133 23.0274 46.125 23.0508 46.1484C23.0977 46.1719 23.1563 46.1953 23.2031 46.2188C23.3906 46.3125 23.5899 46.4063 23.7891 46.4883C23.836 46.5117 23.8711 46.5234 23.918 46.5469C24.1406 46.6523 24.375 46.7461 24.5977 46.8281C24.6563 46.8516 24.7031 46.875 24.7617 46.8984C24.9727 46.9805 25.1836 47.0625 25.4063 47.1328C25.4297 47.1445 25.4649 47.1445 25.4883 47.1562C25.7227 47.2383 25.9688 47.3203 26.2031 47.3906C26.2617 47.4023 26.3203 47.4258 26.3789 47.4375C26.625 47.5195 26.8594 47.6016 27.1172 47.6484C43.1719 50.5781 47.836 38.0039 47.836 38.0039C43.9219 43.1016 36.9727 44.4492 30.375 42.9492C30.1289 42.8906 29.8828 42.8203 29.6367 42.7383C29.5781 42.7266 29.5196 42.7031 29.4492 42.6797C29.2149 42.6094 28.9805 42.5273 28.7461 42.4453C28.711 42.4336 28.6758 42.4219 28.6524 42.4102C28.4414 42.3281 28.2305 42.2578 28.0313 42.1758C27.9727 42.1523 27.9141 42.1289 27.8555 42.1055C27.6328 42.0117 27.3985 41.918 27.1758 41.8242C27.1289 41.8008 27.0821 41.7891 27.0469 41.7656C26.8594 41.6836 26.6719 41.5898 26.4727 41.4961C26.4141 41.4727 26.3672 41.4492 26.3086 41.4141C26.168 41.3438 26.0156 41.2617 25.8633 41.1914C25.7696 41.1445 25.6641 41.0859 25.5703 41.0391C25.3946 40.9453 25.2188 40.8516 25.043 40.7461C24.9844 40.7109 24.9258 40.6875 24.8672 40.6523C24.6328 40.5117 24.4102 40.3711 24.1758 40.2305C24.1172 40.1953 24.0469 40.1484 23.9883 40.1133C23.8242 40.0078 23.6602 39.9023 23.4961 39.7852C23.4375 39.75 23.3906 39.7031 23.3438 39.6797C23.1914 39.5742 23.0391 39.457 22.8867 39.3398C22.8164 39.293 22.7461 39.2344 22.6875 39.1875C22.5469 39.082 22.4063 38.9766 22.2656 38.8594C22.2071 38.8125 22.1367 38.7539 22.0781 38.707C21.9024 38.5664 21.7266 38.4141 21.5625 38.2734C21.5391 38.2617 21.5274 38.2383 21.5039 38.2266C21.3164 38.0625 21.1406 37.8984 20.9531 37.7344C20.8946 37.6875 20.8477 37.6406 20.8008 37.5938C20.6719 37.4648 20.5313 37.3359 20.4141 37.207C20.3672 37.1602 20.3086 37.1016 20.2617 37.0547C20.0977 36.8906 19.9336 36.7148 19.7813 36.5391C19.7696 36.5273 19.7696 36.5273 19.7578 36.5156C19.5938 36.3281 19.4297 36.1523 19.2656 35.9648C19.2188 35.918 19.1836 35.8594 19.1367 35.8125C19.0196 35.6719 18.9024 35.5195 18.7852 35.3789C18.7383 35.332 18.7031 35.2734 18.6563 35.2148C18.5156 35.0391 18.3867 34.8516 18.2461 34.6758C14.5899 29.6836 13.2774 22.8047 16.1953 17.1562" fill="white"/>
<path d="M23.9414 16.3945C21.5391 19.8516 21.668 24.4805 23.543 28.125C23.8594 28.7344 24.2109 29.332 24.6094 29.8945C24.9727 30.4102 25.3711 31.0195 25.8399 31.4414C26.0156 31.6289 26.1914 31.8164 26.3789 32.0039C26.4258 32.0508 26.4727 32.0977 26.5195 32.1445C26.6953 32.3203 26.8828 32.4844 27.0703 32.6602C27.082 32.6719 27.082 32.6719 27.0938 32.6836C27.3047 32.8711 27.5156 33.0469 27.7383 33.2109C27.7852 33.2461 27.832 33.293 27.8789 33.3281C28.1016 33.4922 28.3242 33.6563 28.5469 33.8203C28.5586 33.8203 28.5586 33.832 28.5703 33.832C28.6758 33.9024 28.7695 33.9609 28.875 34.0313C28.9219 34.0664 28.9688 34.1016 29.0156 34.125C29.1797 34.2305 29.3438 34.3359 29.5078 34.4297C29.5313 34.4414 29.5547 34.4531 29.5781 34.4766C29.7188 34.5586 29.8711 34.6406 30.0234 34.7227C30.0703 34.7461 30.1289 34.7813 30.1758 34.8047C30.2813 34.8633 30.375 34.9102 30.4805 34.9688C30.4922 34.9805 30.5156 34.9805 30.5273 34.9922C30.7383 35.0977 30.9492 35.1914 31.1719 35.2969C31.2188 35.3203 31.2656 35.332 31.3125 35.3555C31.4883 35.4258 31.6641 35.4961 31.8398 35.5664C31.9102 35.5899 31.9922 35.625 32.0625 35.6485C32.2266 35.707 32.3906 35.7656 32.543 35.8125C32.6133 35.836 32.6836 35.8594 32.7656 35.8828C33 35.9531 33.2227 36.0469 33.4688 36.082C45.8906 38.1328 48.75 28.5938 48.75 28.5938C46.1719 32.3086 41.1797 34.0781 35.8477 32.6953C35.6133 32.6367 35.3789 32.5664 35.1445 32.4961C35.0742 32.4727 35.0039 32.4492 34.9336 32.4258C34.7695 32.3672 34.6055 32.3203 34.4414 32.25C34.3711 32.2266 34.2891 32.1914 34.2188 32.168C34.043 32.0977 33.8672 32.0274 33.6914 31.957C33.6445 31.9336 33.5977 31.9219 33.5508 31.8984C33.3281 31.8047 33.1172 31.6992 32.9063 31.5938C32.8008 31.5469 32.6836 31.4883 32.5781 31.4297C32.5195 31.3945 32.4492 31.3594 32.3906 31.3359C32.25 31.2656 32.1211 31.1836 31.9805 31.1016C31.9453 31.0781 31.9102 31.0664 31.8867 31.043C31.7227 30.9492 31.5586 30.8438 31.3945 30.7383C31.3477 30.7031 31.2891 30.668 31.2422 30.6328C31.1367 30.5625 31.0313 30.4922 30.9258 30.4219C30.6914 30.2695 30.4805 30.0938 30.2578 29.9297C30.2109 29.8828 30.1523 29.8477 30.1055 29.8125C27.7734 27.9727 25.9219 25.4531 25.043 22.5938C24.1172 19.6289 24.3164 16.3125 25.9219 13.6172" fill="white"/>
<path d="M32.6016 13.3945C31.1836 15.4805 31.043 18.0586 32.0274 20.3672C33.0586 22.8164 35.1797 24.7266 37.6641 25.6289C37.7695 25.6641 37.8633 25.6992 37.9688 25.7344C38.0156 25.7461 38.0625 25.7578 38.1094 25.7813C38.25 25.8281 38.4024 25.875 38.5547 25.9102C45.3985 27.2344 47.25 22.3945 47.7539 21.6797C46.125 24.0234 43.3945 24.5859 40.043 23.7656C39.7735 23.707 39.4922 23.6016 39.2344 23.5195C38.9063 23.4023 38.5781 23.2734 38.2735 23.1211C37.6758 22.8398 37.1133 22.4883 36.586 22.0898C33.586 19.8164 31.7227 15.4688 33.6797 11.9297" fill="white"/>
</svg>
