<svg width="59" height="59" viewBox="0 0 59 59" fill="none" xmlns="http://www.w3.org/2000/svg">
<path d="M58.699 0.301025H0.301025V58.6992H58.699V0.301025Z" fill="#F0DB4F"/>
<path d="M32.0811 45.8465C32.0811 51.5299 28.744 54.1239 23.8817 54.1239C19.489 54.1239 16.9471 51.8559 15.6434 49.1056L20.1145 46.4072C20.9748 47.9323 21.757 49.2226 23.6471 49.2226C25.4459 49.2226 26.5933 48.5188 26.5933 45.7685V27.1147H32.0811V45.8465Z" fill="#323330"/>
<path d="M45.0642 54.1238C39.9674 54.1238 36.6695 51.6992 35.0661 48.5187L39.5373 45.9375C40.7104 47.8539 42.2485 49.2746 44.9469 49.2746C47.215 49.2746 48.6747 48.1407 48.6747 46.5635C48.6747 44.6863 47.1889 44.0218 44.6732 42.9136L43.3045 42.3271C39.3418 40.6455 36.7216 38.5207 36.7216 34.0498C36.7216 29.9305 39.863 26.802 44.7511 26.802C48.2446 26.802 50.7474 28.0143 52.5463 31.195L48.2706 33.9323C47.3322 32.2507 46.3154 31.5861 44.7382 31.5861C43.1347 31.5861 42.118 32.603 42.118 33.9323C42.118 35.5748 43.1347 36.2398 45.4942 37.2693L46.8627 37.8559C51.5294 39.8504 54.1494 41.8971 54.1494 46.4854C54.1497 51.4125 50.2651 54.1238 45.0642 54.1238Z" fill="#323330"/>
</svg>
