<svg width="70" height="20" viewBox="0 0 70 20" fill="none" xmlns="http://www.w3.org/2000/svg">
<g clip-path="url(#clip0)">
<path d="M63.7383 8.47656C63.6836 8.49023 63.6152 8.61328 63.6152 8.69531C63.6016 9.17383 63.5879 10.4316 63.5879 11.293C63.5879 11.3203 63.6289 11.3613 63.6563 11.3613C63.834 11.375 64.2578 11.3887 64.627 11.3887C65.1328 11.3887 65.4336 11.3203 65.5977 11.252C66.0215 11.0332 66.2266 10.5684 66.2266 10.0625C66.2266 8.91406 65.4199 8.46289 64.2168 8.46289C64.1484 8.43555 63.916 8.43555 63.7383 8.47656ZM66.8008 13.7949C66.8008 12.6191 65.9395 11.9629 64.3672 11.9629C64.2988 11.9629 63.793 11.9492 63.6836 11.9766C63.6426 11.9902 63.6016 12.0176 63.6016 12.0449C63.6016 12.8926 63.5879 14.2324 63.6289 14.752C63.6563 14.9844 63.8203 15.2988 64.0254 15.3945C64.2441 15.5176 64.7227 15.5313 65.0645 15.5313C65.9805 15.5313 66.8008 15.0117 66.8008 13.7949ZM61.3047 7.82031C61.4277 7.82031 61.7832 7.86133 62.6992 7.86133C63.5606 7.86133 64.2578 7.83398 65.1055 7.83398C66.1445 7.83398 67.5664 8.20313 67.5664 9.74805C67.5664 10.5137 67.0332 11.1152 66.3359 11.416C66.2949 11.4297 66.2949 11.457 66.3359 11.457C67.334 11.7031 68.209 12.3184 68.209 13.4941C68.209 14.6289 67.4981 15.3672 66.459 15.8184C65.8301 16.0918 65.0508 16.1875 64.2441 16.1875C63.6426 16.1875 62.0156 16.1191 61.0996 16.1465C61.0039 16.1055 61.1816 15.6816 61.2637 15.6133C61.4824 15.5996 61.6465 15.5859 61.8652 15.5176C62.1797 15.4356 62.2207 15.3398 62.2754 14.8477C62.3027 14.4375 62.3027 12.9609 62.3027 11.9082C62.3027 10.4727 62.3164 9.48828 62.3027 9.02344C62.2891 8.6543 62.166 8.53125 61.8926 8.46289C61.6875 8.42188 61.3594 8.38086 61.0859 8.33984C61.0313 8.27148 61.2363 7.86133 61.3047 7.82031ZM54.4551 15.2168C54.7422 15.4492 55.3027 15.5313 55.7949 15.5313C56.4375 15.5313 57.0801 15.4082 57.6953 14.8477C58.3242 14.2734 58.7617 13.3984 58.7617 11.9902C58.7617 10.6504 58.2559 9.55664 57.2031 8.91406C56.6152 8.54492 55.8496 8.39453 54.9746 8.39453C54.7148 8.39453 54.4688 8.4082 54.3047 8.47656C54.2637 8.50391 54.1816 8.61328 54.1816 8.66797C54.1543 8.90039 54.1543 10.7324 54.1543 11.8125C54.1543 12.9199 54.1543 14.4648 54.1816 14.6426C54.1953 14.8203 54.2773 15.0938 54.4551 15.2168ZM51.748 7.82031C51.9805 7.82031 52.8418 7.86133 53.252 7.86133C54.0039 7.86133 54.5371 7.82031 55.9453 7.82031C57.1348 7.82031 58.1328 8.13477 58.8438 8.75C59.7051 9.50195 60.1699 10.5273 60.1699 11.7988C60.1699 13.5898 59.3496 14.6289 58.5293 15.2168C57.709 15.8184 56.6426 16.1738 55.1113 16.1738C54.3047 16.1738 52.9102 16.1465 51.7617 16.1328H51.748C51.6934 16.0234 51.8438 15.6133 51.9395 15.5996C52.2539 15.5586 52.3359 15.5586 52.4863 15.4902C52.7324 15.3945 52.7871 15.2578 52.8145 14.8203C52.8555 14 52.8418 13.0156 52.8418 11.8945C52.8418 11.1016 52.8555 9.54297 52.8281 9.03711C52.7871 8.62695 52.6094 8.51758 52.2539 8.44922C52.0762 8.4082 51.8438 8.36719 51.502 8.32617C51.4746 8.25781 51.6934 7.88867 51.748 7.82031Z" fill="#8E714E"/>
<path d="M37.3652 15.6816C37.0644 15.6406 36.8594 15.5996 36.5859 15.4766C36.5449 15.4492 36.4902 15.3398 36.4902 15.2852C36.4629 14.875 36.4629 13.6855 36.4629 12.8789C36.4629 12.2363 36.3535 11.6758 36.0801 11.2793C35.7656 10.8281 35.3008 10.5684 34.6992 10.5684C34.1797 10.5684 33.4687 10.9238 32.8945 11.4297C32.8809 11.4434 32.7851 11.5254 32.7988 11.3887C32.7988 11.252 32.8262 10.9922 32.8398 10.8145C32.8535 10.6504 32.7578 10.5684 32.7578 10.5684C32.375 10.7598 31.3086 11.0059 30.9121 11.0469C30.625 11.1016 30.5566 11.375 30.8574 11.4707H30.8711C31.1855 11.5664 31.4043 11.6758 31.5684 11.7852C31.6914 11.8809 31.6777 12.0176 31.6777 12.1133C31.6914 13.002 31.6914 14.3691 31.6504 15.1211C31.6367 15.4219 31.5547 15.5312 31.3359 15.5723L31.3633 15.5586C31.1992 15.5996 31.0625 15.627 30.8574 15.6543C30.7891 15.7227 30.7891 16.1055 30.8574 16.1875C30.9941 16.1875 31.6777 16.1465 32.2519 16.1465C33.0312 16.1465 33.4414 16.1875 33.6465 16.1875C33.7285 16.0918 33.7559 15.7363 33.7012 15.6543C33.4687 15.6406 33.3047 15.6133 33.1543 15.5723C32.9355 15.5312 32.8809 15.4219 32.8672 15.1621C32.8398 14.5332 32.8398 13.207 32.8398 12.291C32.8398 12.0449 32.9082 11.9219 32.9766 11.8535C33.25 11.6211 33.6875 11.4434 34.084 11.4434C34.4668 11.4434 34.7129 11.5664 34.9043 11.7168C35.1641 11.9355 35.2461 12.2363 35.2871 12.4687C35.3418 12.9746 35.3281 13.9863 35.3281 14.875C35.3281 15.3535 35.2871 15.4629 35.1094 15.5312C35.0273 15.5723 34.8086 15.6133 34.5625 15.6406C34.4805 15.7227 34.5078 16.0918 34.5625 16.1738C34.9043 16.1738 35.3144 16.1328 35.9023 16.1328C36.6406 16.1328 37.1191 16.1738 37.3105 16.1738C37.3926 16.1191 37.4199 15.7773 37.3652 15.6816ZM40.6601 11.1426C40.0312 11.1426 39.6348 11.6348 39.6348 12.3867C39.6348 13.166 39.9766 14.0547 40.9609 14.0547C41.125 14.0547 41.4394 13.9863 41.5762 13.8223C41.8086 13.6035 41.959 13.1797 41.959 12.7285C41.959 11.7305 41.4668 11.1426 40.6601 11.1426ZM40.5781 16.3926C40.3457 16.3926 40.168 16.4609 40.0723 16.5293C39.5664 16.8437 39.3476 17.1582 39.3476 17.5273C39.3476 17.8691 39.4844 18.1426 39.7578 18.3887C40.0996 18.6895 40.5781 18.8262 41.1797 18.8262C42.3965 18.8262 42.9297 18.1699 42.9297 17.5273C42.9297 17.0762 42.6973 16.7754 42.2461 16.6113C41.9043 16.4609 41.3027 16.3926 40.5781 16.3926ZM40.6601 19.4824C39.9355 19.4824 39.416 19.332 38.9648 18.9766C38.5273 18.6484 38.3359 18.1426 38.3359 17.8008C38.3359 17.7051 38.3633 17.4453 38.5684 17.2129C38.7051 17.0762 38.9785 16.8027 39.6621 16.3379C39.6894 16.3242 39.7031 16.3105 39.7031 16.2969C39.7031 16.2695 39.6758 16.2559 39.6621 16.2422C39.1016 16.0234 38.9375 15.6816 38.8828 15.4902V15.4492C38.8691 15.3809 38.8418 15.3125 38.9512 15.2305C39.0332 15.1758 39.1562 15.0937 39.2793 15.0117C39.4844 14.8887 39.6894 14.7656 39.8262 14.6562C39.8535 14.6289 39.8535 14.6152 39.8535 14.5879C39.8535 14.5605 39.8262 14.5469 39.8125 14.5332C38.9785 14.2598 38.5684 13.6445 38.5684 12.7148C38.5684 12.1133 38.8418 11.5664 39.334 11.2109C39.6621 10.9512 40.4961 10.623 41.043 10.623H41.084C41.6445 10.6367 41.9453 10.7598 42.3965 10.9102C42.6289 10.9922 42.8613 11.0332 43.1758 11.0332C43.6406 11.0332 43.8457 10.8965 44.0098 10.7187C44.0234 10.7461 44.0508 10.8008 44.0508 10.9512C44.0644 11.1016 44.0098 11.334 43.9004 11.498C43.8047 11.6348 43.5859 11.7305 43.3808 11.7305H43.3262C43.1074 11.7031 43.0117 11.6895 43.0117 11.6895L42.9707 11.7168C42.957 11.7441 42.9707 11.7578 42.9844 11.7988L42.998 11.8262C43.0254 11.9355 43.0664 12.25 43.0664 12.332C43.0664 13.3027 42.6699 13.7402 42.2598 14.0547C41.8496 14.3555 41.3984 14.5469 40.8652 14.5879C40.8516 14.5879 40.8105 14.5879 40.7012 14.6016C40.6465 14.6016 40.5644 14.6152 40.5508 14.6152H40.5371C40.4414 14.6426 40.209 14.752 40.209 14.957C40.209 15.1348 40.3184 15.3535 40.8242 15.3809C40.9336 15.3945 41.043 15.3945 41.1523 15.4082C41.8359 15.4492 42.6699 15.5176 43.0664 15.6406C43.6133 15.8457 43.9551 16.3242 43.9551 16.9121C43.9551 17.7871 43.3262 18.6074 42.2734 19.127C41.7266 19.3594 41.2207 19.4824 40.6601 19.4824ZM47.4414 11.1973C47.1953 11.1973 46.9629 11.252 46.7988 11.375C46.334 11.6621 46.1016 12.2363 46.1016 13.0566C46.1016 14.6152 46.8809 15.709 48.0019 15.709C48.3301 15.709 48.5898 15.6133 48.8223 15.4219C49.1641 15.1348 49.3418 14.5605 49.3418 13.7676C49.3418 12.2363 48.5625 11.1973 47.4414 11.1973ZM47.6465 16.2832C45.623 16.2832 44.8984 14.793 44.8984 13.4121C44.8984 12.4414 45.2949 11.6895 46.0742 11.1562C46.6348 10.8145 47.3047 10.623 47.8926 10.623C49.4375 10.623 50.5176 11.7305 50.5176 13.3164C50.5176 14.3965 50.0937 15.2578 49.2734 15.7773C48.8906 16.0371 48.207 16.2832 47.6465 16.2832ZM26.4687 11.1973C26.2227 11.1973 25.9902 11.252 25.8262 11.375C25.3613 11.6621 25.1289 12.2363 25.1289 13.0566C25.1289 14.6152 25.9082 15.709 27.0293 15.709C27.3574 15.709 27.6172 15.6133 27.8496 15.4219C28.1914 15.1348 28.3691 14.5605 28.3691 13.7676C28.3691 12.2363 27.6035 11.1973 26.4687 11.1973ZM26.6875 16.2832C24.6641 16.2832 23.9394 14.793 23.9394 13.4121C23.9394 12.4414 24.3359 11.6895 25.1152 11.1562C25.6758 10.8145 26.3457 10.623 26.9336 10.623C28.4785 10.623 29.5586 11.7305 29.5586 13.3164C29.5586 14.3965 29.1348 15.2578 28.3144 15.7773C27.9316 16.0371 27.248 16.2832 26.6875 16.2832ZM13.0977 16.1602C13.0703 16.1191 13.0566 16.0234 13.0566 15.8867C13.0566 15.791 13.084 15.7363 13.0977 15.709C13.3437 15.668 13.4805 15.6406 13.6172 15.5996C13.8496 15.5449 13.9453 15.4082 13.959 15.1074C14 14.3965 14 13.043 13.9863 12.0996V12.0723C13.9863 11.9629 13.9863 11.8398 13.8496 11.7441C13.6582 11.6211 13.4394 11.5117 13.1387 11.4297C13.0293 11.3887 12.9609 11.334 12.9746 11.2656C12.9746 11.1973 13.043 11.1152 13.207 11.0879C13.6035 11.0469 14.6152 10.8008 15.0254 10.623C15.0527 10.6504 15.0801 10.7187 15.0801 10.8145L15.0664 10.9512C15.0527 11.0879 15.0391 11.2383 15.0391 11.3887C15.0391 11.4297 15.0801 11.4707 15.1348 11.4707C15.1621 11.4707 15.1758 11.457 15.2031 11.4434C15.9687 10.8555 16.6523 10.6367 17.0078 10.6367C17.5957 10.6367 18.0469 10.9102 18.3887 11.4844C18.416 11.5254 18.4297 11.5254 18.4707 11.5254C18.498 11.5254 18.5254 11.5117 18.5391 11.4844C19.2363 10.9512 19.9473 10.623 20.4121 10.623C21.5195 10.623 22.1758 11.4434 22.1758 12.8379C22.1758 13.2344 22.1758 13.7402 22.1621 14.2051C22.1621 14.6152 22.1484 14.998 22.1484 15.2715C22.1484 15.3262 22.2305 15.5176 22.3672 15.5586C22.5312 15.6406 22.7637 15.6816 23.0508 15.7227H23.0644C23.0918 15.8047 23.0371 16.1191 22.9961 16.1738C22.9277 16.1738 22.8184 16.1738 22.6953 16.1602C22.4629 16.1465 22.1484 16.1328 21.793 16.1328C21.0547 16.1328 20.6719 16.1465 20.3027 16.1738C20.2754 16.0781 20.2617 15.791 20.3027 15.7227C20.5215 15.6816 20.6172 15.6543 20.7539 15.6133C20.9863 15.5449 21.0547 15.4355 21.0684 15.1211C21.0684 14.8887 21.1094 12.9746 21.041 12.5098C20.9726 12.0312 20.6172 11.4707 19.8242 11.4707C19.5234 11.4707 19.0586 11.5937 18.6074 11.9355C18.5801 11.9629 18.5664 12.0176 18.5664 12.0586V12.0723C18.6074 12.3184 18.6074 12.6055 18.6074 13.043V13.8223C18.6074 14.3555 18.5937 14.8613 18.6074 15.2305C18.6074 15.4902 18.7578 15.5449 18.8945 15.5996C18.9629 15.6133 19.0176 15.627 19.0723 15.6406C19.1816 15.668 19.291 15.6816 19.4551 15.7227C19.4824 15.7637 19.4824 15.9277 19.4414 16.0508C19.4277 16.1191 19.4004 16.1602 19.4004 16.1738C18.9902 16.1602 18.5801 16.1465 17.9785 16.1465C17.8008 16.1465 17.4863 16.1602 17.2266 16.1602C17.0078 16.1602 16.8164 16.1738 16.6934 16.1738C16.6797 16.1465 16.6523 16.0645 16.6523 15.9414C16.6523 15.832 16.6797 15.75 16.6934 15.7227C16.748 15.709 16.8027 15.6953 16.8574 15.6953C16.9941 15.668 17.1172 15.6543 17.2402 15.627C17.4453 15.5723 17.5137 15.4629 17.5273 15.2031C17.5684 14.6152 17.5957 12.9062 17.5137 12.4824C17.3769 11.7988 16.9805 11.4434 16.3516 11.4434C15.9824 11.4434 15.5176 11.6211 15.1348 11.9082C15.0801 11.9492 15.0254 12.0723 15.0254 12.1816V12.8789C15.0254 13.7402 15.0254 14.8066 15.0391 15.2715C15.0527 15.4082 15.0937 15.5859 15.3672 15.6406C15.4219 15.6543 15.5176 15.6816 15.6406 15.6816L15.8594 15.7227C15.8867 15.791 15.873 16.0781 15.8184 16.1738C15.6953 16.1738 15.5586 16.1602 15.3945 16.1602C15.1484 16.1465 14.8203 16.1328 14.4648 16.1328C14.0547 16.1328 13.7539 16.1465 13.5078 16.1602C13.3711 16.1602 13.2344 16.1602 13.0977 16.1602Z" fill="#442D22"/>
<path d="M6.83597 19.0177L6.34378 18.8536C6.34378 18.8536 6.39847 16.3653 5.5098 16.1876C4.92191 15.504 5.6055 -13.0566 7.73831 16.0919C7.73831 16.0919 7.00003 16.461 6.87698 17.0899C6.74026 17.7052 6.83597 19.0177 6.83597 19.0177Z" fill="white"/>
<path d="M6.83597 19.0177L6.34378 18.8536C6.34378 18.8536 6.39847 16.3653 5.5098 16.1876C4.92191 15.504 5.6055 -13.0566 7.73831 16.0919C7.73831 16.0919 7.00003 16.461 6.87698 17.0899C6.74026 17.7052 6.83597 19.0177 6.83597 19.0177Z" fill="#A6A385"/>
<path d="M7.09573 16.6113C7.09573 16.6113 11.3614 13.8086 10.3633 7.9707C9.40628 3.73242 7.12308 2.33789 6.87698 1.80469C6.60355 1.42188 6.34378 0.751953 6.34378 0.751953L6.52151 12.5508C6.53519 12.5781 6.16605 16.1738 7.09573 16.6113Z" fill="white"/>
<path d="M7.09573 16.6113C7.09573 16.6113 11.3614 13.8086 10.3633 7.9707C9.40628 3.73242 7.12308 2.33789 6.87698 1.80469C6.60355 1.42188 6.34378 0.751953 6.34378 0.751953L6.52151 12.5508C6.53519 12.5781 6.16605 16.1738 7.09573 16.6113Z" fill="#499D4A"/>
<path d="M6.09766 16.7754C6.09766 16.7754 2.0918 14.041 2.32422 9.22852C2.55664 4.41602 5.37305 2.05078 5.91992 1.61328C6.28907 1.23047 6.30274 1.09375 6.33008 0.710938C6.57617 1.24414 6.53516 8.70898 6.5625 9.59766C6.67188 12.9746 6.3711 16.1328 6.09766 16.7754Z" fill="white"/>
<path d="M6.09766 16.7754C6.09766 16.7754 2.0918 14.041 2.32422 9.22852C2.55664 4.41602 5.37305 2.05078 5.91992 1.61328C6.28907 1.23047 6.30274 1.09375 6.33008 0.710938C6.57617 1.24414 6.53516 8.70898 6.5625 9.59766C6.67188 12.9746 6.3711 16.1328 6.09766 16.7754Z" fill="#58AA50"/>
</g>
<defs>
<clipPath id="clip0">
<rect width="70" height="19.9609" fill="white"/>
</clipPath>
</defs>
</svg>
