<svg width="60" height="60" viewBox="0 0 60 60" fill="none" xmlns="http://www.w3.org/2000/svg">
<g clip-path="url(#clip0)">
<path d="M43.4498 20.8216L43.4281 20.8124C43.4154 20.8075 43.403 20.8032 43.3921 20.792C43.3558 20.7529 43.3396 20.6991 43.3484 20.6464L44.5562 13.2511L50.2206 18.9251L44.3297 21.4351C44.3136 21.4418 44.2957 21.445 44.2781 21.4443H44.2547C44.2469 21.4394 44.2391 21.4333 44.2234 21.4177C44.0042 21.1732 43.742 20.9712 43.4499 20.8215L43.4498 20.8216ZM51.6658 20.3709L57.7224 26.4361C58.9802 27.6974 59.6099 28.3264 59.8396 29.0556C59.874 29.1636 59.9021 29.2716 59.924 29.3827L45.4499 23.2439C45.4421 23.2406 45.4344 23.2374 45.4265 23.2347C45.3687 23.2113 45.3015 23.1847 45.3015 23.1252C45.3015 23.0657 45.3702 23.0375 45.428 23.0141L45.4468 23.0063L51.6658 20.3709ZM59.6771 31.3293C59.3646 31.9177 58.7552 32.528 57.7239 33.5623L50.8955 40.399L42.0638 38.5572L42.017 38.548C41.9388 38.5354 41.856 38.5214 41.856 38.451C41.7882 37.7135 41.4175 37.0373 40.8325 36.5842C40.7966 36.5482 40.806 36.4919 40.817 36.4402C40.817 36.4324 40.817 36.4247 40.8201 36.4182L42.4811 26.2062L42.4872 26.1718C42.4964 26.0935 42.5107 26.0028 42.581 26.0028C43.3 25.9132 43.9531 25.5383 44.3936 24.9622C44.4076 24.9467 44.417 24.9293 44.4358 24.9199C44.4857 24.8964 44.5451 24.9199 44.5967 24.9419L59.6755 31.3295L59.6771 31.3293ZM49.3251 41.9716L38.0965 53.2164L40.0184 41.3864L40.0215 41.3709C40.0231 41.3554 40.0264 41.3396 40.0307 41.3255C40.0462 41.2879 40.087 41.2723 40.126 41.2566L40.1448 41.2489C40.5656 41.0691 40.9378 40.7918 41.2308 40.4399C41.2683 40.396 41.3136 40.3538 41.3714 40.3459C41.3864 40.3434 41.4017 40.3434 41.4167 40.3459L49.3233 41.9734L49.3251 41.9716ZM35.7198 55.5965L34.4541 56.864L20.4613 36.6121C20.4562 36.6047 20.451 36.5975 20.4458 36.5901C20.424 36.5604 20.4005 36.5307 20.4051 36.4962C20.4051 36.4712 20.4224 36.4493 20.4395 36.4305L20.455 36.4102C20.4972 36.3475 20.5332 36.285 20.5722 36.2177L20.6035 36.1629L20.6083 36.158C20.6303 36.1205 20.6505 36.0845 20.688 36.0641C20.7208 36.0486 20.7662 36.0549 20.8021 36.0625L36.3044 39.2641C36.3477 39.2708 36.3886 39.2887 36.4231 39.3158C36.4435 39.3362 36.4481 39.358 36.4528 39.3831C36.672 40.2136 37.2663 40.8938 38.0591 41.2218C38.1029 41.2437 38.0842 41.2922 38.064 41.3438C38.0539 41.3665 38.0459 41.39 38.0406 41.4142C37.8452 42.6035 36.1702 52.8343 35.7202 55.5962L35.7198 55.5965ZM33.0759 58.2426C32.1431 59.1674 31.593 59.6572 30.9711 59.8544C30.3579 60.0485 29.6999 60.0485 29.0867 59.8544C28.3585 59.6228 27.7288 58.9937 26.4709 57.7325L12.4187 43.6601L16.0892 37.9594C16.1065 37.9313 16.1236 37.9062 16.1517 37.8859C16.1907 37.8577 16.247 37.8704 16.2939 37.8859C17.1364 38.1404 18.0409 38.0945 18.8534 37.756C18.8956 37.7405 18.9378 37.7294 18.9706 37.7591C18.9872 37.7739 19.0017 37.7909 19.0143 37.8092L33.0759 58.2441L33.0759 58.2426ZM11.064 42.3034L7.84039 39.0752L14.2063 36.3555C14.2225 36.3483 14.2401 36.3447 14.2579 36.3445C14.311 36.3445 14.3423 36.3977 14.3704 36.4462C14.4344 36.5448 14.5021 36.6408 14.5735 36.7341L14.5939 36.7592C14.6127 36.7858 14.6 36.8124 14.5813 36.8374L11.0655 42.3033L11.064 42.3034ZM6.41376 37.6465L2.33545 33.5623C1.64167 32.8675 1.13852 32.3637 0.788505 31.9302L13.1891 34.5059C13.2046 34.5088 13.2203 34.5115 13.236 34.5137C13.3125 34.5263 13.3969 34.5403 13.3969 34.6123C13.3969 34.6905 13.3047 34.7265 13.2266 34.7562L13.1906 34.7717L6.41376 37.6465ZM0.0759735 29.8302C0.0901644 29.5671 0.137363 29.3069 0.216595 29.0556C0.447856 28.3264 1.07601 27.6974 2.33544 26.4361L7.55443 21.2096C9.9574 24.7021 12.3669 28.1901 14.7829 31.6736C14.8251 31.7299 14.8719 31.7925 14.8235 31.8394C14.5954 32.0914 14.3673 32.3668 14.2063 32.6657C14.1888 32.7041 14.162 32.7375 14.1282 32.7627C14.1078 32.7753 14.086 32.7705 14.0625 32.7658H14.0594L0.0759735 29.8287V29.8302ZM8.95138 19.8107L15.9658 12.7831C16.6267 13.0726 19.0284 14.0882 21.1738 14.9957C22.7989 15.6843 24.2802 16.3102 24.7458 16.5136C24.7927 16.5324 24.8349 16.5512 24.8552 16.5981C24.8678 16.6263 24.8613 16.6623 24.8552 16.692C24.6296 17.7225 24.9367 18.7975 25.6724 19.5525C25.7193 19.5995 25.6724 19.6667 25.6318 19.7247L25.6101 19.7575L18.4847 30.8098C18.466 30.8411 18.4488 30.8677 18.4175 30.8881C18.38 30.9116 18.3269 30.9007 18.2831 30.8897C18.006 30.817 17.7211 30.7781 17.4347 30.7739C17.1784 30.7739 16.9003 30.8208 16.619 30.8725H16.6174C16.5862 30.8773 16.558 30.8835 16.533 30.8647C16.5054 30.842 16.4817 30.8151 16.4627 30.7849L8.9499 19.8108L8.95138 19.8107ZM17.3861 11.3638L26.4709 2.26596C27.7288 1.00628 28.3585 0.375662 29.0867 0.145632C29.6999 -0.048544 30.3579 -0.048544 30.9711 0.145632C31.6993 0.375662 32.329 1.00628 33.5869 2.26596L35.5557 4.23763L29.0945 14.2587C29.0786 14.2879 29.0567 14.3134 29.0304 14.3338C28.9914 14.3604 28.9367 14.3493 28.8898 14.3338C27.8556 14.0195 26.7331 14.2361 25.8896 14.9128C25.8474 14.9566 25.785 14.9316 25.7318 14.9079C24.888 14.5402 18.3252 11.7626 17.3861 11.3636L17.3861 11.3638ZM36.9277 5.61154L42.8936 11.586L41.456 20.5023V20.5258C41.4548 20.5462 41.4504 20.5662 41.4434 20.5853C41.4279 20.6166 41.3965 20.6228 41.3652 20.6322C41.0579 20.7255 40.7684 20.8699 40.5089 21.0594C40.4977 21.0676 40.4874 21.0764 40.4777 21.086C40.4604 21.1048 40.4433 21.122 40.4152 21.1251C40.3923 21.1258 40.3695 21.1222 40.348 21.1141L31.2569 17.2459L31.2396 17.2381C31.1818 17.2147 31.1131 17.1865 31.1131 17.127C31.0596 16.6197 30.8942 16.1306 30.6287 15.6952C30.5849 15.6232 30.5365 15.5481 30.574 15.4746L36.9277 5.61154ZM30.7836 19.0784L39.3059 22.6931C39.3527 22.7151 39.4043 22.7353 39.4246 22.7838C39.4329 22.813 39.4329 22.8438 39.4246 22.873C39.3996 22.9982 39.3778 23.1406 39.3778 23.2846V23.524C39.3778 23.5835 39.3168 23.6085 39.2606 23.632L39.2433 23.6381C37.8932 24.2155 20.2893 31.7329 20.2627 31.7329C20.2362 31.7329 20.208 31.7329 20.1815 31.7063C20.1346 31.6594 20.1815 31.5936 20.2237 31.5342C20.2313 31.5239 20.2383 31.5133 20.2454 31.5029L27.2489 20.6431L27.2615 20.6243C27.3021 20.5586 27.349 20.485 27.424 20.485L27.4943 20.496C27.6537 20.518 27.7943 20.5382 27.9365 20.5382C28.9991 20.5382 29.9835 20.0203 30.5773 19.1346C30.5915 19.1109 30.6094 19.0898 30.6304 19.072C30.6726 19.0407 30.7351 19.0565 30.7835 19.0781L30.7836 19.0784ZM21.0238 33.4512L40.2122 25.2563C40.2122 25.2563 40.2403 25.2563 40.2669 25.2829C40.3715 25.3877 40.4606 25.4581 40.5466 25.5238L40.5888 25.5504C40.6278 25.5724 40.6669 25.5974 40.67 25.6381C40.67 25.6536 40.67 25.6631 40.6667 25.6772L39.0229 35.789L39.0168 35.8297C39.0058 35.908 38.995 35.9972 38.9215 35.9972C38.0317 36.0573 37.2289 36.5533 36.7761 37.3226L36.7683 37.3352C36.7465 37.3712 36.7261 37.4056 36.6901 37.4244C36.6573 37.4399 36.6151 37.4336 36.5808 37.426L21.2785 34.265C21.263 34.2619 21.041 33.4529 21.0238 33.4513L21.0238 33.4512Z" fill="url(#paint0_radial)"/>
</g>
<defs>
<radialGradient id="paint0_radial" cx="0" cy="0" r="1" gradientUnits="userSpaceOnUse" gradientTransform="translate(30 -30) scale(59.9999 60.1523)">
<stop stop-color="#20C6B7"/>
<stop offset="1" stop-color="#4D9ABF"/>
</radialGradient>
<clipPath id="clip0">
<rect width="60" height="60" fill="white"/>
</clipPath>
</defs>
</svg>
