<svg width="60" height="18" viewBox="0 0 60 18" fill="none" xmlns="http://www.w3.org/2000/svg">
<g clip-path="url(#clip0)">
<path d="M24.9824 4.89437H28.8028L26.7782 1.63732L23.0634 7.51761H21.3732L25.8803 0.457746C26.0739 0.176056 26.4085 0 26.7606 0C27.1127 0 27.4472 0.176056 27.6232 0.440141L32.1479 7.51761H30.4577L29.6655 6.19718H25.7923L24.9824 4.89437ZM42.5176 6.21479V0.0704225H41.0915V6.81338C41.0915 6.98944 41.162 7.1831 41.3028 7.30634C41.4437 7.44718 41.6197 7.51761 41.831 7.51761H48.3627L49.2077 6.19718L42.5176 6.21479ZM18.8204 5.10563C20.2113 5.10563 21.338 3.97887 21.338 2.58803C21.338 1.19718 20.2113 0.0704225 18.8204 0.0704225H12.5528V7.51761H13.9789V1.39085H18.7324C19.4014 1.39085 19.9296 1.93662 19.9296 2.58803C19.9296 3.25704 19.3838 3.80282 18.7324 3.80282H14.7007L18.9789 7.53521H21.0563L18.169 5.10563H18.8204ZM3.73239 7.53521H8.06338C10.1232 7.53521 11.7782 5.86268 11.7782 3.82042C11.7782 1.76056 10.1232 0.0880282 8.06338 0.0880282H3.73239C1.67254 0.0880282 0 1.76056 0 3.82042C0.0176056 5.86268 1.69014 7.53521 3.73239 7.53521ZM7.97535 6.21479H3.83803C2.5 6.21479 1.42606 5.14085 1.42606 3.80282C1.42606 2.46479 2.5 1.39085 3.83803 1.39085H7.97535C9.31338 1.39085 10.3873 2.46479 10.3873 3.80282C10.3873 5.14085 9.31338 6.21479 7.97535 6.21479ZM35.1761 7.53521H39.5951L40.4401 6.23239H35.2817C33.9437 6.23239 32.8697 5.15845 32.8697 3.82042C32.8697 2.48239 33.9437 1.40845 35.2817 1.40845H39.4894L40.3345 0.0880282H35.1937C33.1338 0.0880282 31.4613 1.76056 31.4613 3.82042C31.4437 5.86268 33.1162 7.53521 35.1761 7.53521ZM52.6937 6.21479C51.5845 6.21479 50.6514 5.47535 50.3697 4.45423H56.4965L57.3416 3.1338H50.3697C50.6514 2.11268 51.5845 1.37324 52.6937 1.37324H56.9014L57.7465 0.0528169H52.6056C50.5458 0.0528169 48.8732 1.72535 48.8732 3.78521C48.8732 5.84507 50.5458 7.5 52.6056 7.5H57.0246L57.8697 6.19718L52.6937 6.21479ZM58.5035 0.880282C58.5035 0.510563 58.8028 0.228873 59.1725 0.228873C59.5423 0.228873 59.8239 0.528169 59.8239 0.880282C59.8239 1.25 59.5423 1.53169 59.1725 1.53169C58.8028 1.53169 58.5035 1.23239 58.5035 0.880282ZM59.1725 1.70775C59.6303 1.70775 60 1.33803 60 0.880282C60 0.422535 59.6303 0.0352113 59.1725 0.0352113C58.6972 0.0352113 58.3275 0.40493 58.3275 0.880282C58.3275 1.33803 58.7148 1.70775 59.1725 1.70775ZM59.0845 0.369718C59.2077 0.369718 59.2606 0.369718 59.331 0.387324C59.4894 0.440141 59.507 0.598592 59.507 0.651408C59.507 0.669014 59.507 0.68662 59.4894 0.721831C59.4894 0.757042 59.4542 0.827465 59.3662 0.880282C59.3486 0.880282 59.3486 0.897887 59.331 0.897887L59.5423 1.28521H59.331L59.1373 0.915493H59.0493V1.28521H58.8556V0.352113H59.0845V0.369718ZM59.1549 0.809859C59.2077 0.809859 59.2782 0.809859 59.3134 0.757042C59.331 0.739437 59.3486 0.704225 59.3486 0.68662C59.3486 0.633803 59.3134 0.598592 59.2782 0.56338C59.2254 0.545775 59.1901 0.545775 59.1021 0.545775H59.0493V0.827465L59.1549 0.809859Z" fill="#ED1C24"/>
<path d="M4.84156 16.0474L2.58804 11.3291V11.3115H0.63382V17.5087H1.93664V12.5087L4.26058 17.4911V17.5087H6.12678V11.3115H4.84156V16.0474Z" fill="black"/>
<path d="M8.82043 14.8327H11.4437V13.7763H8.82043V12.3679H11.6197V11.3115H7.44719V17.5087H11.7077V16.4348H8.82043V14.8327Z" fill="black"/>
<path d="M12.3592 11.3115V12.3855H14.1902V17.5087H15.5634V12.3855H17.3944V11.3115H12.3592Z" fill="black"/>
<path d="M18.9789 15.6955C18.9965 16.118 19.0493 16.9103 20.4577 16.9103C21.7254 16.9103 21.9014 16.118 21.9014 15.8187C21.9014 15.1321 21.3556 14.9912 20.493 14.78C19.5599 14.5511 19.1373 14.4455 18.8204 14.2342C18.3275 13.8997 18.1866 13.4419 18.1866 13.0194C18.1866 11.7694 19.3662 11.2236 20.5282 11.2236C20.9331 11.2236 21.7606 11.2941 22.2535 11.8222C22.588 12.1919 22.6056 12.6145 22.6232 12.861H21.743C21.7077 12.1039 21.0563 11.9279 20.4577 11.9279C19.6127 11.9279 19.1021 12.3152 19.1021 12.9138C19.1021 13.4595 19.4542 13.6532 20.2113 13.8293C21.6725 14.199 21.831 14.2342 22.2007 14.4807C22.7641 14.8504 22.8169 15.449 22.8169 15.6955C22.8169 16.787 21.9718 17.6145 20.3873 17.6145C19.912 17.6145 18.9613 17.5441 18.4859 16.9103C18.1338 16.4525 18.1338 15.9595 18.1338 15.6779H18.9789V15.6955Z" fill="black"/>
<path d="M24.9648 11.3467V15.1495C24.9648 15.8009 25.1056 16.0826 25.2289 16.2586C25.6162 16.7692 26.1972 16.8572 26.6373 16.8572C28.2923 16.8572 28.2923 15.5544 28.2923 15.1143V11.3467H29.1197V15.1319C29.1197 15.4664 29.1197 16.153 28.6092 16.7692C28.0106 17.5263 27.0775 17.6143 26.6373 17.6143C26.0563 17.6143 25.0352 17.4558 24.4718 16.6284C24.2782 16.3643 24.1197 15.9946 24.1197 15.0791V11.3467H24.9648Z" fill="black"/>
<path d="M30.8803 11.3467H31.7253V17.4734H30.8803V11.3467Z" fill="black"/>
<path d="M35.0176 17.491V12.0685H32.9577V11.3467H37.9049V12.0685H35.8627V17.4734H35.0176V17.491Z" fill="black"/>
<path d="M38.9261 11.3467H42.7817V12.0685H39.7888V13.9875H42.6409V14.7094H39.7888V16.7516H42.8521V17.491H38.9261V11.3467Z" fill="black"/>
</g>
<defs>
<clipPath id="clip0">
<rect width="60" height="17.6144" fill="white"/>
</clipPath>
</defs>
</svg>
