<svg width="60" height="60" viewBox="0 0 60 60" fill="none" xmlns="http://www.w3.org/2000/svg">
<path d="M0 60H60V0H0V60Z" fill="#8FC84E"/>
<path opacity="0.1" d="M60 40.0781C56.4844 35.625 51.5232 28.8532 51.5232 28.8532L10.5469 28.8281L8.20312 35.3906L29.1797 60H60V40.0781Z" fill="#010101"/>
<path fill-rule="evenodd" clip-rule="evenodd" d="M17.5246 28.6934C17.5246 28.5102 17.4282 28.342 17.2704 28.2515L13.0595 25.8277C12.9882 25.7859 12.9083 25.764 12.8276 25.761H12.784C12.7035 25.764 12.6238 25.7859 12.5515 25.8277L8.34047 28.2515C8.18344 28.3419 8.08594 28.5101 8.08594 28.6934L8.0952 35.2186C8.0952 35.3094 8.1423 35.3942 8.22211 35.4383C8.30027 35.4852 8.39695 35.4852 8.47477 35.4383L10.9773 34.0052C11.1356 33.9113 11.2318 33.7454 11.2318 33.5638V30.5156C11.2318 30.3339 11.328 30.1654 11.4858 30.0752L12.5515 29.4617C12.6309 29.4152 12.7178 29.3929 12.8065 29.3929C12.8932 29.3929 12.9823 29.4151 13.0595 29.4617L14.1246 30.0752C14.2823 30.1654 14.3789 30.3339 14.3789 30.5156V33.5638C14.3789 33.7454 14.4765 33.9126 14.6338 34.0052L17.1356 35.4383C17.2143 35.4852 17.3122 35.4852 17.39 35.4383C17.4675 35.3942 17.5164 35.3094 17.5164 35.2186L17.5246 28.6934Z" fill="white"/>
<path fill-rule="evenodd" clip-rule="evenodd" d="M37.2455 32.0911C37.2455 32.1366 37.221 32.1784 37.1816 32.2012L35.7353 33.0345C35.6959 33.0572 35.6479 33.0572 35.6085 33.0345L34.1619 32.2012C34.1224 32.1784 34.0984 32.1364 34.0984 32.0911V30.4208C34.0984 30.3753 34.1224 30.3334 34.1617 30.3109L35.6081 29.4755C35.6479 29.4527 35.6959 29.4527 35.7356 29.4755L37.1816 30.3109C37.221 30.3334 37.2455 30.3755 37.2455 30.4208V32.0911ZM37.6363 19.723C37.5573 19.6789 37.4613 19.68 37.3833 19.7257C37.3058 19.7714 37.2581 19.8547 37.2581 19.945V26.4074C37.2581 26.4708 37.2238 26.5297 37.1692 26.5615C37.1142 26.5935 37.0463 26.5935 36.9908 26.5615L35.9365 25.954C35.7789 25.8629 35.5853 25.8633 35.4283 25.954L31.2156 28.3852C31.0581 28.4761 30.9611 28.6437 30.9611 28.8255V33.6888C30.9611 33.8706 31.0581 34.0383 31.2155 34.1296L35.4274 36.5625C35.5852 36.6536 35.7791 36.6536 35.9364 36.5625L40.1496 34.1296C40.307 34.0384 40.4039 33.8706 40.4039 33.6888V21.5658C40.4039 21.3817 40.3043 21.2116 40.1431 21.1218L37.6363 19.723Z" fill="white"/>
<path fill-rule="evenodd" clip-rule="evenodd" d="M51.5204 30.3774C51.6776 30.2862 51.7737 30.1188 51.7737 29.9374V28.7588C51.7737 28.5774 51.6776 28.4098 51.5204 28.3189L47.3351 25.8886C47.1778 25.797 46.983 25.797 46.8253 25.8879L42.614 28.3191C42.4565 28.41 42.3599 28.5777 42.3599 28.7597V33.6214C42.3599 33.8043 42.4581 33.9729 42.6166 34.0634L46.8016 36.4479C46.9557 36.5363 47.1453 36.5369 47.3001 36.4507L49.8315 35.0439C49.9121 34.9991 49.9621 34.9149 49.9624 34.8234C49.963 34.7316 49.9144 34.6469 49.8348 34.6009L45.5972 32.1687C45.5177 32.1235 45.4691 32.0391 45.4691 31.9481V30.4243C45.4691 30.3338 45.5175 30.2494 45.5965 30.2041L46.9154 29.4435C46.9938 29.3983 47.0907 29.3983 47.1692 29.4435L48.4889 30.2041C48.5676 30.2494 48.6163 30.3337 48.6163 30.4243V31.623C48.6163 31.7141 48.6649 31.7981 48.7438 31.8439C48.8226 31.889 48.9197 31.8886 48.9984 31.8431L51.5204 30.3774Z" fill="white"/>
<path fill-rule="evenodd" clip-rule="evenodd" d="M23.9977 25.8624C24.1549 25.7718 24.349 25.7718 24.5063 25.8624L28.7183 28.2931C28.8759 28.384 28.9729 28.5518 28.9729 28.7338V33.599C28.9729 33.7806 28.8759 33.9483 28.7187 34.0397L24.5065 36.4723C24.349 36.5632 24.155 36.5632 23.9977 36.4723L19.7865 34.0397C19.6293 33.9484 19.5323 33.7806 19.5323 33.599V28.7336C19.5323 28.5518 19.6293 28.3841 19.7868 28.2931L23.9977 25.8624Z" fill="white"/>
</svg>
