<svg width="60" height="60" viewBox="0 0 60 60" fill="none" xmlns="http://www.w3.org/2000/svg">
<path fill-rule="evenodd" clip-rule="evenodd" d="M38.4627 0.228928C39.8593 0.125501 41.2744 -0.00229678 42.6679 0.21704C43.8711 0.402495 44.9497 0.998686 45.9322 1.66383C49.9335 4.37849 53.9621 7.05986 57.9578 9.78522C58.8318 10.3921 59.9191 11.1042 59.8589 12.2776C59.8682 25.4128 59.8602 38.5498 59.8633 51.6844C59.8335 52.9571 60.0046 54.2915 59.4678 55.4934C59.1448 56.2483 58.4623 56.8219 57.6782 57.1185C56.6907 57.5096 55.6066 57.5536 54.5553 57.6083C41.5918 58.359 28.629 59.1092 15.6655 59.8605C14.3644 59.9277 12.9666 59.9883 11.7857 59.3695C10.9433 58.9356 10.3575 58.1884 9.79095 57.4734C7.21536 54.2642 4.63358 51.0591 2.05986 47.8499C0.986852 46.4911 0.0458805 44.91 0.0396816 43.1571C0.0347226 31.1358 0.0409215 19.1162 0.0365823 7.09493C0.00930774 6.09811 0.138862 5.04839 0.729603 4.19898C1.38543 3.23128 2.59791 2.76229 3.7608 2.68205C15.3277 1.85998 26.8958 1.04743 38.4627 0.228928ZM6.59983 5.81636C6.16467 5.86213 5.63158 5.94773 5.41276 6.35965C5.29189 6.6307 5.50946 6.89402 5.71898 7.05511C7.31206 8.26948 8.9101 9.48089 10.5038 10.6982C11.0481 11.1072 11.627 11.5001 12.2965 11.6933C13.0775 11.9233 13.9044 11.8924 14.7103 11.8639C26.8196 11.153 38.9325 10.4682 51.0437 9.76561C51.1292 9.73945 51.3022 9.69071 51.3877 9.66515C51.3307 9.41253 51.2055 9.16882 50.9755 9.02141C48.9187 7.58651 46.8465 6.16944 44.796 4.72562C43.5103 3.7823 41.8633 3.35908 40.256 3.46429C29.0368 4.24296 17.819 5.03115 6.59983 5.81636ZM52.3268 13.804C39.7402 14.5072 27.153 15.2145 14.5671 15.9177C13.9838 15.9451 13.336 16.0437 12.9219 16.4788C12.4806 16.9449 12.4267 17.6094 12.4155 18.2092C12.4143 29.774 12.4155 41.337 12.4155 52.9018C12.4124 53.6002 12.5537 54.3842 13.1519 54.8497C13.8567 55.384 14.8132 55.3793 15.6686 55.34C28.2496 54.6428 40.8318 53.9462 53.4128 53.2459C54.0426 53.202 54.7189 53.0438 55.1522 52.5701C55.6803 51.9983 55.7219 51.1887 55.7374 50.4611C55.7374 38.9451 55.7374 27.4272 55.7374 15.9112C55.7405 15.1569 55.5787 14.2302 54.7995 13.8605C54.0129 13.5496 53.1463 13.8189 52.3268 13.804ZM41.249 20.5892C44.0564 20.4174 46.867 20.286 49.6744 20.1065C49.8579 20.8525 49.8076 21.9111 48.9442 22.2399C48.227 22.4229 47.4887 22.5204 46.7641 22.6708C46.7672 31.1922 46.7479 39.7137 46.7727 48.2333C45.1332 49.0976 43.2289 49.8103 41.3333 49.4251C40.0973 49.154 39.3671 48.0704 38.6214 47.1866C34.6511 41.2276 30.6919 35.2609 26.734 29.2949C26.7452 35.0755 26.7309 40.8549 26.7402 46.6343C27.9986 46.8882 29.2507 47.1776 30.5072 47.4392C30.4409 48.6339 29.2507 49.44 28.0798 49.4982C25.0709 49.6575 22.0626 49.8406 19.0537 49.9928C18.8882 49.3294 19.1213 48.4954 19.8026 48.1863C20.5693 47.9492 21.3547 47.7726 22.1271 47.5515C22.1228 39.9175 22.1271 32.2818 22.1259 24.646C21.1024 24.5699 20.0772 24.5057 19.0568 24.4053C18.8436 23.2474 19.6172 21.9218 20.8973 21.7744C23.97 21.5373 27.0514 21.3833 30.1254 21.1539C34.2574 27.199 38.3753 33.2513 42.5092 39.2934C42.5012 33.9461 42.5092 28.6006 42.5061 23.2533C41.4492 23.1362 40.3911 23.0298 39.3355 22.9002C39.0962 21.7608 40.07 20.6623 41.249 20.5892Z" fill="black"/>
</svg>
