<svg width="100" height="125" viewBox="0 0 100 125" fill="none" xmlns="http://www.w3.org/2000/svg">
<path fill-rule="evenodd" clip-rule="evenodd" d="M21.8 88.4999C21.6 88.1999 21.1 87.6999 20.5 87.3999C20.4 87.2999 20.2 87.2999 20.1 87.0999L19.9 86.8999C19.9 86.8999 19.7 86.0999 19.8 86.0999C19.9 85.9999 19.7 85.5999 19.7 85.3999C19.7 85.2999 19.7 85.2999 19.7 85.1999C19.7 85.0999 19.7 84.9999 19.7 84.8999L19.8 84.6999C19.8 84.4999 19.8 84.4999 19.8 84.2999C19.8 84.1999 19.8 84.0999 19.8 83.9999C19.8 83.9999 19.8 83.5999 19.9 83.4999C19.9 83.4999 19.9 83.3999 19.9 83.2999C19.9 83.0999 20 82.9999 20 82.7999C20 82.6999 20 82.5999 20.1 82.3999C20.1 82.2999 20.2 82.0999 20.3 81.9999C20.3 81.9999 20.2 81.9999 20.3 81.8999C20.3 81.8999 20.3 81.8999 20.3 81.7999C20.3 81.6999 20.4 81.3999 20.4 81.1999C20.4 81.0999 20.4 80.9999 20.5 80.7999C20.5 80.6999 20.5 80.6999 20.5 80.5999C20.5 80.5999 20.5 80.1999 20.6 80.0999C20.6 79.9999 20.6 79.5999 20.7 79.4999C20.7 79.4999 20.7 79.3999 20.7 79.2999C20.8 78.5999 20.9 77.8999 21 77.1999C21 77.0999 21 77.0999 21 76.9999C21 76.8999 21 76.7999 21 76.6999V76.5999C21 76.4999 21.1 76.3999 21.1 76.2999C21.1 76.2999 21 76.2999 21.1 76.1999C21.1 76.0999 21.1 75.9999 21.1 75.7999C21.1 75.6999 21.2 75.3999 21.2 75.1999C21.2 75.0999 21.2 74.9999 21.3 74.7999C21.4 74.5999 21.4 74.2999 21.4 73.9999C21.4 73.9999 21.4 73.5999 21.5 73.4999C21.5 73.3999 21.5 72.9999 21.6 72.8999C21.6 72.8999 21.6 72.7999 21.6 72.6999C21.6 72.4999 21.7 72.2999 21.8 72.0999C21.8 71.9999 21.8 71.8999 21.9 71.6999C21.9 71.5999 21.9 71.5999 21.9 71.4999C21.9 71.3999 22 71.0999 22 70.8999C22 70.8999 22 70.4999 22.1 70.3999C22.1 70.2999 22.1 70.1999 22.1 69.9999C22.1 69.9999 22.1 69.5999 22.2 69.4999C22.2 69.3999 22.2 69.2999 22.2 69.0999C22.2 68.9999 22.3 68.6999 22.3 68.4999C22.3 68.3999 22.4 67.9999 22.5 67.7999C22.8 67.2999 23.4 66.6999 23.8 66.0999C24.4 65.2999 24.9 64.1999 25.4 63.4999C25.7 63.0999 26 62.7999 26.4 62.4999C26.7 62.1999 27 61.6999 27.3 61.3999H27.4C27.5 61.1999 27.6 61.1999 27.8 60.9999C28.1 60.6999 28.2 60.4999 28.5 60.1999C28.6 60.0999 28.6 59.9999 28.6 59.9999C28.7 59.9999 28.8 59.7999 28.9 59.5999C29 59.4999 29.1 59.4999 29.1 59.3999C29.2 59.2999 29.2 59.1999 29.3 58.9999C29.4 58.7999 29.6 58.5999 29.7 58.2999C29.8 57.9999 30 57.6999 30.2 57.2999C30.2 57.2999 30.1 57.1999 30.2 57.1999C30.3 57.0999 30.4 56.9999 30.5 56.7999C30.5 56.6999 30.6 56.5999 30.8 56.2999C31.1 55.8999 31.4 55.3999 31.8 55.0999C32 54.8999 32.3 54.6999 32.5 54.4999C32.8 54.0999 33.1 53.5999 33.5 53.1999C33.9 52.7999 34.2 52.3999 34.5 51.8999C34.8 51.3999 35 50.8999 35.3 50.3999C35.7 49.6999 36.4 48.8999 36.8 48.1999C37 47.8999 37.3 47.6999 37.6 47.3999C37.7 47.1999 37.9 46.8999 38.1 46.6999C39 45.4999 39.8 44.1999 40.8 42.9999C40.8 42.8999 40.9 42.8999 41 42.7999C41.1 42.6999 41.4 42.3999 41.4 42.0999V41.9999C41.5 41.8999 41.5 41.8999 41.6 41.7999C42.2 41.1999 42.8 39.9999 43.5 39.1999C43.7 38.8999 44 38.5999 44.3 38.3999C44.8 37.8999 45.2 37.1999 45.7 36.5999C46 36.2999 46.4 35.9999 46.6 35.4999C46.7 35.3999 46.7 35.2999 46.7 35.1999C46.8 34.9999 47 34.7999 47.2 34.5999C47.5 34.0999 47.8 33.6999 48.1 33.2999C48.1 33.1999 48.3 33.1999 48.3 33.0999C48.3 32.9999 48.3 32.8999 48.4 32.7999C48.7 32.2999 48.9 31.9999 49.3 31.5999H49.4C49.8 30.9999 50.3 30.1999 50.7 29.4999C51 28.9999 51.4 28.5999 51.7 28.0999C52.8 26.4999 54 24.6999 55.1 23.1999C55.2 23.0999 55.3 22.8999 55.4 22.7999C56.2 21.8999 57.2 20.3999 58.2 19.4999C58.4 19.3999 58.6 19.1999 58.7 19.0999C59 18.6999 59.2 18.1999 59.5 17.7999C59.7 17.5999 59.9 17.3999 60.1 17.1999C60.3 16.9999 60.5 16.8999 60.6 16.6999C60.9 16.2999 61.1 15.6999 61.4 15.2999C61.6 15.0999 62 14.7999 62.4 14.5999C62.7 14.3999 63 14.1999 63.3 13.9999C63.4 13.8999 63.6 13.7999 63.7 13.6999C63.8 13.5999 63.8 13.4999 63.9 13.4999C64 13.4999 64 13.3999 64.1 13.2999C64.2 13.2999 64.2 13.2999 64.2 13.2999C64.4 13.1999 64.5 12.8999 64.6 12.7999H64.7C64.7 12.7999 64.8 12.6999 64.9 12.6999C65 12.5999 65.3 12.5999 65.4 12.3999C65.5 12.2999 65.8 12.1999 65.9 12.1999C66.2 12.0999 66.5 12.0999 66.9 11.9999C67.1 11.9999 67.3 11.8999 67.6 11.8999C67.7 11.8999 67.6 11.7999 67.7 11.8999C67.8 11.9999 67.9 11.7999 67.9 11.8999L68 11.9999C68 11.9999 68.1 11.8999 68.2 11.8999L68.3 11.9999C68.4 11.9999 68.5 11.8999 68.6 11.8999L68.7 11.9999C68.9 11.9999 68.9 11.9999 69.1 11.9999C69.2 11.9999 69.3 11.9999 69.4 11.9999C69.5 11.9999 69.6 11.9999 69.7 11.9999L69.9 12.0999V11.9999L70 12.0999C70.1 12.0999 70.1 12.0999 70.2 12.0999H70.3C70.4 12.0999 70.5 12.1999 70.6 12.1999C70.6 12.1999 70.7 12.0999 70.8 12.0999C70.9 12.0999 71 12.1999 71.1 12.1999C71.1 12.1999 71.1 12.0999 71.2 12.1999C71.3 12.2999 71.4 12.0999 71.4 12.1999C71.6 12.1999 71.7 12.2999 72 12.2999C72.1 12.2999 72.3 12.3999 72.5 12.3999C72.7 12.4999 73.2 12.4999 73.5 12.6999C74 12.8999 74.4 13.1999 74.9 13.3999C75.1 13.4999 75.7 13.7999 76.1 14.0999C76.3 14.2999 76.5 14.4999 76.7 14.7999C76.9 14.9999 77.2 15.1999 77.4 15.4999C77.6 15.6999 77.7 15.9999 77.9 16.1999C78.2 16.5999 78.5 16.7999 78.7 17.1999C78.7 17.2999 78.7 17.3999 78.7 17.3999L78.8 17.4999C78.8 17.4999 78.7 17.5999 78.8 17.5999C78.9 17.6999 79 17.7999 79 17.9999C79 18.0999 79 18.1999 79 18.1999L79.1 18.2999C79.1 18.3999 79.2 18.5999 79.3 18.6999C79.3 18.7999 79.3 18.7999 79.3 18.8999C79.3 18.9999 79.4 18.9999 79.4 19.0999C79.4 19.1999 79.4 19.2999 79.4 19.2999C79.4 19.3999 79.5 19.3999 79.5 19.4999C79.5 19.5999 79.5 19.6999 79.5 19.6999C79.5 19.6999 79.6 19.7999 79.6 19.8999C79.7 20.3999 79.7 20.9999 79.7 21.6999C79.7 21.7999 79.7 21.7999 79.7 21.8999C79.7 22.0999 79.7 22.2999 79.7 22.4999C79.7 22.5999 79.7 22.6999 79.7 22.6999C79.7 22.7999 79.6 22.7999 79.6 22.8999C79.6 22.9999 79.6 23.0999 79.6 23.0999L79.5 23.1999C79.5 23.2999 79.4 23.4999 79.3 23.7999C79.2 23.9999 79.2 24.0999 79.2 24.2999C79 24.6999 78.8 24.9999 78.6 25.2999C78.6 25.3999 78.6 25.3999 78.5 25.4999C78.4 25.6999 78.3 25.7999 78.3 25.9999V26.0999C78.2 26.1999 78.1 26.3999 78.1 26.5999C78.1 26.6999 78 26.7999 77.9 26.9999L77.8 27.0999C77.8 27.2999 77.7 27.1999 77.6 27.3999C77.4 27.6999 77.2 28.0999 76.9 28.4999C76.7 28.6999 76.5 28.7999 76.4 28.9999C76.2 29.2999 76.1 29.4999 75.8 29.7999C75.7 29.7999 75.7 29.8999 75.6 29.9999H75.5C75.3 30.1999 75.2 30.3999 75 30.3999C74.9 30.3999 74.9 30.4999 74.8 30.5999C74.8 30.5999 74.5 30.7999 74.4 30.9999C73.7 31.7999 73.3 32.7999 72.7 33.6999H72.6C72.4 33.8999 72.5 33.9999 72.3 34.2999C72 34.6999 71.7 35.0999 71.4 35.5999C71.1 35.9999 70.9 36.4999 70.5 36.8999C70 37.4999 69.4 38.2999 68.9 39.0999C68.7 39.2999 68.6 39.4999 68.3 39.7999C68 40.2999 67.6 40.7999 67.2 41.3999C66.8 42.0999 66.3 42.7999 65.7 43.5999C65.5 43.7999 65.3 44.0999 65.1 44.2999C64.6 44.9999 64.1 45.7999 63.5 46.4999C63.3 46.6999 63.1 46.8999 62.9 47.1999C62.8 47.3999 62.7 47.5999 62.5 47.7999H62.4C61.7 48.7999 60.9 49.7999 60.2 50.7999C59.5 51.7999 58.7 52.6999 58.1 53.6999C57.4 54.6999 56.7 55.6999 56 56.6999C55.3 57.6999 54.5 58.5999 53.9 59.5999C53.1 60.7999 52.5 62.1999 51.6 63.3999C51.2 63.9999 50.7 64.4999 50.3 65.0999C49 66.7999 47.8 68.9999 46.5 70.7999C46.3 71.0999 45.9 71.4999 45.8 71.7999C45.7 72.0999 45.4 72.1999 45.2 72.4999C45 72.7999 44.9 73.0999 44.7 73.3999C44.6 73.4999 44.5 73.5999 44.4 73.7999C43.9 74.4999 43.7 75.2999 43.2 75.9999C42.7 76.6999 41.8 77.5999 41.3 78.5999C41.1 78.8999 41.1 79.2999 40.9 79.4999C40.8 79.6999 40.5 79.7999 40.2 79.8999C40.1 79.8999 40 79.8999 40 79.8999L39.9 79.9999C39.8 79.9999 39.8 79.9999 39.7 79.9999L39.6 80.0999C39.5 80.0999 39.3 80.0999 39.2 80.1999C39.1 80.2999 38.7 80.2999 38.5 80.3999C38.2 80.4999 38 80.6999 37.7 80.8999C37.6 80.9999 37.4 80.9999 37.3 81.0999C37.1 81.1999 36.8 81.4999 36.5 81.6999H36.4C36.3 81.7999 36.3 81.8999 36.2 81.8999C36.2 81.8999 36.1 81.7999 36.1 81.8999C36 82.0999 35.8 81.9999 35.6 82.0999L35.5 82.1999C35.4 82.1999 35.4 82.1999 35.3 82.1999H35.1C35 82.2999 35 82.3999 34.9 82.3999H34.8C34.7 82.4999 34.5 82.4999 34.4 82.5999C34.4 82.6999 34.2 82.6999 34.1 82.7999L33.9 82.9999C33.8 82.9999 33.4 83.1999 33.3 83.3999C33 83.6999 32.6 84.0999 32.2 84.3999H32.1C32 84.4999 31.9 84.4999 31.8 84.5999C31.8 84.6999 31.6 84.6999 31.5 84.7999C31.4 84.7999 31.3 84.8999 31.2 84.8999L31 85.0999C30.6 85.0999 30.1 85.3999 29.7 85.6999C29.6 85.6999 29.6 85.7999 29.5 85.7999C29.4 85.7999 29.3 85.8999 29.2 85.8999H29.1C29 85.9999 29 86.0999 28.9 86.0999H28.8C29.1 85.9999 29 85.9999 28.9 86.0999C28.9 86.0999 28.8 86.1999 28.7 86.1999C28.4 86.3999 28 86.5999 27.6 86.7999C27.6 86.7999 27.5 86.6999 27.5 86.7999C27.4 86.8999 27 87.1999 26.8 87.2999C26.6 87.3999 26.4 87.5999 26.1 87.6999L25.9 87.8999C25.9 87.8999 25.8 87.7999 25.8 87.8999L25.7 87.9999C25.7 87.9999 25.6 87.8999 25.6 87.9999L25.5 88.0999H25.3L25.2 88.1999C25.1 88.1999 25 88.1999 24.8 88.2999C24.6 88.3999 24.4 88.4999 24.3 88.4999C24.2 88.4999 24.1 88.4999 24 88.4999C23.9 88.4999 23.8 88.5999 23.6 88.5999C23.5 88.5999 23.5 88.5999 23.4 88.4999C23.3 88.4999 23.3 88.4999 23.3 88.4999C23.1 88.4999 23.1 88.2999 22.9 88.2999C22.8 88.2999 22.7 88.2999 22.5 88.2999C22.4 88.2999 22.3 88.2999 22.3 88.2999C22.1 88.4999 22 88.3999 21.8 88.4999ZM75.1 23.3999C75.2 23.1999 75.3 23.0999 75.3 22.8999V22.6999C75.3 22.5999 75.4 22.4999 75.4 22.4999C75.4 22.2999 75.4 22.1999 75.4 22.0999C75.4 21.9999 75.4 21.8999 75.5 21.8999C75.5 21.7999 75.5 21.6999 75.6 21.6999L75.7 21.5999V21.3999C75.7 21.2999 75.8 21.1999 75.8 21.1999C75.9 20.8999 76 20.6999 75.9 20.5999L76 20.4999C76 20.4999 75.9 20.3999 75.9 20.2999C75.9 20.1999 76 20.0999 76 20.0999C76 19.8999 75.9 19.7999 75.9 19.6999C75.9 19.2999 75.9 18.7999 75.8 18.6999C75.7 18.5999 75.8 18.5999 75.8 18.5999C75.7 18.3999 75.5 18.0999 75.5 17.9999C75.5 17.9999 75.4 17.7999 75.3 17.7999C75.2 17.5999 75.1 17.4999 74.9 17.3999C74.7 17.1999 74.4 16.7999 74.4 16.6999L74.3 16.5999C73.9 16.1999 73.6 15.9999 73.1 15.8999C72.9 15.7999 72.7 15.7999 72.5 15.6999C72.2 15.5999 71.7 15.6999 71.5 15.4999C71.4 15.4999 71.4 15.4999 71.4 15.4999C71.1 15.4999 70.7 15.3999 70.5 15.4999L70.4 15.3999C70.3 15.3999 70.2 15.4999 70.2 15.3999C70.1 15.3999 70 15.2999 69.9 15.2999H69.7C69.2 15.2999 68.9 15.4999 68.5 15.6999C68.4 15.7999 68.2 15.8999 68.2 15.8999C68.1 15.8999 68 15.9999 67.9 15.9999C67.8 16.0999 67.6 16.0999 67.6 16.1999C67.5 16.2999 67.5 16.1999 67.5 16.1999C67.2 16.3999 66.9 16.7999 66.5 16.9999H66.4C66.3 17.0999 66.1 17.0999 66.1 17.1999C66 17.3999 65.6 17.3999 65.5 17.6999C65.7 18.1999 66.3 18.3999 66.7 18.6999C67.2 18.9999 67.7 19.1999 68.2 19.5999C68.5 19.7999 68.7 20.0999 68.9 20.2999C69.6 20.8999 70.5 21.2999 71.2 21.7999C72.2 22.4999 72.9 23.3999 73.9 24.0999C74.2 24.2999 74.5 24.5999 74.9 24.5999C74.9 24.1999 75 23.7999 75.1 23.3999ZM62.8 20.3999C62.8 20.4999 62.7 20.3999 62.6 20.4999C61.6 21.3999 60.7 23.3999 59.9 24.4999C59.8 24.5999 59.7 24.6999 59.7 24.6999C59.5 24.9999 59.3 25.2999 59.2 25.4999C59.1 25.5999 59 25.6999 59 25.6999C58.8 25.9999 58.6 26.2999 58.5 26.4999C58.4 26.5999 58.3 26.6999 58.3 26.6999C58.1 27.0999 57.9 27.4999 57.7 27.7999C57.6 27.8999 57.6 27.8999 57.5 27.9999C57.4 28.0999 57.4 28.1999 57.3 28.2999C55.6 30.6999 54.1 33.3999 52.4 35.5999C52.3 35.7999 52.2 35.9999 52 36.0999C51.9 36.2999 51.7 36.3999 51.6 36.5999C51.3 36.9999 51.2 37.3999 50.9 37.7999C50.8 37.9999 50.7 37.9999 50.6 38.1999C50.5 38.3999 50.4 38.4999 50.3 38.6999C50 38.9999 49.6 39.4999 49.5 39.5999C49.4 39.6999 49.4 39.7999 49.3 39.8999C48.9 40.2999 48.5 40.6999 48.3 40.9999C48 41.3999 47.7 41.8999 47.5 42.1999C47.4 42.2999 47.3 42.3999 47.2 42.5999C47.1 42.6999 47.1 42.8999 47 42.9999C46.9 43.0999 46.8 43.1999 46.7 43.2999C46.5 43.5999 46.4 43.8999 46.2 44.0999C46.1 44.1999 46 44.2999 46 44.2999C45.9 44.3999 45.8 44.5999 45.7 44.6999C45.6 44.7999 45.6 44.6999 45.5 44.7999C45.4 44.8999 45.4 44.8999 45.4 44.9999C45.3 45.0999 45.2 45.1999 45.1 45.2999C44.9 45.4999 44.9 45.7999 44.7 45.9999C44.6 46.1999 44.3 46.3999 44.2 46.5999C44.1 46.6999 44.1 46.7999 44 46.8999C44 46.8999 43.9 46.8999 43.8 46.9999H43.9L43.8 47.0999C43.4 47.5999 43.1 48.0999 42.8 48.4999C42.7 48.5999 42.6 48.6999 42.6 48.7999C42.4 49.1999 42.4 49.1999 42.2 49.3999C42.1 49.4999 42 49.6999 41.9 49.7999C40.3 51.6999 38.9 53.7999 37.3 55.7999C36.6 56.6999 35.9 57.5999 35.3 58.4999C34.6 59.4999 34 60.4999 33.3 61.3999C32.7 62.2999 32 63.0999 31.2 63.8999C31 64.0999 30.9 64.1999 30.8 64.3999C30.8 64.4999 30.7 64.3999 30.7 64.3999C30.5 64.5999 30.2 64.9999 30.1 64.9999C30 64.9999 30 65.0999 30 65.1999C29.7 65.5999 29.4 65.8999 29.4 66.3999C29.6 66.6999 30 66.7999 30.3 66.9999C30.9 67.2999 31.4 67.5999 31.9 67.7999C32.5 68.0999 32.9 68.3999 33.4 68.3999C33.6 68.1999 33.8 68.0999 33.9 67.8999C34 67.7999 34 67.6999 34 67.5999C34.3 66.8999 34.9 66.2999 35.3 65.6999C35.4 65.4999 35.5 65.1999 35.6 64.9999C36 64.0999 36.7 63.2999 37.3 62.4999C37.7 61.8999 38.1 61.1999 38.5 60.5999C38.8 60.2999 39.1 60.0999 39.3 59.7999C39.6 59.3999 40.1 58.8999 40.3 58.5999C40.6 58.2999 40.7 57.9999 40.9 57.6999H41L41.1 57.5999C41.8 56.5999 42.5 55.6999 43.2 54.6999C43.5 54.2999 44 53.7999 44.2 53.4999C44.3 53.3999 44.3 53.2999 44.4 53.1999C44.5 52.9999 44.7 52.8999 44.8 52.6999C44.9 52.5999 44.9 52.4999 45 52.2999C45.4 51.5999 45.8 50.9999 46.2 50.2999C46.4 49.9999 46.5 49.7999 46.6 49.4999C46.9 49.0999 47.3 48.6999 47.6 48.2999C47.8 48.0999 47.9 47.7999 48.1 47.5999C48.1 47.4999 48.2 47.5999 48.3 47.4999C48.5 47.2999 48.5 47.0999 48.6 46.8999C48.7 46.7999 48.8 46.7999 48.8 46.6999C49.5 45.8999 50.1 44.7999 50.6 43.9999C51.4 42.7999 52.4 41.3999 53.2 40.3999C53.5 39.9999 53.8 39.5999 54 39.3999C54.2 39.1999 54.2 39.0999 54.3 38.9999L54.4 38.8999C54.6 38.6999 54.7 38.5999 54.8 38.3999C55.5 37.4999 55.9 36.4999 56.6 35.5999C57 34.9999 57.5 34.4999 57.9 33.8999C58.2 33.3999 58.5 32.8999 58.8 32.3999C59.2 31.7999 59.8 30.9999 60.1 30.5999C60.8 29.6999 61.3 28.8999 62 27.9999C62.7 26.9999 63.4 26.0999 64.1 25.0999C64.5 24.5999 65 23.7999 65.1 23.3999C65.3 22.7999 65.9 22.4999 65.9 21.9999C65.6 21.5999 65 21.3999 64.6 20.9999C64.1 20.6999 63.7 20.2999 63.2 19.9999C63 20.2999 62.9 20.2999 62.8 20.3999ZM69.2 25.1999C69.1 25.2999 69.1 25.3999 69 25.4999C69 25.4999 68.9 25.4999 68.8 25.5999C68.7 25.6999 68.7 25.8999 68.6 25.9999C68.4 26.1999 68.2 26.4999 68 26.7999C67.9 26.9999 67.8 27.1999 67.7 27.3999V27.4999C67.6 27.6999 67.5 27.7999 67.4 27.8999C67.3 27.8999 67.3 28.1999 67.3 28.1999C67 28.6999 66.6 29.1999 66.2 29.6999C65.5 30.6999 64.8 31.6999 64.1 32.6999C63.6 33.4999 63 34.0999 62.6 34.7999V34.8999C62.4 35.1999 62.2 35.2999 62 35.5999C61.8 35.8999 61.7 36.0999 61.6 36.3999C61.1 37.2999 60.5 37.8999 60 38.6999C59.7 39.1999 59.4 39.6999 59 40.2999C58.7 40.7999 58.3 41.3999 57.9 41.8999C57.5 42.4999 56.9 42.9999 56.5 43.5999C55.6 44.8999 54.6 46.0999 53.8 47.3999C53.3 48.0999 53 48.7999 52.5 49.4999C51.8 50.4999 51 51.3999 50.4 52.3999C50 52.9999 49.5 53.8999 49.2 54.2999C48.8 55.0999 48.4 55.5999 47.9 56.1999C47.6 56.6999 47.2 57.1999 46.9 57.4999C46.8 57.6999 46.7 57.7999 46.6 57.9999C46.5 58.0999 46.5 57.9999 46.4 58.0999C46.3 58.1999 46.3 58.2999 46.2 58.3999C45.9 58.6999 45.8 58.9999 45.6 59.2999C45.5 59.4999 45.3 59.7999 45.2 59.9999C44.9 60.4999 44.3 61.0999 44 61.3999C43.6 61.7999 43.4 62.3999 43.1 62.7999C43 62.9999 42.7 63.0999 42.6 63.2999C42.4 63.4999 42.3 63.6999 42.1 63.8999C42 63.9999 42 63.9999 41.9 64.0999C41.2 64.8999 40.8 65.6999 40.3 66.5999C40.1 66.8999 40 67.0999 39.8 67.2999C39.7 67.3999 39.7 67.4999 39.7 67.5999C39.5 67.8999 39.3 67.8999 39.2 68.1999C39.1 68.2999 39.1 68.4999 39 68.5999C38.9 68.7999 38.6 68.9999 38.5 69.1999C38.4 69.3999 38.3 69.2999 38.3 69.4999L38.2 69.5999C38 69.9999 37.8 70.1999 37.8 70.5999C38.1 70.9999 39 71.3999 39.3 71.4999C39.4 71.4999 39.4 71.5999 39.5 71.5999C39.9 71.7999 40.1 72.2999 40.5 72.1999C41 71.6999 41.1 70.8999 41.5 70.2999C41.6 70.1999 41.8 69.9999 41.9 69.8999C42.3 69.4999 42.7 68.9999 43 68.4999C43.1 68.2999 43.3 68.0999 43.4 67.7999C43.5 67.5999 43.6 67.2999 43.7 67.1999C43.9 66.8999 44.2 66.7999 44.4 66.4999C44.6 66.1999 44.7 65.8999 44.9 65.6999C45 65.5999 45 65.5999 45.1 65.4999C45.4 65.1999 45.7 64.8999 45.9 64.5999C46.2 64.0999 46.4 63.5999 46.7 63.0999C47 62.5999 47.4 62.0999 47.7 61.6999C48.8 60.2999 49.7 58.6999 50.7 57.0999C51.4 56.0999 52.1 55.0999 52.8 54.0999C53.5 52.9999 54.2 51.9999 54.9 51.0999C55.1 50.7999 55.3 50.5999 55.4 50.4999C56 49.7999 56.7 48.6999 57.2 47.9999C57.9 47.1999 58.6 45.7999 59.2 45.2999C59.3 45.2999 59.3 45.1999 59.3 45.0999C59.5 44.7999 59.7 44.5999 59.9 44.3999C60 44.2999 60.1 44.0999 60.2 43.9999C61.1 42.8999 62.1 41.4999 62.9 40.4999C63.3 39.9999 63.6 39.4999 63.9 38.9999C64.8 37.3999 65.9 36.1999 66.9 34.9999C67.3 34.4999 67.7 33.9999 68.1 33.4999C68.4 33.0999 68.6 32.5999 68.9 32.1999C69.2 31.7999 69.5 31.3999 69.8 30.9999C70.1 30.5999 70.3 30.0999 70.6 29.5999C71.1 28.8999 71.7 28.2999 72 27.4999C71.9 27.1999 71.6 27.1999 71.4 26.9999C71.3 26.8999 71.4 26.8999 71.3 26.7999C71.2 26.6999 71.2 26.6999 71.1 26.6999C70.8 26.3999 70.5 26.1999 70.2 25.8999C70 25.6999 69.7 25.3999 69.4 25.2999C69.4 25.0999 69.3 25.0999 69.2 25.1999ZM37.1 74.8999C36.9 74.7999 36.8 74.7999 36.7 74.6999C36.5 74.5999 36.5 74.3999 36.3 74.4999C36.2 74.4999 35.9 74.2999 35.9 74.1999C35.7 74.0999 35.6 74.0999 35.4 73.9999C35.2 73.8999 35 73.6999 34.8 73.4999C34.7 73.3999 34.5 73.3999 34.4 73.2999C34.2 73.1999 34.1 73.0999 33.9 72.9999C33.6 72.8999 33.3 72.8999 33.1 72.7999C32.7 72.5999 32.3 72.2999 31.9 72.0999C31.6 71.8999 31.1 71.5999 30.8 71.4999H30.7C30.3 71.2999 29.9 70.9999 29.4 70.7999C29 70.4999 28.5 70.2999 28.1 70.0999C27.6 69.7999 27.2 69.3999 26.6 69.2999C26.4 69.4999 26.3 69.8999 26.3 69.9999C26.3 70.0999 26.3 70.0999 26.3 70.1999L26.2 70.2999C26.1 70.7999 26.1 71.2999 26 71.7999C26 71.9999 25.8 72.1999 25.8 72.3999C25.8 72.3999 25.9 72.5999 25.8 72.5999C25.8 72.6999 25.7 72.6999 25.7 72.7999C25.7 72.7999 25.8 72.9999 25.7 72.9999C25.7 73.1999 25.6 73.3999 25.6 73.4999L25.5 73.5999C25.5 73.6999 25.5 73.7999 25.5 73.8999L25.4 74.0999C25.4 74.1999 25.3 74.2999 25.3 74.3999C25.3 74.3999 25.4 74.5999 25.3 74.5999L25.2 74.6999C25.2 74.7999 25.2 74.7999 25.2 74.7999C25.1 75.1999 25.1 75.4999 25.1 75.8999C25.1 76.1999 25 76.3999 24.9 76.5999C24.9 76.6999 25 76.7999 24.9 76.7999C24.9 76.8999 24.8 77.0999 24.8 77.1999C24.8 77.3999 24.8 77.5999 24.7 77.6999C24.7 77.7999 24.7 77.7999 24.7 77.7999C24.7 78.0999 24.7 78.2999 24.7 78.4999C25.1 78.8999 25.6 79.3999 26.1 79.7999C26.6 80.1999 27 80.6999 27.7 80.8999C28.4 80.7999 28.9 80.0999 29.5 80.0999L29.6 79.9999C29.6 79.9999 29.7 79.9999 29.8 79.9999C29.9 79.9999 30.1 79.6999 30.2 79.5999H30.3L30.4 79.4999H30.5L30.6 79.3999H30.7L30.8 79.2999H30.9L31 79.1999H31.1L31.2 79.0999H31.3L31.4 78.9999C31.4 78.9999 31.5 78.9999 31.6 78.9999L31.8 78.7999C31.9 78.6999 32 78.6999 32.1 78.6999C32.5 78.4999 32.8 78.3999 33.1 78.1999C33.4 77.9999 33.9 77.7999 34.1 77.5999C34.2 77.4999 34.3 77.4999 34.4 77.3999C34.5 77.2999 34.5 77.3999 34.5 77.3999C34.8 77.2999 34.9 77.0999 35.2 77.0999L35.3 76.9999H35.4L35.5 76.8999H35.6L35.7 76.7999C35.7 76.7999 35.8 76.7999 35.9 76.7999C36 77.0999 36 76.9999 36.1 76.9999L36.2 76.8999H36.3L36.4 76.7999C36.5 76.7999 36.6 76.7999 36.6 76.7999C36.7 76.6999 36.7 76.7999 36.7 76.7999C36.9 76.6999 37.1 76.4999 37.3 76.3999H37.4L37.5 76.2999H37.6L37.7 76.1999C37.8 76.1999 37.9 76.1999 37.9 76.1999C38 76.0999 38.3 76.0999 38.3 75.7999C38.2 75.2999 37.3 74.9999 37.1 74.8999Z" fill="#231F20"/>
</svg>
