<svg width="100" height="125" viewBox="0 0 100 125" fill="none" xmlns="http://www.w3.org/2000/svg">
<path d="M61.1 72.1L61 72C61 71.9 61 71.9 60.9 71.8C60.9 71.8 60.8 71.7 60.7 71.7C60.7 71.7 60.7 71.7 60.6 71.7C60.5 71.6 60.4 71.6 60.3 71.5C60.2 71.2 59.9 71.1 59.8 71H59.7C59.7 70.9 59.6 70.8 59.3 70.8H59.2C59.2 70.8 59.1 70.8 59.1 70.9C59.1 70.9 58.9 70.9 58.9 71C58.8 71 58.7 71 58.7 71H58.4C58.3 71 58.2 71 58 71C57.8 71.1 57.6 71.2 57.4 71.3C57.2 71.4 57 71.5 56.8 71.5C56.8 71.5 56.8 71.5 56.7 71.5C56.6 71.5 56.5 71.5 56.5 71.6C56.5 71.6 56.4 71.6 56.3 71.7C56.2 71.8 56.2 71.9 56.2 72H56.1C56 72 55.9 72 55.9 72.1C55.8 72.2 55.7 72.3 55.6 72.3C55.5 72.3 55.5 72.4 55.4 72.4C55.3 72.4 55.3 72.5 55.3 72.6C55.2 72.8 55.3 72.9 55.4 73C55.4 73.1 55.4 73.2 55.5 73.3V73.4V73.8C55.5 74.6 55.5 75.4 55.7 75.9V75.8H55.9H55.7C55.7 75.9 55.7 76 55.8 76.1C55.8 76.2 55.9 76.3 55.9 76.3C56 76.5 56 76.6 56.2 76.8C56.4 77 56.6 77.1 56.7 77.1H56.8H56.9L57 77.2C57.2 77.3 57.4 77.3 57.5 77.3C57.8 77.3 58 77.2 58.2 77.2C58.5 77.1 58.7 77.1 59.1 77.1C59.2 77.1 59.3 77.1 59.3 77C59.3 77 59.4 76.9 59.5 76.9L59.6 76.8C59.7 76.8 59.7 76.7 59.7 76.7H59.8C59.9 76.7 59.9 76.7 60 76.6C60.1 76.5 60.1 76.5 60.2 76.4C60.2 76.4 60.2 76.4 60.2 76.3C60.3 76.3 60.5 76.3 60.6 76.1C60.6 76.1 60.6 76.1 60.6 76C60.6 75.9 60.6 75.7 60.6 75.6C60.7 75.5 60.7 75.4 60.7 75.4C60.7 75.3 60.8 75.3 60.8 75.3C60.9 75.2 60.9 75.1 60.9 75C61 74.8 61 74.5 61 74.2C61 74 61 73.9 61 73.7C61 73.6 61 73.5 61 73.4V73.3H61.1C61.2 73.2 61.3 73.1 61.2 72.9C61.2 72.9 61.2 72.8 61.1 72.8C61.1 72.6 61.2 72.3 61.1 72.1Z" fill="#231F20"/>
<path d="M52 73.2999C52 73.1999 52 73.1999 52 73.0999C52 72.7999 52 72.4999 52 72.2999C52 72.0999 52 71.7999 52 71.5999C52.1 71.4999 52.1 71.1999 52.1 71.1999V71.0999V70.9999C52.1 70.8999 52.2 70.6999 51.9 70.4999H51.8C51.7 70.3999 51.5 70.2999 51.2 70.2999C51.1 70.1999 50.9 70.0999 50.8 70.0999H50.7C50.7 69.9999 50.6 69.9999 50.5 69.8999C50.2 69.6999 49.8 69.7999 49.5 69.8999C49.2 69.9999 49 69.9999 48.8 69.9999C48.7 69.9999 48.6 69.9999 48.5 70.0999H48.4C48.3 70.0999 48.3 70.0999 48.2 70.1999C48.1 70.1999 48.1 70.2999 48 70.2999C48 70.2999 47.9 70.2999 47.8 70.2999C47.6 70.2999 47.6 70.3999 47.5 70.3999H47.4C47.3 70.3999 47.2 70.3999 47.1 70.4999C47 70.5999 47 70.6999 47 70.7999V70.8999C46.8 70.9999 46.8 71.0999 46.7 71.1999C46.7 71.2999 46.6 71.2999 46.6 71.2999C46.5 71.2999 46.5 71.3999 46.5 71.4999C46.5 71.6999 46.5 71.7999 46.5 71.9999C46.5 72.0999 46.5 72.1999 46.5 72.2999C46.4 72.2999 46.4 72.3999 46.4 72.3999C46.4 72.3999 46.4 72.4999 46.4 72.5999L46.3 72.6999C46.3 72.6999 46.3 72.6999 46.3 72.7999C46.3 72.8999 46.3 72.9999 46.3 72.9999V73.0999C46.3 73.1999 46.3 73.2999 46.4 73.2999C46.4 73.2999 46.4 73.3999 46.3 73.4999C46.3 73.6999 46.3 73.8999 46.4 74.1999C46.4 74.1999 46.4 74.1999 46.4 74.2999C46.3 74.3999 46.4 74.4999 46.4 74.5999C46.4 74.6999 46.4 74.6999 46.4 74.7999C46.4 74.8999 46.5 74.9999 46.4 75.1999C46.4 75.2999 46.4 75.3999 46.5 75.3999C46.6 75.3999 46.6 75.4999 46.7 75.5999L46.8 75.6999L46.9 75.7999L47 75.8999C47.1 75.9999 47.2 75.9999 47.4 76.0999H47.5C47.5 76.1999 47.6 76.1999 47.7 76.2999C48 76.3999 48.2 76.4999 48.5 76.4999C48.7 76.4999 48.9 76.4999 49.1 76.3999C49.5 76.2999 49.8 76.2999 50.1 76.1999C50.3 76.0999 50.4 75.9999 50.5 75.8999C50.7 75.6999 50.8 75.6999 51 75.6999C51.1 75.6999 51.2 75.6999 51.2 75.5999C51.2 75.4999 51.3 75.4999 51.2 75.3999C51.3 75.3999 51.3 75.3999 51.4 75.2999C51.5 75.1999 51.5 75.0999 51.6 75.0999C51.6 75.0999 51.6 74.9999 51.7 74.9999C51.8 74.8999 51.8 74.7999 51.8 74.7999C51.7 74.5999 51.8 74.2999 51.9 73.9999C52 73.7999 52 73.5999 52 73.4999C52.1 73.4999 52.1 73.4999 52 73.2999C52 73.3999 52 73.3999 52 73.2999Z" fill="#231F20"/>
<path d="M43.6 72.1C43.6 72 43.5 71.9 43.4 71.9C43.3 71.9 43.2 71.7 43.2 71.6C43.2 71.4 43 71.3 42.9 71.2C42.9 71.2 42.9 71.2 42.8 71.1C42.8 71 42.7 71 42.7 70.9C42.7 70.8 42.7 70.7 42.6 70.7C42.5 70.6 42.5 70.6 42.4 70.6C42.3 70.6 42.3 70.6 42.3 70.5L42.2 70.4C42.1 70.3 42 70.2 41.8 70.1C41.8 70.1 41.7 70.1 41.7 70L41.6 69.9H41.5C41.4 69.8 41.2 69.8 41.1 69.7H41C40.8 69.7 40.6 69.8 40.4 69.8H40.2C40 69.8 39.9 69.9 39.8 70H39.7C39.5 70 39.4 70.1 39.2 70.2C39.1 70.2 39 70.3 39 70.4C38.9 70.4 38.9 70.4 38.8 70.4H38.7C38.6 70.4 38.6 70.5 38.5 70.6C38.4 70.6 38.3 70.6 38.3 70.6C38.2 70.6 38.1 70.7 38.1 70.8C38.1 70.9 37.9 71.1 37.9 71.2L37.8 71.3C37.7 71.4 37.6 71.5 37.6 71.7L37.5 71.8C37.4 72.1 37.4 72.5 37.5 72.8V73C37.5 73.1 37.5 73.2 37.6 73.3C37.7 73.4 37.7 73.4 37.8 73.4C37.8 73.5 37.9 73.5 37.9 73.5C37.9 73.5 37.9 73.6 38 73.7L38.1 73.8C38.1 73.9 38.1 73.9 38.2 74C38.3 74.1 38.3 74.1 38.4 74.2C38.5 74.4 38.7 74.7 38.9 74.7C38.9 74.7 39 74.8 39.1 74.9C39.1 74.9 39.1 74.9 39.2 75L39.3 75.1C39.4 75.2 39.5 75.3 39.6 75.3L39.7 75.4C39.9 75.4 40 75.5 40.2 75.5C40.4 75.5 40.5 75.5 40.7 75.5C41 75.5 41.2 75.4 41.5 75.5C41.6 75.5 41.6 75.5 41.7 75.4H41.8C42 75.3 42.2 75.2 42.3 75.1L42.4 75C42.7 75 42.9 74.8 43 74.7C43.1 74.6 43.1 74.6 43.2 74.6C43.3 74.6 43.4 74.5 43.4 74.4C43.4 74.2 43.5 74.1 43.5 73.9C43.6 73.6 43.7 73.3 43.7 72.9C43.7 72.8 43.7 72.7 43.6 72.6C43.6 72.6 43.6 72.6 43.6 72.5C43.6 72.3 43.6 72.2 43.6 72.1Z" fill="#231F20"/>
<path d="M51.7 61.8001L51.6 61.7001L51.5 61.5001C51.4 61.4001 51.3 61.3001 51.2 61.1001C51.2 61.0001 51.1 61.0001 51.1 60.9001C51 60.9001 51 60.9001 50.9 60.9001C50.8 60.9001 50.8 60.9001 50.7 60.8001L50.6 60.7001C50.5 60.6001 50.4 60.6001 50.3 60.6001C50.2 60.6001 50.2 60.5001 50.1 60.5001C49.9 60.4001 49.8 60.2001 49.4 60.2001C49.3 60.2001 49.1 60.2001 48.9 60.2001C48.8 60.2001 48.8 60.2001 48.7 60.2001L48.6 60.1001C48.5 60.1001 48.3 60.1001 48.3 60.2001C48.3 60.2001 48.3 60.2001 48.2 60.2001C48.1 60.2001 48 60.2001 47.9 60.2001C47.8 60.2001 47.8 60.3001 47.7 60.3001C47.6 60.3001 47.5 60.4001 47.5 60.4001C47.4 60.4001 47.3 60.5001 47.2 60.5001C47.1 60.5001 47.1 60.5001 47 60.6001C46.9 60.7001 46.8 60.7001 46.6 60.7001H46.4C46.3 60.7001 46.3 60.7001 46.2 60.8001C46.1 60.9001 46.1 61.0001 46 61.1001C45.9 61.3001 45.8 61.4001 45.7 61.4001C45.6 61.4001 45.5 61.5001 45.5 61.6001C45.4 61.9001 45.3 62.3001 45.3 62.6001C45.3 62.8001 45.3 62.9001 45.2 63.0001C45.2 63.1001 45.2 63.2001 45.3 63.3001V63.4001C45.3 63.5001 45.3 63.5001 45.4 63.6001L45.5 63.7001L45.6 63.9001C45.6 63.9001 45.7 64.0001 45.7 64.1001C45.7 64.2001 45.7 64.2001 45.8 64.4001C45.8 64.5001 45.9 64.5001 45.9 64.5001C45.9 64.6001 45.9 64.7001 45.9 64.8001C45.9 64.9001 46 64.9001 46 65.0001L46.1 65.1001C46.2 65.2001 46.3 65.2001 46.4 65.3001C46.4 65.3001 46.4 65.4001 46.5 65.4001C46.7 65.6001 47 65.7001 47.4 65.8001C47.6 66.0001 47.8 66.0001 48.1 66.0001C48.3 66.0001 48.4 66.0001 48.5 65.9001C48.5 65.9001 48.5 65.9001 48.6 65.9001H48.7H48.8H49C49.2 65.9001 49.4 65.9001 49.5 65.8001C49.6 65.8001 49.6 65.7001 49.7 65.6001C49.7 65.6001 49.8 65.6001 49.9 65.6001C50 65.6001 50 65.5001 50.1 65.5001H50.2C50.4 65.5001 50.9 65.2001 51 64.9001C51.1 64.8001 51.3 64.7001 51.3 64.5001L51.4 64.4001C51.5 64.2001 51.5 64.0001 51.5 63.8001V63.7001L51.6 63.6001C51.7 63.0001 51.7 62.7001 51.6 62.3001C52 62.0001 51.8 61.9001 51.7 61.8001Z" fill="#231F20"/>
<path d="M37.6 64.8C37.8 64.8 38 64.9 38.2 64.9C38.5 65 38.9 65 39.1 65H39.2H39.3C39.5 65.1 39.7 65.1999 39.9 65.1999C40 65.1999 40 65.1999 40.1 65.0999C40.2 64.9999 40.3 65 40.5 65H40.6C40.7 65 40.7 64.9 40.8 64.9C40.9 64.9 40.9 64.9 41 64.9C41.1 64.9 41.3 64.8 41.4 64.8C41.5 64.8 41.5 64.6999 41.6 64.6999C41.6 64.6999 41.6 64.6999 41.7 64.6999C41.8 64.6999 41.8 64.6999 41.9 64.5999C42 64.5999 42 64.5 42 64.5C42 64.5 42 64.5 42 64.4C42.2 64.2 42.3 64.1 42.4 63.9C42.4 63.8 42.5 63.8 42.5 63.7C42.5 63.6 42.6 63.6 42.6 63.5C42.7 63 42.7 62.7 42.6 62.4C42.7 62 42.5 61.7 42.4 61.5C42.4 61.4 42.3 61.2999 42.3 61.2999C42 60.9999 42 61 41.9 61C41.8 61 41.8 60.9 41.7 60.9C41.6 60.8 41.5 60.8 41.3 60.7C41.3 60.6 41.3 60.5 41.2 60.4C41.1 60.3 41 60.2999 40.9 60.2999C40.9 60.2999 40.9 60.2999 40.8 60.2999C40.7 60.1999 40.6 60.2 40.4 60.2C40.3 60.2 40.2 60.1999 39.9 60.2999C39.7 60.3999 39.5 60.4 39.4 60.5H39.3H39.2C39.1 60.5 39 60.4999 39 60.5999H38.9C38.8 60.5999 38.7 60.5999 38.7 60.5999H38.6C38.2 60.6999 37.7 60.8999 37.4 61.0999C37.3 61.0999 37.2 61.1 37.2 61.2C37.1 61.3 37.1 61.4 37.1 61.5C37 61.5 37 61.5999 36.9 61.5999C36.8 61.6999 36.8 61.8 36.8 61.9V62C36.7 62 36.6 62.1 36.6 62.2C36.5 63.1 36.7 63.6999 37 64.0999C37 64.2999 37.1 64.4999 37.2 64.5999L37.3 64.6999C37.4 64.6999 37.5 64.8 37.6 64.8Z" fill="#231F20"/>
<path d="M61.9 60.5C61.9 60.4 61.9 60.3 61.9 60.3C61.9 60.3 61.9 60.2 61.8 60.2C61.7 60 61.6 60 61.5 60L61.4 59.9C61.3 59.8 61.3 59.8 61.2 59.7C61.1 59.7 61.1 59.6 61 59.5C60.8 59.3 60.7 59.2 60.4 59.1C60.3 59.1 60.1 59.1 60 59.1C59.9 59.1 59.9 59.1 59.8 59.1C59.8 59.1 59.7 59 59.5 59C59.4 59 59.4 59 59.3 59.1C59.1 59.2 58.8 59.2 58.6 59.3C58.2 59.4 57.8 59.5 57.4 59.6C57.3 59.6 57.3 59.6 57.2 59.7C57.1 59.9 57.1 60 57 60C56.9 60.1 56.8 60.2 56.7 60.3L56.6 60.4C56.5 60.5 56.3 60.6 56.2 60.8L56.1 60.9C56.1 61 56.1 61.1 56.1 61.3C56.1 61.3 56.1 61.3 56.1 61.4C56.1 61.4 56 61.5 56 61.6C56 61.8 56 61.9 56 62C56 62.1 56 62.2 56 62.3V62.4C56 62.4 56 62.5 55.9 62.6C55.9 62.9 55.9 63.1 56 63.3V63.4V63.5C56 63.6 56 63.7 56 63.8C56 63.9 56.1 63.9 56.2 64C56.2 64 56.2 64 56.2 64.1C56.2 64.2 56.2 64.3 56.3 64.4L56.4 64.5C56.4 64.5 56.4 64.6 56.5 64.6C56.6 64.7 56.7 64.7 56.8 64.7C56.8 64.8 56.9 64.8 57 64.9H57.1C57.2 65 57.3 65 57.5 65.1L57.6 65.2C57.7 65.2 57.9 65.2 58 65.2C58.2 65.2 58.4 65.2 58.5 65.1C58.8 65.1 59 65 59.3 65.1C59.4 65.1 59.4 65.1 59.5 65.1C59.5 65.1 59.5 65.1 59.6 65H59.7C59.8 64.9 59.9 64.8 60 64.8C60.1 64.8 60.1 64.8 60.2 64.8C60.3 64.8 60.3 64.7 60.4 64.6H60.5C60.6 64.6 60.7 64.6 60.8 64.5C60.9 64.5 60.9 64.4 61 64.3C61.1 64.3 61.2 64.3 61.3 64.2C61.3 64.1 61.4 64.1 61.4 64C61.5 63.9 61.5 63.9 61.5 63.8C61.5 63.7 61.5 63.7 61.5 63.7V63.6C61.5 63.5 61.5 63.5 61.6 63.4V63.3C61.6 63.2 61.7 63.1 61.7 63V62.9C61.8 62.6 61.8 62.5 61.8 62.3C61.8 62.2 61.8 62.2 61.8 62.1V62C61.8 61.9 61.9 61.9 61.9 61.8C61.9 61.6 61.9 61.5 61.9 61.3C61.9 61.2 61.9 61.1 61.9 61C61.9 60.9 62 60.8 62 60.7C62 60.7 61.9 60.6 61.9 60.5Z" fill="#231F20"/>
<path d="M61.9 52.2001C61.9 52.1001 61.8 51.9 61.6 51.8C61.6 51.7 61.5 51.6 61.3 51.6L61.2 51.5L61.1 51.4001L61 51.3C60.9 51.2 60.9 51.2 60.8 51.1C60.8 51.1 60.7 51.1 60.6 51.1H60.5C60.5 51.1 60.4 51 60.3 51C60.3 51 60.2 51 60.1 51L60 50.9001C59.7 50.8001 59.5 50.8 59 50.8L58.6 50.9001C58.5 50.9001 58.4 50.9001 58.2 50.9001C58.2 50.9001 58.1 50.9 58 51C57.9 51 57.8 51 57.7 51C57.3 51 56.9 51.1 56.6 51.3C56.5 51.3 56.4 51.3 56.4 51.3C56.3 51.4 56.2 51.4 56.1 51.6C56.1 51.7 56 51.7 56 51.8C56 51.8 56 51.8 55.9 51.8C55.8 51.8 55.7 51.9 55.7 52C55.7 52.1 55.6 52.1001 55.6 52.2001C55.5 52.2001 55.5 52.3 55.5 52.3C55.4 52.4 55.5 52.6001 55.5 52.7001V52.8C55.5 52.8 55.4 52.9 55.4 53C55.3 53 55.3 53.1001 55.3 53.2001C55.3 53.3001 55.3 53.4 55.4 53.5V53.6C55.4 53.6 55.4 53.7001 55.3 53.7001C55.3 53.8001 55.2 53.8001 55.2 53.9001C55.1 54.1001 55.2 54.3001 55.2 54.4001V54.5C55.2 54.6 55.2 54.7 55.2 54.8C55.2 54.9 55.2 54.9 55.2 55C55.2 55 55.2 55.1 55.3 55.1C55.3 55.2 55.4 55.3001 55.5 55.4001C55.5 55.4001 55.6 55.5 55.7 55.5C55.7 55.5 55.7 55.6 55.8 55.6H55.9C55.9 55.7 55.9 55.7 56 55.8C56.1 55.9 56.1 55.9001 56.2 55.9001V56C56.2 56.1 56.3 56.1 56.4 56.1C56.7 56.2 57 56.3 57.2 56.3C57.4 56.3 57.6 56.3001 57.8 56.2001C58 56.3001 58.1 56.3 58.4 56.3C58.5 56.3 58.5 56.3001 58.6 56.2001C58.7 56.1001 58.9 56.1 59 56C59.1 56 59.3 55.9001 59.4 55.9001C59.5 55.9001 59.5 55.8 59.5 55.8C59.7 55.8 59.8 55.8001 59.9 55.7001C60 55.7001 60.1 55.6001 60.3 55.7001C60.4 55.7001 60.5 55.7 60.5 55.6C60.6 55.5 60.6 55.4001 60.6 55.4001V55.3C60.7 55.3 60.9 55.2 60.9 55.1L61 55C61.1 55 61.1 54.9 61.1 54.8C61.1 54.7 61.1 54.5001 61.2 54.4001C61.3 54.3001 61.3 54.1001 61.3 53.9001C61.5 53.7001 61.5 53.4001 61.5 53.2001C61.5 53.1001 61.5 52.9 61.6 52.8C61.7 52.7 61.7 52.7 61.7 52.6C61.7 52.5 61.6 52.5001 61.6 52.4001C62 52.3001 62 52.2001 61.9 52.2001Z" fill="#231F20"/>
<path d="M52 51.4999C51.9 51.2999 51.7 51.1999 51.6 51.1999H51.5C51.4 51.0999 51.2 50.9999 51.1 50.8999L51 50.7999C50.9 50.7999 50.9 50.7999 50.9 50.7999C50.8 50.7999 50.7 50.6999 50.5 50.6999C50.2 50.3999 49.9 50.3999 49.4 50.3999C49.3 50.3999 49 50.4999 48.6 50.5999C48.4 50.6999 48.3 50.6999 48.1 50.6999C48 50.6999 47.9 50.6999 47.9 50.6999C47.8 50.6999 47.7 50.6999 47.6 50.7999C47.5 50.7999 47.5 50.8999 47.4 50.8999C47.4 50.8999 47.4 50.8999 47.3 50.8999C47.2 50.8999 47.1 50.8999 47 50.9999C46.9 50.9999 46.9 51.0999 46.9 51.0999C46.9 51.0999 46.9 51.0999 46.8 51.1999C46.6 51.3999 46.3 51.5999 46.3 51.8999C46.2 51.9999 46.1 52.0999 46.1 52.2999C46.1 52.3999 46.1 52.4999 46.1 52.5999L46 52.6999C45.9 53.0999 46.1 53.2999 46.2 53.3999C46.2 53.3999 46.2 53.4999 46.2 53.5999C46.2 53.5999 46.2 53.5999 46.3 53.6999V53.7999C46.3 53.8999 46.4 53.8999 46.4 53.8999C46.5 54.0999 46.7 54.4999 46.7 54.4999C46.7 54.4999 46.8 54.5999 46.9 54.6999C47 54.7999 47 54.7999 47.1 54.7999C47.1 54.8999 47.1 54.9999 47.2 54.9999C47.2 54.9999 47.3 55.0999 47.4 55.0999C47.4 55.1999 47.5 55.2999 47.6 55.2999L47.7 55.3999C47.8 55.4999 48 55.4999 48.3 55.4999C48.4 55.4999 48.4 55.4999 48.5 55.4999L48.6 55.5999C48.9 55.6999 49.2 55.6999 49.5 55.6999H50C50.1 55.6999 50.1 55.6999 50.2 55.6999C50.3 55.6999 50.3 55.6999 50.4 55.5999C50.7 55.2999 51.2 55.1999 51.6 54.9999L51.8 54.8999C51.9 54.8999 51.9 54.7999 52 54.6999C52 54.3999 52.1 54.1999 52.2 53.9999C52.3 53.6999 52.4 53.3999 52.5 53.0999C52.7 52.9999 52.7 52.6999 52.7 52.5999C52.7 52.5999 52.7 52.5999 52.7 52.4999C52.7 52.4999 52.8 52.3999 52.8 52.2999C52.8 52.1999 52.8 52.1999 52.8 52.1999V52.0999C52.8 51.9999 52.8 51.8999 52.8 51.7999C52.8 51.6999 52.8 51.5999 52.7 51.5999C52.6 51.5999 52.3 51.4999 52 51.4999Z" fill="#231F20"/>
<path d="M36.9 54.4001C37 54.4001 37 54.5 37.1 54.5C37.2 54.5 37.3 54.6001 37.4 54.7001C37.5 54.8001 37.6 54.8 37.7 54.8C37.9 54.8 38.1 54.8001 38.3 54.9001C38.5 55.0001 38.8 55.1 39 55C39.2 55.2 39.6 55.2001 39.9 55.2001C40.2 55.2001 40.5 55.2 40.7 55.1C40.9 55 41 55.1 41.3 55C41.4 55 41.4 54.9 41.5 54.8C41.6 54.7 41.7 54.7001 41.8 54.7001H41.9C42.1 54.6001 42.2 54.6 42.4 54.5C42.5 54.5 42.7 54.3001 42.6 54.2001C42.6 54.2001 42.7 54.2 42.7 54.1C42.8 54 42.8 53.9 42.8 53.8V53.7001V53.6C42.9 53.4 43.1 53.2 43.1 53V52.9001C43.1 52.9001 43.2 52.8001 43.2 52.7001C43.2 52.6001 43.2 52.6 43.2 52.5C43.2 52.4 43.2 52.4 43.2 52.3C43.2 52.2 43.2 52.2 43.2 52.1C43.2 52 43.3 51.9 43.3 51.8C43.3 51.7 43.3 51.7 43.2 51.6C43.2 51.5 43.2 51.5 43.2 51.5V51.4001C43.2 51.3001 43.2 51.3001 43.2 51.2001C43.2 51.1001 43.1 51 43 51C42.9 51 42.8 50.9001 42.8 50.9001C42.6 50.8001 42.4 50.6001 42.1 50.7001C42 50.7001 42 50.6 41.9 50.6C41.9 50.5 41.8 50.4001 41.7 50.4001C41.5 50.3001 41.3 50.4001 41.2 50.4001C41.1 50.3001 41.1 50.3001 41 50.2001L40.9 50.1L40.8 50C40.8 50 40.8 49.9001 40.7 49.9001C40.7 49.9001 40.6 49.8 40.5 49.8H40.4C40 50 39.8 50.0001 39.5 49.9001C39.4 49.9001 39.2 49.9001 39.1 49.9001C39 49.9001 38.9 49.9 38.8 50C38.8 50 38.7 50 38.6 50.1C38.5 50.1 38.5 50.1001 38.5 50.2001C38.4 50.2001 38.3 50.3 38.1 50.3C38 50.3 37.9 50.3 37.9 50.3C37.7 50.3 37.5 50.4 37.4 50.5C37.2 50.6 37.1 50.7001 36.9 50.7001C36.8 50.7001 36.8 50.8 36.7 50.8C36.7 50.8 36.7 50.8 36.6 50.8C36.5 50.8 36.5 50.8001 36.4 50.9001C36.3 50.9001 36.3 51 36.3 51C36.2 51 36.2 51 36.1 51.1C36 51.2 36 51.3001 35.9 51.4001V51.5C35.9 51.6 35.8 51.6 35.7 51.6L35.6 51.7001C35.5 51.7001 35.5 51.8001 35.5 51.9001V52C35.5 52 35.4 52.1001 35.4 52.2001C35.4 52.3001 35.4 52.4 35.4 52.6C35.4 52.6 35.4 52.6001 35.4 52.7001C35.4 52.8001 35.3 52.9001 35.4 52.9001C35.4 53.0001 35.4 53 35.5 53V53.1C35.5 53.2 35.5 53.4 35.6 53.5L35.7 53.6L35.8 53.7001C35.8 53.8001 36.1 54.2001 36.4 54.2001C36.6 54.2001 36.6 54.3001 36.9 54.4001C36.8 54.4001 36.8 54.4001 36.9 54.4001Z" fill="#231F20"/>
<path d="M65.2 34.8C65.1 34.6 65.1 34.2001 65.1 33.9001C65.1 33.4001 65.1 33 64.9 32.6C65 32.4 65 32.2 64.9 32.1C64.9 32 64.9 32 64.9 32V31.9C64.9 31.8 65 31.7 64.9 31.6C64.9 31.5 64.9 31.4 64.9 31.3C64.9 31.2 64.9 31.2 64.9 31.1C64.9 31 64.9 30.9 64.8 30.8V30.7C64.8 30.6 64.8 30.6 64.8 30.5V30.4V30.3C64.8 30.2 64.8 30.2 64.8 30.1C64.8 29.8 64.7 29.5 64.7 29.1C64.7 28.7 64.7 28.2 64.6 28C64.6 27.9 64.5 27.9 64.5 27.8C64.5 27.6 64.5 27.5 64.4 27.3C64.4 27.1 64.4 26.9 64.3 26.8C64.3 26.7 64.2 26.7 64.2 26.6C64.3 26.5 64.2 26.4 64.2 26.3C64.2 26.2 64.2 26.1 64.2 26.1C64.2 26 64.2 25.9 64.2 25.8C64.2 25.7 64.2 25.7 64.1 25.7C64.1 25.7 64.1 25.6 64.1 25.5C64.1 25.5 64.1 25.4 64 25.4C64 25.3 64 25.3 64 25.2C64 25.1 64 25 63.9 24.9C63.9 24.8 63.8 24.7 63.8 24.6V24.5C63.8 24.4 63.8 24.3 63.7 24.3C63.6 24.2 63.5 24.1 63.3 24.1C63.3 24 63.2 24 63.2 23.9C63 23.8 62.7 23.6 62.5 23.5C62.3 23.4 62.2 23.3 62.1 23.3C61.9 23.2 61.8 23.1 61.7 23.1L61.6 23C61.5 23 61.4 23 61.3 23C61.3 23 60.9 23 60.7 23H60.6C60.6 22.9 60.5 22.8 60.3 22.7C60.2 22.6 60 22.6 60 22.6H59.9C59.9 22.5 59.8 22.5 59.8 22.4C59.7 22.3 59.6 22.3 59.5 22.4C59.3 22.3 59.1 22.2 58.9 22.1C58.8 22 58.6 22 58.4 22C58.1 22 58 22 57.8 22C57.7 22 57.6 22 57.5 22C57.4 21.9 57.3 21.9 57.2 22C57.2 22 57.1 22 57.1 22.1C57 22.1 56.9 22.1 56.9 22.1C56.8 22.1 56.8 22.1 56.7 22.2H56.6C56.6 22.2 56.5 22.1 56.4 22.1H56.3H56.1C55.1 22 54 22 52.9 22C52.6 22 52.3 22 51.9 22H51.4C50.9 22 50.4 22 49.9 22C48.9 22 48.2 22 47.6 22.1H47.4H47.3C47.2 22.1 47.1 22.1 47 22.2C46.8 22.2 46.5 22.2 46.3 22.2C45.9 22.2 45.5 22.2 45.3 22.3C45.3 22.3 45.3 22.3 45.2 22.3C45.2 22.3 45.1 22.3 45 22.4C44.9 22.4 44.9 22.4 44.8 22.4C44.7 22.5 44.5 22.5 44.4 22.6C44.3 22.7 44.1 22.8 44 22.8C43.9 22.8 43.8 22.8 43.6 22.8C43.5 22.8 43.3 22.8 43.2 22.8C42.6 22.9 42.1 23 41.7 23.1C41.3 23.2 41 23.3 40.9 23.3C40.8 23.3 40.8 23.3 40.7 23.3C40.7 23.3 40.6 23.3 40.6 23.4C40.6 23.4 40.6 23.4 40.5 23.4C40.5 23.4 40.4 23.4 40.4 23.5H40.3C40.3 23.5 40.3 23.5 40.2 23.5H40.1C40.1 23.5 40.1 23.5 40 23.5C40 23.5 40 23.5 39.9 23.5C39.9 23.5 39.8 23.5 39.8 23.6H39.7C39.6 23.6 39.6 23.7 39.5 23.8V23.9C39.5 23.9 39.4 23.9 39.3 23.9C39.2 23.9 39.2 23.8 39.1 23.8C38.9 23.8 38.8 24 38.8 24.1C38.7 24.1 38.7 24.1 38.7 24.2H38.5C38.3 24.2 38 24.3 37.9 24.4C37.8 24.4 37.7 24.4 37.7 24.4L37.6 24.5C37.6 24.5 37.6 24.5 37.6 24.6C37.3 24.8 37.1 25 37 25.2C37 25.2 37 25.2 36.9 25.3C36.8 25.4 36.7 25.5 36.7 25.6L36.6 25.7C36.6 25.8 36.6 25.9 36.7 26C36.6 26.2 36.5 26.4 36.5 26.4C36.5 26.5 36.5 26.5 36.5 26.5C36.5 26.5 36.5 26.6 36.5 26.7V26.8C36.5 26.9 36.5 26.9 36.5 27C36.4 27.1 36.4 27.1 36.3 27.2C36.3 27.3 36.3 27.3 36.3 27.4C36.2 27.4 36.1 27.5 36.1 27.6C36 27.7 36 27.8 36 27.9C36 28.1 36 28.2 36 28.3L35.9 28.4C35.8 28.6 35.8 28.7 35.8 28.8C35.8 28.9 35.8 29 35.7 29C35.7 29 35.7 29.1 35.6 29.1C35.6 29.2 35.5 29.3 35.5 29.4C35.5 29.5 35.5 29.6 35.5 29.7C35.5 29.8 35.5 29.8 35.5 29.9C35.5 30 35.5 30.1 35.5 30.1C35.5 30.2 35.5 30.3 35.5 30.4C35.5 30.6 35.5 30.7 35.6 30.8V30.9C35.5 31 35.5 31.1 35.6 31.2C35.5 31.6 35.6 32 35.6 32.3C35.6 32.4 35.6 32.5 35.6 32.7C35.6 32.8 35.6 33 35.6 33.1C35.6 33.2 35.6 33.3 35.6 33.4001C35.6 33.4001 35.6 33.4 35.6 33.5C35.6 33.6 35.6 33.7 35.6 33.8C35.6 33.9 35.5 34 35.5 34.1C35.5 34.2 35.5 34.2 35.6 34.3V34.4001C35.6 34.9001 35.6 35.2 35.7 35.5C35.7 35.6 35.7 35.7 35.7 35.8C35.7 36 35.7 36.1 35.8 36.3C35.8 36.5 35.9 36.7 36 36.8C36.1 37.1 36.2 37.3 36.1 37.5C36.1 37.6 36.1 37.6 36.1 37.7C36.1 37.7 36.1 37.7 36.2 37.8C36.2 37.9 36.3 38 36.3 38C36.3 38.1 36.3 38.1 36.3 38.2001C36.3 38.2001 36.3 38.3 36.4 38.3C36.4 38.4 36.5 38.5 36.6 38.6C36.6 38.7 36.7 38.8001 36.7 38.9001V39V39.1C36.7 39.2 36.7 39.2 36.7 39.3C36.7 39.4 36.8 39.5 36.8 39.6C36.8 39.7 36.8 39.9 36.9 40C36.9 40.1 36.9 40.1 36.9 40.2001C37 40.5 37 40.6 37 40.7001C37 40.8001 37.1 40.9 37.1 41C37.1 41.1 37 41.2001 37.1 41.2001C37.1 41.3001 37.3 41.4001 37.4 41.4001C37.4 41.5001 37.4 41.6 37.4 41.7001C37.5 41.8001 37.5 41.8001 37.6 41.9001C37.6 42.1001 37.7 42.2 37.8 42.3C37.9 42.4 37.9 42.4 38 42.5C38 42.5 38 42.5 38 42.6C38 42.7 38 42.7 38.1 42.8L38.2 42.9001C38.3 43.1001 38.4 43.2 38.6 43.3C38.7 43.4 38.7 43.4 38.8 43.5C38.8 43.6 38.8 43.7 38.9 43.8C39 43.9 39.1 43.9001 39.1 43.9001C39.1 44.0001 39.1 44 39.2 44.1C39.3 44.2 39.4 44.2 39.4 44.3C39.4 44.3 39.4 44.3 39.5 44.3L39.6 44.4001C39.9 44.7001 40.1 44.9001 40.3 44.9001L40.4 45C40.5 45.1 40.7 45.1 40.9 45.1C41 45.1 41.1 45.1 41.1 45.2001H41.3C41.5 45.3001 41.7 45.3 41.9 45.3H42H42.1C42.1 45.3 42.2 45.4001 42.3 45.4001H42.4H42.5H42.6H42.7C42.8 45.4001 42.8 45.4 42.9 45.3L43 45.4001C43 45.4001 43.1 45.4001 43.2 45.4001C43.3 45.5001 43.4 45.5 43.5 45.5H43.6H43.7H43.9C44.2 45.5 44.5 45.6 44.6 45.6C44.7 45.6 44.7 45.6 44.9 45.6C45 45.6 45 45.6 45.1 45.6H45.2C45.7 45.7 46.2 45.8 46.8 45.8H46.9C46.9 45.8 47 45.8 47.1 45.8C47.2 45.8 47.3 45.8001 47.3 45.7001C47.3 45.7001 47.3 45.7001 47.4 45.7001C47.5 45.7001 47.5 45.7001 47.6 45.7001C47.7 45.7001 47.8 45.8 47.9 45.8H48C48.1 45.8 48.3 45.7001 48.4 45.7001C48.5 45.7001 48.5 45.6 48.6 45.6H48.7H48.8H48.9C49 45.6 49 45.6 49.1 45.5C49.1 45.5 49.2 45.6 49.3 45.6C49.4 45.6 49.4 45.6 49.5 45.5C49.6 45.5 49.7 45.5 49.9 45.5C50.2 45.5 50.2 45.5 50.3 45.5H50.4C50.5 45.5 50.5 45.5 50.6 45.5C50.7 45.5 50.8 45.6 50.8 45.5C50.8 45.5 50.9 45.5001 50.9 45.4001C50.9 45.4001 51 45.5 51.1 45.5H51.2H51.3C51.4 45.5 51.4 45.5 51.4 45.5H51.5C51.7 45.6 51.9 45.5001 52 45.4001C52 45.4001 52 45.4001 52.1 45.4001C52.2 45.4001 52.3 45.5 52.4 45.5C52.4 45.6 52.6 45.6 52.6 45.6H52.7C53.1 45.6 53.3 45.6 53.5 45.5C53.5 45.5 53.5 45.5 53.6 45.5C53.6 45.5 53.6 45.5 53.7 45.5C53.7 45.5 53.8 45.5 53.9 45.5C53.9 45.5 54 45.5 54.1 45.5C54.5 45.5 54.8 45.5 55 45.3H55.1H55.2C55.3 45.3 55.3 45.3 55.4 45.3C55.5 45.3 55.5 45.3 55.5 45.3C55.6 45.4 55.7 45.4001 55.8 45.4001C55.9 45.4001 56 45.4001 56 45.4001C56.1 45.4001 56.1 45.4001 56.2 45.4001H56.3C56.5 45.5001 56.8 45.5001 57.1 45.4001C57.2 45.4001 57.4 45.4001 57.5 45.4001C57.5 45.4001 57.5 45.4001 57.6 45.4001C57.7 45.4001 57.8 45.5 57.9 45.5C58 45.5 58.1 45.4001 58.1 45.4001C58.1 45.4001 58.2 45.4001 58.3 45.4001C58.5 45.4001 58.7 45.4001 58.9 45.4001H59C59.2 45.4001 59.4 45.4001 59.6 45.4001C59.7 45.4001 59.8 45.3 59.8 45.3H59.9C59.9 45.3 60 45.3 60.1 45.3C60.2 45.3 60.2 45.2001 60.2 45.2001C60.2 45.2001 60.2 45.2001 60.3 45.2001H60.4C60.5 45.2001 60.5 45.2001 60.6 45.2001C60.7 45.2001 60.7 45.2001 60.8 45.2001C61.2 45.1 61.3 45.1001 61.5 44.9001C61.6 44.8001 61.6 44.8 61.7 44.8C61.8 44.8 61.8 44.7001 61.9 44.7001C62.1 44.6 62.2 44.5001 62.3 44.4001C62.5 44.3001 62.7 44.2 63 44.1C63.1 44.1 63.1 44 63.2 44C63.3 44 63.2 43.9 63.2 43.8C63.2 43.8 63.3 43.7 63.3 43.6C63.3 43.6 63.4 43.6 63.4 43.5C63.4 43.5 63.5 43.4 63.5 43.3C63.5 43.3 63.6 43.3001 63.6 43.2001C63.7 43.1 63.7 43.0001 63.8 42.9001C64.1 42.8001 64.2 42.7001 64.3 42.5C64.4 42.4 64.4 42.3001 64.4 42.2001C64.5 42.2001 64.6 42.1 64.7 42C64.7 42 64.7 41.9 64.7 41.8C64.8 41.6 64.8 41.4001 64.8 41.2001C64.8 41.1 64.8 40.9 64.8 40.8C64.8 40.8 64.8 40.7001 64.9 40.7001L65 40.6C65 40.5 65 40.4 65 40.3C65 40.3 65.1 40.2 65.1 40.1C65.1 40 65.1 39.9001 65.1 39.9001C65.1 39.9001 65.1 39.9 65.1 39.8C65.1 39.7 65.1 39.5 65 39.5C65 39.2001 64.9 38.9001 64.9 38.7001C65 38.7001 65 38.6 65 38.5C65 38.4 65 38.3001 64.9 38.2001V38.1C64.9 38 64.9 37.8 64.9 37.7C64.9 37.5 64.9 37.4 64.9 37.3V37.2C65 37.1 65 36.9 64.9 36.7V36.6C64.9 36.6 64.9 36.5001 64.9 36.4001C65 35.9001 65 35.6 65 35.5V35.4001C65 35.3 65 35.3 65 35.2C65 35 65 35 65 35C65.2 35.1 65.3 34.9 65.2 34.8ZM47 41.7001H46.8C46.4 41.7001 46.1 41.6 45.7 41.5C45.5 41.5 45.4 41.4001 45.2 41.4001L44.8 41.3C44.8 41.3 44.8 41.3 44.7 41.3C44.6 41.2 44.4 41.2001 44.2 41.2001C44.1 41.2001 43.9 41.2 43.9 41.1H43.8L43.7 41C43.6 40.9 43.5 40.8 43.4 40.6C43.4 40.4 43.2 40.3 43.1 40.3C43.1 40.2 43.1 40.2 43 40.1C43 40 43 39.9 42.9 39.8C42.9 39.7 42.8 39.6 42.6 39.5C42.6 39.4 42.5 39.3 42.5 39.3C42.5 39.1 42.4 38.8001 42.2 38.7001C42.2 38.4001 42.1 38 42 37.7C42 37.6 41.9 37.6 41.9 37.6C41.9 37.6 41.9 37.5001 41.8 37.4001C41.8 37.3 41.7 37.1 41.6 37C41.5 36.9 41.5 36.9001 41.5 36.9001C41.5 36.9001 41.5 36.8 41.4 36.7C41.4 36.6 41.3 36.6 41.3 36.5C41.2 36.3 41.1 36 41.1 35.8C41.1 35.7 41.1 35.7 41.1 35.7C41.1 35.7 41 35.6 41 35.5C40.9 35.4 40.9 35.2 40.8 35.1C40.9 34.9 40.9 34.7 40.8 34.5V34.4001C40.8 34.4001 40.9 34.3 40.9 34.1C40.9 33.9 40.9 33.8 40.8 33.6C40.8 33.5 40.7 33.3 40.7 33.2C40.7 33.1 40.7 33.1 40.7 33C40.7 32.8 40.7 32.6 40.7 32.4001C40.7 32.3 40.7 32.3 40.6 32.2C40.6 32.1 40.6 32 40.6 31.9C40.6 31.7 40.7 31.5 40.7 31.3V31.2C40.7 31.1 40.7 30.9 40.7 30.8C40.7 30.7 40.7 30.7 40.6 30.6C40.6 30.6 40.6 30.5 40.6 30.4C40.6 30.4 40.7 30.4 40.7 30.3C40.7 30.2 40.7 30.2 40.7 30.1C40.7 30.1 40.7 30.1 40.7 30C40.7 29.9 40.8 29.9 40.8 29.8C40.9 29.7 40.9 29.6 40.8 29.5C40.7 29.4 40.8 29.3 40.9 29.1C40.9 29 40.9 29 41 28.9C41 28.8 41 28.8 41 28.7V28.6C41 28.6 41.1 28.5 41.1 28.4C41.1 28.3 41.2 28.3 41.2 28.2C41.3 28.2 41.3 28.1 41.4 28.1C41.5 28 41.5 27.8 41.5 27.7C41.5 27.6 41.5 27.6 41.6 27.5C41.6 27.5 41.7 27.4 41.8 27.3C41.8 27.3 41.8 27.3 41.9 27.2L42 27.1C42 27.1 42.1 27.1 42.1 27C42.2 27 42.3 26.9 42.4 26.9L42.5 26.8C42.6 26.8 42.6 26.8 42.7 26.8C42.7 26.8 42.8 26.8 42.8 26.7H42.9C42.9 26.7 43 26.7 43.1 26.6C43.2 26.6 43.3 26.5 43.5 26.5C43.9 26.4 45.1 26.3 45.8 26.3H45.9C46 26.3 46.1 26.3 46.2 26.3C46.5 26.3 47 26.2 47.5 26.2H47.9C48.1 26.2 48.4 26.2 48.6 26.2C48.9 26.2 49.1 26.2 49.4 26.2C49.6 26.2 49.8 26.1 50 26.1C50.2 26 50.4 26 50.6 26C51.2 25.9 51.9 26 52.6 26C53.3 26 54 26.1 54.6 26C54.9 26 55.3 26 55.7 26C56.2 26 56.8 26 57.3 26C57.4 26 57.5 26 57.6 26C57.7 26 57.7 25.9 57.9 26C58 26.1 58.1 26.1 58.1 26.1C58.1 26.1 58.2 26.1 58.3 26.2C58.4 26.2 58.4 26.3 58.5 26.3C58.5 26.4 58.5 26.4 58.5 26.5C58.5 26.6 58.6 26.7 58.7 26.7C58.7 26.8 58.7 26.9 58.7 27C58.7 27.1 58.7 27.2 58.7 27.3C58.7 27.3 58.7 27.4 58.8 27.4C58.8 27.6 58.8 27.8 58.8 27.9C58.8 28 58.8 28.1 58.9 28.1C58.9 28.1 58.9 28.1 58.9 28.2C58.9 28.3 58.9 28.3 58.9 28.4C59 28.9 59 29.4 59.1 29.8V29.9C59.1 30 59.1 30.1 59.1 30.2C59.1 30.3 59 30.3 59 30.4C59 30.6 59 30.7 59.1 30.9C59 31.2 59.1 31.5 59.1 31.7C59.1 31.8 59.2 32 59.2 32.1C59.2 32.1 59.2 32.2 59.1 32.2V32.3V32.4001C59.1 32.5001 59 32.6 59 32.7C59 32.9 59 33.1 59 33.3C59 33.4 59 33.6 59 33.7C59 33.8 59 33.9001 59 33.9001C59 34.1 59 34.3 59 34.5C59 34.6 59.1 34.7 59.1 34.6C59.1 34.8 59.1 34.9 59.1 35.1C59.1 35.3 59.1 35.4 59.1 35.6V35.7V35.8C59.1 35.9 59.1 36 59.1 36.1C59.1 36.2 59.1 36.2 59.1 36.3C59.1 36.4 59.1 36.6 59 36.7C59 36.9 58.9 37 58.9 37.2C58.9 37.3 58.9 37.4 59 37.5V37.6C58.9 37.8 58.9 38.1001 58.9 38.4001C58.9 38.6001 58.9 38.8 58.9 39C58.9 39.1 58.8 39.3 58.8 39.6C58.8 39.6 58.8 39.6 58.8 39.7001V39.8V39.9001C58.8 40.2001 58.8 40.2 58.6 40.3C58.5 40.3 58.4 40.4 58.4 40.5L58.3 40.6C58.3 40.7 58.2 40.7 58.2 40.8C58.1 40.8 58 40.8001 57.9 40.9001C57.8 40.9001 57.8 41 57.7 41H57.6C57.5 41 57.5 41.1 57.4 41.1C57.3 41.1 57.2 41.1 57 41.1C56.9 41.1 56.8 41.1 56.6 41.1C56.5 41.1 56.4 41.1 56.3 41.1H56.2C56.1 41.1 56 41 55.9 41C55.8 41 55.8 41 55.8 41.1C55.6 41.1 55.4 41.1 55.1 41.1C54.6 41.1 54.1 41.1 53.7 41.2001C53.6 41.2001 53.5 41.2 53.4 41.3C53.2 41.3 52.9 41.2001 52.7 41.2001H52.5C52.4 41.2001 52.4 41.2001 52.3 41.2001H52.2C52.1 41.1 52 41.1 51.9 41.1H51.8C51.8 41.1 51.7 41.1 51.7 41.2001C51.4 41 51 41.1 50.6 41.2001C50.5 41.1 50.4 41.1 50.4 41.1C50.3 41.1 50.3 41.1 50.2 41.1H50.1C50 41 49.8 41 49.7 41C49.7 41 49.6 41 49.5 41C49.4 41 49.3 41 49.2 41.1C49.2 41.1 49.1 41 49 41C48.9 41 48.9 41 48.8 41C48.8 41 48.7 41 48.6 41H48.4H48.3C48.2 41 48.1 41 48 41C47.9 41 47.8 41.1 47.8 41.2001C47.8 41.2001 47.8 41.1 47.7 41.1C47.7 41 47.6 41 47.5 41H47.2H47.1C47.6 41.7001 47.3 41.7001 47 41.7001ZM48 45.8C48.1 45.8 48.1 45.8 48 45.8V45.8Z" fill="#231F20"/>
<path d="M73.6 47.1999V47.0999C73.6 46.9999 73.6 46.8999 73.5 46.7999C73.5 46.7999 73.6 46.6999 73.6 46.5999C73.6 46.4999 73.6 46.4999 73.5 46.3999V46.2999C73.5 45.8999 73.5 45.4999 73.4 45.1999C73.4 44.7999 73.3 44.3999 73.3 43.9999C73.3 43.8999 73.4 43.7999 73.4 43.5999C73.2 42.9999 73.3 42.0999 73.3 41.1999C73.3 40.4999 73.4 39.8999 73.3 39.3999C73.3 39.3999 73.3 39.3999 73.3 39.2999V39.1999C73.3 38.7999 73.3 38.3999 73.2 37.9999C73.2 37.8999 73.1 37.8999 73.1 37.8999C73.1 37.7999 73.1 37.6999 73.1 37.6999C73.1 37.5999 73.1 37.5999 73.1 37.5999C73.1 37.4999 73.1 37.3999 73 37.3999C73 37.2999 73.1 37.2999 73.1 37.0999V36.8999C73.1 36.5999 73.1 36.2999 73 36.0999C73.1 35.8999 73.1 35.5999 73.1 35.4999C73.1 35.3999 73.1 35.3999 73.1 35.2999V34.8999C73.1 34.6999 73.1 34.3999 73.1 34.1999C73.1 34.0999 73.1 33.9999 73.1 33.8999C73.1 33.7999 73.1 33.6999 73.1 33.5999C73.1 33.3999 73.1 33.2999 73 33.1999C73 33.1999 73.1 33.0999 73 32.9999C73 32.9999 73 32.8999 72.9 32.7999C72.9 32.6999 72.9 32.5999 72.9 32.4999C72.9 32.3999 72.9 32.3999 72.9 32.3999C72.9 31.6999 72.8 31.0999 72.7 30.3999C72.7 30.2999 72.7 30.2999 72.7 30.1999C72.7 30.0999 72.7 29.9999 72.7 29.8999C72.7 29.7999 72.7 29.6999 72.6 29.6999C72.6 29.5999 72.6 29.5999 72.5 29.4999C72.5 29.3999 72.5 29.3999 72.5 29.3999C72.5 29.2999 72.5 29.1999 72.4 28.9999V28.8999C72.5 28.8999 72.5 28.7999 72.5 28.6999V28.5999C72.5 28.4999 72.5 28.4999 72.5 28.3999C72.5 28.2999 72.5 28.2999 72.5 28.1999C72.5 28.0999 72.5 27.8999 72.5 27.7999C72.5 27.6999 72.5 27.6999 72.5 27.5999V27.4999V27.3999C72.5 27.2999 72.5 27.2999 72.4 27.1999C72.4 27.0999 72.3 27.0999 72.3 26.9999C72.3 26.9999 72.3 26.9999 72.3 26.8999C72.3 26.7999 72.4 26.7999 72.4 26.6999C72.4 26.5999 72.4 26.4999 72.3 26.4999V26.3999C72.3 26.2999 72.3 26.2999 72.3 26.1999C72.3 26.1999 72.3 26.0999 72.2 25.9999C72.2 25.8999 72.2 25.7999 72.2 25.6999C72.2 25.4999 72.2 25.3999 72.2 25.1999C72.2 25.0999 72.2 25.0999 72.1 24.9999V24.8999C72.1 24.7999 72.1 24.7999 72.1 24.6999V24.5999C72 24.1999 71.9 23.8999 71.8 23.6999C71.8 23.6999 71.8 23.6999 71.8 23.5999V23.4999C71.8 23.3999 71.8 23.2999 71.7 23.2999V23.1999C71.7 23.0999 71.7 22.9999 71.7 22.8999C71.6 22.5999 71.6 22.2999 71.5 21.8999C71.5 21.7999 71.4 21.6999 71.3 21.5999C71.3 21.3999 71.1 21.2999 71 21.2999V21.1999C71 21.0999 71 20.9999 70.9 20.8999C70.8 20.7999 70.8 20.7999 70.7 20.7999V20.6999C70.7 20.5999 70.6 20.4999 70.6 20.4999C70.5 20.4999 70.4 20.3999 70.4 20.2999C70.4 20.2999 70.4 20.1999 70.3 20.0999C70.3 19.9999 70.2 19.8999 70.2 19.7999C70.2 19.6999 70.1 19.6999 70.1 19.6999V19.5999C70.1 19.4999 70.1 19.3999 70 19.2999C69.9 19.1999 69.8 19.0999 69.7 19.0999C69.7 19.0999 69.7 19.0999 69.6 19.0999C69.6 18.8999 69.5 18.7999 69.4 18.6999C69.4 18.6999 69.4 18.6999 69.3 18.5999C69.2 18.4999 69.2 18.4999 69.1 18.3999C69 18.2999 69 18.2999 68.9 18.1999C68.9 18.1999 68.9 18.1999 68.9 18.0999C68.9 17.9999 68.9 17.8999 68.8 17.8999C68.8 17.8999 68.7 17.7999 68.6 17.7999C68.6 17.7999 68.6 17.7999 68.6 17.6999C68.6 17.5999 68.5 17.4999 68.4 17.3999H68.3C68.3 17.3999 68.2 17.3999 68.2 17.2999C68.1 17.2999 68 17.1999 67.9 17.1999C67.8 17.1999 67.8 17.1999 67.7 17.1999L67.6 17.0999C67.5 16.9999 67.5 16.8999 67.4 16.8999C67.3 16.7999 67.1 16.7999 67 16.7999H66.9C66.9 16.7999 66.8 16.7999 66.8 16.6999C66.8 16.6999 66.7 16.5999 66.6 16.5999C66.5 16.5999 66.4 16.4999 66.3 16.4999C66.2 16.4999 66.1 16.4999 66.1 16.3999C66.1 16.3999 66 16.2999 65.9 16.1999C65.7 16.0999 65.6 16.0999 65.4 16.0999H65.3C65.2 15.9999 65.2 15.9999 65.1 15.8999C65 15.8999 65 15.8999 64.9 15.7999C64.8 15.7999 64.7 15.6999 64.7 15.6999C64.6 15.5999 64.5 15.5999 64.4 15.5999C64.1 15.6999 63.9 15.5999 63.8 15.4999C63.7 15.4999 63.7 15.3999 63.6 15.3999C63.5 15.3999 63.4 15.3999 63.4 15.3999C63.4 15.3999 63.4 15.3999 63.3 15.3999C63.3 15.2999 63.3 15.2999 63.2 15.1999C63.3 14.9999 63.2 14.9999 63.1 14.9999L63 14.8999C62.8 14.8999 62.6 14.8999 62.5 14.9999C62.5 14.9999 62.5 14.9999 62.4 14.9999C62.3 14.7999 62.1 14.7999 61.9 14.8999C61.9 14.8999 61.9 14.8999 61.8 14.8999C61.8 14.8999 61.8 14.7999 61.7 14.7999C61.6 14.6999 61.5 14.6999 61.4 14.7999C61.3 14.7999 61.2 14.7999 61 14.6999C60.9 14.6999 60.7 14.5999 60.6 14.5999C60.5 14.5999 60.3 14.5999 60.1 14.5999C60 14.5999 60 14.5999 59.9 14.5999H59.8C59.7 14.5999 59.7 14.4999 59.5 14.4999C59.4 14.4999 59.3 14.4999 59.3 14.5999H59.2C59.1 14.5999 59 14.5999 58.9 14.5999C58.7 14.5999 58.5 14.5999 58.3 14.5999C58.1 14.5999 57.9 14.6999 57.7 14.6999C57.5 14.5999 57.2 14.5999 57 14.6999C56.8 14.5999 56.6 14.4999 56.3 14.4999H56.1C55.9 14.4999 55.7 14.4999 55.6 14.4999C55.4 14.4999 55.2 14.4999 55.1 14.4999C55.1 14.3999 55 14.3999 54.9 14.3999C54.6 14.3999 54.4 14.4999 54.3 14.4999H54.2H54.1C54 14.4999 53.9 14.4999 53.8 14.3999L53.6 14.4999V14.2999C53.5 14.2999 53.4 14.3999 53.3 14.3999C53.2 14.3999 53.2 14.3999 53.1 14.3999C52.9 14.3999 52.7 14.3999 52.5 14.4999C52.4 14.3999 52.3 14.3999 52.2 14.3999C51.9 14.3999 51.6 14.3999 51.4 14.3999C51.3 14.2999 51.1 14.3999 51 14.3999C51 14.3999 50.9 14.3999 50.9 14.2999L50.8 14.1999C50.7 14.1999 50.6 14.1999 50.5 14.1999C50.5 14.1999 50.4 14.1999 50.3 14.1999C50.2 14.1999 50.2 14.1999 50.1 14.1999C50 14.1999 49.9 14.1999 49.8 14.0999C49.7 14.0999 49.6 14.0999 49.6 14.0999C49.5 14.0999 49.5 14.0999 49.4 14.0999C49.2 14.0999 49.1 14.0999 48.9 14.0999H48.3C48.2 14.0999 48 14.0999 47.9 14.0999C47.9 14.0999 47.8 14.0999 47.7 14.0999C47.6 14.0999 47.6 14.0999 47.5 14.0999C47.4 14.0999 47.4 14.0999 47.4 14.1999C47.1 14.1999 46.9 14.1999 46.7 14.2999C46.6 13.9999 46.3 13.9999 46.1 13.9999H46L45.9 13.8999C45.8 13.8999 45.8 13.8999 45.7 13.8999C45.4 13.9999 44.9 13.9999 44.4 13.9999C43.9 13.8999 43.4 13.8999 43 14.0999C42.8 13.9999 42.5 13.9999 42.2 13.8999C42.1 13.8999 42 13.8999 41.9 13.9999C41.8 13.9999 41.8 13.9999 41.8 13.9999H41.7C41.6 13.9999 41.5 13.8999 41.4 13.8999H41.2C40.7 13.8999 40.3 13.8999 39.9 13.8999C39.8 13.8999 39.8 13.8999 39.7 13.8999C39.7 13.8999 39.6 13.8999 39.5 13.8999H39.4C39.1 13.8999 38.9 13.8999 38.6 13.9999C38.5 13.9999 38.4 13.9999 38.4 14.0999C38.4 14.0999 38.3 14.0999 38.2 14.1999H38.1C38 14.1999 37.9 14.1999 37.8 14.1999C37.5 14.1999 37.2 14.1999 36.9 14.1999C36.6 14.1999 36.3 14.1999 36.1 14.1999C35.9 14.1999 35.6 14.2999 35.4 14.2999C35.2 14.2999 35.1 14.3999 34.9 14.3999C34.8 14.3999 34.7 14.3999 34.6 14.3999C34.5 14.3999 34.3 14.3999 34.2 14.3999C33.7 14.4999 33.4 14.5999 33.2 14.7999C33.1 14.7999 33.1 14.7999 33 14.7999C32.9 14.7999 32.9 14.8999 32.8 14.8999C32.7 14.8999 32.6 14.9999 32.5 15.0999C32.4 15.1999 32.2 15.2999 32.1 15.4999C32 15.5999 31.8 15.8999 31.7 15.8999C31.5 15.8999 31.5 15.9999 31.4 16.0999C31.3 16.1999 31.3 16.1999 31.2 16.2999C31.1 16.3999 31.1 16.4999 31 16.4999C30.9 16.4999 30.8 16.5999 30.8 16.6999C30.8 16.7999 30.8 16.7999 30.7 16.8999C30.6 16.9999 30.6 17.0999 30.5 17.1999C30.3 17.3999 30.2 17.5999 30.1 17.7999C30.1 17.8999 30.1 17.8999 30.1 17.9999L30 18.0999C29.9 18.1999 29.9 18.2999 29.9 18.3999C29.8 18.3999 29.8 18.4999 29.7 18.5999C29.7 18.6999 29.6 18.7999 29.6 18.8999V18.9999C29.6 18.9999 29.6 18.9999 29.5 19.0999C29.5 19.0999 29.4 19.1999 29.4 19.2999C29.4 19.3999 29.3 19.4999 29.3 19.4999C29.3 19.4999 29.3 19.4999 29.3 19.5999L29.2 19.6999V19.7999L29.1 19.8999C29.1 19.9999 29 20.0999 29 20.0999V20.1999C28.9 20.3999 28.9 20.5999 28.8 20.7999L28.9 20.9999C28.9 20.9999 28.8 20.9999 28.8 21.0999C28.7 21.1999 28.7 21.3999 28.7 21.4999V21.5999C28.6 21.7999 28.6 21.8999 28.5 22.0999V22.1999C28.5 22.2999 28.5 22.2999 28.5 22.3999C28.5 22.4999 28.4 22.5999 28.5 22.6999C28.4 22.7999 28.4 22.8999 28.4 22.9999C28.4 22.9999 28.3 23.0999 28.3 23.1999C28.3 23.2999 28.2 23.3999 28.2 23.4999V23.5999C28.2 23.6999 28.2 23.8999 28.2 24.0999C28.2 24.2999 28.2 24.6999 28.1 24.7999C28 24.7999 28 24.8999 28 24.9999C28 24.9999 28 25.0999 28.1 25.0999C28.1 25.1999 28.1 25.2999 28 25.4999C28 25.6999 27.9 25.9999 27.9 26.2999C27.9 26.3999 27.9 26.3999 28 26.4999V26.5999C27.9 26.7999 28 26.9999 28 27.0999C28 27.1999 28 27.1999 28 27.2999C28 27.3999 28 27.3999 28 27.4999C28 27.5999 28 27.5999 28 27.6999C28 28.1999 27.9 28.6999 27.9 29.1999C27.9 29.6999 27.9 30.1999 27.8 30.6999L27.7 30.7999C27.7 30.8999 27.7 30.9999 27.8 31.0999C27.8 31.1999 27.8 31.2999 27.7 31.3999C27.7 31.3999 27.7 31.3999 27.7 31.4999L27.6 31.5999C27.6 31.7999 27.6 31.9999 27.6 32.1999C27.6 32.2999 27.6 32.2999 27.6 32.3999L27.5 32.4999C27.5 32.5999 27.5 32.6999 27.5 32.7999C27.5 32.7999 27.5 32.7999 27.4 32.7999C27.3 32.8999 27.3 33.0999 27.3 33.1999V33.2999C27.1 34.2999 27.1 35.6999 27.1 36.8999C27.1 36.9999 27.1 37.0999 27.2 37.1999C27 37.1999 27 37.2999 27 37.3999V37.4999C27 37.4999 27 37.5999 27 37.6999C27 37.7999 27 37.8999 27.1 37.8999L27 37.9999C27 38.0999 27 38.1999 27.1 38.2999V38.3999C27.1 38.4999 27.1 38.4999 27.1 38.5999C27.1 38.7999 27.1 38.9999 27.2 39.0999C27.2 39.1999 27.2 39.1999 27.2 39.2999C27.2 39.3999 27.1 39.4999 27.1 39.5999C27.1 39.6999 27.1 39.7999 27.2 39.8999C27.2 39.8999 27.2 39.8999 27.2 39.9999C27.2 40.1999 27.2 40.2999 27.2 40.3999C27.1 40.3999 27.1 40.4999 27.1 40.5999C27.1 40.6999 27.1 40.6999 27.1 40.6999C27.1 40.7999 27.1 40.7999 27.1 40.8999C27.1 40.9999 27.2 40.9999 27.2 41.0999C27.2 41.1999 27.2 41.2999 27.2 41.3999V41.4999C27.2 41.7999 27.2 41.7999 27.2 42.0999C27.2 42.1999 27.2 42.3999 27.1 42.3999C27.1 42.4999 27.1 42.4999 27.1 42.5999C27.1 42.5999 27.1 42.6999 27.2 42.6999C27.2 42.6999 27.2 42.6999 27.2 42.7999C27.2 42.8999 27.1 42.8999 27.2 42.9999C27.2 43.0999 27.2 43.1999 27.2 43.1999V43.2999C27.2 43.6999 27.2 44.1999 27.2 44.5999C27.2 44.7999 27.2 45.0999 27.2 45.2999C27.2 45.9999 27.2 46.7999 27.2 47.4999C27.2 48.9999 27.2 50.5999 27.1 51.9999C27.1 51.9999 27.1 52.0999 27.1 52.1999C27.1 52.2999 27.1 52.2999 27.1 52.3999C27.1 52.5999 27.1 52.6999 27.1 52.7999C27.1 52.8999 27.1 52.8999 27.1 52.9999L27 53.0999C27 53.2999 27 53.4999 27 53.5999C27 53.6999 27 53.6999 27 53.6999C27 53.8999 27 54.0999 27.1 54.2999V54.3999L27 54.4999C27 54.5999 27 54.6999 27.1 54.7999V54.8999V55.0999V55.1999C27.1 55.2999 27 55.2999 27 55.3999C27 55.4999 27 55.5999 27.1 55.5999V55.6999C27.1 56.0999 27.1 56.5999 27.1 57.0999C27.1 58.3999 27.1 59.5999 27 60.6999L26.9 60.7999C26.9 60.8999 26.9 60.9999 27 61.0999V61.1999V61.2999L26.9 61.3999C26.9 61.4999 26.9 61.5999 27 61.6999C27 61.7999 26.9 61.8999 27 61.9999C27 62.0999 27 62.1999 27 62.5999V62.6999C27 62.9999 27 62.9999 27 63.1999C27 63.2999 27 63.2999 27 63.3999C27 63.4999 27 63.5999 27 63.5999C27.1 64.2999 27.1 64.9999 27.1 65.7999C27.1 65.8999 27.1 65.9999 27.1 66.0999C26.9 66.2999 27 66.5999 27.1 66.9999V67.0999L27 67.1999C26.9 67.4999 27 67.8999 27 68.0999C27 68.1999 27 68.1999 27 68.2999C27 68.3999 27 68.3999 27 68.4999C27 68.5999 27 68.5999 27 68.6999C27.1 70.7999 27.1 72.6999 27.3 74.5999C27.3 74.6999 27.3 74.6999 27.4 74.7999C27.4 74.8999 27.4 74.9999 27.4 74.9999C27.4 75.0999 27.4 75.1999 27.4 75.1999C27.4 75.5999 27.5 75.9999 27.5 76.3999C27.5 76.5999 27.5 76.7999 27.6 76.9999C27.6 77.0999 27.6 77.1999 27.6 77.1999C27.6 77.2999 27.5 77.3999 27.6 77.3999C27.6 77.4999 27.6 77.4999 27.7 77.5999V77.6999C27.7 77.7999 27.7 77.8999 27.7 77.8999C27.7 78.1999 27.8 78.4999 27.9 78.6999V78.8999C27.9 78.9999 27.9 78.9999 27.9 79.0999C27.9 79.0999 27.9 79.2999 28 79.2999V79.3999C28 79.5999 28 79.6999 28.2 79.8999C28.3 79.9999 28.4 80.1999 28.5 80.2999C28.7 80.5999 28.8 80.8999 29.1 80.9999C29.1 81.1999 29.3 81.2999 29.4 81.3999C29.4 81.4999 29.4 81.4999 29.5 81.5999C29.5 81.5999 29.6 81.6999 29.7 81.6999C29.8 81.7999 29.9 81.8999 30.1 81.9999C30.1 81.9999 30.1 82.0999 30.2 82.0999C30.3 82.0999 30.4 82.1999 30.5 82.1999C30.6 82.1999 30.6 82.1999 30.7 82.2999C30.7 82.2999 30.8 82.2999 30.8 82.3999C30.8 82.3999 30.9 82.4999 31 82.5999C31 82.5999 31.1 82.6999 31.2 82.6999H31.3C31.3 82.6999 31.4 82.7999 31.5 82.8999C31.7 82.9999 31.9 82.9999 32 83.0999C32.1 83.0999 32.2 83.0999 32.2 83.1999C32.2 83.2999 32.3 83.2999 32.4 83.3999C32.5 83.3999 32.6 83.3999 32.7 83.3999C32.8 83.3999 32.9 83.4999 33 83.4999C33.1 83.5999 33.3 83.5999 33.4 83.5999L33.5 83.6999C33.6 83.7999 33.8 83.7999 33.9 83.8999C34 83.9999 34.2 83.9999 34.2 84.0999C34.3 84.1999 34.3 84.1999 34.6 84.2999C34.6 84.2999 34.7 84.2999 34.8 84.2999H34.9C35 84.2999 35 84.2999 35 84.3999C35 84.4999 35.1 84.4999 35.1 84.4999C35.1 84.4999 35.2 84.4999 35.3 84.4999H35.4C35.5 84.5999 35.5 84.5999 35.6 84.6999C35.7 84.6999 35.8 84.7999 35.9 84.7999H36C36.1 84.8999 36.1 84.8999 36.3 84.8999L36.4 84.9999C36.5 84.9999 36.5 84.9999 36.6 84.9999H36.7L36.8 85.0999C36.9 85.0999 37 85.1999 37.1 85.1999C37.2 85.1999 37.2 85.1999 37.2 85.1999C37.3 85.2999 37.4 85.2999 37.5 85.2999H37.6L37.7 85.3999C37.8 85.3999 37.9 85.3999 38 85.3999C38.1 85.3999 38.2 85.3999 38.2 85.3999C38.2 85.3999 38.3 85.3999 38.3 85.4999C38.4 85.4999 38.4 85.5999 38.5 85.5999C38.7 85.6999 39 85.6999 39.2 85.6999C39.3 85.6999 39.5 85.6999 39.6 85.7999C39.6 85.7999 39.7 85.8999 39.9 85.8999C39.9 85.9999 40.1 85.9999 40.1 85.9999H40.3C40.3 86.0999 40.5 86.0999 40.5 86.0999H40.6C40.7 86.0999 40.9 86.0999 41 86.0999C41.1 86.0999 41.1 86.0999 41.2 86.0999L41.3 86.1999C41.6 86.2999 42 86.2999 42.4 86.3999C42.7 86.3999 43 86.4999 43.1 86.4999L43.2 86.5999C43.3 86.5999 43.5 86.6999 43.6 86.6999C43.7 86.6999 43.7 86.6999 43.8 86.6999C44.2 86.7999 44.5 86.7999 44.9 86.7999C45.4 86.7999 45.9 86.8999 46.2 86.9999C46.4 87.0999 46.5 87.0999 46.7 87.0999C46.7 87.0999 46.8 87.0999 46.8 87.1999H46.9C47 87.1999 47.1 87.1999 47.2 87.0999C47.2 87.0999 47.3 87.0999 47.4 87.0999C47.5 87.0999 47.6 87.0999 47.6 87.1999H47.7C47.8 87.1999 47.9 87.1999 48 87.1999C48.2 87.1999 48.4 87.1999 48.6 87.1999C48.7 87.1999 48.8 87.2999 48.9 87.2999C49 87.2999 49.1 87.3999 49.1 87.3999H49.2H49.3C49.5 87.3999 49.5 87.3999 49.6 87.4999H49.7C50 87.5999 50.3 87.5999 50.5 87.5999H50.8C51.1 87.5999 51.5 87.6999 51.8 87.6999C52.1 87.6999 52.3 87.6999 52.5 87.7999C52.5 87.7999 52.6 87.8999 52.7 87.8999C52.9 87.9999 53.1 87.9999 53.4 87.9999C53.5 87.9999 53.7 87.9999 53.7 87.9999C53.7 88.0999 53.8 88.0999 53.9 88.0999C53.9 88.0999 54 88.0999 54.1 88.0999C54.1 88.1999 54.2 88.1999 54.3 88.1999C54.6 88.1999 54.7 88.1999 54.8 88.0999L54.9 88.1999C55.4 88.2999 56.1 88.3999 56.7 88.4999C56.8 88.4999 56.9 88.4999 57 88.3999C57 88.3999 57.1 88.4999 57.2 88.4999H57.3C57.4 88.4999 57.6 88.4999 57.7 88.4999C57.8 88.4999 57.9 88.4999 57.9 88.4999C58.1 88.4999 58.2 88.3999 58.2 88.2999C58.5 88.1999 58.8 88.2999 59.2 88.2999C59.6 88.2999 60 88.3999 60.3 88.2999C60.4 88.2999 60.5 88.1999 60.6 88.1999C60.7 88.1999 60.7 88.2999 60.8 88.2999H60.9C61 88.2999 61 88.2999 61.1 88.1999C61.3 88.1999 61.6 88.0999 61.7 88.0999C61.8 88.0999 61.9 88.0999 61.9 87.9999C62 87.9999 62 87.9999 62.1 87.8999C62.2 87.8999 62.3 87.7999 62.5 87.7999C62.6 87.6999 62.9 87.5999 62.9 87.5999C63.1 87.5999 63.2 87.4999 63.2 87.3999C63.3 87.3999 63.4 87.3999 63.4 87.2999C63.5 87.2999 63.5 87.2999 63.6 87.1999C63.7 87.1999 63.8 87.0999 63.8 87.0999H63.9L64.3 86.9999C64.3 86.9999 64.3 86.9999 64.4 86.9999C64.5 86.9999 64.6 86.9999 64.6 86.8999C64.7 86.8999 64.7 86.8999 64.9 86.7999C65 86.6999 65.1 86.5999 65.2 86.4999H65.3C65.4 86.4999 65.4 86.4999 65.5 86.3999C65.6 86.2999 65.7 86.2999 65.7 86.1999C65.7 86.1999 65.7 86.1999 65.8 86.1999C66.1 86.1999 66.2 85.9999 66.3 85.8999C66.3 85.8999 66.3 85.7999 66.4 85.7999C66.4 85.7999 66.5 85.7999 66.5 85.6999C66.6 85.6999 66.7 85.6999 66.8 85.5999C66.9 85.4999 66.9 85.3999 67 85.2999C67.1 85.2999 67.2 85.2999 67.2 85.2999C67.3 85.2999 67.3 85.1999 67.4 85.0999C67.5 84.9999 67.5 84.8999 67.6 84.7999C67.7 84.7999 67.8 84.6999 67.9 84.5999C68.1 84.4999 68.1 84.3999 68.2 84.2999C68.2 84.2999 68.2 84.1999 68.2 84.2999C68.2 84.2999 68.3 84.2999 68.3 84.1999C68.4 84.0999 68.4 83.9999 68.4 83.8999L68.5 83.7999L68.6 83.6999C68.6 83.6999 68.6 83.5999 68.7 83.5999L68.8 83.4999C68.9 83.3999 69.2 83.2999 69.2 83.0999V82.9999C69.2 82.8999 69.3 82.7999 69.3 82.6999C69.3 82.6999 69.3 82.6999 69.4 82.6999C69.5 82.6999 69.5 82.5999 69.5 82.4999C69.6 82.3999 69.6 82.2999 69.6 82.0999C69.6 81.9999 69.6 81.9999 69.6 81.9999C69.7 81.9999 69.7 81.8999 69.8 81.7999C69.9 81.5999 70 81.3999 70 81.0999C70 80.9999 70.1 80.6999 70.1 80.6999C70.2 80.5999 70.2 80.4999 70.2 80.3999C70.2 80.3999 70.2 80.3999 70.2 80.2999V80.1999L70.3 79.8999L70.4 79.7999C70.4 79.6999 70.4 79.5999 70.4 79.4999V79.3999L70.5 79.2999C70.5 79.1999 70.6 79.0999 70.6 78.9999C70.6 78.8999 70.7 78.6999 70.7 78.6999C70.8 78.5999 70.8 78.4999 70.8 78.3999C70.8 78.2999 70.8 78.2999 70.8 78.1999C70.8 78.0999 70.9 77.8999 70.9 77.6999V77.5999V77.4999V77.3999C70.9 77.3999 70.9 77.3999 70.9 77.2999C70.9 77.1999 70.9 76.9999 70.9 76.8999C70.9 76.4999 71 76.1999 71 75.7999C71 75.6999 71 75.6999 70.9 75.5999V75.4999C70.9 75.3999 70.9 75.2999 70.9 75.2999C70.9 75.2999 70.9 75.2999 70.9 75.1999C70.9 75.0999 71 74.9999 71 74.8999V74.7999V74.6999C71 74.4999 71 74.3999 71.1 74.2999C71.1 74.1999 71.1 74.1999 71.1 74.0999C71.1 73.9999 71.1 73.9999 71.2 73.8999V73.7999C71.2 73.6999 71.3 73.4999 71.4 73.3999C71.4 73.2999 71.5 73.1999 71.5 73.0999C71.5 72.9999 71.5 72.9999 71.5 72.8999V72.7999C71.5 72.6999 71.5 72.5999 71.5 72.5999L71.6 72.4999C71.7 72.3999 71.7 72.2999 71.7 72.1999C71.8 72.0999 71.8 72.0999 71.8 71.9999V71.8999C71.8 71.8999 71.8 71.8999 71.8 71.7999C71.9 71.3999 71.9 70.7999 71.9 70.1999C71.9 69.3999 72 68.4999 72.1 67.8999C72.1 67.7999 72.1 67.7999 72.1 67.6999V67.5999C72.1 67.4999 72.2 67.3999 72.2 67.2999C72.2 67.0999 72.3 66.8999 72.3 66.6999C72.3 66.5999 72.3 66.3999 72.3 66.2999V66.1999V66.0999C72.4 65.9999 72.4 65.8999 72.4 65.7999V65.6999C72.5 65.5999 72.5 65.4999 72.5 65.3999V65.2999C72.5 65.1999 72.6 65.0999 72.6 64.8999C72.6 64.7999 72.6 64.7999 72.6 64.7999C72.6 64.6999 72.7 64.5999 72.6 64.3999V64.2999C72.6 64.2999 72.6 64.1999 72.6 64.0999C72.6 63.9999 72.6 63.7999 72.6 63.6999V63.5999C72.7 63.5999 72.7 63.4999 72.7 63.3999C72.7 62.9999 72.6 62.5999 72.6 62.4999C72.6 62.3999 72.6 62.3999 72.6 62.3999C72.6 62.2999 72.7 62.1999 72.7 62.0999C72.7 61.9999 72.7 61.8999 72.7 61.7999C72.7 61.6999 72.7 61.6999 72.7 61.5999C72.8 61.5999 72.8 61.4999 72.8 61.3999V61.2999C72.8 61.1999 72.8 61.1999 72.7 61.1999C72.7 61.1999 72.7 61.1999 72.7 61.0999C72.7 60.9999 72.7 60.8999 72.7 60.7999V60.6999C72.7 60.5999 72.7 60.5999 72.7 60.4999C72.7 59.9999 72.8 59.5999 72.8 59.1999C72.8 58.9999 72.8 58.7999 72.8 58.5999C72.8 58.4999 72.8 58.3999 72.8 58.1999C72.8 58.0999 72.8 57.9999 72.8 57.8999L72.9 57.7999C72.9 57.6999 72.9 57.6999 72.9 57.5999V57.3999C72.9 56.9999 73 56.7999 73 56.4999C73 56.2999 73 56.0999 73 55.9999C73 55.7999 73 55.7999 73.1 55.6999C73.2 55.5999 73.2 55.2999 73.1 54.9999C73.1 54.9999 73.1 54.8999 73.2 54.8999C73.2 54.7999 73.2 54.6999 73.2 54.5999C73.3 53.9999 73.3 53.3999 73.3 52.5999C73.3 52.4999 73.3 52.3999 73.3 52.2999C73.3 52.2999 73.3 52.2999 73.3 52.1999C73.3 52.0999 73.4 52.0999 73.4 51.9999C73.4 51.8999 73.4 51.8999 73.4 51.7999C73.4 51.7999 73.4 51.6999 73.4 51.5999C73.4 51.1999 73.4 50.6999 73.4 50.2999C73.4 50.1999 73.4 50.0999 73.4 50.0999C73.4 49.9999 73.5 49.9999 73.5 49.8999V49.7999C73.5 49.6999 73.5 49.5999 73.5 49.5999C73.5 49.5999 73.5 49.5999 73.5 49.4999V49.3999C73.5 49.2999 73.5 49.0999 73.5 48.8999C73.7 48.0999 73.7 47.4999 73.6 47.1999ZM67.8 51.3999V51.4999C67.8 51.5999 67.8 51.6999 67.8 51.7999C67.8 51.8999 67.8 52.0999 67.8 52.1999V52.2999C67.8 52.4999 67.7 52.6999 67.8 52.9999C67.8 52.9999 67.8 53.0999 67.9 53.0999C67.9 53.3999 67.9 53.7999 67.8 54.1999C67.8 54.4999 67.7 54.7999 67.7 55.1999V55.2999V55.3999V55.4999V55.5999C67.7 56.0999 67.6 56.6999 67.6 57.0999L67.5 57.6999C67.5 57.6999 67.5 57.7999 67.5 57.8999C67.5 57.9999 67.5 58.0999 67.5 58.1999C67.4 58.2999 67.4 58.3999 67.4 58.4999C67.4 58.4999 67.3 58.5999 67.3 58.6999C67.3 58.7999 67.3 58.7999 67.3 58.8999C67.3 58.9999 67.3 59.0999 67.2 59.0999C67.2 59.0999 67.2 59.1999 67.2 59.2999C67.2 59.2999 67.2 59.3999 67.2 59.4999C67.1 59.5999 67.1 59.6999 67.1 59.9999V60.0999C67.1 60.1999 67.1 60.3999 67 60.5999C67 60.6999 67 60.7999 67 60.8999C66.9 60.9999 66.9 61.0999 66.9 61.0999V61.1999C66.9 61.2999 66.8 61.4999 66.8 61.7999C66.8 61.7999 66.8 61.7999 66.8 61.8999C66.8 61.8999 66.8 61.8999 66.8 61.9999C66.8 62.0999 66.8 62.1999 66.9 62.2999C66.8 62.3999 66.8 62.3999 66.8 62.4999C66.8 62.5999 66.8 62.5999 66.8 62.6999V62.7999C66.8 63.0999 66.8 63.3999 66.8 63.7999C66.8 64.2999 66.8 64.8999 66.7 65.3999V65.4999C66.7 65.5999 66.7 65.6999 66.6 65.7999C66.6 65.7999 66.6 65.7999 66.6 65.8999C66.6 65.8999 66.5 65.9999 66.5 66.0999C66.5 66.2999 66.4 66.3999 66.4 66.5999C66.4 66.6999 66.4 66.6999 66.4 66.7999C66.3 66.8999 66.3 66.9999 66.3 66.9999V67.0999V67.1999C66.3 67.2999 66.3 67.4999 66.2 67.5999C66.1 67.9999 66 68.4999 66 68.9999C66 69.0999 66 69.1999 66 69.2999C66 69.3999 66 69.4999 66 69.6999C66 69.7999 66 70.1999 66 70.6999V70.8999L65.9 70.9999C65.9 71.0999 65.9 71.1999 65.9 71.2999C65.9 71.3999 65.9 71.5999 65.8 71.8999C65.8 71.9999 65.8 72.0999 65.7 72.0999C65.6 72.2999 65.5 72.5999 65.6 72.9999C65.6 73.0999 65.6 73.0999 65.7 73.1999C65.7 73.1999 65.6 73.2999 65.6 73.3999C65.6 73.5999 65.6 73.6999 65.5 73.7999C65.4 73.8999 65.4 73.9999 65.4 73.9999C65.4 73.9999 65.4 73.9999 65.4 74.0999C65.3 74.3999 65.2 75.1999 65.2 75.2999V75.3999V75.4999C65.1 75.5999 65.1 75.6999 65.2 75.7999C65.2 75.8999 65.2 75.9999 65.1 76.0999V76.1999C65.1 76.1999 65 76.2999 65 76.3999C65 76.4999 65 76.5999 65 76.6999L64.9 76.7999C64.9 76.9999 64.8 77.2999 64.8 77.4999C64.8 77.6999 64.8 77.8999 64.8 77.9999C64.7 78.0999 64.7 78.1999 64.7 78.1999C64.7 78.3999 64.6 78.5999 64.6 78.7999C64.6 78.8999 64.5 79.0999 64.5 79.1999C64.5 79.2999 64.5 79.4999 64.4 79.5999V79.6999C64.3 79.7999 64.3 79.8999 64.3 79.9999C64.3 80.0999 64.2 80.1999 64.2 80.2999V80.3999C64.2 80.4999 64.1 80.6999 64.1 80.8999C64.1 80.9999 64 81.1999 64 81.2999V81.4999C64 81.6999 63.9 81.7999 63.8 81.9999C63.7 82.0999 63.7 82.0999 63.7 82.1999C63.7 82.3999 63.3 82.6999 62.9 82.8999C62.8 82.8999 62.7 82.8999 62.6 82.9999L62.5 83.0999C62.4 83.1999 62.3 83.1999 62.2 83.1999C62.1 83.2999 61.9 83.2999 61.8 83.3999C61.8 83.3999 61.7 83.3999 61.7 83.4999C61.6 83.4999 61.6 83.5999 61.5 83.5999C61.4 83.5999 61.3 83.5999 61.3 83.6999C61.2 83.6999 61.1 83.7999 61.1 83.7999C61.1 83.7999 61 83.7999 60.8 83.8999C60.5 83.9999 60 83.9999 59.6 84.0999C59.5 84.0999 59.5 84.0999 59.4 84.0999C59.3 84.0999 59.1 84.1999 58.9 84.1999C58.8 84.1999 58.7 84.1999 58.7 84.1999C58.6 84.0999 58.4 84.0999 58.3 84.1999C58.2 84.1999 58.2 84.1999 58.1 84.1999C58 84.1999 57.9 84.1999 57.8 84.1999C57.7 84.1999 57.6 84.1999 57.5 84.1999C57.4 84.1999 57.3 84.1999 57.2 84.1999C57.1 84.1999 56.9 84.0999 56.8 84.0999C56.7 84.0999 56.6 83.9999 56.4 83.9999C56 83.8999 55.7 83.8999 55.4 83.7999H55.1H55H54.9C54.5 83.6999 53.7 83.5999 53.1 83.4999C52.8 83.4999 52.5 83.3999 52.2 83.3999C52.1 83.3999 52 83.2999 51.8 83.2999H51.7C51.5 83.2999 51.3 83.2999 51.1 83.1999C51.1 83.1999 51 83.0999 50.8 83.0999C50.7 83.0999 50.7 83.0999 50.6 83.1999C50.5 83.1999 50.4 83.1999 50.4 83.0999C50.3 83.0999 50.1 82.9999 50 82.9999C49.7 82.8999 49.4 82.8999 49.1 82.8999C48.7 82.8999 48.3 82.7999 48 82.6999H47.9C47.8 82.6999 47.7 82.5999 47.7 82.5999C47.6 82.5999 47.5 82.5999 47.5 82.6999C47.5 82.6999 47.5 82.6999 47.4 82.6999C47.3 82.5999 47.2 82.5999 47.2 82.5999C47.2 82.4999 47.1 82.4999 47 82.4999C46.9 82.4999 46.7 82.4999 46.5 82.3999C46.4 82.3999 46.2 82.3999 46.1 82.3999C45.7 82.2999 45.4 82.2999 45 82.1999L44.6 82.0999C44.5 82.0999 44.3 81.9999 44.2 81.9999C44.1 81.9999 43.9 81.8999 43.8 81.8999C43.6 81.8999 43.5 81.8999 43.3 81.8999C43.2 81.8999 43.1 81.8999 43 81.8999C42.9 81.7999 42.8 81.7999 42.7 81.7999C42.7 81.7999 42.6 81.6999 42.5 81.6999C42.4 81.6999 42.3 81.6999 42.2 81.6999C42.2 81.6999 42.2 81.6999 42.1 81.6999C42 81.5999 41.9 81.5999 41.9 81.5999C41.9 81.5999 41.9 81.5999 41.8 81.5999C41.7 81.5999 41.7 81.5999 41.6 81.5999C41.6 81.5999 41.5 81.5999 41.4 81.5999C41.4 81.5999 41.3 81.5999 41.2 81.4999C41 81.3999 40.7 81.2999 40.5 81.2999H40.4H40.3H40.2C40.1 81.1999 40 81.1999 40 81.1999L39.9 81.0999C39.8 81.0999 39.7 81.0999 39.6 81.0999C39.5 81.0999 39.4 81.0999 39.2 81.0999C39.1 81.0999 39.1 81.0999 39 80.9999C38.9 80.9999 38.9 80.9999 38.8 80.9999H38.7C38.6 80.9999 38.5 80.8999 38.3 80.8999C38.2 80.8999 38.2 80.8999 38.1 80.7999C37.9 80.6999 37.8 80.6999 37.6 80.6999C37.5 80.6999 37.5 80.6999 37.4 80.5999C37.3 80.5999 37.3 80.4999 37.2 80.4999H37.1C37 80.4999 36.9 80.3999 36.8 80.3999C36.8 80.2999 36.7 80.2999 36.6 80.2999C36.6 80.2999 36.5 80.1999 36.4 80.1999C36.4 80.1999 36.3 80.0999 36.2 80.0999C36.1 79.9999 35.9 79.9999 35.8 79.8999C35.7 79.8999 35.7 79.8999 35.6 79.8999C35.6 79.8999 35.6 79.8999 35.5 79.8999C35.5 79.7999 35.4 79.7999 35.4 79.6999C35.3 79.5999 35.2 79.5999 35.1 79.5999C35 79.4999 35 79.4999 34.8 79.4999H34.7L34.6 79.3999C34.5 79.3999 34.5 79.2999 34.4 79.2999C34.2 79.1999 34 79.1999 33.8 79.0999L33.7 78.9999C33.6 78.8999 33.5 78.7999 33.3 78.6999C33.2 78.2999 33.1 77.9999 32.9 77.6999L32.8 77.3999C32.8 77.2999 32.8 77.2999 32.7 77.1999C32.7 77.0999 32.7 76.9999 32.7 76.9999C32.7 76.9999 32.7 76.9999 32.7 76.8999V76.7999C32.7 76.6999 32.7 76.5999 32.6 76.4999C32.6 76.4999 32.6 76.3999 32.6 76.2999C32.6 76.1999 32.6 76.0999 32.6 75.9999C32.6 75.8999 32.6 75.7999 32.5 75.6999V75.5999V75.3999C32.5 75.2999 32.5 75.0999 32.5 74.9999C32.5 74.6999 32.5 74.4999 32.4 74.1999C32.4 74.1999 32.4 74.0999 32.3 73.9999L32.4 73.8999V73.7999C32.5 73.7999 32.6 73.6999 32.6 73.5999V73.4999C32.6 73.3999 32.5 73.2999 32.4 73.2999V73.1999C32.4 73.0999 32.5 72.8999 32.3 72.7999C32.3 72.7999 32.3 72.7999 32.3 72.6999V72.5999V72.4999C32.4 72.2999 32.3 72.1999 32.3 72.0999C32.3 71.9999 32.3 71.9999 32.3 71.8999C32.3 71.7999 32.3 71.7999 32.2 71.6999C32.3 71.5999 32.3 71.3999 32.2 71.2999C32.2 71.0999 32.2 70.7999 32.2 70.2999C32.2 70.1999 32.2 70.0999 32.2 69.9999C32.2 69.8999 32.2 69.8999 32.2 69.8999C32.2 69.8999 32.2 69.7999 32.2 69.6999C32.2 69.6999 32.2 69.5999 32.2 69.4999V69.3999C32.3 69.2999 32.3 69.0999 32.3 68.8999C32.3 68.8999 32.3 68.8999 32.3 68.7999C32.3 68.6999 32.3 68.6999 32.3 68.5999C32.3 68.4999 32.3 68.4999 32.2 68.3999C32.2 68.3999 32.2 68.3999 32.2 68.2999C32.2 68.1999 32.3 68.1999 32.3 68.0999C32.3 67.9999 32.3 67.9999 32.2 67.8999C32.2 67.6999 32.2 67.3999 32.2 67.0999C32.2 66.6999 32.2 66.1999 32.2 65.8999L32.3 65.7999C32.3 65.6999 32.3 65.5999 32.2 65.4999C32.2 65.3999 32.2 65.0999 32.2 64.9999C32.2 64.8999 32.2 64.6999 32.2 64.5999V64.4999C32.2 64.3999 32.2 64.1999 32.2 64.0999C32.2 63.9999 32.2 63.9999 32.2 63.8999C32.2 63.4999 32.2 63.1999 32.2 62.7999C32.2 62.4999 32.2 62.2999 32.2 61.9999V61.8999C32.2 61.8999 32.2 61.7999 32.2 61.6999V61.5999C32.2 61.5999 32.2 61.4999 32.2 61.3999C32.2 61.1999 32.2 60.9999 32.1 60.7999V60.5999V60.4999C32.1 60.3999 32.1 60.2999 32.1 60.1999C32.2 60.0999 32.2 59.9999 32.2 59.7999C32.3 59.5999 32.2 59.3999 32.1 59.1999C32.1 59.0999 32.1 59.0999 32.1 58.9999C32.1 58.9999 32.1 58.7999 32.2 58.7999C32.2 58.6999 32.3 58.5999 32.3 58.4999C32.3 58.2999 32.2 58.1999 32.2 58.0999C32.2 57.9999 32.3 57.8999 32.3 57.6999C32.3 57.6999 32.3 57.5999 32.2 57.5999L32.3 57.4999C32.3 57.3999 32.3 57.3999 32.3 57.2999C32.3 57.1999 32.4 57.0999 32.3 56.9999C32.3 56.8999 32.3 56.6999 32.3 56.5999C32.3 56.4999 32.3 56.3999 32.3 56.2999C32.3 56.1999 32.3 56.1999 32.3 56.0999C32.3 55.9999 32.3 55.7999 32.3 55.5999C32.3 55.5999 32.3 55.4999 32.2 55.4999C32.2 55.3999 32.3 55.3999 32.3 55.2999C32.3 55.1999 32.3 55.1999 32.2 55.1999C32.2 55.1999 32.2 55.0999 32.2 54.9999C32.2 54.8999 32.2 54.7999 32.3 54.6999C32.3 54.5999 32.3 54.5999 32.3 54.4999C32.3 54.4999 32.3 54.4999 32.3 54.3999C32.3 54.2999 32.3 54.2999 32.3 54.1999C32.3 54.1999 32.3 54.1999 32.3 54.0999V53.8999C32.3 53.4999 32.4 52.9999 32.3 52.5999V52.4999C32.3 52.4999 32.3 52.3999 32.4 52.3999C32.4 52.2999 32.4 52.1999 32.4 52.0999C32.4 51.9999 32.4 51.9999 32.4 51.8999V51.7999V51.6999C32.4 51.3999 32.5 50.9999 32.4 50.6999C32.4 50.5999 32.4 50.5999 32.3 50.4999C32.3 50.4999 32.3 50.4999 32.3 50.3999C32.3 50.2999 32.4 50.1999 32.4 50.0999C32.4 49.9999 32.4 49.8999 32.4 49.8999V49.7999C32.4 49.5999 32.4 49.5999 32.4 49.4999C32.4 49.4999 32.4 49.4999 32.4 49.3999C32.5 49.1999 32.5 48.6999 32.5 48.3999C32.5 48.2999 32.5 48.1999 32.4 48.1999V48.0999C32.4 47.9999 32.5 47.9999 32.5 47.7999V47.6999V47.5999C32.5 47.3999 32.5 47.1999 32.5 46.9999C32.5 46.7999 32.4 46.4999 32.5 46.1999C32.5 46.1999 32.6 46.0999 32.6 45.9999C32.6 45.8999 32.6 45.8999 32.5 45.7999V45.6999C32.6 45.4999 32.7 44.9999 32.6 43.8999V43.7999V43.6999C32.6 43.5999 32.6 43.4999 32.6 43.3999V43.2999C32.6 43.1999 32.7 43.0999 32.7 42.9999V42.8999V42.7999V42.6999C32.7 42.6999 32.7 42.5999 32.7 42.4999C32.7 42.3999 32.6 42.1999 32.6 42.1999C32.7 42.0999 32.7 41.9999 32.7 41.8999C32.7 41.7999 32.6 41.5999 32.5 41.4999C32.4 41.3999 32.4 41.1999 32.3 41.0999C32.3 40.9999 32.3 40.7999 32.3 40.6999C32.4 40.6999 32.5 40.5999 32.5 40.5999C32.6 40.4999 32.6 40.2999 32.5 39.9999C32.5 39.8999 32.5 39.7999 32.5 39.6999C32.5 39.5999 32.6 39.4999 32.6 39.3999C32.6 39.2999 32.6 39.2999 32.5 39.1999C32.6 39.1999 32.6 39.0999 32.6 38.9999V38.8999V38.7999C32.6 38.6999 32.5 38.5999 32.5 38.4999C32.5 38.3999 32.4 38.3999 32.4 38.3999C32.4 38.3999 32.5 38.2999 32.5 38.1999C32.5 38.0999 32.5 37.9999 32.4 37.9999C32.4 37.8999 32.5 37.8999 32.5 37.7999C32.5 37.6999 32.5 37.4999 32.4 37.2999C32.4 37.1999 32.3 37.0999 32.3 36.9999V36.8999C32.4 36.7999 32.4 36.5999 32.5 36.3999V36.2999C32.3 35.4999 32.5 34.2999 32.6 33.2999V33.1999C32.6 33.0999 32.6 33.0999 32.6 32.9999C32.7 32.9999 32.7 32.8999 32.7 32.7999C32.7 32.6999 32.7 32.6999 32.7 32.5999C32.7 32.5999 32.8 32.4999 32.7 32.3999C32.7 32.2999 32.7 32.2999 32.6 32.1999C32.6 32.0999 32.6 31.9999 32.6 31.8999C32.7 31.7999 32.7 31.6999 32.8 31.4999C32.8 31.3999 32.8 31.1999 32.8 31.0999C32.8 30.9999 32.8 30.8999 32.8 30.7999C32.8 30.6999 32.9 30.6999 32.9 30.5999C32.9 30.3999 32.9 30.1999 33 29.7999C33.1 29.3999 33.1 28.9999 33.1 28.5999L33.2 28.0999V27.9999C33.2 27.8999 33.2 27.7999 33.2 27.6999C33.3 27.5999 33.3 27.3999 33.3 27.2999C33.3 27.1999 33.3 27.1999 33.3 27.0999C33.3 26.9999 33.4 26.9999 33.4 26.9999C33.4 26.8999 33.4 26.6999 33.4 26.5999C33.4 26.4999 33.4 26.3999 33.4 26.2999C33.4 26.2999 33.5 26.1999 33.5 26.0999C33.5 25.9999 33.5 25.8999 33.4 25.7999C33.4 25.7999 33.4 25.7999 33.4 25.6999C33.5 25.5999 33.5 25.4999 33.5 25.3999V25.2999C33.5 25.2999 33.5 25.1999 33.5 25.0999C33.5 24.9999 33.5 24.8999 33.6 24.6999C33.6 24.4999 33.6 24.3999 33.6 24.1999C33.6 23.9999 33.6 23.7999 33.7 23.5999C33.7 23.4999 33.8 23.3999 33.9 23.2999C34 23.1999 34 23.0999 34.1 22.9999C34.1 22.8999 34.1 22.8999 34.1 22.7999C34.2 22.7999 34.2 22.6999 34.3 22.6999C34.3 22.5999 34.4 22.4999 34.4 22.3999C34.4 22.2999 34.4 22.2999 34.5 22.1999C34.6 22.1999 34.6 22.0999 34.7 21.8999C34.7 21.8999 34.7 21.7999 34.8 21.6999C34.8 21.5999 34.9 21.5999 34.9 21.4999C34.9 21.3999 35 21.2999 35 21.1999C35 21.1999 35 21.1999 35 21.0999C35.1 21.0999 35.1 20.9999 35.1 20.8999C35.2 20.7999 35.2 20.6999 35.2 20.5999C35.2 20.5999 35.3 20.5999 35.3 20.4999L35.4 20.3999C35.5 20.2999 35.6 20.1999 35.6 20.1999C35.7 20.0999 35.7 19.8999 35.7 19.7999C35.8 19.7999 35.8 19.6999 35.8 19.5999C36 19.5999 36.1 19.3999 36.1 19.2999V19.1999L36.2 19.0999C36.3 19.0999 36.4 19.0999 36.5 18.8999C36.6 18.6999 36.7 18.6999 36.7 18.6999L36.8 18.5999C36.9 18.5999 37 18.5999 37.1 18.5999C37.1 18.5999 37.2 18.5999 37.2 18.4999C37.3 18.4999 37.3 18.3999 37.4 18.3999C37.9 18.4999 38.4 18.3999 39.2 18.1999C39.3 18.1999 39.4 18.2999 39.5 18.2999C39.6 18.2999 39.7 18.1999 39.8 18.1999L39.9 18.0999C40 18.0999 40 18.1999 40.2 18.1999C40.3 18.1999 40.3 18.1999 40.4 18.0999C40.5 18.0999 40.8 18.0999 40.9 18.0999C41 18.1999 41.1 18.1999 41.2 18.0999C41.2 18.0999 41.2 18.0999 41.3 18.0999C41.4 18.0999 41.5 18.0999 41.6 18.0999H41.7C41.9 18.0999 42.1 17.9999 42.3 17.9999C42.4 17.9999 42.5 17.9999 42.7 17.9999H42.8C43 17.9999 43.2 17.9999 43.4 18.0999C43.5 18.0999 43.6 18.0999 43.7 18.0999C44.1 18.1999 44.7 18.1999 45.4 18.1999C45.6 18.1999 45.8 18.1999 46 18.1999C46.1 18.1999 46.1 18.2999 46.2 18.2999C46.3 18.2999 46.4 18.1999 46.4 18.1999H46.5C46.6 18.1999 46.6 18.2999 46.7 18.2999C46.8 18.2999 46.9 18.2999 47 18.1999C47.1 18.1999 47.2 18.2999 47.3 18.2999C47.3 18.2999 47.4 18.2999 47.4 18.1999C47.5 18.1999 47.6 18.1999 47.7 18.1999C48 18.1999 48.3 18.1999 48.6 18.1999C48.6 18.1999 48.7 18.2999 48.8 18.2999C48.8 18.2999 48.8 18.2999 48.9 18.2999H49C49.1 18.2999 49.2 18.1999 49.4 18.1999C49.5 18.2999 49.6 18.2999 49.8 18.1999C49.9 18.1999 49.9 18.1999 50 18.1999C50.1 18.1999 50.3 18.1999 50.4 18.1999C50.5 18.2999 50.6 18.3999 50.7 18.2999C50.8 18.3999 50.9 18.3999 50.9 18.3999L51 18.4999C51.1 18.4999 51.2 18.4999 51.4 18.5999C51.5 18.5999 51.5 18.5999 51.6 18.5999C51.6 18.6999 51.7 18.6999 51.8 18.6999C51.9 18.6999 51.9 18.6999 52 18.6999C52.1 18.6999 52.1 18.6999 52.2 18.6999L52.3 18.7999C52.4 18.8999 52.5 18.8999 52.6 18.9999C52.7 18.9999 52.8 18.9999 52.9 18.9999H53C53 18.9999 53 18.9999 53.1 18.9999C53.3 19.0999 53.7 19.0999 54 18.9999C54.1 19.0999 54.2 19.0999 54.3 19.0999H54.4C54.5 19.0999 54.6 19.0999 54.7 18.9999C54.7 18.9999 54.8 18.9999 55 18.9999C55.4 18.9999 55.8 19.0999 56 18.9999H56.1C56.1 18.9999 56.1 18.9999 56.2 18.9999C56.3 19.0999 56.4 19.0999 56.4 19.0999C56.5 19.0999 56.7 19.0999 56.8 19.0999C57 19.0999 57.3 19.0999 57.5 19.0999C57.6 19.0999 57.8 19.0999 57.9 19.1999C58.1 19.1999 58.3 19.2999 58.5 19.2999C58.5 19.2999 58.6 19.2999 58.7 19.2999C58.8 19.2999 59.1 19.2999 59.2 19.2999C59.2 19.2999 59.3 19.3999 59.4 19.3999H59.5H59.6H59.8C60 19.3999 60.1 19.3999 60.3 19.3999H60.4H60.5H60.6C60.7 19.4999 60.7 19.5999 60.8 19.5999C60.9 19.5999 61.1 19.5999 61.2 19.5999C61.3 19.5999 61.4 19.5999 61.4 19.5999C61.5 19.6999 61.6 19.6999 61.6 19.6999C61.8 19.6999 61.8 19.6999 62 19.7999C62 19.8999 62.1 19.8999 62.2 19.8999C62.3 19.8999 62.3 19.8999 62.4 19.8999C62.5 19.8999 62.6 19.8999 62.6 19.8999C62.7 19.8999 62.8 19.9999 62.9 19.9999C63 19.9999 63.1 19.9999 63.1 20.0999C63.1 20.1999 63.2 20.1999 63.3 20.1999C63.3 20.1999 63.4 20.1999 63.5 20.1999H63.4C63.4 20.2999 63.5 20.2999 63.6 20.2999C63.7 20.2999 63.8 20.3999 63.8 20.3999H63.9L64 20.4999C64 20.4999 64.1 20.5999 64.2 20.5999C64.3 20.5999 64.4 20.6999 64.4 20.6999C64.4 20.7999 64.4 20.8999 64.5 20.9999C64.6 21.0999 64.6 21.0999 64.7 21.0999C64.7 21.1999 64.7 21.2999 64.8 21.3999C64.8 21.4999 64.9 21.4999 65 21.5999V21.6999C65 21.7999 65.1 21.8999 65.1 21.8999C65.1 21.8999 65.1 21.9999 65.2 21.9999C65.2 22.0999 65.3 22.0999 65.3 22.2999C65.3 22.3999 65.4 22.4999 65.4 22.4999C65.4 22.6999 65.6 22.7999 65.6 22.7999C65.6 22.8999 65.6 22.9999 65.7 23.0999L65.8 23.1999C65.8 23.2999 65.8 23.2999 65.9 23.3999C65.9 23.4999 65.9 23.4999 66 23.5999C66 23.5999 66 23.5999 66.1 23.5999C66.1 23.6999 66.1 23.6999 66.1 23.7999C66.1 23.8999 66.1 24.0999 66.2 24.1999C66.2 24.1999 66.2 24.2999 66.3 24.2999C66.3 24.3999 66.3 24.5999 66.5 24.6999C66.4 24.9999 66.5 25.2999 66.6 25.4999C66.6 25.5999 66.6 25.5999 66.7 25.6999C66.7 25.7999 66.7 25.7999 66.7 25.7999C66.7 25.8999 66.7 25.9999 66.8 26.0999V26.1999C66.8 26.2999 66.9 26.3999 66.9 26.5999C66.8 26.6999 66.8 26.6999 66.8 26.8999C66.8 26.9999 66.8 26.9999 66.9 27.0999V27.1999C66.9 27.3999 67 27.5999 67.1 27.6999C67.1 27.6999 67.1 27.7999 67.2 27.7999C67.1 28.1999 67.2 28.5999 67.3 28.9999L67.4 29.1999C67.4 29.2999 67.4 29.2999 67.4 29.3999C67.4 29.4999 67.4 29.4999 67.4 29.5999C67.4 29.6999 67.3 29.7999 67.3 29.9999C67.3 30.0999 67.3 30.1999 67.4 30.1999C67.4 30.3999 67.4 30.7999 67.4 31.0999C67.4 31.2999 67.4 31.5999 67.4 31.7999C67.4 32.3999 67.5 33.0999 67.6 33.6999L67.7 34.1999C67.7 34.5999 67.8 34.8999 67.8 35.2999C67.8 35.3999 67.8 35.3999 67.8 35.3999C67.8 35.4999 67.8 35.5999 67.8 35.6999C67.8 35.7999 67.8 36.0999 67.8 36.3999C67.8 36.6999 67.8 36.8999 67.8 37.0999C67.8 37.0999 67.8 37.0999 67.8 37.1999V37.2999V37.3999C67.8 37.4999 67.8 37.4999 67.8 37.5999C67.8 37.6999 67.8 37.6999 67.9 37.7999C67.9 37.8999 67.9 38.1999 67.9 38.2999C67.9 38.4999 67.8 38.6999 67.9 39.1999C67.9 39.4999 67.9 39.6999 68 40.1999C68 40.1999 68 40.2999 68 40.3999V40.4999C68 40.5999 68.1 40.6999 68.1 40.6999C68.1 40.6999 68.1 40.6999 68 40.7999C68 40.7999 67.9 40.8999 67.9 40.9999C67.9 41.0999 67.9 41.1999 67.9 41.2999C67.9 41.3999 67.9 41.4999 67.9 41.5999V41.7999C67.9 41.9999 67.9 42.2999 68 42.4999V42.5999V42.6999C68 42.9999 68 43.1999 68.1 43.2999C68 43.3999 67.9 43.5999 68 43.8999V43.9999C68 44.0999 67.9 44.2999 67.9 44.4999C67.9 44.4999 67.9 44.4999 67.9 44.5999C67.9 44.6999 67.9 44.7999 68 44.7999C68 44.7999 68 44.7999 68 44.8999C68 44.9999 67.9 45.0999 67.9 45.1999C67.9 45.2999 68 45.2999 68 45.3999C68 45.4999 68 45.6999 68 45.7999C68 45.9999 68 46.2999 68 46.4999C68 46.6999 68 46.9999 68.1 47.2999C68.1 47.5999 68.2 47.8999 68.2 48.1999V48.2999C68.2 48.3999 68.2 48.4999 68.2 48.5999V48.6999V48.7999C68.2 48.7999 68.2 48.8999 68.3 48.8999C68.2 48.9999 68.3 49.0999 68.3 49.2999V49.3999C68.3 49.4999 68.2 49.4999 68.2 49.5999C68.2 49.6999 68.2 49.6999 68.2 49.7999C68.2 49.8999 68.2 49.8999 68.2 49.8999C68.2 49.9999 68.2 49.9999 68.2 50.0999C68.2 50.1999 68.2 50.3999 68.2 50.4999C68.2 50.4999 68.2 50.5999 68.2 50.6999C68.1 50.6999 68 50.7999 68 50.8999C68 50.9999 68 51.0999 68 51.1999L68.1 51.2999C68.1 51.3999 68.1 51.3999 68.1 51.4999C68.1 51.5999 68.1 51.5999 68.2 51.5999C68.2 51.6999 68.2 51.6999 68.2 51.7999C68.2 51.8999 68.2 51.9999 68.2 52.0999C67.7 51.3999 67.8 51.3999 67.8 51.3999Z" fill="#231F20"/>
</svg>
