<svg width="74" height="74" viewBox="0 0 74 74" fill="none" xmlns="http://www.w3.org/2000/svg">
<path d="M37 64.2877C21.9687 64.2877 9.71249 52.0314 9.71249 37.0002C9.71249 21.9689 21.9687 9.71265 37 9.71265C52.0312 9.71265 64.2875 21.9689 64.2875 37.0002C64.2875 52.0314 52.0312 64.2877 37 64.2877Z" fill="#001D26"/>
<path d="M37 11.3891C51.1063 11.3891 62.6109 22.8938 62.6109 37C62.6109 51.1063 51.1063 62.6109 37 62.6109C22.8938 62.6109 11.3891 51.1063 11.3891 37C11.3891 22.8938 22.8938 11.3891 37 11.3891ZM37 8.09375C21.0437 8.09375 8.09375 21.0437 8.09375 37C8.09375 52.9562 21.0437 65.9062 37 65.9062C52.9562 65.9062 65.9062 52.9562 65.9062 37C65.9062 21.0437 52.9562 8.09375 37 8.09375Z" fill="#31C5F0"/>
<path d="M46.5391 34.2828C44.9203 34.2828 44.3422 35.0922 44.3422 35.7859C44.3422 36.5375 44.6891 37.0578 46.8859 38.1562C50.1234 39.7172 51.1641 41.2203 51.1641 43.4172C51.1641 46.7125 48.6203 48.5047 45.2094 48.5047C43.4172 48.5047 41.8563 48.1578 40.9891 47.6375C40.8734 47.5797 40.8156 47.4641 40.8156 47.2906V44.2844C40.8156 44.0531 40.9312 43.9953 41.0469 44.1109C42.3188 44.9781 43.8219 45.325 45.2094 45.325C46.8281 45.325 47.5219 44.6312 47.5219 43.7062C47.5219 42.9547 47.0594 42.3188 44.9781 41.2203C42.0297 39.8328 40.8156 38.3875 40.8156 36.0172C40.8156 33.3578 42.8969 31.1609 46.5391 31.1609C48.3312 31.1609 49.5453 31.45 50.2391 31.7391C50.4125 31.8547 50.4703 32.0281 50.4703 32.1437V34.9766C50.4703 35.15 50.3547 35.2656 50.1813 35.2078C49.2563 34.6297 47.9266 34.2828 46.5391 34.2828ZM28.7906 36.7687C29.2531 36.8266 29.6578 36.8266 30.4672 36.8266C32.8953 36.8266 35.15 35.9594 35.15 32.7219C35.15 30.1203 33.5313 28.7906 30.7563 28.7906C29.9469 28.7906 29.1375 28.8484 28.7906 28.8484V36.7687ZM25.1484 25.7844C25.1484 25.6687 25.4375 25.5531 25.6109 25.5531C26.9406 25.4953 28.9062 25.4375 30.9297 25.4375C36.6531 25.4375 38.85 28.5594 38.85 32.6063C38.85 37.8672 35.0344 40.1219 30.4094 40.1219C29.6 40.1219 29.3687 40.0641 28.7906 40.0641V47.9844C28.7906 48.1578 28.7328 48.2156 28.5594 48.2156H25.3797C25.2063 48.2156 25.1484 48.1578 25.1484 47.9844V25.7844Z" fill="#31C5F0"/>
</svg>
