<svg width="65" height="65" viewBox="0 0 65 65" fill="none" xmlns="http://www.w3.org/2000/svg">
<path d="M32.4458 37.895C35.4493 37.895 37.8842 35.4601 37.8842 32.4566C37.8842 29.4531 35.4493 27.0183 32.4458 27.0183C29.4423 27.0183 27.0075 29.4531 27.0075 32.4566C27.0075 35.4601 29.4423 37.895 32.4458 37.895Z" fill="#00D8FF"/>
<path d="M32.4458 44.915C24.8083 44.915 18.135 44.0159 13.1408 42.3042C9.90167 41.1992 7.15 39.7259 5.18917 38.0467C3.10917 36.27 2.00417 34.3309 2.00417 32.4567C2.00417 28.86 5.9475 25.3392 12.5667 23.0425C17.9833 21.1575 25.0467 20.1067 32.435 20.1067C39.6933 20.1067 46.6592 21.125 52.0433 22.9884C55.1958 24.0717 57.85 25.48 59.735 27.04C61.7825 28.7517 62.8658 30.6259 62.8658 32.4567C62.8658 36.1942 58.4567 39.975 51.35 42.3259C46.3233 43.9942 39.6067 44.915 32.4458 44.915ZM32.4458 22.7067C25.4367 22.7067 18.5033 23.725 13.4333 25.4909C7.345 27.6142 4.615 30.5175 4.615 32.4567C4.615 34.4717 7.55083 37.6459 13.9858 39.845C18.7092 41.4592 25.1008 42.315 32.4458 42.315C39.3358 42.315 45.76 41.4484 50.5375 39.8559C57.2217 37.635 60.2767 34.4609 60.2767 32.4567C60.2767 31.4275 59.4967 30.2142 58.0775 29.0334C56.4417 27.6684 54.0583 26.4225 51.2092 25.4367C46.085 23.6817 39.4225 22.7067 32.4458 22.7067Z" fill="#00D8FF"/>
<path d="M20.1067 59.5617C19.0017 59.5617 18.0267 59.3234 17.2033 58.8467C14.0942 57.0484 13.0108 51.87 14.3217 44.9909C15.3942 39.3467 18.0158 32.7167 21.71 26.3142C25.3392 20.0309 29.6942 14.5059 33.995 10.7684C36.5083 8.58002 39.0542 6.97668 41.3508 6.13168C43.8533 5.21085 46.02 5.21085 47.6017 6.12085C50.8408 7.98418 51.9133 13.7042 50.3967 21.0275C49.3242 26.2275 46.7675 32.5 43.1925 38.7075C39.3792 45.3159 35.2625 50.6459 31.2867 54.1234C28.7083 56.3767 26.0542 58.0234 23.6275 58.8792C22.36 59.3342 21.1683 59.5617 20.1067 59.5617ZM22.8258 26.9642L23.9525 27.6142C20.4533 33.6809 17.8642 40.1917 16.8675 45.4784C15.665 51.8159 16.8242 55.6292 18.4925 56.5934C18.9042 56.8317 19.4458 56.9617 20.1067 56.9617C22.2625 56.9617 25.6533 55.5967 29.575 52.1734C33.3342 48.8909 37.2667 43.7775 40.9392 37.4184C44.3842 31.4492 46.8325 25.4475 47.8508 20.5184C49.27 13.6175 48.0458 9.39252 46.3017 8.38502C45.4133 7.87585 43.9725 7.94085 42.2392 8.58002C40.235 9.31668 37.9708 10.7575 35.6958 12.74C31.6117 16.2934 27.4408 21.58 23.9525 27.625L22.8258 26.9642Z" fill="#00D8FF"/>
<path d="M44.785 59.5943C41.8383 59.5943 38.1008 57.8176 34.2008 54.4593C29.8458 50.711 25.415 45.1318 21.71 38.7293C18.07 32.446 15.47 25.9135 14.3758 20.3126C13.7367 17.0409 13.6175 14.0401 14.0292 11.6243C14.4842 8.99178 15.5567 7.11761 17.1492 6.19678C20.3775 4.32261 25.87 6.25095 31.46 11.2234C35.425 14.7443 39.585 20.096 43.1708 26.2926C46.995 32.901 49.5625 39.1301 50.5808 44.3085C51.2416 47.6668 51.35 50.7868 50.8841 53.3218C50.3858 56.0193 49.2591 57.9368 47.6341 58.8793C46.8216 59.356 45.8575 59.5943 44.785 59.5943ZM23.9633 37.4293C27.4733 43.496 31.8283 48.9885 35.9016 52.4876C40.7875 56.691 44.6658 57.601 46.345 56.626C48.0891 55.6185 49.3675 51.491 48.0458 44.8176C47.0708 39.921 44.6116 33.9626 40.9283 27.6035C37.4725 21.6343 33.4967 16.5101 29.7375 13.1734C24.4725 8.49345 20.2042 7.44261 18.46 8.45011C17.5717 8.95928 16.9108 10.2484 16.5967 12.0684C16.2392 14.1701 16.3475 16.8568 16.9325 19.8143C17.9725 25.1335 20.4642 31.3843 23.9633 37.4293Z" fill="#00D8FF"/>
</svg>
