<svg width="74" height="74" viewBox="0 0 74 74" fill="none" xmlns="http://www.w3.org/2000/svg">
<path d="M37 65.9062C52.9645 65.9062 65.9062 52.9645 65.9062 37C65.9062 21.0355 52.9645 8.09375 37 8.09375C21.0355 8.09375 8.09375 21.0355 8.09375 37C8.09375 52.9645 21.0355 65.9062 37 65.9062Z" fill="#CC6699"/>
<path d="M52.5516 24.1657C52.2047 22.7782 51.2219 21.6219 49.7188 20.8126C46.7703 19.2516 42.0297 19.1938 37.6938 20.7547C35.0922 21.6797 30.1781 23.761 26.4781 27.1719C22.7781 30.6407 22.2 33.7047 22.4891 34.9188C23.125 38.2719 26.6516 40.6422 29.4266 42.6079C30.1781 43.1282 30.8719 43.5907 31.3922 44.0532C29.8313 44.8626 25.6109 47.2329 24.4547 49.7188C23.5875 51.6844 23.9922 53.1297 24.3391 53.7657C24.6859 54.5172 25.2641 55.0954 25.8422 55.2688C26.4203 55.4422 27.0563 55.5001 27.6922 55.5001C30.1781 55.5001 32.6063 54.1704 34.1094 51.9157C35.6125 49.661 35.7281 46.6547 35.0344 44.8047C36.0172 44.5735 37.0578 44.5735 38.2141 44.6891C40.4688 44.9782 41.5672 45.8454 42.0875 46.5391C42.6656 47.2907 42.7813 48.0422 42.7234 48.5047C42.6078 49.3719 41.9141 49.8922 41.5672 50.1235C41.2781 50.2969 41.0469 50.4704 41.1047 50.8172C41.2203 51.2797 41.6828 51.2219 41.8563 51.2219C42.3766 51.1063 44.2266 50.1813 44.3422 48.1001C44.4 46.8282 43.8797 45.5563 42.8969 44.5157C41.625 43.186 39.7172 42.4922 37.5203 42.5501C35.9016 42.5501 34.8031 42.7235 33.9359 43.0126L33.8781 42.9548C33.0688 42.0876 31.9703 41.2782 30.9875 40.4688C28.675 38.7344 26.5359 37.0579 26.6516 34.5719C26.825 31.4501 29.8891 28.386 35.8438 25.4376C41.1047 22.836 45.3828 22.7204 47.6375 23.5297C48.5625 23.8766 49.1984 24.3391 49.4297 24.8594C49.8922 25.8422 49.7188 27.1141 48.9094 28.5016C47.5797 30.8141 44.2266 33.7047 39.0813 34.2829C35.9594 34.6297 34.6297 33.2422 34.5719 33.1844C34.225 32.7797 33.9938 32.5485 33.5891 32.7797C33.1266 33.011 33.3578 33.6469 33.4734 33.8782C33.7047 34.5141 34.6875 35.6126 36.3641 36.1907C37.6938 36.6532 41.1047 36.9422 45.325 35.3235C50.1813 33.3579 53.5344 28.1547 52.5516 24.1657ZM32.6063 48.7938C32.5484 48.9094 32.5484 49.0251 32.4906 49.1407C32.4328 49.2563 32.375 49.3719 32.375 49.4876C32.1438 50.0079 31.7969 50.5282 31.3344 50.9907C30.0047 52.436 28.2125 52.8407 27.6344 52.4938C27.4609 52.3782 27.4031 52.2048 27.3453 51.9735C27.2297 51.2797 27.6344 49.8922 28.8484 48.6782C30.2938 47.1751 32.3172 46.0766 32.7797 45.8454C32.9531 46.886 32.8953 47.8688 32.6063 48.7938Z" fill="white"/>
</svg>
