<svg width="60" height="60" viewBox="0 0 60 60" fill="none" xmlns="http://www.w3.org/2000/svg">
<g clip-path="url(#clip0)">
<path d="M12.6059 37.9143C12.6059 41.3834 9.77203 44.2172 6.30293 44.2172C2.83395 44.2172 0 41.3834 0 37.9143C0 34.4453 2.83395 31.6113 6.30293 31.6113H12.6059V37.9143Z" fill="#E01E5A"/>
<path d="M15.7819 37.9143C15.7819 34.4453 18.6158 31.6113 22.0848 31.6113C25.5539 31.6113 28.3877 34.4453 28.3877 37.9143V53.696C28.3877 57.1651 25.5539 59.9989 22.0848 59.9989C18.6158 59.9989 15.7819 57.1651 15.7819 53.696V37.9143Z" fill="#E01E5A"/>
<path d="M22.0848 12.6059C18.6158 12.6059 15.7819 9.77203 15.7819 6.30293C15.7819 2.83395 18.6158 0 22.0848 0C25.5539 0 28.3877 2.83395 28.3877 6.30293V12.6059H22.0848Z" fill="#36C5F0"/>
<path d="M22.0847 15.791C25.5538 15.791 28.3876 18.625 28.3876 22.0939C28.3876 25.563 25.5538 28.3969 22.0847 28.3969H6.30293C2.83395 28.3969 0 25.563 0 22.0939C0 18.625 2.83395 15.791 6.30293 15.791H22.0847Z" fill="#36C5F0"/>
<path d="M47.3941 22.0939C47.3941 18.625 50.2281 15.791 53.697 15.791C57.1661 15.791 60 18.625 60 22.0939C60 25.563 57.1661 28.3969 53.697 28.3969H47.3941V22.0939Z" fill="#2EB67D"/>
<path d="M44.2181 22.0847C44.2181 25.5538 41.3843 28.3876 37.9152 28.3876C34.4462 28.3876 31.6122 25.5538 31.6122 22.0847V6.30293C31.6122 2.83395 34.4462 0 37.9152 0C41.3843 0 44.2181 2.83395 44.2181 6.30293V22.0847Z" fill="#2EB67D"/>
<path d="M37.9152 47.4023C41.3843 47.4023 44.2181 50.2363 44.2181 53.7053C44.2181 57.1744 41.3843 60.0082 37.9152 60.0082C34.4462 60.0082 31.6122 57.1744 31.6122 53.7053V47.4023H37.9152Z" fill="#ECB22E"/>
<path d="M37.9152 44.2172C34.4462 44.2172 31.6122 41.3834 31.6122 37.9143C31.6122 34.4453 34.4462 31.6113 37.9152 31.6113H53.6969C57.166 31.6113 59.9999 34.4453 59.9999 37.9143C59.9999 41.3834 57.166 44.2172 53.6969 44.2172H37.9152Z" fill="#ECB22E"/>
</g>
<defs>
<clipPath id="clip0">
<rect width="60" height="60" fill="white"/>
</clipPath>
</defs>
</svg>
