<svg width="60" height="60" viewBox="0 0 60 60" fill="none" xmlns="http://www.w3.org/2000/svg">
<g clip-path="url(#clip0)">
<path d="M15.3068 60.0001C15.2436 60.0001 15.1804 59.9917 15.1191 59.974C14.887 59.9076 14.7078 59.7236 14.6493 59.4901L0.0197943 0.831558C-0.0386862 0.598945 0.0329995 0.353254 0.207498 0.187903C0.381996 0.021618 0.632896 -0.0391041 0.863988 0.0262889L59.5095 16.7492C59.7425 16.8155 59.9217 16.9995 59.9792 17.2321C60.0377 17.4647 59.966 17.7104 59.7915 17.8767L15.7756 59.8124C15.6482 59.9347 15.4794 60.0001 15.3068 60.0001ZM1.61574 1.63589L15.6822 58.0411L58.0069 17.717L1.61574 1.63589Z" fill="black"/>
<path d="M37.2992 39.0442C37.237 39.0442 37.1738 39.0358 37.1115 39.018L7.80526 30.6542C7.57322 30.5879 7.39401 30.4039 7.33553 30.1713C7.27704 29.9387 7.34873 29.693 7.52323 29.5267L29.5204 8.55326C29.6949 8.38697 29.9458 8.32625 30.1778 8.39258C30.4098 8.4589 30.5891 8.64294 30.6475 8.87648L37.9566 38.2137C38.0142 38.4463 37.9425 38.692 37.7689 38.8573C37.6416 38.9788 37.4718 39.0442 37.2992 39.0442ZM9.30783 29.6874L36.3616 37.4084L29.6137 10.3263L9.30783 29.6874Z" fill="black"/>
<path d="M22.7168 34.6586C22.6546 34.6586 22.5914 34.6502 22.5291 34.6324C22.2961 34.5661 22.1179 34.3821 22.0594 34.1485L18.4289 19.5752C18.3714 19.3426 18.443 19.0978 18.6166 18.9316C18.7911 18.7653 19.042 18.7045 19.2731 18.7699L33.8328 22.9093C34.0658 22.9757 34.245 23.1597 34.3035 23.3923C34.362 23.6249 34.2903 23.8706 34.1167 24.0369L23.1875 34.4708C23.0592 34.5932 22.8904 34.6586 22.7168 34.6586ZM20.0239 20.3786L23.0932 32.6977L32.3321 23.8781L20.0239 20.3786Z" fill="black"/>
<path d="M19.0854 20.1038C19.0231 20.1038 18.9599 20.0954 18.8986 20.0777L4.33887 15.9373C4.10589 15.871 3.92668 15.687 3.8682 15.4544C3.80972 15.2218 3.8814 14.9761 4.05496 14.8098L14.9851 4.37678C15.1596 4.2105 15.4096 4.14884 15.6426 4.21517C15.8756 4.28149 16.0538 4.46553 16.1123 4.69908L19.7428 19.2724C19.8003 19.505 19.7287 19.7498 19.5551 19.916C19.4268 20.0375 19.258 20.1038 19.0854 20.1038ZM5.8405 14.9695L18.1478 18.469L15.0785 6.14987L5.8405 14.9695Z" fill="black"/>
<path d="M48.2058 28.4114C48.1436 28.4114 48.0804 28.403 48.0191 28.3853L33.4593 24.2459C33.2263 24.1796 33.0471 23.9955 32.9886 23.7629C32.9302 23.5303 33.0018 23.2846 33.1754 23.1183L44.1056 12.6844C44.2801 12.5181 44.53 12.4565 44.763 12.5228C44.996 12.5891 45.1743 12.7731 45.2327 13.0067L48.8633 27.58C48.9208 27.8126 48.8491 28.0574 48.6755 28.2237C48.5482 28.346 48.3784 28.4114 48.2058 28.4114ZM34.9609 23.2771L47.2682 26.7766L44.1999 14.4575L34.9609 23.2771Z" fill="black"/>
<path d="M26.3492 49.243C26.287 49.243 26.2238 49.2346 26.1625 49.2168L11.6027 45.0774C11.3697 45.0111 11.1905 44.8271 11.132 44.5945C11.0736 44.3618 11.1452 44.1162 11.3188 43.9499L22.248 33.5159C22.4225 33.3497 22.6725 33.288 22.9055 33.3543C23.1385 33.4207 23.3167 33.6047 23.3752 33.8382L27.0057 48.4115C27.0632 48.6442 26.9916 48.8889 26.818 49.0552C26.6916 49.1766 26.5228 49.243 26.3492 49.243ZM13.1043 44.1087L25.4116 47.6082L22.3424 35.289L13.1043 44.1087Z" fill="black"/>
</g>
<defs>
<clipPath id="clip0">
<rect width="60" height="60" fill="white"/>
</clipPath>
</defs>
</svg>
