<svg width="60" height="14" viewBox="0 0 60 14" fill="none" xmlns="http://www.w3.org/2000/svg">
<g clip-path="url(#clip0)">
<path fill-rule="evenodd" clip-rule="evenodd" d="M24.3202 1.97191C23.0056 0.657303 21.2865 0 19.5506 0C17.8315 0 16.0955 0.657303 14.7809 1.97191C12.1517 4.60112 12.1517 8.86517 14.7809 11.5112C17.4101 14.1404 21.6742 14.1404 24.3202 11.5112C26.9494 8.88202 26.9494 4.60112 24.3202 1.97191ZM22.4157 9.60674C20.8315 11.191 18.2697 11.191 16.7023 9.60674C15.118 8.02247 15.118 5.46067 16.7023 3.89326C18.2865 2.30899 20.8483 2.30899 22.4157 3.89326C23.9832 5.46067 23.9832 8.02247 22.4157 9.60674Z" fill="#2D8CFF"/>
<path fill-rule="evenodd" clip-rule="evenodd" d="M38.4776 1.97191C37.1629 0.657303 35.4438 0 33.7079 0C31.9888 0 30.2528 0.657303 28.9382 1.97191C26.309 4.60112 26.309 8.86517 28.9382 11.5112C31.5674 14.1404 35.8315 14.1404 38.4776 11.5112C41.1068 8.88202 41.1068 4.60112 38.4776 1.97191ZM36.5731 9.60674C34.9888 11.191 32.427 11.191 30.8596 9.60674C29.2753 8.02247 29.2753 5.46067 30.8596 3.89326C32.4438 2.30899 35.0056 2.30899 36.5731 3.89326C38.1405 5.46067 38.1405 8.02247 36.5731 9.60674Z" fill="#2D8CFF"/>
<path fill-rule="evenodd" clip-rule="evenodd" d="M2.69663 13.4494L3.37079 13.4831H13.4831L13.4494 12.809C13.3652 11.6966 12.573 10.8876 11.4607 10.8202L10.7865 10.7865H4.7191L12.809 2.69663L12.7753 2.02247C12.7247 0.910112 11.8989 0.0842697 10.7865 0.0337079L10.1124 0H0L0.0337079 0.674157C0.117978 1.76966 0.926966 2.59551 2.02247 2.66292L2.69663 2.69663H8.76404L0.674157 10.7865L0.707865 11.4607C0.775281 12.573 1.58427 13.382 2.69663 13.4494Z" fill="#2D8CFF"/>
<path fill-rule="evenodd" clip-rule="evenodd" d="M48.8427 4.04494C49.0786 4.44944 49.1461 4.88764 49.1798 5.39326L49.2135 6.06742V10.7865L49.2472 11.4607C49.3146 12.5562 50.1236 13.382 51.236 13.4494L51.9101 13.4831V6.06742L51.9438 5.39326C51.9775 4.88764 52.0449 4.43258 52.2809 4.02809C52.7528 3.2191 53.6124 2.69663 54.6067 2.69663C55.6011 2.69663 56.4775 3.23595 56.9494 4.04494C57.1854 4.44944 57.2528 4.90449 57.2697 5.39326L57.3034 6.06742V10.7865L57.3371 11.4607C57.4045 12.573 58.2135 13.382 59.3258 13.4494L60 13.4831V6.06742V5.39326C60 2.41011 57.5899 0 54.6067 0C52.9888 0 51.5562 0.707865 50.5618 1.82022C49.5674 0.707865 48.1348 0 46.5169 0C45.4045 0 44.3596 0.337079 43.5 0.926966C42.9775 0.337079 41.7978 0 41.1236 0V13.4831L41.7978 13.4494C42.927 13.382 43.736 12.573 43.7865 11.4607L43.8202 10.7865V6.06742L43.8539 5.39326C43.8876 4.88764 43.9551 4.43258 44.191 4.04494C44.6629 3.23595 45.5225 2.69663 46.5169 2.69663C47.5112 2.69663 48.3876 3.23595 48.8427 4.04494Z" fill="#2D8CFF"/>
</g>
<defs>
<clipPath id="clip0">
<rect width="60" height="13.4831" fill="white"/>
</clipPath>
</defs>
</svg>
